<svg width="40" height="40" viewBox="0 0 40 40" fill="none" xmlns="http://www.w3.org/2000/svg">
<g clip-path="url(#clip0_256_4467)">
<path d="M16.1398 39.7694C12.6411 39.046 9.37644 37.4323 6.81351 35.1595C0.233861 29.3247 -1.79961 20.1586 1.67628 12.0027C2.52986 9.99987 3.91756 7.96726 5.63697 6.20139L7.15282 4.64456L7.25974 13.7566C7.36207 22.4784 7.38513 22.9178 7.79833 24.0169C8.62496 26.2157 9.51117 27.6156 11.0368 29.1327C14.9777 33.0514 20.7582 34.0294 25.6721 31.6088C30.2909 29.3336 33.2027 24.3864 32.8644 19.3893C32.6371 16.0326 31.5065 13.5713 29.0657 11.1188C27.22 9.26445 25.0485 8.05316 22.6844 7.55926C20.2791 7.05675 20.3945 6.98332 20.3945 9.01618V10.7712L21.7131 11.0138C26.82 11.9534 30.1975 16.9606 29.1331 22.0138C28.7931 23.6278 28.0348 25.053 26.8175 26.3658C24.9676 28.361 22.3649 29.3146 20.0923 29.3102C16.3345 29.303 13.1967 27.1708 11.6759 24.0179C11.6759 24.0179 11.2775 23.1167 11.1495 22.5597C10.3966 19.2846 10.8778 12.3903 10.8778 12.3903L10.8195 2.30964L11.4155 2.0019C11.7434 1.83265 12.0577 1.69416 12.1142 1.69416C12.1706 1.69416 12.2423 6.32422 12.2734 11.9832C12.2734 11.9832 11.5497 19.4013 12.4441 22.244C12.5731 22.6542 12.8181 23.3557 12.8181 23.3557C13.6021 24.9506 14.8587 26.3536 16.4915 27.1258C17.7309 27.712 18.3549 27.9772 20.1885 27.9772C21.3865 27.9772 22.4478 27.5997 23.6691 27.0388C25.1087 26.3777 26.7601 24.625 27.3703 23.0246C29.0517 18.6154 26.7105 13.8716 22.2002 12.5489C20.3569 12.0083 20.3945 11.9785 20.3945 13.9798V15.728L21.2793 15.9643C24.4687 16.816 25.4419 21.0845 22.9381 23.2778C22.0535 24.0527 21.2564 24.3953 19.862 24.3953C18.3721 24.3953 16.9419 23.4948 16.2066 22.1137C15.765 21.284 15.7277 20.4971 15.7277 20.1367C15.7277 16.8075 15.6554 10.82 15.6554 10.82L15.5958 0.549292L16.0537 0.435735C16.3055 0.373277 17.3234 0.218734 18.3157 0.0923031C21.6808 -0.336477 26.6593 0.763128 30.004 2.67389C34.5639 5.27893 38.0142 9.754 39.4508 14.9265C39.9449 16.7057 40 17.223 40 20.0851C40 22.9345 39.9437 23.4689 39.46 25.2092C37.5061 32.2393 32.5359 37.2648 25.4291 39.3961C23.9335 39.8447 23.2328 39.9302 20.5936 39.9864C18.4638 40.0318 17.0834 39.9645 16.1398 39.7694Z" fill="#C60C30"/>
</g>
<defs>
<clipPath id="clip0_256_4467">
<rect width="40" height="40" fill="white"/>
</clipPath>
</defs>
</svg>
