<svg width="82" height="40" viewBox="0 0 82 40" fill="none" xmlns="http://www.w3.org/2000/svg">
<path d="M42.0799 30.2309C40.9755 30.1573 39.7019 29.9636 38.6974 29.6726C38.5092 29.6181 37.7302 29.3317 37.532 29.2408C34.035 27.6205 31.5987 24.0836 31.5987 19.9803C31.5987 14.3522 36.1766 9.76788 41.8072 9.76788C47.3878 9.76788 51.9348 14.274 52.013 19.8385H55.701C55.6228 12.241 49.4222 6.08369 41.8072 6.08369C34.1468 6.08369 27.9117 12.3164 27.9117 19.9803C27.9117 25.2638 30.8824 29.859 35.2322 32.2067C36.0176 32.6222 37.1448 33.0504 37.5275 33.1677C38.7674 33.5368 40.2891 33.7823 41.6436 33.8851C42.1036 33.9196 43.7098 33.9378 44.178 33.9396H69.5747V30.2655H44.2207C43.8835 30.2655 42.4099 30.2527 42.0799 30.2309ZM44.2207 24.4619C43.9526 24.4619 42.5499 24.4528 42.2908 24.431C41.8518 24.3937 41.2154 24.3282 40.8064 24.2346C40.3446 24.1109 39.911 23.9472 39.7155 23.84C38.3456 23.0989 37.412 21.6496 37.412 19.9803C37.412 17.5518 39.3783 15.5824 41.8072 15.5824C44.1853 15.5824 46.1188 17.4745 46.1961 19.8385H49.7395C49.665 15.5196 46.1452 12.0391 41.8072 12.0391C37.4211 12.0391 33.8659 15.5942 33.8659 19.9803C33.8659 23.0735 35.6385 25.7448 38.2202 27.0532C38.6174 27.2859 39.3646 27.5296 39.5774 27.5851C40.3064 27.7769 41.2854 27.9078 42.0799 27.966C42.3736 27.9906 43.8117 28.0015 44.1153 28.0033V28.0088H69.5738V24.4619H44.2207ZM25.6391 33.926H21.9266V9.77606H16.5014V6.06187H25.6391V33.926ZM12.4253 11.6318V15.2032H16.5014V33.926H20.0685V11.6318H12.4253Z" fill="#D91920"/>
<path d="M63.0148 6.32141C61.6776 6.32141 60.5686 7.38794 60.5686 8.72632C60.5686 10.0647 61.6776 11.174 63.0148 11.174C64.3929 11.174 65.4592 10.0647 65.4592 8.72632C65.4592 7.38794 64.3929 6.32141 63.0148 6.32141ZM63.0148 10.7793C61.9103 10.7793 60.9586 9.91104 60.9586 8.72632C60.9586 7.6016 61.9103 6.71147 63.0148 6.71147C64.1184 6.71147 65.0656 7.6016 65.0656 8.72632C65.0656 9.91104 64.1184 10.7793 63.0148 10.7793Z" fill="#D91920"/>
<path d="M63.9459 9.38517C63.9459 9.11513 63.9059 8.86418 63.5968 8.76508C63.9841 8.63051 64.0222 8.37684 64.0222 8.22318C64.0222 7.60218 63.4586 7.52308 63.2268 7.52308H62.1605V9.92798H62.605V8.94147H62.955C63.4586 8.94147 63.5004 9.17332 63.5004 9.38517C63.5004 9.79523 63.5004 9.87252 63.5968 9.92798H64.0422C63.9459 9.83069 63.9841 9.75523 63.9459 9.38517ZM63.1296 8.59051H62.605V7.83312H63.0541C63.365 7.83312 63.5759 7.93132 63.5759 8.22318C63.5759 8.37684 63.5004 8.59051 63.1296 8.59051Z" fill="#D91920"/>
</svg>
