<svg width="40" height="40" viewBox="0 0 40 40" fill="none" xmlns="http://www.w3.org/2000/svg">
<path d="M28.881 40C34.7852 40 39.5715 35.2136 39.5715 29.3095C39.5715 23.4053 34.7852 18.619 28.881 18.619C22.9768 18.619 18.1906 23.4053 18.1906 29.3095C18.1906 35.2136 22.9768 40 28.881 40Z" fill="#97CF26"/>
<path d="M8.78576 34.2857C11.534 34.2857 13.762 32.0577 13.762 29.3095C13.762 26.5612 11.534 24.3333 8.78576 24.3333C6.03748 24.3333 3.80957 26.5612 3.80957 29.3095C3.80957 32.0577 6.03748 34.2857 8.78576 34.2857Z" fill="#A169F7"/>
<path d="M28.8811 16.0952C32.6813 16.0952 35.762 13.0145 35.762 9.21426C35.762 5.41403 32.6813 2.33331 28.8811 2.33331C25.0808 2.33331 22.0001 5.41403 22.0001 9.21426C22.0001 13.0145 25.0808 16.0952 28.8811 16.0952Z" fill="#FF6163"/>
<path d="M8.78571 18C13.638 18 17.5714 14.0665 17.5714 9.21424C17.5714 4.36203 13.638 0.428528 8.78571 0.428528C3.9335 0.428528 0 4.36203 0 9.21424C0 14.0665 3.9335 18 8.78571 18Z" fill="#00AAFF"/>
</svg>
