<svg width="1191" height="738" viewBox="0 0 1191 738" fill="none" xmlns="http://www.w3.org/2000/svg">
<path d="M611.054 455.624C607.398 461.409 603.266 466.975 598.678 472.297C594.138 477.625 589.214 482.748 583.906 487.665C573.383 497.552 560.939 506.165 546.863 513.305C539.738 516.832 532.063 519.804 523.929 522.185C515.777 524.565 507.099 526.19 498.06 527.029C488.992 527.834 479.591 527.742 470.085 526.755C460.641 525.884 451.161 524.504 441.722 522.627C422.725 518.993 404.152 512.764 387.023 504.282C369.902 495.677 354.969 484.602 343.384 471.919C331.973 459.212 323.718 445.417 319.103 431.342C314.455 417.31 312.677 403.249 313.831 389.654C315.951 362.471 328.3 337.398 348.046 316.802C367.959 296.14 395.067 280.151 427.268 270.075C459.339 259.987 495.796 255.906 533.146 257.071C570.497 258.235 608.809 264.142 646.156 273.436C655.493 275.757 664.802 278.233 674.043 280.941C683.284 283.649 692.498 286.611 701.585 289.798C719.741 296.211 737.536 303.425 754.856 311.396C789.418 327.283 822.335 346.143 851.234 368.063C865.717 379.019 879.051 390.751 891.072 403.113C903.054 415.521 913.501 428.568 922.249 442.052C930.927 455.564 937.782 469.449 942.699 483.474C944.002 486.983 945.006 490.493 946.077 493.99C947.148 497.487 947.991 501.015 948.686 504.567C949.381 508.119 950.041 511.573 950.69 515.067C951.339 518.562 951.704 522.062 951.951 525.538C953.201 539.444 952.893 553.178 951.029 566.601C950.161 573.362 948.683 579.987 946.603 586.437C944.492 592.886 941.718 599.122 938.303 605.097C931.476 617.068 922.238 627.954 910.845 637.452C899.456 646.911 886.343 655.134 871.765 661.957C842.646 675.594 808.863 684.128 773.457 688.797C737.937 693.358 700.902 694.46 663.204 692.077C625.544 689.819 587.508 684.302 549.871 675.64C540.466 673.441 531.091 671.088 521.775 668.478C517.135 667.135 512.467 665.838 507.857 664.449C503.246 663.06 498.607 661.662 494.032 660.152C475.666 654.279 457.493 647.796 439.636 640.706C403.826 626.556 369.5 609.775 337.282 590.669C305.024 571.517 275.436 549.838 249.224 526.152C222.923 502.431 200.789 476.621 183.525 449.543C166.128 422.398 154.794 394.106 150.034 365.943C148.876 358.903 148.211 351.895 148.045 344.948C147.842 337.952 148.162 331.027 149.005 324.206C150.634 310.598 154.431 297.48 160.324 285.106C161.027 283.542 161.826 282.027 162.642 280.506C163.458 278.985 164.246 277.456 165.091 275.998L170.19 267.15C173.626 261.269 177.178 255.437 180.847 249.652C188.217 238.1 196.055 226.771 204.754 215.767C213.33 204.73 222.773 194.146 233.043 184.057C243.359 173.949 254.751 164.517 267.139 155.828C291.978 138.3 321.702 124.781 354.971 115.882C388.236 107.025 424.731 103.14 461.968 103.071C499.206 103.003 537.306 106.502 575.141 112.216L582.237 113.298L589.324 114.466C594.057 115.214 598.764 116.107 603.5 116.9C608.236 117.692 612.94 118.65 617.664 119.538C622.389 120.425 627.226 121.411 631.955 122.496C650.862 126.957 669.563 132.407 687.902 138.801C724.328 151.519 759.892 166.163 794.27 182.601C828.685 198.91 862.102 216.602 894.332 235.576C926.645 254.507 957.552 274.846 986.83 296.446C1016.02 318.122 1043.48 341.22 1067.43 366.16C1079.46 378.62 1090.38 391.552 1100.09 404.851C1109.88 418.228 1117.99 432.048 1124.29 446.102C1127.43 453.16 1130 460.272 1131.99 467.396C1133.92 474.509 1135.34 481.62 1136.24 488.696C1137.98 502.77 1138.22 516.706 1136.97 530.379C1134.6 557.746 1126.55 583.889 1113.09 607.947C1099.58 632.09 1079.95 653.461 1055.06 671.113C1042.57 679.884 1028.82 687.656 1013.97 694.338C999.108 700.967 983.281 706.561 966.65 711.065C933.614 719.957 898.978 726.468 863.149 730.52C827.461 734.647 790.977 736.951 753.932 737.418C716.927 737.918 679.49 736.796 641.81 734.056C604.115 731.361 566.229 726.983 528.36 720.946C490.409 714.961 452.569 706.925 415.159 696.908C396.456 691.876 377.812 686.097 359.514 679.883C341.216 673.669 323.098 667.05 305.177 659.963C269.124 645.922 234.294 629.628 201.143 611.295C168.054 592.811 136.949 571.747 109.949 548.085C103.165 542.192 96.7196 536.103 90.509 529.907C87.3775 526.818 84.4804 523.676 81.4041 520.505C78.3279 517.334 75.5698 514.145 72.8148 510.892C61.6315 497.954 51.742 484.557 43.2448 470.836C26.1971 443.419 14.8788 414.933 8.26313 386.706C-4.54813 330.158 -1.51312 274.542 17.1749 223.401C26.2939 197.852 39.045 173.542 55.2426 150.824C71.483 128.1 91.4901 107.294 114.899 88.7856C126.653 79.5644 139.267 70.9686 152.677 63.0414C166.117 55.1608 180.351 47.9838 195.302 41.5488C225.242 28.6915 257.787 18.7501 292.303 11.9184C326.746 5.1548 362.675 1.06332 399.583 -0.298237C418.015 -1.04123 436.553 -1.06619 455.356 -0.6542C474.227 -0.0602999 493.279 1.53455 512.37 4.11822C550.46 9.3878 588.445 17.9254 625.527 29.5518C662.463 41.1379 698.538 55.0107 733.312 71.0008C802.822 102.789 867.35 141.451 926.453 183.868C985.692 226.33 1039.24 272.895 1086.01 322.612C1109.39 347.429 1130.39 373.214 1148.82 399.727C1157.98 412.994 1166.14 426.506 1173.27 440.19C1180.47 453.872 1186.12 467.766 1190.15 481.713L1188.71 481.731C1184.36 467.885 1178.42 454.115 1170.95 440.577C1163.53 427.036 1155.13 413.672 1145.79 400.553C1127.01 374.326 1105.68 348.853 1082.02 324.372C1058.44 299.865 1033.11 276.163 1006.18 253.396C979.34 230.606 951.051 208.718 921.452 187.833C891.901 166.958 861.012 147.182 828.947 128.61C796.956 110.007 763.634 92.8782 729.234 77.3506C694.925 61.8649 659.381 48.4526 623.026 37.2745C586.797 26.1085 549.718 17.965 512.568 13.0151C494.066 10.6109 475.611 9.15976 457.34 8.6726C439.115 8.37348 420.777 8.46706 402.787 9.25083C366.76 10.7438 331.697 14.8683 298.078 21.5678C264.556 28.3022 232.966 38.063 203.927 50.6593C189.444 56.9595 175.668 63.9847 162.672 71.697C149.706 79.4294 137.516 87.8088 126.162 96.7933C103.513 114.857 84.185 135.15 68.5307 157.301C52.8701 179.465 40.5484 203.163 31.7426 228.055C22.8026 252.892 17.5701 278.855 16.1268 305.538C15.0632 332.317 16.9896 359.591 23.3932 386.927C29.5667 414.216 40.9034 441.469 57.0601 467.862C73.4038 494.155 94.9511 519.13 120.876 541.83C146.713 564.588 176.657 584.9 208.72 602.869C241.027 620.787 274.975 636.719 310.122 650.459C327.684 657.431 345.495 663.973 363.479 670.084C381.462 676.196 399.461 681.821 417.776 686.785C454.463 696.634 491.568 704.574 528.788 710.539C566.083 716.57 603.401 720.973 640.54 723.725C677.697 726.513 714.621 727.71 751.125 727.307C787.619 726.941 823.569 724.767 858.742 720.798C893.866 716.901 927.827 710.589 960.223 701.937C976.274 697.627 991.555 692.269 1005.92 685.916C1020.21 679.523 1033.45 672.088 1045.49 663.694C1069.51 646.755 1088.49 626.233 1101.59 603.036C1114.7 579.777 1122.58 554.496 1124.98 528.022C1126.24 514.822 1126.04 501.362 1124.4 487.768C1123.58 481.018 1122.25 474.233 1120.43 467.444C1118.57 460.689 1116.15 453.944 1113.18 447.251C1107.16 433.765 1099.41 420.501 1090.04 407.659C1080.61 394.735 1070.02 382.166 1058.35 370.056C1035.07 345.759 1008.2 323.017 979.469 301.638C950.646 280.285 920.214 260.171 888.39 241.44C856.576 222.659 823.592 205.136 789.622 188.971C755.776 172.725 720.759 158.238 684.888 145.644C667.061 139.399 648.881 134.068 630.499 129.692C625.902 128.634 621.43 127.689 616.737 126.8C612.045 125.91 607.425 124.988 602.755 124.182C598.086 123.376 593.436 122.499 588.781 121.752L581.787 120.589L574.798 119.516C537.521 113.821 500.147 110.303 463.702 110.339C427.257 110.375 391.802 114.081 359.508 122.609C327.163 131.195 298.25 144.273 274.074 161.252C261.937 169.723 250.77 178.921 240.651 188.781C230.522 198.681 221.205 209.068 212.736 219.901C204.188 230.708 196.4 241.921 189.05 253.348C185.408 259.074 181.868 264.848 178.428 270.67L173.335 279.443C172.487 280.911 171.703 282.376 170.936 283.835C170.169 285.293 169.371 286.754 168.685 288.258C163.004 300.196 159.341 312.851 157.765 325.978C156.966 332.547 156.657 339.211 156.842 345.944C157.009 352.682 157.656 359.477 158.78 366.303C163.349 393.721 174.319 421.271 191.197 447.715C208.025 474.227 229.621 499.505 255.3 522.748C280.979 546.041 309.979 567.369 341.608 586.224C373.293 605.079 407.06 621.65 442.294 635.637C459.895 642.653 477.774 649.073 495.929 654.896C500.444 656.399 505.014 657.766 509.575 659.162C514.136 660.559 518.689 661.877 523.259 663.189C532.396 665.769 541.606 668.096 550.86 670.273C587.904 678.875 625.35 684.401 662.446 686.74C699.569 689.165 736.054 688.165 771.062 683.76C805.935 679.253 839.095 670.922 867.572 657.72C881.806 651.114 894.623 643.146 905.774 633.976C916.86 624.787 925.87 614.254 932.553 602.669C935.882 596.882 938.598 590.845 940.68 584.602C942.726 578.337 944.187 571.899 945.053 565.329C946.931 552.145 947.279 538.653 946.095 524.989C945.874 521.586 945.318 518.151 944.9 514.723C944.483 511.295 943.758 507.844 942.994 504.425C942.229 501.006 941.352 497.544 940.466 494.112C939.58 490.679 938.462 487.234 937.186 483.798C932.421 470.065 925.762 456.464 917.321 443.223C908.813 429.979 898.631 417.158 886.934 404.961C875.157 392.793 862.084 381.242 847.879 370.453C819.492 348.823 787.092 330.124 752.912 314.325C735.806 306.396 718.229 299.208 700.291 292.807C682.316 286.495 664.002 281.051 645.484 276.515C608.518 267.31 570.745 261.275 533.814 260.123C496.882 258.971 460.958 262.89 429.388 272.762C397.638 282.627 370.889 298.321 351.215 318.625C331.701 338.852 319.422 363.52 317.277 390.248C316.1 403.585 317.801 417.384 322.32 431.16C326.799 444.929 334.847 458.427 345.993 470.862C357.272 483.255 371.827 494.082 388.525 502.502C405.298 510.831 423.491 516.958 442.105 520.544C451.404 522.408 460.743 523.784 470.049 524.661C479.334 525.66 488.525 525.798 497.405 525.071C506.277 524.282 514.8 522.722 522.811 520.421C530.834 518.114 538.408 515.222 545.441 511.78C559.499 504.804 571.945 496.352 582.486 486.621C587.818 481.798 592.77 476.742 597.34 471.451C601.949 466.198 606.108 460.702 609.797 454.987L611.054 455.624Z" fill="#D4ECDC" fill-opacity="0.36"/>
</svg>
