<svg width="40" height="40" viewBox="0 0 40 40" fill="none" xmlns="http://www.w3.org/2000/svg">
<path d="M32.1621 15.1166C30.5869 15.1164 29.0513 14.6222 27.7716 13.7035C27.7001 13.8951 27.572 14.0604 27.4043 14.1776C27.2367 14.2947 27.0375 14.3582 26.833 14.3596H13.2678C13.0001 14.3596 12.7434 14.2532 12.5541 14.064C12.3648 13.8747 12.2585 13.6179 12.2585 13.3503C12.2585 13.0826 12.3648 12.8259 12.5541 12.6366C12.7434 12.4473 13.0001 12.3409 13.2678 12.3409H26.3081C25.483 11.3242 24.9373 10.1098 24.7249 8.81767C24.5125 7.52555 24.6407 6.20037 25.0969 4.97296C23.4563 4.50154 21.7574 4.26369 20.0504 4.26644C11.1482 4.26644 3.90137 10.6049 3.90137 18.3968C3.90137 26.1887 11.1482 32.5272 20.0504 32.5272C21.7159 32.5253 23.3732 32.2943 24.9758 31.8409L30.5573 35.3937C30.7097 35.4914 30.8856 35.5464 31.0665 35.5528C31.2474 35.5593 31.4267 35.5169 31.5857 35.4302C31.7446 35.3435 31.8773 35.2157 31.9698 35.0601C32.0624 34.9045 32.1114 34.7269 32.1117 34.5458V27.7532C33.3746 26.5417 34.3823 25.0898 35.0757 23.4829C35.769 21.8761 36.1339 20.1468 36.1489 18.3968C36.1445 17.0224 35.9126 15.6582 35.4626 14.3596C34.4342 14.8592 33.3055 15.1181 32.1621 15.1166V15.1166ZM23.8353 24.4527H16.2655C15.9978 24.4527 15.741 24.3464 15.5518 24.1571C15.3625 23.9678 15.2561 23.7111 15.2561 23.4434C15.2561 23.1757 15.3625 22.919 15.5518 22.7297C15.741 22.5404 15.9978 22.4341 16.2655 22.4341H23.8353C24.103 22.4341 24.3597 22.5404 24.549 22.7297C24.7383 22.919 24.8446 23.1757 24.8446 23.4434C24.8446 23.7111 24.7383 23.9678 24.549 24.1571C24.3597 24.3464 24.103 24.4527 23.8353 24.4527ZM27.1156 19.4061H12.9852C12.7175 19.4061 12.4608 19.2998 12.2715 19.1105C12.0822 18.9212 11.9759 18.6645 11.9759 18.3968C11.9759 18.1291 12.0822 17.8724 12.2715 17.6831C12.4608 17.4939 12.7175 17.3875 12.9852 17.3875H27.1156C27.3833 17.3875 27.64 17.4939 27.8293 17.6831C28.0185 17.8724 28.1249 18.1291 28.1249 18.3968C28.1249 18.6645 28.0185 18.9212 27.8293 19.1105C27.64 19.2998 27.3833 19.4061 27.1156 19.4061Z" fill="#5DB77D"/>
<path d="M32.1631 12.5931C34.9503 12.5931 37.2097 10.3337 37.2097 7.54657C37.2097 4.75942 34.9503 2.5 32.1631 2.5C29.376 2.5 27.1166 4.75942 27.1166 7.54657C27.1166 10.3337 29.376 12.5931 32.1631 12.5931Z" fill="#5DB77D"/>
</svg>
