<svg width="50" height="40" viewBox="0 0 50 40" fill="none" xmlns="http://www.w3.org/2000/svg">
<path fill-rule="evenodd" clip-rule="evenodd" d="M8.75 36.25C14.1016 36.25 18.1478 29.0841 21.7751 21.2608C23.5208 17.468 25.1487 13.4939 26.7767 10.1248C28.5644 6.38769 30.3982 3.75 32.6419 3.75C34.5438 3.75 36.3336 5.32959 38.1148 7.80466C41.8079 12.9433 45 21.6456 45 27.3531C45 32.1344 42.607 36.25 37.7029 36.25H8.75Z" fill="#64CDFF"/>
<path fill-rule="evenodd" clip-rule="evenodd" d="M22.5 20.9702C18.608 13.2006 16.8458 7.5 13.4034 7.5C11.2642 7.5 8.85515 9.72116 6.67448 13.361C4.33828 17.2235 2.5 22.6737 2.5 28.5382C2.5 33.1691 4.78893 36.25 8.70975 36.25C14.3743 36.25 18.6596 28.9452 22.5 20.9702Z" fill="#2855AF"/>
</svg>
