<svg width="40" height="40" viewBox="0 0 40 40" fill="none" xmlns="http://www.w3.org/2000/svg">
<path fill-rule="evenodd" clip-rule="evenodd" d="M19.6788 40V31.2088L32.2225 25.5619L19.6788 40Z" fill="#F26D5B"/>
<path fill-rule="evenodd" clip-rule="evenodd" d="M20 0C28.69 0 35.7225 7.03312 35.7225 15.6887C35.7225 24.3619 28.6894 31.3775 20 31.3775C11.3107 31.3775 4.27753 24.345 4.27753 15.6887C4.27753 7.0325 11.31 0 20 0Z" fill="#F26D5B"/>
<path fill-rule="evenodd" clip-rule="evenodd" d="M10.465 18.1406H12.7812C13.0499 18.1418 13.3073 18.249 13.4972 18.439C13.6872 18.629 13.7945 18.8863 13.7956 19.155V21.455C13.7945 21.7237 13.6872 21.981 13.4972 22.171C13.3073 22.361 13.0499 22.4682 12.7812 22.4694H10.465C10.1963 22.4682 9.93898 22.361 9.749 22.171C9.55901 21.981 9.45177 21.7237 9.45062 21.455V19.155C9.45177 18.8863 9.55901 18.629 9.749 18.439C9.93898 18.249 10.1963 18.1418 10.465 18.1406ZM15.825 13.0625H18.125C18.3937 13.0636 18.651 13.1709 18.841 13.3609C19.031 13.5509 19.1382 13.8082 19.1394 14.0769V21.4481C19.1382 21.7168 19.031 21.9741 18.841 22.1641C18.651 22.3541 18.3937 22.4613 18.125 22.4625H15.825C15.5563 22.4613 15.299 22.3541 15.109 22.1641C14.919 21.9741 14.8118 21.7168 14.8106 21.4481V14.0831C14.8118 13.8144 14.919 13.5571 15.109 13.3671C15.299 13.1771 15.5563 13.0699 15.825 13.0687V13.0625ZM21.1662 15.8581H23.4825C23.7512 15.8593 24.0085 15.9665 24.1985 16.1565C24.3885 16.3465 24.4957 16.6038 24.4969 16.8725V21.4537C24.4957 21.7224 24.3885 21.9798 24.1985 22.1697C24.0085 22.3597 23.7512 22.467 23.4825 22.4681H21.1662C20.8976 22.467 20.6402 22.3597 20.4502 22.1697C20.2603 21.9798 20.153 21.7224 20.1519 21.4537V16.8725C20.153 16.6038 20.2603 16.3465 20.4502 16.1565C20.6402 15.9665 20.8976 15.8593 21.1662 15.8581ZM26.6437 9.2475H28.9437C29.2124 9.24865 29.4698 9.35589 29.6597 9.54587C29.8497 9.73586 29.957 9.9932 29.9581 10.2619V21.4537C29.957 21.7224 29.8497 21.9798 29.6597 22.1697C29.4698 22.3597 29.2124 22.467 28.9437 22.4681H26.6437C26.3751 22.467 26.1177 22.3597 25.9277 22.1697C25.7378 21.9798 25.6305 21.7224 25.6294 21.4537V10.2625C25.6305 9.99382 25.7378 9.73648 25.9277 9.5465C26.1177 9.35652 26.3751 9.24927 26.6437 9.24812V9.2475Z" fill="white"/>
</svg>
