<svg width="40" height="40" viewBox="0 0 40 40" fill="none" xmlns="http://www.w3.org/2000/svg">
<g clip-path="url(#clip0_256_4567)">
<path fill-rule="evenodd" clip-rule="evenodd" d="M18.1907 20.8573C18.8718 21.8362 19.2704 23.0327 19.2704 24.3338C19.2704 27.663 16.6917 30.3261 13.3337 30.3261C9.97655 30.3261 7.39698 27.6623 7.39698 24.3338C7.39698 21.0052 9.97655 18.3415 13.3344 18.3415C14.8322 18.3415 16.1724 18.8746 17.2004 19.7576L21.5646 14.5934C19.3326 13.0294 16.5021 12.112 13.3344 12.1112C5.69405 12.1112 0.000711111 17.4379 0 24.3338C0 31.2296 5.69405 36.5556 13.3337 36.5556C20.9733 36.5563 26.6667 31.2303 26.6667 24.3345C26.6667 21.4694 25.6821 18.8781 23.986 16.8244L18.1907 20.8573Z" fill="#26A4F0"/>
<path fill-rule="evenodd" clip-rule="evenodd" d="M34.3069 7.66667L40.0003 3.37444C39.3187 2.47984 38.52 1.68186 37.6211 1L33.3337 6.49541C33.7026 6.83829 34.0279 7.23261 34.3069 7.66667Z" fill="#26A4F0"/>
</g>
<defs>
<clipPath id="clip0_256_4567">
<rect width="40" height="40" fill="white"/>
</clipPath>
</defs>
</svg>
