<svg width="40" height="40" viewBox="0 0 40 40" fill="none" xmlns="http://www.w3.org/2000/svg">
<path d="M14.5908 7.22879C14.9484 6.2962 15.4401 5.43763 16.1703 4.74189C19.0909 1.9145 23.9188 2.62505 25.9007 6.17778C27.3908 8.87193 28.9703 11.5069 30.5051 14.1714C33.0681 18.5976 35.6608 23.0236 38.194 27.4646C40.3249 31.1801 38.0151 35.8727 33.7833 36.5092C31.1905 36.8941 28.7616 35.7099 27.4206 33.4005C25.1705 29.5073 22.9055 25.6142 20.6555 21.7358C20.6108 21.647 20.5512 21.5729 20.4916 21.499C20.2532 21.3064 20.1489 21.0253 19.9998 20.7736C19.0015 19.0268 17.9733 17.2949 16.975 15.5629C16.3342 14.4379 15.6637 13.3277 15.023 12.2026C14.4418 11.196 14.1735 10.1006 14.2034 8.94595C14.2481 8.35383 14.3226 7.7617 14.5908 7.22879Z" fill="#3C8BD9"/>
<path d="M14.5905 7.22852C14.4564 7.76142 14.3372 8.29433 14.3074 8.85685C14.2627 10.1003 14.5756 11.2549 15.2015 12.3356C16.8406 15.1333 18.4797 17.9459 20.1039 20.7585C20.2529 21.0102 20.3721 21.2618 20.5211 21.4987C19.6271 23.0381 18.733 24.5629 17.824 26.1024C16.5723 28.2489 15.3206 30.4101 14.054 32.5565C13.9945 32.5565 13.9796 32.5269 13.9647 32.4825C13.9498 32.3641 13.9945 32.2604 14.0242 32.1421C14.6352 29.9216 14.1286 27.9528 12.5937 26.2652C11.655 25.2438 10.4629 24.6665 9.09204 24.474C7.30392 24.2224 5.72441 24.6813 4.30882 25.7915C4.0555 25.9839 3.89159 26.2652 3.59357 26.4132C3.53396 26.4132 3.50416 26.3836 3.48926 26.3393C4.20451 25.1106 4.90486 23.8819 5.62011 22.6533C8.5705 17.561 11.5209 12.4688 14.4862 7.39135C14.516 7.33213 14.5607 7.28772 14.5905 7.22852Z" fill="#FABC04"/>
<path d="M3.54937 26.3838C3.83249 26.1321 4.10071 25.8656 4.39873 25.6288C8.01968 22.7866 13.4585 24.8443 14.2483 29.3444C14.442 30.425 14.3377 31.4612 14.0098 32.4975C13.9949 32.5863 13.98 32.6603 13.9503 32.7491C13.8161 32.986 13.697 33.2376 13.548 33.4745C12.2217 35.6505 10.2697 36.7311 7.70675 36.5683C4.77125 36.3611 2.4616 34.1702 2.05927 31.2688C1.86556 29.8625 2.14868 28.545 2.87883 27.3311C3.02784 27.0647 3.20665 26.8278 3.37056 26.5615C3.44506 26.5022 3.41527 26.3838 3.54937 26.3838Z" fill="#34A852"/>
</svg>
