<svg width="40" height="40" viewBox="0 0 40 40" fill="none" xmlns="http://www.w3.org/2000/svg">
<path d="M26.8747 4.17614V30.4261C26.8747 33.3633 28.9031 35 31.0509 35C33.0395 35 35.227 33.6079 35.227 30.4261V4.375C35.227 1.68239 33.2384 0 31.0509 0C28.8633 0 26.8747 1.8554 26.8747 4.17614Z" fill="#F9AB00"/>
<path d="M15.9375 17.5003V30.4264C15.9375 33.3636 17.9659 35.0003 20.1137 35.0003C22.1023 35.0003 24.2898 33.6082 24.2898 30.4264V17.6992C24.2898 15.0065 22.3012 13.3242 20.1137 13.3242C17.9261 13.3242 15.9375 15.1796 15.9375 17.5003Z" fill="#E37400"/>
<path d="M9.17616 35.0004C11.4826 35.0004 13.3523 33.1307 13.3523 30.8243C13.3523 28.5179 11.4826 26.6481 9.17616 26.6481C6.86973 26.6481 5 28.5179 5 30.8243C5 33.1307 6.86973 35.0004 9.17616 35.0004Z" fill="#E37400"/>
</svg>
