<svg width="40" height="40" viewBox="0 0 40 40" fill="none" xmlns="http://www.w3.org/2000/svg">
<path d="M19.8435 2.5C12.5354 2.5 10.3981 2.50754 9.98263 2.542C8.48289 2.66667 7.54965 2.9028 6.53295 3.409C5.74942 3.79807 5.13148 4.24907 4.52162 4.88128C3.41095 6.03423 2.73782 7.45266 2.49414 9.13873C2.37567 9.95726 2.34121 10.1242 2.3342 14.3052C2.33151 15.6988 2.3342 17.533 2.3342 19.9932C2.3342 27.2953 2.34228 29.4305 2.37729 29.8452C2.49845 31.3045 2.72732 32.2227 3.21197 33.227C4.13821 35.1495 5.90721 36.5927 7.99123 37.1312C8.71283 37.317 9.50982 37.4193 10.533 37.4678C10.9665 37.4866 15.3849 37.5001 19.8061 37.5001C24.2272 37.5001 28.6484 37.4947 29.0711 37.4731C30.2558 37.4174 30.9438 37.325 31.7044 37.1285C32.7378 36.8635 33.7008 36.3761 34.5263 35.7004C35.3518 35.0247 36.0198 34.1769 36.4837 33.2162C36.9589 32.2361 37.1999 31.283 37.309 29.8998C37.3326 29.5983 37.3426 24.7902 37.3426 19.9886C37.3426 15.1862 37.3318 10.387 37.3081 10.0854C37.1978 8.67992 36.9568 7.73484 36.4662 6.7359C36.0637 5.91818 35.6167 5.30751 34.9678 4.68311C33.81 3.57702 32.3937 2.90388 30.7058 2.66048C29.888 2.54227 29.7251 2.50727 25.5409 2.5H19.8435Z" fill="url(#paint0_radial_256_4357)"/>
<path d="M19.8435 2.5C12.5354 2.5 10.3981 2.50754 9.98263 2.542C8.48289 2.66667 7.54965 2.9028 6.53295 3.409C5.74942 3.79807 5.13148 4.24907 4.52162 4.88128C3.41095 6.03423 2.73782 7.45266 2.49414 9.13873C2.37567 9.95726 2.34121 10.1242 2.3342 14.3052C2.33151 15.6988 2.3342 17.533 2.3342 19.9932C2.3342 27.2953 2.34228 29.4305 2.37729 29.8452C2.49845 31.3045 2.72732 32.2227 3.21197 33.227C4.13821 35.1495 5.90721 36.5927 7.99123 37.1312C8.71283 37.317 9.50982 37.4193 10.533 37.4678C10.9665 37.4866 15.3849 37.5001 19.8061 37.5001C24.2272 37.5001 28.6484 37.4947 29.0711 37.4731C30.2558 37.4174 30.9438 37.325 31.7044 37.1285C32.7378 36.8635 33.7008 36.3761 34.5263 35.7004C35.3518 35.0247 36.0198 34.1769 36.4837 33.2162C36.9589 32.2361 37.1999 31.283 37.309 29.8998C37.3326 29.5983 37.3426 24.7902 37.3426 19.9886C37.3426 15.1862 37.3318 10.387 37.3081 10.0854C37.1978 8.67992 36.9568 7.73484 36.4662 6.7359C36.0637 5.91818 35.6167 5.30751 34.9678 4.68311C33.81 3.57702 32.3937 2.90388 30.7058 2.66048C29.888 2.54227 29.7251 2.50727 25.5409 2.5H19.8435Z" fill="url(#paint1_radial_256_4357)"/>
<path d="M19.8354 7.07739C16.3254 7.07739 15.8849 7.09274 14.5063 7.15548C13.1304 7.21848 12.1913 7.43631 11.3695 7.75591C10.5195 8.08602 9.79842 8.52759 9.08005 9.24623C8.36114 9.9646 7.91956 10.6857 7.58838 11.5354C7.26797 12.3575 7.04987 13.2969 6.98795 14.6722C6.92656 16.0508 6.9104 16.4916 6.9104 20.0016C6.9104 23.5116 6.92602 23.9507 6.98848 25.3293C7.05176 26.7052 7.26959 27.6444 7.58892 28.4661C7.9193 29.3162 8.36087 30.0372 9.07951 30.7556C9.79761 31.4745 10.5187 31.9172 11.3682 32.2473C12.1905 32.5669 13.1299 32.7847 14.5055 32.8477C15.8841 32.9104 16.3243 32.9258 19.8341 32.9258C23.3443 32.9258 23.7835 32.9104 25.1621 32.8477C26.5379 32.7847 27.4782 32.5669 28.3005 32.2473C29.1502 31.9172 29.8702 31.4745 30.5883 30.7556C31.3072 30.0372 31.7488 29.3162 32.08 28.4664C32.3977 27.6444 32.6158 26.7049 32.6804 25.3296C32.7424 23.951 32.7585 23.5116 32.7585 20.0016C32.7585 16.4916 32.7424 16.0511 32.6804 14.6725C32.6158 13.2966 32.3977 12.3575 32.08 11.5357C31.7488 10.6857 31.3072 9.9646 30.5883 9.24623C29.8694 8.52733 29.1505 8.08575 28.2997 7.75591C27.4758 7.43631 26.5361 7.21848 25.1602 7.15548C23.7816 7.09274 23.3427 7.07739 19.8316 7.07739H19.8354ZM18.676 9.40644C19.0201 9.4059 19.4041 9.40644 19.8354 9.40644C23.2862 9.40644 23.6952 9.41883 25.0579 9.48075C26.318 9.53837 27.0019 9.74893 27.4574 9.92583C28.0606 10.1601 28.4906 10.4401 28.9426 10.8925C29.395 11.3448 29.675 11.7756 29.9098 12.3787C30.0867 12.8338 30.2975 13.5177 30.3549 14.7778C30.4168 16.1402 30.4303 16.5495 30.4303 19.9986C30.4303 23.4478 30.4168 23.857 30.3549 25.2195C30.2973 26.4796 30.0867 27.1635 29.9098 27.6185C29.6756 28.2216 29.395 28.6511 28.9426 29.1032C28.4903 29.5555 28.0608 29.8356 27.4574 30.0698C27.0024 30.2475 26.318 30.4575 25.0579 30.5151C23.6954 30.5771 23.2862 30.5905 19.8354 30.5905C16.3844 30.5905 15.9754 30.5771 14.6129 30.5151C13.3528 30.457 12.6689 30.2464 12.2131 30.0695C11.61 29.8353 11.1792 29.5553 10.7268 29.1029C10.2745 28.6506 9.99444 28.2208 9.75965 27.6174C9.58275 27.1624 9.37192 26.4785 9.31457 25.2184C9.25264 23.856 9.24026 23.4467 9.24026 19.9954C9.24026 16.5441 9.25264 16.137 9.31457 14.7746C9.37219 13.5144 9.58275 12.8305 9.75965 12.375C9.9939 11.7718 10.2745 11.341 10.7268 10.8887C11.1792 10.4363 11.61 10.1563 12.2131 9.92152C12.6687 9.74382 13.3528 9.5338 14.6129 9.47591C15.8052 9.42206 16.2672 9.4059 18.676 9.40321V9.40644ZM26.7342 11.5524C26.4275 11.5524 26.1276 11.6434 25.8725 11.8138C25.6175 11.9842 25.4187 12.2265 25.3013 12.5099C25.184 12.7933 25.1533 13.1052 25.2132 13.4061C25.2731 13.7069 25.4208 13.9833 25.6378 14.2001C25.8547 14.417 26.1311 14.5647 26.432 14.6245C26.7329 14.6842 27.0447 14.6535 27.3281 14.536C27.6115 14.4185 27.8537 14.2197 28.024 13.9645C28.1944 13.7094 28.2852 13.4095 28.2851 13.1028C28.2851 12.2465 27.5905 11.5519 26.7342 11.5519V11.5524ZM19.8354 13.3645C16.17 13.3645 13.1983 16.3362 13.1983 20.0016C13.1983 23.6669 16.17 26.6374 19.8354 26.6374C23.5008 26.6374 26.4717 23.6669 26.4717 20.0016C26.4717 16.3362 23.5005 13.3645 19.8351 13.3645H19.8354ZM19.8354 15.6935C22.2145 15.6935 24.1435 17.6222 24.1435 20.0016C24.1435 22.3807 22.2145 24.3097 19.8354 24.3097C17.456 24.3097 15.5273 22.3807 15.5273 20.0016C15.5273 17.6222 17.456 15.6935 19.8354 15.6935Z" fill="white"/>
<defs>
<radialGradient id="paint0_radial_256_4357" cx="0" cy="0" r="1" gradientUnits="userSpaceOnUse" gradientTransform="translate(11.6325 40.1958) rotate(-90) scale(34.6876 32.271)">
<stop stop-color="#FFDD55"/>
<stop offset="0.1" stop-color="#FFDD55"/>
<stop offset="0.5" stop-color="#FF543E"/>
<stop offset="1" stop-color="#C837AB"/>
</radialGradient>
<radialGradient id="paint1_radial_256_4357" cx="0" cy="0" r="1" gradientUnits="userSpaceOnUse" gradientTransform="translate(-3.53129 5.02135) rotate(78.6776) scale(15.5057 63.9312)">
<stop stop-color="#3771C8"/>
<stop offset="0.128" stop-color="#3771C8"/>
<stop offset="1" stop-color="#6600FF" stop-opacity="0"/>
</radialGradient>
</defs>
</svg>
