<svg width="40" height="40" viewBox="0 0 40 40" fill="none" xmlns="http://www.w3.org/2000/svg">
<path d="M8.10128 20.3545L7.39242 19.6456C5.11394 17.3671 4.45571 14.1773 5.26584 11.2912C2.98735 10.7849 1.31647 8.75954 1.31647 6.32916C1.31647 3.54435 3.59495 1.26587 6.37976 1.26587C8.9114 1.26587 10.9874 3.08865 11.3924 5.51903C14.1266 4.86081 17.1139 5.6203 19.2405 7.74688L19.5443 8.05068L15.7975 11.7975L15.4937 11.4937C14.2785 10.2785 12.3038 10.2785 11.0886 11.4937C9.87343 12.7089 9.87343 14.6836 11.0886 15.8988L19.4937 24.3038L15.7468 28.0507L11.7975 24.1013L8.10128 20.3545Z" fill="#7AC143"/>
<path d="M12.3038 16.2026L20.7089 7.79754C22.9367 5.56969 26.1772 4.86083 29.0127 5.67096C29.3671 3.18995 31.4937 1.31653 34.0253 1.31653C36.8101 1.31653 39.0886 3.59501 39.0886 6.37982C39.0886 8.9621 37.1646 11.0887 34.6835 11.3925C35.4937 14.2279 34.7848 17.4178 32.557 19.6456L32.2532 19.9494L28.6076 16.2026L28.9114 15.8988C30.1266 14.6836 30.1266 12.7089 28.9114 11.4937C27.6962 10.2786 25.7215 10.2786 24.5063 11.4937L16.1013 19.8988L12.3038 16.2026Z" fill="#F9A541"/>
<path d="M29.1646 35.0886C26.2785 35.9494 23.038 35.2911 20.7595 33.0127L20.4557 32.7089L24.2026 28.962L24.5064 29.2658C25.7215 30.481 27.6962 30.481 28.9114 29.2658C30.1266 28.0506 30.1266 26.076 28.9114 24.8608L20.5064 16.4557L24.2532 12.7089L32.7089 21.1646C34.8355 23.2911 35.595 26.3291 34.9367 29.1139C37.4177 29.4684 39.2912 31.5949 39.2912 34.1266C39.2912 36.9114 37.0127 39.1899 34.2279 39.1899C31.6962 39.1392 29.6203 37.3671 29.1646 35.0886Z" fill="#F44321"/>
<path d="M27.6962 24.557L19.2912 32.9621C17.1139 35.1393 14.076 35.8482 11.3418 35.1899C10.8355 37.4684 8.81014 39.1393 6.37976 39.1393C3.59495 39.1393 1.31647 36.8608 1.31647 34.076C1.31647 31.6963 2.98735 29.6709 5.2152 29.1646C4.50634 26.3292 5.2152 23.2912 7.39242 21.114L7.69622 20.8102L11.443 24.557L11.1393 24.8608C9.92406 26.076 9.92406 28.0507 11.1393 29.2659C12.3544 30.4811 14.3291 30.4811 15.5443 29.2659L23.9494 20.8608L27.6962 24.557Z" fill="#5091CD"/>
</svg>
