<svg width="40" height="40" viewBox="0 0 40 40" fill="none" xmlns="http://www.w3.org/2000/svg">
<path d="M20.8395 38.7805C23.605 30.3903 30.321 23.8049 38.8148 21.0244C39.4074 20.8293 39.7037 20.1951 39.5062 19.6585C39.4074 19.3171 39.1605 19.0732 38.8148 18.9756C30.2716 16.2439 23.605 9.65854 20.8395 1.21951C20.642 0.63414 20 0.341457 19.4568 0.536579C19.1111 0.63414 18.8642 0.878042 18.7655 1.21951C15.9507 9.65854 9.28398 16.2439 0.790143 18.9756C0.19755 19.1707 -0.0987464 19.8049 0.0987845 20.3415C0.19755 20.6829 0.444463 20.9268 0.790143 21.0244C9.28398 23.7561 15.9507 30.3415 18.7655 38.7805C18.963 39.3659 19.605 39.6585 20.1482 39.4634C20.4445 39.3659 20.6914 39.122 20.8395 38.7805Z" fill="url(#paint0_radial_256_4432)"/>
<path opacity="0.8" d="M0.790161 21.0244C9.28399 23.7561 15.9507 30.3414 18.7655 38.7805C18.963 39.3658 19.605 39.6585 20.1482 39.4634C20.4939 39.3658 20.7408 39.1219 20.8395 38.7805C23.605 30.3902 30.321 23.8048 38.8148 21.0244C34.7655 22.3414 27.9507 23.3658 19.8025 23.3658C11.6544 23.3658 4.79016 22.3414 0.790161 21.0244Z" fill="url(#paint1_radial_256_4432)"/>
<defs>
<radialGradient id="paint0_radial_256_4432" cx="0" cy="0" r="1" gradientUnits="userSpaceOnUse" gradientTransform="translate(38.4204 -0.334106) scale(44.0616 43.5243)">
<stop offset="0.2281" stop-color="#00FFFE"/>
<stop offset="0.3047" stop-color="#11F3FE"/>
<stop offset="0.4569" stop-color="#3ED3FE"/>
<stop offset="0.6706" stop-color="#86A0FF"/>
<stop offset="0.9352" stop-color="#E95AFF"/>
<stop offset="0.9531" stop-color="#F055FF"/>
</radialGradient>
<radialGradient id="paint1_radial_256_4432" cx="0" cy="0" r="1" gradientUnits="userSpaceOnUse" gradientTransform="translate(33.1437 22.6103) scale(24.8997 24.596)">
<stop stop-color="#053BF2"/>
<stop offset="0.0908682" stop-color="#0F3CF3" stop-opacity="0.9091"/>
<stop offset="0.2469" stop-color="#2B3FF4" stop-opacity="0.7531"/>
<stop offset="0.4492" stop-color="#5844F7" stop-opacity="0.5508"/>
<stop offset="0.69" stop-color="#964BFA" stop-opacity="0.31"/>
<stop offset="0.9606" stop-color="#E454FE" stop-opacity="0.0393646"/>
<stop offset="1" stop-color="#F055FF" stop-opacity="0"/>
</radialGradient>
</defs>
</svg>
