<svg width="241" height="177" viewBox="0 0 241 177" fill="none" xmlns="http://www.w3.org/2000/svg">
<path d="M148.773 157.288C134.804 159.631 120.32 160.414 105.941 159.602C98.755 159.212 91.6341 158.418 84.6581 157.23C77.6634 156.048 70.8564 154.438 64.3282 152.422C57.7693 150.406 51.5682 147.931 45.835 145.042C40.0725 142.137 34.8931 138.774 30.4182 135.032C25.9439 131.265 22.2768 127.122 19.5173 122.716C16.785 118.292 14.9506 113.658 14.0603 108.929L13.7581 107.155L13.5096 105.4L13.3197 103.638L13.1686 101.875C12.9917 99.5235 12.9287 97.1675 12.9797 94.8077C13.0733 90.0861 13.6555 85.3744 14.7226 80.7043C16.8749 71.3619 21.12 62.1615 27.8594 53.7012C31.2253 49.4613 35.2317 45.4492 39.8197 41.7238C49.0555 34.2268 60.6413 28.09 73.8105 23.7196C77.087 22.6257 80.4404 21.6403 83.8707 20.7631C84.7308 20.5514 85.585 20.3256 86.4489 20.1231C87.3129 19.9207 88.1794 19.7153 89.0517 19.5238L91.6709 18.9643L94.2765 18.437C101.257 17.0511 108.359 15.9331 115.543 15.089C122.77 14.228 130.088 13.7255 137.434 13.5858C144.849 13.445 152.269 13.7923 159.578 14.6224C166.982 15.4684 174.176 16.961 180.964 19.0594C184.375 20.1255 187.652 21.364 190.764 22.7636C192.329 23.4572 193.834 24.2066 195.311 24.9756C196.789 25.7446 198.202 26.5723 199.56 27.4322C202.292 29.1364 204.815 30.9764 207.106 32.9354C209.394 34.8825 211.462 36.9342 213.294 39.0746C215.12 41.201 216.74 43.3991 218.144 45.6563C219.55 47.8967 220.762 50.1864 221.774 52.5144C222.014 53.0931 222.275 53.678 222.495 54.2552L223.166 55.9895C223.403 56.5636 223.583 57.1476 223.796 57.726C224.008 58.3044 224.203 58.8883 224.387 59.4717C225.15 61.8003 225.805 64.1477 226.311 66.506C226.816 68.8643 227.238 71.2323 227.501 73.6101C227.764 75.9879 227.904 78.3647 227.926 80.7469C227.942 85.5099 227.422 90.267 226.372 94.9801C225.317 99.6833 223.702 104.326 221.542 108.866C219.37 113.396 216.619 117.8 213.317 122.032C210.012 126.247 206.117 130.256 201.68 134.008C197.263 137.75 192.264 141.188 186.762 144.265C181.278 147.333 175.284 149.994 168.891 152.199C162.511 154.394 155.76 156.102 148.773 157.288ZM148.58 156.822C152.025 156.204 155.411 155.456 158.72 154.579C162.021 153.698 165.238 152.688 168.351 151.555C174.562 149.28 180.334 146.534 185.546 143.376C190.726 140.228 195.375 136.732 199.414 132.945C203.433 129.163 206.894 125.143 209.752 120.939C212.596 116.746 214.9 112.407 216.64 107.967C218.387 103.541 219.614 99.0343 220.309 94.4868C220.679 92.2165 220.904 89.939 221.021 87.6603C221.137 85.3815 221.138 83.1005 221.031 80.823C220.925 78.5455 220.688 76.2681 220.347 74.0012C220.006 71.7344 219.564 69.4727 219.013 67.2297C218.744 66.1034 218.423 64.9836 218.113 63.8619C217.803 62.7402 217.435 61.6261 217.044 60.5134C216.857 59.9582 216.665 59.4012 216.451 58.848C216.238 58.2948 216.047 57.7402 215.823 57.1889L215.139 55.5367C214.912 54.9883 214.664 54.4537 214.427 53.9095C212.437 49.6005 209.906 45.4102 206.539 41.5375C203.173 37.6648 199.121 34.0713 194.239 31.0143C189.373 27.9263 183.794 25.3501 177.705 23.3792C171.549 21.4004 165.014 19.9656 158.273 19.1132C151.451 18.2539 144.512 17.8458 137.564 17.8951C130.547 17.9517 123.547 18.3562 116.627 19.1052C109.664 19.8606 102.776 20.883 96.0007 22.167L93.4564 22.6561L90.9713 23.1674C90.1382 23.342 89.3165 23.5346 88.5017 23.7161C87.6868 23.8975 86.8611 24.1083 86.0475 24.3021C82.7868 25.1114 79.5884 26.0216 76.4524 27.0327C63.8937 31.0803 52.8041 36.8119 43.9157 43.8492C39.4718 47.3713 35.5776 51.1713 32.2904 55.1932C25.6112 63.2404 21.3007 72.0869 18.9989 81.1426C17.8477 85.6824 17.1706 90.2678 16.9724 94.8676C16.8693 97.1698 16.8773 99.4736 16.9963 101.779L17.1078 103.51L17.2552 105.235L17.4422 106.954L17.6831 108.663C19.111 117.805 24.2598 126.539 32.6014 133.968C36.802 137.679 41.7 141.035 47.1817 143.958C52.6808 146.899 58.658 149.441 65.0068 151.539C71.3824 153.636 78.0562 155.326 84.9341 156.585C105.741 160.386 127.737 160.468 148.595 156.821L148.58 156.822Z" fill="#D4ECDC"/>
<path d="M240.999 88.2667C240.867 98.4432 238.055 108.531 232.684 118.098C230.025 122.883 226.729 127.511 222.833 131.928C218.941 136.36 214.408 140.544 209.294 144.423C204.171 148.323 198.404 151.85 192.096 154.941C185.752 158.048 178.831 160.629 171.493 162.623C164.113 164.609 156.35 165.939 148.417 166.578C140.463 167.192 132.419 167.136 124.487 166.41L121.522 166.116L118.602 165.79L115.685 165.423L112.781 165.029C108.911 164.487 105.067 163.866 101.249 163.166C93.6066 161.772 86.1183 160.047 78.8343 158.004C64.2679 153.905 50.5219 148.42 38.6811 141.444C32.7437 137.956 27.3568 134.096 22.5996 129.921C13.0268 121.516 6.32558 111.893 2.93934 101.69C2.08631 99.1499 1.43099 96.5877 0.973332 94.0036C0.871781 93.358 0.74585 92.7124 0.660547 92.0668C0.575245 91.4212 0.485869 90.773 0.420877 90.1248L0.250279 88.1827L0.128423 86.2591C-0.154912 81.1127 0.0309067 75.9601 0.684919 70.8279C1.32356 65.6619 2.57014 60.5348 4.41386 55.4911C6.27533 50.3996 8.93057 45.4432 12.3389 40.6976C15.7996 35.8925 20.2514 31.4123 25.573 27.379C28.2658 25.3558 31.2008 23.4727 34.351 21.7471C35.919 20.8758 37.56 20.0623 39.2254 19.2723C40.8909 18.4824 42.6335 17.7528 44.4127 17.0705C47.9506 15.6894 51.6502 14.4891 55.4776 13.4804C59.2847 12.4705 63.1999 11.6399 67.1925 10.9951C71.1606 10.3504 75.1871 9.86656 79.2486 9.54646C83.2837 9.21994 87.344 9.03944 91.4103 9.00583C92.4177 9.00583 93.4413 8.99271 94.4406 9.00583L97.4465 9.03733C98.4458 9.03733 99.445 9.07932 100.444 9.09769C101.444 9.11606 102.447 9.14755 103.446 9.18691C107.443 9.32338 111.44 9.53858 115.413 9.85875C119.386 10.1789 123.35 10.5595 127.286 11.0502C131.222 11.541 135.122 12.1157 138.997 12.7718C146.737 14.1035 154.317 15.7981 161.675 17.8421C169.016 19.8862 176.102 22.2947 182.867 25.0459C189.612 27.8022 195.988 30.9177 201.93 34.3598C207.845 37.7991 213.259 41.5827 218.101 45.6629C222.934 49.7266 227.108 54.1008 230.555 58.7164C233.992 63.3166 236.624 68.1499 238.403 73.1268C240.17 78.0917 241.041 83.1722 240.999 88.2667ZM240.186 88.2667C240.155 85.7457 239.893 83.228 239.402 80.7269C238.902 78.2293 238.168 75.7535 237.205 73.3131C235.261 68.4408 232.429 63.7348 228.768 59.2938C225.116 54.878 220.748 50.7257 215.737 46.9068C210.727 43.1031 205.174 39.6122 199.152 36.4802C193.143 33.3611 186.745 30.5689 180.023 28.1322C173.328 25.6942 166.355 23.5886 159.165 21.8337C155.582 20.9414 151.947 20.1462 148.279 19.4245C144.611 18.7028 140.906 18.0599 137.177 17.4904C133.448 16.9209 129.683 16.4406 125.905 16.0339C122.127 15.6271 118.329 15.2912 114.531 15.034C112.626 14.9001 110.717 14.803 108.808 14.6981C106.899 14.5931 104.986 14.5301 103.068 14.4829C102.114 14.454 101.155 14.4278 100.196 14.4173C99.2378 14.4068 98.2833 14.3805 97.3246 14.3779H94.4487C93.4941 14.3779 92.5558 14.3963 91.6053 14.4041C84.0459 14.5459 76.5271 15.0891 69.2885 16.2911C62.05 17.493 55.0714 19.2408 48.7306 21.7051C42.3438 24.1496 36.5875 27.224 31.6701 30.8169C26.7213 34.4526 22.549 38.5004 19.2646 42.8522C15.946 47.2579 13.3275 51.8698 11.4493 56.617C9.56329 61.4132 8.24742 66.2957 7.51319 71.2215C6.77755 76.1778 6.49678 81.158 6.67234 86.1357L6.74952 88.0069L6.87951 89.844C6.92826 90.4607 7.00949 91.0748 7.07448 91.681C7.13947 92.2872 7.24915 92.9092 7.33446 93.5181C7.72983 95.9675 8.30664 98.4029 9.06489 100.824C12.0988 110.521 18.2819 119.691 27.2059 127.729C31.6737 131.749 36.7477 135.473 42.3532 138.846C53.54 145.664 66.6929 151.094 80.7516 155.214C87.8001 157.278 95.0566 159.031 102.471 160.463C106.181 161.182 109.925 161.826 113.703 162.394L116.546 162.806L119.39 163.192L122.233 163.549L125.076 163.867C140.326 165.47 155.962 164.424 170.38 160.835C177.591 159.02 184.422 156.629 190.715 153.718C197.041 150.801 202.854 147.445 208.051 143.712C213.254 139.959 217.879 135.889 221.862 131.558C233.901 118.455 240.233 103.494 240.19 88.2562L240.186 88.2667Z" fill="#13141B"/>
</svg>
