<svg width="40" height="40" viewBox="0 0 40 40" fill="none" xmlns="http://www.w3.org/2000/svg">
<path d="M37.5 32.3782C37.5 35.207 35.2186 37.5 32.4044 37.5H7.59562C4.78136 37.5 2.5 35.207 2.5 32.3782V7.62176C2.5 4.79306 4.78136 2.5 7.59562 2.5H32.4044C35.2186 2.5 37.5 4.79306 37.5 7.62176V32.3782Z" fill="#FAAB62"/>
<path d="M37.3199 32.2513C37.3199 35.051 35.0619 37.3204 32.2766 37.3204H7.72266C4.93734 37.3204 2.67944 35.051 2.67944 32.2513V7.74908C2.67944 4.94947 4.93743 2.67999 7.72266 2.67999H32.2766C35.0619 2.67999 37.3199 4.94956 37.3199 7.74908V32.2513Z" fill="#F7931E"/>
<path d="M19.9809 7.73108C16.5121 7.73108 13.7002 10.5575 13.7002 14.044C13.7002 17.5306 16.5121 20.3572 19.9809 20.3572C23.4497 20.3572 26.2616 17.5306 26.2616 14.044C26.2616 10.5575 23.4497 7.73108 19.9809 7.73108ZM19.9809 16.6538C18.547 16.6538 17.3846 15.4853 17.3846 14.0441C17.3846 12.6029 18.547 11.4345 19.9809 11.4345C21.4148 11.4345 22.5772 12.6029 22.5772 14.0441C22.5772 15.4853 21.4148 16.6538 19.9809 16.6538Z" fill="white"/>
<path d="M22.1981 25.3799C24.7126 24.8651 26.2193 23.6682 26.299 23.604C27.0348 23.0109 27.153 21.9306 26.5629 21.1909C25.973 20.4514 24.8983 20.3326 24.1623 20.9256C24.1468 20.9383 22.5397 22.1774 19.8955 22.1792C17.2514 22.1774 15.6103 20.9383 15.5948 20.9256C14.8588 20.3326 13.7841 20.4514 13.1941 21.1909C12.6041 21.9306 12.7223 23.0109 13.458 23.604C13.5388 23.6691 15.1078 24.8971 17.6927 25.3999L14.0902 29.1841C13.4355 29.8666 13.4552 30.9532 14.1341 31.6112C14.4655 31.9324 14.8926 32.092 15.3194 32.092C15.7668 32.092 16.2138 31.9163 16.5489 31.567L19.8956 27.9836L23.5803 31.5902C24.248 32.2602 25.3291 32.2591 25.9954 31.5883C26.6618 30.9174 26.661 29.8306 25.9935 29.1608L22.1981 25.3799Z" fill="white"/>
<path d="M19.8949 22.1792C19.8911 22.1792 19.8987 22.1793 19.8949 22.1794C19.8911 22.1793 19.8988 22.1792 19.8949 22.1792Z" fill="white"/>
</svg>
