<svg width="55" height="40" viewBox="0 0 55 40" fill="none" xmlns="http://www.w3.org/2000/svg">
<path d="M53 13.1194C52.9812 10.956 49.0142 9.97398 38.7461 9.97398C14.6534 9.97398 8.54087 8.93685 2 2C4.7518 6.16519 6.25736 13.9776 31.7227 13.5888C58.2919 13.1763 42.0832 20.493 37.3669 28.7594C45.8723 21.1092 52.9744 16.0667 53 13.1506V13.1194ZM19.1444 35.3342C19.1435 37.3451 17.5021 38.9995 15.5063 39C13.4907 39 11.8607 37.3575 11.8607 35.3342C11.8607 35.3333 11.8607 35.3323 11.8607 35.3314C11.8607 33.3171 13.505 31.6596 15.5045 31.6596C15.5054 31.6596 15.5054 31.6596 15.5063 31.6596C17.5154 31.6596 19.1444 33.3026 19.1444 35.3342ZM35.736 35.3342C35.735 37.3451 34.0936 38.9995 32.0979 39C30.0842 39 28.4532 37.3575 28.4532 35.3342C28.4532 35.3333 28.4532 35.3323 28.4532 35.3314C28.4532 33.3171 30.0974 31.6596 32.096 31.6596C32.0969 31.6596 32.0969 31.6596 32.0979 31.6596C34.1069 31.6596 35.736 33.3026 35.736 35.3342Z" fill="url(#paint0_linear_256_4487)"/>
<defs>
<linearGradient id="paint0_linear_256_4487" x1="-65.6667" y1="38.7828" x2="-65.6667" y2="2.0001" gradientUnits="userSpaceOnUse">
<stop stop-color="#04B6F0"/>
<stop offset="1" stop-color="#3ECAF0"/>
</linearGradient>
</defs>
</svg>
