<svg width="464" height="579" viewBox="0 0 464 579" fill="none" xmlns="http://www.w3.org/2000/svg">
<path d="M132.128 420.731C132.699 421.251 133.102 421.929 133.287 422.679C133.472 423.428 133.43 424.215 133.167 424.941C132.904 425.666 132.431 426.296 131.809 426.752C131.186 427.208 130.443 427.469 129.671 427.501C128.9 427.534 128.137 427.336 127.478 426.934C126.819 426.532 126.294 425.943 125.969 425.243C125.645 424.542 125.536 423.761 125.656 422.999C125.776 422.237 126.12 421.527 126.644 420.961C127.343 420.207 128.311 419.76 129.338 419.717C130.365 419.674 131.368 420.038 132.128 420.731Z" stroke="white" stroke-linecap="round" stroke-linejoin="round"/>
<path d="M196.795 268.264C197.933 269.305 198.737 270.661 199.104 272.159C199.472 273.657 199.387 275.23 198.859 276.679C198.332 278.128 197.386 279.388 196.142 280.298C194.898 281.208 193.411 281.729 191.87 281.793C190.329 281.858 188.803 281.464 187.486 280.661C186.168 279.858 185.118 278.682 184.469 277.283C183.82 275.883 183.6 274.323 183.838 272.8C184.076 271.276 184.761 269.858 185.806 268.724C187.201 267.206 189.142 266.305 191.203 266.218C193.264 266.132 195.275 266.868 196.795 268.264V268.264Z" stroke="white" stroke-linecap="round" stroke-linejoin="round"/>
<path d="M438.471 117.284C441.556 114.667 443.941 111.324 445.411 107.554C446.882 103.784 447.392 99.7075 446.895 95.6902C446.303 91.5665 444.7 87.6527 442.23 84.2973C439.76 80.9419 436.5 78.2491 432.739 76.4587C430.773 75.4958 428.646 74.9072 426.466 74.7228C425.265 74.6341 424.059 74.7601 422.902 75.0948C421.64 75.454 420.487 76.1199 419.545 77.0333C418.595 77.9735 417.903 79.1422 417.535 80.4275C417.107 81.8648 417.215 83.409 417.839 84.7732C418.45 86.0219 419.399 87.074 420.578 87.8096C421.619 88.475 422.757 88.9738 423.951 89.2881C426.319 89.8609 428.803 89.7145 431.087 88.8676C433.261 88.0829 435.244 86.8489 436.909 85.246C438.587 83.6575 439.934 81.7527 440.874 79.641C441.338 78.5459 441.684 77.4045 441.906 76.236C442.103 75.1103 442.205 73.9697 442.21 72.8267C442.13 68.4114 440.958 64.0839 438.798 60.2309C436.811 56.5626 434.382 53.1516 431.566 50.0742C428.905 47.0124 425.991 44.1795 422.857 41.6056C419.667 39.0607 416.276 36.7796 412.717 34.785C398.552 26.8492 381.802 23.4209 366.191 26.0213L366.218 26.732C373.878 27.4389 381.439 28.9878 388.762 31.3507C390.519 32.0219 392.348 32.5825 394.098 33.3127C394.964 33.6755 395.854 33.9839 396.712 34.3792L399.27 35.5607C400.99 36.3351 402.633 37.2364 404.333 38.1183L406.767 39.5358L407.966 40.2137L409.139 40.9889C415.469 44.9355 421.302 49.6269 426.516 54.9627C429.148 57.4922 431.454 60.3401 433.382 63.4403C435.224 66.3381 436.329 69.6431 436.598 73.0658C436.629 73.8773 436.595 74.6899 436.495 75.4958C436.394 76.2493 436.205 76.9884 435.932 77.698C435.357 79.1975 434.484 80.5643 433.365 81.7155C431.142 84.054 427.895 85.5446 425.09 84.9306C424.389 84.7697 423.712 84.515 423.079 84.1736C422.572 83.9064 422.145 83.5101 421.841 83.0249C421.63 82.6009 421.578 82.1157 421.694 81.6569C421.844 81.0512 422.143 80.4926 422.563 80.0318C423.002 79.5556 423.554 79.1989 424.169 78.9952C424.884 78.7548 425.637 78.6451 426.391 78.6712C428.125 78.7644 429.828 79.1744 431.416 79.881C434.818 81.2871 437.821 83.5115 440.159 86.3569C442.497 89.2022 444.096 92.5804 444.816 96.1916C445.469 99.9335 445.198 103.778 444.026 107.389C442.854 111.001 440.817 114.27 438.093 116.913L438.471 117.284Z" fill="white"/>
<path d="M380.127 13.8096C377.396 15.3864 374.782 17.1423 372.103 18.8808C369.424 20.6192 366.863 22.372 364.29 24.1998L362.63 25.3779L363.704 27.6897C364.418 29.2099 365.044 30.7937 365.645 32.379C366.234 33.9629 367.037 35.4584 368.033 36.8237C369.056 38.2054 370.199 39.4943 371.448 40.6755C372.772 41.955 374.264 43.048 375.884 43.9243L376.5 43.5687C376.548 41.7297 376.344 39.8927 375.894 38.1087C375.495 36.4364 374.95 34.8023 374.265 33.2254C373.581 31.6804 372.688 30.2368 371.61 28.9349C370.538 27.6222 369.479 26.2874 368.52 24.9095L367.933 28.3995C370.104 26.1598 372.239 23.8584 374.34 21.5219C376.441 19.1854 378.488 16.852 380.549 14.3744L380.127 13.8096Z" fill="white"/>
<path d="M68.5459 536.524C70.3741 537.892 72.5563 538.707 74.833 538.871C77.0856 538.996 79.3385 538.637 81.4402 537.817C83.5413 537.029 85.4699 535.841 87.1198 534.319C88.7578 532.797 90.1291 531.011 91.1767 529.035C93.2271 524.989 94.5616 520.617 95.1213 516.114C95.2948 514.978 95.4496 513.834 95.581 512.666C95.7437 511.616 95.7984 510.551 95.7442 509.49C95.7233 509.086 95.6449 508.688 95.5115 508.306C95.4161 508.026 95.2432 507.976 95.4352 508.082C95.6273 508.188 95.8929 508.145 95.758 508.206C95.5676 508.362 95.4049 508.55 95.2769 508.76C94.8903 509.523 94.6616 510.355 94.6046 511.209C94.5475 512.062 94.6634 512.918 94.945 513.725C95.5615 515.656 96.5776 517.435 97.9272 518.947C100.609 522.255 104.088 524.826 108.035 526.418C109.766 527.064 111.642 527.218 113.455 526.861C115.191 526.474 116.779 525.596 118.031 524.332C120.625 521.747 122.184 517.549 123.435 513.222C124.058 511.028 124.597 508.77 125.186 506.385L125.672 504.659L126.057 503.093C126.296 502.013 126.526 500.905 126.737 499.741C127.177 497.422 127.588 495.02 128.209 492.546C128.803 489.842 129.777 487.236 131.1 484.805C131.957 483.298 133.088 481.965 134.435 480.875C134.834 480.582 135.238 480.304 135.702 480.021C136.094 479.797 136.499 479.596 136.915 479.42L138.152 478.888C138.624 478.743 139.105 478.626 139.591 478.538C140.077 478.419 140.573 478.344 141.073 478.313L142.636 478.326C143.142 478.352 143.645 478.432 144.135 478.563C144.63 478.69 145.121 478.803 145.584 478.973C147.237 479.617 148.747 480.581 150.027 481.809C152.062 483.779 153.772 486.06 155.092 488.567C155.726 489.692 156.289 490.795 156.81 491.818C157.065 492.293 157.325 492.781 157.481 493.055C157.637 493.33 157.967 493.794 158.221 494.129C159.072 495.381 160.243 496.382 161.611 497.028C162.025 497.209 162.483 497.264 162.928 497.187C163.422 497.09 163.883 496.868 164.266 496.543C165.645 495.232 166.756 493.666 167.54 491.932C168.102 490.929 168.635 489.842 169.298 488.726L170.396 487.01C170.789 486.471 171.219 485.95 171.625 485.405C174.965 481.364 179.371 478.342 184.343 476.682C189.12 475.085 194.267 474.958 199.119 476.319L198.981 477.193C194.56 477.132 190.196 478.196 186.299 480.284C182.402 482.373 179.099 485.417 176.7 489.133C176.433 489.583 176.161 490.019 175.926 490.474L175.293 491.86L173.898 495.081C172.941 497.761 171.477 500.231 169.586 502.356C168.287 503.682 166.668 504.648 164.885 505.161C163.029 505.684 161.064 505.691 159.203 505.181C156.087 504.241 153.325 502.384 151.275 499.853C150.79 499.284 150.337 498.689 149.919 498.07C149.438 497.345 149.135 496.777 148.809 496.233C148.213 495.173 147.66 494.192 147.098 493.276C146.187 491.599 145.038 490.063 143.687 488.715C143.258 488.29 142.768 487.931 142.233 487.651C141.855 487.593 141.644 487.431 141.22 487.56C141.123 487.593 141.039 487.622 140.927 487.66L140.522 487.798C140.39 487.836 140.259 487.88 140.131 487.932C140.046 487.983 139.951 488.015 139.852 488.027C139.346 488.414 138.918 488.894 138.589 489.441C137.531 491.123 136.721 492.949 136.185 494.863C135.524 496.945 134.962 499.18 134.396 501.495C134.101 502.641 133.792 503.838 133.461 505.059L132.891 506.907L132.362 508.553C131.665 510.757 130.973 513.068 130.178 515.398C129.388 517.81 128.425 520.162 127.296 522.434C126.078 524.924 124.423 527.175 122.409 529.078C120.203 531.078 117.471 532.405 114.535 532.904C111.653 533.343 108.706 532.984 106.014 531.865C103.55 530.843 101.261 529.439 99.2327 527.705C97.2747 526.052 95.4971 524.196 93.9297 522.168C92.2295 520.037 90.9998 517.569 90.3215 514.928C89.9211 513.457 89.8405 511.918 90.0853 510.413C90.3302 508.909 90.8947 507.475 91.7407 506.208C92.2799 505.432 93.0008 504.8 93.8404 504.368C94.1007 504.264 94.3663 504.173 94.6361 504.096C94.9398 504.011 95.2527 503.961 95.568 503.95C96.2612 503.923 96.9486 504.087 97.5542 504.427C98.5013 505.015 99.1977 505.933 99.5092 507.004C99.7352 507.755 99.854 508.533 99.8621 509.317C99.8521 510.628 99.7133 511.935 99.4477 513.218C99.2326 514.415 98.9988 515.602 98.7462 516.78C97.8256 521.619 96.0715 526.261 93.562 530.499C92.2516 532.637 90.5944 534.541 88.6586 536.134C86.703 537.712 84.4631 538.9 82.0601 539.634C79.679 540.364 77.1692 540.577 74.6986 540.258C72.2216 539.909 69.9009 538.841 68.0236 537.186L68.5459 536.524Z" fill="white"/>
<path d="M117.992 187.729L47.4317 203.09C46.6628 203.253 45.8617 203.161 45.1495 202.829C44.4372 202.497 43.8524 201.942 43.4834 201.248L11.3366 129.623C10.917 128.832 10.3456 128.131 9.65512 127.561C8.96463 126.99 8.16854 126.562 7.31236 126.299C6.45617 126.037 5.55668 125.946 4.66524 126.031C3.7738 126.116 2.9079 126.376 2.11701 126.796L0 127.919L33.3747 211.929V212.024C33.8472 212.913 34.6062 213.616 35.5284 214.02C36.4506 214.423 37.4821 214.503 38.4555 214.247L124.417 191.837C124.083 190.455 123.228 189.256 122.031 188.49C120.833 187.724 119.386 187.452 117.992 187.729Z" fill="#5DB77D"/>
<path d="M211.999 153.638L214.172 155.799L219.505 161.144L224.85 166.478L230.182 171.823L235.515 177.156L240.86 182.49L246.193 187.835L251.537 193.168L256.87 198.513L267.327 208.971L267.583 209.238L272.927 214.571L278.26 219.905L283.605 225.25L288.938 230.583L291.354 233H290.343L287.671 230.327L282.327 224.982L276.994 219.649L271.649 214.304L266.316 208.971L260.972 203.626L255.639 198.281L250.294 192.947L244.961 187.602L239.628 182.269L234.295 176.924L228.962 171.59L223.618 166.257L218.285 160.912L212.94 155.579L212.069 154.707C212.011 154.312 211.999 154.01 211.999 153.638Z" fill="#5DB77D"/>
<path d="M212.313 159.286L214.172 161.145L219.505 166.478L224.838 171.823L230.218 177.157L240.674 187.614L240.93 187.87L246.263 193.203L251.607 198.548L256.94 203.882L262.285 209.227L267.618 214.56L272.962 219.894L278.295 225.239L283.64 230.572L285.743 232.675L284.651 232.582L277.284 225.204L277.029 224.948L271.684 219.615L266.351 214.27L261.007 208.936L255.674 203.591L250.329 198.246L244.996 192.913L239.652 187.568L234.319 182.235L228.986 176.89L223.641 171.556L218.309 166.223L212.964 160.878L212.476 160.39C212.371 160.006 212.337 159.646 212.313 159.286Z" fill="#5DB77D"/>
<path d="M255.441 223.727C254.709 223.344 253.989 222.96 253.28 222.565L250.259 219.556L244.926 214.211L239.581 208.878L234.249 203.533L228.916 198.188L223.571 192.854L222.409 191.692C222.014 190.972 221.619 190.251 221.247 189.531L224.896 193.18L230.217 198.513L240.674 208.971L240.929 209.238L246.262 214.571L251.607 219.905L255.441 223.727Z" fill="#5DB77D"/>
<path d="M265.073 228.027L263.481 227.423L260.972 224.913L255.639 219.58L250.294 214.235L244.961 208.901L239.628 203.556L234.295 198.211L228.963 192.878L223.618 187.533L218.285 182.2L217.576 181.491C217.367 180.968 217.17 180.433 216.972 179.899L219.551 182.478L224.884 187.823L230.217 193.168L235.55 198.513L240.895 203.847L246.228 209.192L251.572 214.525L256.905 219.859L265.073 228.027Z" fill="#5DB77D"/>
<path d="M266.235 224.89L260.891 219.556L255.558 214.211L250.213 208.878L244.88 203.533L239.547 198.188L234.215 192.855L228.882 187.51L223.537 182.176L218.204 176.831L214.846 173.485C214.719 173.032 214.591 172.578 214.475 172.125L219.471 177.122L224.815 182.455L230.148 187.8L235.481 193.133L240.825 198.478L246.158 203.812L251.503 209.157L256.836 214.49L262.18 219.824L267.513 225.169L272.753 230.409L271.406 230.037L266.235 224.89Z" fill="#5DB77D"/>
<path d="M271.614 224.889L266.281 219.556L260.936 214.211L250.48 203.753L250.212 203.486L244.879 198.141L239.546 192.808L228.881 182.129L223.536 176.784L218.203 171.451L213.265 166.513C213.184 166.118 213.126 165.723 213.056 165.351L216.832 169.116L219.504 171.788L224.837 177.121L230.217 182.49L235.55 187.835L240.894 193.168L246.227 198.513L251.572 203.846L256.905 209.191L262.249 214.525L267.582 219.858L272.927 225.203L278.26 230.537L279.549 231.861L278.387 231.652L276.982 230.258L271.614 224.889Z" fill="#5DB77D"/>
<path d="M343.766 88.8708C348.294 92.5222 352.419 96.6473 356.07 101.176L351.69 96.7954L346.357 91.462L343.766 88.8708Z" fill="#5DB77D"/>
<path d="M213.069 138.684L214.173 139.788L219.505 145.133L224.838 150.524L230.218 155.799L235.551 161.144L240.895 166.478L246.228 171.823L251.573 177.156L256.906 182.49L262.25 187.835L267.583 193.168L272.928 198.513L278.261 203.846L283.605 209.191L288.938 214.525L294.271 219.858L299.604 225.203L304.937 230.536L306.261 231.861L305.413 232.001L298.314 224.889L292.97 219.556L287.637 214.211L277.18 203.753L276.924 203.486L271.58 198.141L266.247 192.808L260.902 187.463L255.569 182.129L250.225 176.784L244.892 171.451L239.547 166.118L234.215 160.773L228.882 155.439L223.537 150.094L218.204 144.761L212.894 139.451C212.964 139.253 213.022 138.974 213.069 138.684Z" fill="#5DB77D"/>
<path d="M212.43 143.389L214.172 145.132L219.505 150.524L224.85 155.857L230.183 161.202L238.188 169.115L240.86 171.788L246.193 177.121L251.538 182.454L256.871 187.799L262.215 193.133L267.548 198.478L272.893 203.811L278.226 209.156L283.57 214.49L288.903 219.823L294.248 225.168L299.581 230.501L301.567 232.488L300.661 232.57L298.337 230.246L292.958 224.889L287.625 219.556L282.281 214.211L276.948 208.877L271.603 203.532L266.27 198.187L260.926 192.854L250.248 182.176L244.915 176.831L239.582 171.497L230.95 162.864L228.916 160.819L223.572 155.485L218.239 150.14L212.894 144.807L212.337 144.249C212.372 143.982 212.395 143.692 212.43 143.389Z" fill="#5DB77D"/>
<path d="M212.057 148.363L214.172 150.525L219.505 155.858L224.838 161.203L230.217 166.478L235.55 171.823L240.894 177.157L246.227 182.49L251.572 187.835L256.905 193.168L262.249 198.513L267.582 203.847L272.927 209.192L278.26 214.525L283.604 219.858L294.282 230.537L296.606 232.861H295.653L292.981 230.188L287.648 224.843L282.303 219.51L276.97 214.165L271.626 208.831L266.293 203.486L260.948 198.142L255.615 192.808L250.271 187.463L244.938 182.13L239.605 176.785L234.272 171.451L228.939 166.118L223.594 160.773L218.261 155.44L212.917 150.095L212.046 149.223L212.057 148.363Z" fill="#5DB77D"/>
<path d="M219.308 118.246L219.505 118.443L224.85 123.777L230.217 129.11L235.55 134.455L240.895 139.788L246.228 145.133L251.572 150.467L256.905 155.8L262.25 161.145L267.583 166.478L272.927 171.823L278.26 177.157L283.605 182.49L288.938 187.835L294.282 193.169L299.615 198.514L304.948 203.847L310.293 209.192L315.626 214.525L320.97 219.859L326.303 225.204L326.745 225.634L326.059 225.947L325.292 225.169L325.037 224.913L319.692 219.58L314.359 214.235L309.015 208.901L303.682 203.556L298.349 198.211L293.004 192.878L287.671 187.533L282.327 182.2L276.994 176.855L271.649 171.521L266.316 166.188L260.972 160.843L255.639 155.51L250.294 150.165L244.961 144.831L239.628 139.498L234.296 134.153L228.963 128.819L223.618 123.474L219.052 118.908C219.11 118.699 219.203 118.466 219.308 118.246Z" fill="#5DB77D"/>
<path d="M217.437 122.637C217.53 122.405 217.611 122.173 217.715 121.929L219.505 123.799L224.838 129.133L230.171 134.478L235.504 139.811L240.848 145.156L246.193 150.524L251.537 155.858L256.87 161.203L264.875 169.116L267.548 171.788L272.892 177.122L278.225 182.455L283.57 187.8L288.902 193.133L294.235 198.478L299.568 203.812L304.901 209.157L310.246 214.49L315.579 219.824L320.923 225.169L322.968 227.214L322.259 227.492L319.68 224.89L314.347 219.556L309.014 214.211L298.348 203.533L293.004 198.188L287.671 192.855L276.993 182.176L271.649 176.831L266.316 171.498L260.971 166.164L255.639 160.819L250.294 155.486L244.961 150.141L239.616 144.808L234.284 139.474L228.951 134.129L223.606 128.796L218.273 123.451L217.437 122.637Z" fill="#5DB77D"/>
<path d="M225.001 107.916L230.218 113.098L235.551 118.443L240.895 123.776L246.228 129.11L251.573 134.455L256.906 139.788L262.25 145.133L267.548 150.524L272.893 155.858L278.226 161.203L283.57 166.536L288.903 171.881L294.236 177.215L299.569 182.548L304.902 187.893L310.247 193.226L315.579 198.571L320.924 203.905L326.257 209.25L331.601 214.583L336.934 219.917L337.027 220.009L336.423 220.393L335.668 219.638L330.323 214.293L324.991 208.959L319.646 203.614L314.313 198.269L308.98 192.936L298.314 182.258L292.97 176.913L287.637 171.579L278.993 162.946L276.959 160.901L271.615 155.567L266.282 150.222L260.937 144.889L255.604 139.556L250.26 134.211L244.927 128.877L239.582 123.532L234.249 118.199L228.917 112.854L224.606 108.555L225.001 107.916Z" fill="#5DB77D"/>
<path d="M222.595 111.842C222.723 111.633 222.839 111.424 222.955 111.215L224.838 113.097L230.171 118.442L235.515 123.799L240.86 129.132L246.193 134.477L251.537 139.811L256.87 145.156L262.215 150.489L267.548 155.822L272.892 161.167L278.225 166.501L283.57 171.846L288.902 177.179L294.247 182.512L299.58 187.857L304.913 193.191L310.257 198.536L315.59 203.869L320.935 209.214L326.268 214.548L331.612 219.881L333.727 222.007L333.111 222.368L330.334 219.602L325.001 214.257L319.657 208.924L314.324 203.579L308.991 198.234L303.658 192.9L298.325 187.555L292.981 182.222L287.648 176.877L282.303 171.544L276.97 166.21L271.626 160.865L266.235 155.52L260.89 150.175L255.557 144.842L250.213 139.508L244.88 134.163L239.547 128.83L234.214 123.485L228.881 118.152L223.536 112.807L222.595 111.842Z" fill="#5DB77D"/>
<path d="M231.379 99.3162L231.832 98.7817L235.469 102.419L240.813 107.764L246.146 113.097L251.491 118.442L256.87 123.799L262.215 129.132L267.548 134.477L272.892 139.81L278.225 145.155L283.57 150.489L288.903 155.822L294.247 161.167L299.58 166.501L304.913 171.846L310.258 177.179L315.591 182.512L320.935 187.857L326.268 193.191L331.613 198.536L342.29 209.214L346.159 213.083L345.636 213.537L340.989 208.889L335.656 203.544L330.311 198.199L324.978 192.865L319.634 187.52L314.301 182.187L308.968 176.842L303.635 171.509L298.302 166.175L292.958 160.83L287.625 155.497L282.28 150.152L276.947 144.818L271.603 139.485L266.27 134.14L260.925 128.807L255.592 123.462L250.248 118.128L244.915 112.783L239.582 107.45L234.249 102.117L231.379 99.3162Z" fill="#5DB77D"/>
<path d="M233.947 96.5049L234.423 95.9937L235.515 97.0859L240.86 102.419L246.193 107.764L251.537 113.098L256.87 118.443L262.215 123.776L267.547 129.109L272.892 134.454L278.225 139.788L283.569 145.133L288.902 150.524L294.247 155.858L299.58 161.203L304.913 166.536L310.257 171.881L315.59 177.214L320.935 182.548L326.268 187.893L331.612 193.226L336.945 198.571L342.29 203.905L347.623 209.25L348.959 210.574L348.448 211.051L346.356 208.959L341.012 203.614L335.679 198.269L330.334 192.936L325.001 187.591L319.657 182.257L314.324 176.912L308.991 171.579L298.708 161.296L298.325 160.901L292.981 155.567L287.648 150.222L282.303 144.889L276.97 139.555L271.626 134.21L266.293 128.877L260.948 123.532L255.615 118.199L250.271 112.854L244.938 107.52L239.593 102.187L234.26 96.8419L233.947 96.5049Z" fill="#5DB77D"/>
<path d="M229.055 102.245C229.207 102.07 229.346 101.884 229.497 101.698L230.217 102.419L235.55 107.764L240.895 113.097L246.228 118.442L251.572 123.776L256.905 129.109L262.25 134.454L267.583 139.787L272.927 145.132L278.225 150.524L283.57 155.857L288.903 161.202L294.247 166.536L299.58 171.881L304.913 177.214L315.37 187.672L315.625 187.927L320.97 193.261L326.303 198.606L331.647 203.939L336.98 209.284L342.325 214.617L343.278 215.582L342.732 216.012L341.047 214.327L335.714 208.994L330.369 203.649L325.037 198.304L319.692 192.97L314.359 187.625L309.026 182.292L303.693 176.947L298.36 171.613L293.016 166.28L287.683 160.935L282.338 155.602L277.005 150.257L271.661 144.923L266.328 139.59L260.983 134.245L255.65 128.911L250.306 123.566L244.973 118.233L239.628 112.888L234.295 107.555L229.055 102.245Z" fill="#5DB77D"/>
<path d="M236.596 93.8096L237.095 93.3215L240.86 97.0747L246.193 102.408L251.537 107.753L256.87 113.086L262.215 118.431L267.547 123.8L272.892 129.133L278.225 134.478L283.569 139.811L288.902 145.156L294.235 150.525L299.568 155.858L304.901 161.203L312.918 169.209L315.579 171.881L320.923 177.215L326.256 182.548L331.601 187.893L336.934 193.227L342.278 198.572L347.565 203.847L351.561 207.844L351.073 208.344L346.298 203.556L340.954 198.211L335.621 192.878L324.943 182.2L319.599 176.855L314.266 171.521L308.921 166.188L303.588 160.843L298.255 155.509L292.911 150.164L287.578 144.831L282.233 139.498L276.9 134.153L271.556 128.819L266.223 123.474L260.878 118.141L255.546 112.796L250.201 107.463L244.868 102.129L239.535 96.7842L236.596 93.8096Z" fill="#5DB77D"/>
<path d="M283.57 75.7291L288.903 81.0741L294.248 86.4075L299.581 91.7525L304.914 97.0975L310.258 102.431L315.591 107.776L320.936 113.109L326.269 118.454L331.613 123.788L336.946 129.121L342.291 134.466L347.565 139.788L352.91 145.133L358.301 150.524L363.646 155.858L368.978 161.203L372.917 165.13L372.778 165.978L367.712 160.912L362.367 155.579L357.035 150.234L351.69 144.9L346.357 139.567L341.013 134.222L335.68 128.889L330.335 123.544L325.002 118.21L319.658 112.865L314.325 107.532L308.98 102.198L303.647 96.8535L298.314 91.5201L292.97 86.1751L287.637 80.8417L282.292 75.5084L279.016 72.22L279.864 72.0806L283.57 75.7291Z" fill="#5DB77D"/>
<path d="M288.903 75.7287L294.236 81.0737L299.569 86.4071L304.902 91.7521L310.246 97.0971L315.579 102.43L320.924 107.775L326.257 113.109L331.601 118.454L336.946 123.799L342.29 129.132L347.623 134.477L352.968 139.811L358.301 145.156L363.645 150.489L368.978 155.822L373.544 160.389L373.44 161.272L373.045 160.877L367.712 155.544L362.367 150.199L357.034 144.865L351.69 139.532L346.357 134.187L341.012 128.853L335.679 123.508L330.335 118.175L325.002 112.83L319.681 107.531L314.348 102.198L309.015 96.8531L303.682 91.5197L298.349 86.1747L292.958 80.8065L287.625 75.4731L283.663 71.5108L284.546 71.4062L288.903 75.7287Z" fill="#5DB77D"/>
<path d="M294.247 75.7291L299.58 81.0742L304.913 86.4075L310.258 91.7409L315.591 97.0859L320.935 102.419L326.268 107.764L331.613 113.098L336.946 118.443L342.29 123.776L347.565 129.109L352.909 134.454L358.242 139.788L363.587 145.133L368.978 150.524L373.893 155.439V156.392L373.079 155.579L367.746 150.234L362.402 144.9L357.069 139.567L351.724 134.222L346.391 128.889L341.047 123.544L335.714 118.21L330.369 112.865L325.036 107.532L319.692 102.199L314.359 96.8535L309.014 91.5201L303.682 86.1751L298.349 80.8417L293.004 75.5084L288.635 71.1394H289.588L294.247 75.7291Z" fill="#5DB77D"/>
<path d="M299.58 75.7292L304.913 81.0742L310.258 86.4076L315.591 91.7526L320.935 97.0975L326.268 102.431L331.613 107.776L336.946 113.109L342.29 118.454L347.565 123.799L352.909 129.133L358.242 134.478L363.587 139.811L368.92 145.156L373.893 150.129C373.893 150.455 373.893 150.792 373.893 151.117L372.975 150.199L367.642 144.866L362.297 139.532L356.964 134.187L351.62 128.854L346.287 123.509L340.942 118.175L335.609 112.83L330.265 107.497L324.932 102.164L319.587 96.8187L314.254 91.4853L308.922 86.1403L303.647 80.8069L298.314 75.4735L293.841 71H294.84L299.58 75.7292Z" fill="#5DB77D"/>
<path d="M310.257 75.7294L315.59 81.0745L320.935 86.4078L326.268 91.7528L331.612 97.0978L336.945 102.431L342.29 107.776L347.565 113.098L352.909 118.443L358.3 123.8L363.645 129.133L368.978 134.478L372.823 138.312C372.881 138.707 372.951 139.103 373.009 139.474L367.711 134.164L362.367 128.831L357.034 123.486L351.689 118.153L346.356 112.807L341.012 107.474L335.679 102.141L330.334 96.7957L325.001 91.4624L319.657 86.1173L314.324 80.784L308.991 75.4506L305.505 71.9647L306.667 72.1622L310.257 75.7294Z" fill="#5DB77D"/>
<path d="M308.98 230.258L303.647 224.913L298.314 219.579L292.97 214.234L287.637 208.901L282.292 203.556L276.959 198.211L271.615 192.878L266.282 187.533L260.937 182.199L255.604 176.854L250.26 171.521L244.927 166.187L239.594 160.842L234.261 155.509L228.928 150.164L223.583 144.831L218.251 139.497L213.766 135.012L213.952 134.257L214.196 134.489L219.529 139.823L224.873 145.168L230.218 150.524L235.551 155.858L240.895 161.203L246.228 166.536L251.573 171.881L256.906 177.214L267.362 187.672L267.618 187.928L272.962 193.261L278.295 198.606L283.64 203.939L288.973 209.284L294.317 214.618L299.65 219.951L304.983 225.296L310.328 230.63L310.804 231.106L309.991 231.28L309.05 230.351L308.98 230.258Z" fill="#5DB77D"/>
<path d="M308.991 224.89L303.658 219.557L298.325 214.212L292.981 208.878L287.648 203.533L282.303 198.188L276.97 192.855L271.626 187.51L266.293 182.177L260.948 176.832L255.615 171.498L250.271 166.165L244.938 160.82L239.593 155.486L234.26 150.141L228.928 144.808L223.583 139.475L218.25 134.13L214.764 130.644C214.834 130.388 214.892 130.132 214.974 129.865L219.47 134.374L224.803 139.707L230.136 145.052L235.515 150.525L240.86 155.858L246.193 161.203L251.537 166.537L256.87 171.882L262.215 177.215L267.548 182.548L272.892 187.893L278.225 193.227L283.57 198.572L294.247 209.25L299.58 214.583L304.913 219.917L315.033 229.945L314.254 230.154L308.991 224.89Z" fill="#5DB77D"/>
<path d="M314.325 224.89L308.992 219.556L303.659 214.211L298.326 208.878L292.981 203.533L287.648 198.188L282.304 192.854L276.971 187.509L271.626 182.176L266.293 176.831L260.949 171.498L252.316 162.864L250.271 160.819L244.938 155.486L239.605 150.141L234.273 144.808L228.94 139.474L223.595 134.129L218.262 128.796L216.055 126.588C216.136 126.332 216.206 126.088 216.299 125.844L219.529 129.075L224.873 134.42L230.218 139.788L235.551 145.133L240.895 150.466L246.228 155.8L251.573 161.145L256.906 166.478L262.25 171.823L267.583 177.156L272.928 182.49L278.26 187.835L283.605 193.168L288.938 198.513L294.283 203.847L299.615 209.192L304.948 214.525L310.293 219.858L315.626 225.203L319.111 228.689L318.368 228.933L314.325 224.89Z" fill="#5DB77D"/>
<path d="M319.68 75.4849L321.214 76.031L326.245 81.0739L331.589 86.4072L336.922 91.7406L342.267 97.0856L347.565 102.419L352.909 107.764L358.242 113.097L363.587 118.442L368.838 123.694C369.036 124.206 369.21 124.717 369.396 125.24L367.653 123.485L362.309 118.152L356.976 112.807L351.631 107.474L346.298 102.14L340.954 96.7951L335.621 91.4618L330.276 86.1168L324.943 80.7834L319.68 75.4849Z" fill="#5DB77D"/>
<path d="M325.001 219.579L319.657 214.234L314.324 208.901L308.991 203.556L303.658 198.211L298.325 192.878L292.98 187.533L287.648 182.199L282.303 176.854L276.97 171.521L271.625 166.187L266.293 160.842L260.948 155.509L255.615 150.164L250.271 144.831L244.938 139.497L239.593 134.152L234.26 128.819L228.927 123.474L223.583 118.141L220.736 115.294C220.852 115.073 220.969 114.864 221.073 114.643L224.849 118.431L230.217 123.799L235.55 129.133L240.894 134.478L246.227 139.811L251.572 145.156L256.87 150.524L262.214 155.858L267.547 161.203L272.892 166.536L278.225 171.881L283.569 177.214L294.247 187.893L299.58 193.226L304.913 198.571L315.369 209.029L315.625 209.296L320.97 214.629L326.303 219.963L330.323 223.983L329.672 224.32L325.001 219.579Z" fill="#5DB77D"/>
<path d="M330.939 80.4002L331.613 81.0742L336.945 86.4076L342.29 91.7526L347.565 97.0743L352.909 102.408L358.242 107.753L363.587 113.086L364.47 113.981C364.834 114.655 365.182 115.329 365.516 116.003L362.309 112.796L356.976 107.462L351.631 102.129L346.298 96.7838L340.954 91.4505L335.621 86.1055L330.276 80.7721L328.859 79.3545C329.591 79.7031 330.265 80.04 330.939 80.4002Z" fill="#5DB77D"/>
<path d="M335.68 214.234L325.223 203.776L324.967 203.509L319.623 198.164L314.29 192.831L308.945 187.486L303.612 182.152L298.279 176.807L292.935 171.474L287.602 166.141L282.257 160.796L276.924 155.462L271.58 150.117L266.247 144.784L260.902 139.451L255.569 134.106L250.225 128.772L244.892 123.427L239.559 118.094L234.226 112.749L228.893 107.415L226.732 105.254L227.139 104.685L230.16 107.706L235.493 113.039L240.837 118.384L246.193 123.799L251.538 129.132L256.871 134.477L262.215 139.811L267.548 145.156L272.893 150.489L278.226 155.823L283.57 161.168L294.236 171.846L299.569 177.179L304.902 182.513L310.246 187.858L315.579 193.191L320.924 198.536L326.257 203.869L331.601 209.214L336.934 214.548L340.199 217.801L339.618 218.22L335.68 214.234Z" fill="#5DB77D"/>
<path d="M354.164 205.044L353.699 205.566L351.689 203.556L346.356 198.211L341.012 192.878L335.679 187.533L330.334 182.2L325.001 176.854L319.657 171.521L314.324 166.188L308.991 160.843L303.658 155.509L298.325 150.164L292.981 144.831L287.648 139.498L282.303 134.153L276.97 128.819L271.626 123.474L266.293 118.141L260.948 112.796L255.615 107.462L250.271 102.129L244.938 96.7841L239.593 91.4507L239.384 91.2299L239.907 90.7651L240.871 91.7412L246.204 97.0862L251.549 102.42L256.882 107.765L262.226 113.098L267.559 118.443L272.904 123.776L278.237 129.11L283.581 134.455L288.914 139.788L294.259 145.133L299.58 150.525L304.913 155.858L310.257 161.203L315.59 166.536L320.935 171.881L326.268 177.215L331.612 182.548L336.945 187.893L342.29 193.226L347.565 198.513L352.909 203.847L354.164 205.044Z" fill="#5DB77D"/>
<path d="M358.87 199.083L358.451 199.652L357.034 198.223L351.689 192.889L346.357 187.544L341.012 182.211L335.679 176.866L330.335 171.533L325.002 166.199L319.657 160.854L314.324 155.521L308.991 150.176L303.658 144.843L298.325 139.509L292.981 134.164L287.648 128.831L282.303 123.486L276.97 118.152L271.626 112.807L266.235 107.532L260.89 102.199L255.557 96.8538L250.213 91.5204L245.24 86.5472L245.809 86.1289L246.146 86.4659L251.491 91.8109L256.824 97.1559L262.168 102.489L267.501 107.834L272.846 113.168L278.179 118.513L283.523 123.846L288.856 129.179L294.201 134.524L299.534 139.858L304.867 145.203L310.211 150.536L315.544 155.87L320.889 161.215L326.222 166.548L331.566 171.893L336.899 177.226L342.244 182.56L347.576 187.905L352.921 193.238L358.254 198.583L358.87 199.083Z" fill="#5DB77D"/>
<path d="M357.034 192.889L346.357 182.211L341.012 176.866L335.679 171.532L327.035 162.899L325.002 160.854L319.657 155.52L314.324 150.175L308.991 144.842L303.658 139.509L298.325 134.164L292.981 128.83L287.648 123.485L282.303 118.152L276.971 112.807L271.626 107.474L266.293 102.14L260.949 96.7952L255.616 91.4618L250.271 86.1168L248.459 84.3041L249.051 83.9091L251.549 86.4073L256.882 91.7523L262.227 97.0972L267.559 102.431L272.904 107.776L278.237 113.109L283.581 118.454L288.903 123.799L294.236 129.132L299.569 134.477L304.902 139.811L310.246 145.156L315.591 150.524L320.935 155.857L326.268 161.202L331.613 166.536L336.946 171.881L342.29 177.214L347.565 182.489L352.91 187.834L358.242 193.168L360.973 195.898L360.589 196.503L357.034 192.889Z" fill="#5DB77D"/>
<path d="M356.14 202.673L351.69 198.223L346.357 192.889L341.013 187.544L335.68 182.211L330.335 176.866L325.002 171.532L319.658 166.199L314.325 160.854L308.992 155.521L303.659 150.176L298.326 144.842L292.981 139.509L287.648 134.164L282.304 128.831L276.971 123.486L271.626 118.152L266.293 112.807L260.949 107.474L255.616 102.14L250.271 96.7954L244.939 91.4621L242.278 88.8012L242.824 88.3596L246.205 91.7525L251.549 97.0975L256.882 102.431L262.227 107.776L267.56 113.109L272.904 118.454L278.226 123.799L283.57 129.133L288.903 134.478L294.236 139.811L299.569 145.156L304.914 150.524L310.258 155.858L315.591 161.203L320.936 166.536L326.269 171.881L331.613 177.214L342.291 187.893L347.565 193.168L352.91 198.513L356.523 202.127L356.14 202.673Z" fill="#5DB77D"/>
<path d="M363.645 187.834L364.992 189.147L364.644 189.786L362.402 187.544L357.069 182.21L351.724 176.866L346.391 171.532L341.047 166.199L335.714 160.854L330.369 155.52L325.036 150.175L319.692 144.842L314.359 139.509L309.026 134.164L303.693 128.83L298.36 123.485L293.015 118.152L287.683 112.807L282.338 107.473L277.005 102.14L271.66 96.7951L266.328 91.4617L260.983 86.1167L255.65 80.7833L255.197 80.3301L255.836 79.9816L256.917 81.0738L262.261 86.4072L267.594 91.7522L272.939 97.0972L278.271 102.431L283.616 107.776L288.949 113.109L294.282 118.454L299.58 123.799L304.913 129.132L310.257 134.477L315.59 139.811L320.935 145.156L326.268 150.524L331.612 155.857L336.945 161.202L342.29 166.536L347.623 171.881L352.967 177.214L363.424 187.672L363.691 187.927L363.645 187.834Z" fill="#5DB77D"/>
<path d="M362.367 182.21L357.034 176.866L351.689 171.532L346.356 166.199L341.012 160.854L335.679 155.52L330.334 150.175L325.001 144.842L319.657 139.509L314.324 134.164L308.991 128.83L303.658 123.485L298.325 118.152L292.98 112.807L287.647 107.473L282.303 102.14L276.97 96.7951L271.625 91.4617L266.293 86.1167L260.948 80.7833L258.717 78.5524L259.391 78.2386L262.226 81.0738L267.559 86.4072L272.904 91.7522L278.236 97.0972L283.581 102.431L288.914 107.776L294.247 113.109L299.58 118.454L304.913 123.799L310.257 129.132L315.59 134.477L320.935 139.811L326.268 145.156L331.612 150.489L336.945 155.822L342.29 161.167L347.564 166.478L352.909 171.823L358.242 177.156L363.586 182.489L366.642 185.557L366.328 186.231L362.367 182.21Z" fill="#5DB77D"/>
<path d="M362.669 193.214L362.344 192.889L357.011 187.544L351.667 182.211L346.334 176.866L340.989 171.532L335.656 166.199L330.312 160.854L324.979 155.52L319.634 150.175L314.301 144.842L308.968 139.509L303.635 134.164L298.302 128.83L292.958 123.485L287.625 118.152L282.28 112.807L276.947 107.474L271.603 102.14L266.27 96.7951L260.925 91.4618L255.593 86.1167L251.712 82.2474L252.339 81.8756L256.859 86.4072L262.203 91.7406L267.536 97.0856L272.881 102.419L278.214 107.764L283.558 113.097L288.891 118.442L294.236 123.776L299.569 129.109L304.902 134.454L310.246 139.788L315.579 145.132L320.924 150.466L326.257 155.799L331.601 161.144L342.279 171.823L347.565 177.156L352.91 182.489L358.243 187.834L363.006 192.598C362.937 192.796 362.82 193.005 362.669 193.214Z" fill="#5DB77D"/>
<path d="M367.711 128.831L362.367 123.486L357.034 118.153L351.689 112.807L346.403 107.532L341.058 102.199L335.725 96.8538L330.381 91.5204L325.048 86.1754L319.68 80.8072L314.347 75.4738L312.151 73.2661L313.453 73.5915L315.614 75.7527L320.958 81.0977L326.291 86.4311L331.636 91.7761L336.969 97.1211L342.313 102.454L347.565 107.765L352.909 113.098L358.242 118.443L363.587 123.776L368.92 129.11L371.243 131.503C371.36 131.933 371.464 132.375 371.569 132.805L367.711 128.831Z" fill="#5DB77D"/>
<path d="M367.711 166.199L362.367 160.854L357.034 155.52L351.689 150.175L346.356 144.842L341.012 139.509L335.679 134.164L330.334 128.83L325.001 123.485L319.657 118.152L314.324 112.807L308.991 107.532L303.658 102.198L298.325 96.8532L292.98 91.5199L287.647 86.1749L282.303 80.8415L276.97 75.5081L274.646 73.1261L275.448 72.9402L278.295 75.787L283.639 81.132L288.972 86.4653L294.305 91.8103L299.58 97.074L304.913 102.407L310.257 107.752L315.59 113.086L320.935 118.431L326.268 123.799L331.612 129.132L336.945 134.477L342.29 139.811L347.623 145.156L352.967 150.489L358.3 155.823L363.645 161.168L368.977 166.501L372.056 169.58C372.056 169.847 371.94 170.115 371.87 170.382L367.711 166.199Z" fill="#5DB77D"/>
<path d="M369.478 178.644L367.712 176.866L362.367 171.532L357.034 166.199L351.69 160.854L346.403 155.521L341.059 150.176L335.726 144.842L330.381 139.509L325.049 134.164L319.704 128.83L314.371 123.485L309.038 118.152L303.705 112.807L298.372 107.474L293.028 102.14L287.695 96.7954L282.35 91.462L277.017 86.117L271.673 80.7836L266.235 75.4618L266.967 75.2062L267.49 75.7291L272.835 81.0741L278.168 86.4075L283.512 91.7525L288.845 97.0974L294.178 102.431L299.511 107.776L304.844 113.109L310.188 118.454L315.591 123.799L320.936 129.133L326.268 134.478L331.613 139.811L336.946 145.156L342.29 150.489L347.565 155.8L352.91 161.145L360.973 169.116L363.645 171.788L368.978 177.121L369.734 177.877L369.478 178.644Z" fill="#5DB77D"/>
<path d="M367.711 171.533L362.367 166.2L357.034 160.855L351.689 155.521L346.357 150.176L341.012 144.843L335.679 139.509L330.335 134.165L325.002 128.831L319.657 123.486L314.324 118.153L308.98 112.808L303.647 107.532L298.314 102.199L292.969 96.8541L287.636 91.5207L282.292 86.1757L276.959 80.8423L271.614 75.5089L270.348 74.2308L271.103 74.01L272.892 75.7878L278.225 81.1328L283.57 86.4662L288.903 91.7996L294.247 97.1446L299.58 102.478L304.913 107.823L310.258 113.156L315.591 118.501L320.935 123.835L326.268 129.168L331.613 134.513L336.945 139.846L342.29 145.191L347.565 150.525L352.909 155.858L358.242 161.203L363.587 166.537L368.92 171.882L370.93 173.892C370.86 174.147 370.779 174.391 370.709 174.647L367.711 171.533Z" fill="#5DB77D"/>
<path d="M368.014 182.513L367.712 182.211L362.367 176.866L357.035 171.533L346.74 161.249L346.357 160.854L341.012 155.521L335.68 150.176L330.335 144.842L325.002 139.509L319.658 134.164L314.325 128.831L308.98 123.486L303.647 118.152L298.314 112.807L292.958 107.532L287.625 102.199L282.281 96.8536L276.948 91.5202L271.603 86.1752L266.235 80.807L262.378 76.9493L263.075 76.6704L267.502 81.0975L272.846 86.4308L278.179 91.7758L283.524 97.1209L288.857 102.454L294.201 107.799L299.534 113.133L304.867 118.478L310.212 123.811L315.545 129.144L320.889 134.489L326.222 139.823L331.567 145.168L336.946 150.524L342.291 155.858L347.623 161.203L352.968 166.536L358.301 171.881L363.645 177.215L368.293 181.862L368.014 182.513Z" fill="#5DB77D"/>
<path d="M373.044 144.842L367.711 139.509L362.367 134.164L357.034 128.831L351.689 123.486L346.356 118.152L341.012 112.807L335.679 107.474L330.334 102.14L325.001 96.7955L319.657 91.4621L314.324 86.1171L308.979 80.7837L303.646 75.4504L299.417 71.2208L300.498 71.3138L304.913 75.7292L310.257 81.0742L315.59 86.4076L320.935 91.7526L326.268 97.0976L331.612 102.431L336.945 107.776L342.29 113.109L347.623 118.454L352.967 123.788L358.3 129.121L363.645 134.466L368.977 139.799L373.625 144.447C373.625 144.808 373.625 145.168 373.718 145.528L373.044 144.842Z" fill="#5DB77D"/>
<path d="M263 543.241L263.953 544.189L266.292 546.533L268.636 548.872L270.975 551.216L273.313 553.556L275.657 555.895L277.996 558.239L280.34 560.578L282.679 562.922L287.265 567.508L287.377 567.625L289.721 569.964L292.059 572.303L294.403 574.647L296.742 576.986L297.802 578.046H297.359L296.187 576.874L293.843 574.53L291.504 572.191L289.16 569.847L286.821 567.508L284.477 565.164L282.139 562.82L279.795 560.481L277.456 558.137L275.117 555.798L272.778 553.454L270.44 551.115L268.096 548.776L265.757 546.431L263.413 544.092L263.031 543.71C263.005 543.537 263 543.405 263 543.241Z" fill="#5DB77D"/>
<path d="M263.138 545.719L263.953 546.535L266.292 548.874L268.631 551.218L270.99 553.557L275.576 558.143L275.688 558.255L278.027 560.594L280.371 562.938L282.709 565.277L285.053 567.621L287.392 569.96L289.736 572.299L292.075 574.643L294.419 576.982L295.341 577.905L294.862 577.864L291.632 574.628L291.519 574.516L289.176 572.177L286.837 569.833L284.493 567.494L282.154 565.15L279.81 562.806L277.471 560.467L275.127 558.123L272.789 555.784L270.45 553.439L268.106 551.1L265.767 548.761L263.423 546.417L263.209 546.203C263.163 546.035 263.148 545.877 263.138 545.719Z" fill="#5DB77D"/>
<path d="M282.052 573.98C281.731 573.812 281.415 573.643 281.104 573.47L279.779 572.15L277.44 569.806L275.096 567.467L272.757 565.123L270.419 562.779L268.075 560.44L267.565 559.93C267.392 559.615 267.219 559.299 267.056 558.983L268.656 560.583L270.989 562.922L275.575 567.508L275.687 567.625L278.026 569.964L280.37 572.303L282.052 573.98Z" fill="#5DB77D"/>
<path d="M286.276 575.866L285.578 575.601L284.478 574.5L282.139 572.161L279.795 569.817L277.456 567.478L275.117 565.134L272.778 562.79L270.44 560.451L268.096 558.107L265.757 555.768L265.446 555.457C265.354 555.228 265.268 554.993 265.181 554.759L266.312 555.89L268.651 558.234L270.99 560.578L273.329 562.922L275.673 565.261L278.012 567.605L280.355 569.944L282.694 572.283L286.276 575.866Z" fill="#5DB77D"/>
<path d="M286.786 574.489L284.442 572.15L282.103 569.806L279.759 567.467L277.42 565.123L275.081 562.779L272.743 560.44L270.404 558.096L268.06 555.757L265.721 553.413L264.249 551.945C264.193 551.747 264.137 551.548 264.086 551.349L266.277 553.54L268.62 555.879L270.959 558.223L273.298 560.562L275.642 562.907L277.981 565.246L280.325 567.59L282.664 569.929L285.007 572.268L287.346 574.612L289.644 576.91L289.053 576.747L286.786 574.489Z" fill="#5DB77D"/>
<path d="M289.144 574.489L286.805 572.15L284.461 569.806L279.876 565.22L279.758 565.103L277.42 562.759L275.081 560.42L270.403 555.737L268.059 553.393L265.72 551.054L263.555 548.888C263.519 548.715 263.494 548.541 263.463 548.378L265.119 550.029L266.291 551.201L268.63 553.54L270.989 555.895L273.328 558.239L275.672 560.578L278.011 562.922L280.355 565.261L282.693 567.605L285.037 569.944L287.376 572.283L289.72 574.627L292.059 576.966L292.624 577.547L292.115 577.455L291.498 576.844L289.144 574.489Z" fill="#5DB77D"/>
<path d="M320.788 514.838C322.774 516.439 324.583 518.248 326.184 520.234L324.263 518.313L321.924 515.974L320.788 514.838Z" fill="#5DB77D"/>
<path d="M263.469 536.684L263.953 537.168L266.292 539.512L268.631 541.876L270.99 544.19L273.329 546.534L275.673 548.873L278.012 551.217L280.356 553.556L282.694 555.895L285.038 558.239L287.377 560.578L289.721 562.922L292.06 565.261L294.404 567.605L296.742 569.944L299.081 572.283L301.42 574.627L303.759 576.966L304.34 577.547L303.968 577.609L300.855 574.49L298.511 572.151L296.172 569.807L291.586 565.22L291.474 565.103L289.13 562.759L286.791 560.42L284.447 558.076L282.108 555.737L279.764 553.393L277.426 551.054L275.082 548.715L272.743 546.371L270.404 544.032L268.06 541.688L265.721 539.349L263.393 537.02C263.423 536.933 263.449 536.811 263.469 536.684Z" fill="#5DB77D"/>
<path d="M263.189 538.748L263.953 539.512L266.292 541.876L268.636 544.215L270.975 546.56L274.485 550.03L275.657 551.202L277.996 553.541L280.34 555.88L282.679 558.224L285.023 560.563L287.361 562.907L289.705 565.246L292.044 567.59L294.388 569.929L296.727 572.268L299.071 574.612L301.41 576.951L302.281 577.823L301.883 577.858L300.864 576.839L298.505 574.49L296.166 572.151L293.822 569.807L291.484 567.468L289.14 565.124L286.801 562.78L284.457 560.441L279.774 555.758L277.436 553.413L275.097 551.074L271.311 547.288L270.419 546.391L268.075 544.052L265.736 541.708L263.393 539.369L263.148 539.125C263.163 539.007 263.173 538.88 263.189 538.748Z" fill="#5DB77D"/>
<path d="M263.025 540.928L263.953 541.876L266.292 544.215L268.63 546.559L270.99 548.873L273.328 551.217L275.672 553.556L278.011 555.895L280.355 558.239L282.694 560.578L285.038 562.922L287.377 565.261L289.72 567.605L292.059 569.944L294.403 572.283L299.086 576.966L300.105 577.986H299.687L298.515 576.814L296.176 574.469L293.832 572.13L291.494 569.786L289.15 567.447L286.811 565.103L284.467 562.759L282.128 560.42L279.784 558.076L277.446 555.737L275.107 553.393L272.768 551.054L270.429 548.715L268.085 546.371L265.746 544.032L263.403 541.688L263.02 541.306L263.025 540.928Z" fill="#5DB77D"/>
<path d="M266.205 527.72L266.292 527.807L268.636 530.146L270.99 532.485L273.329 534.829L275.672 537.168L278.011 539.512L280.355 541.851L282.694 544.19L285.038 546.534L287.377 548.873L289.721 551.217L292.059 553.556L294.403 555.895L296.742 558.239L299.086 560.578L301.425 562.922L303.764 565.261L306.107 567.605L308.446 569.944L310.79 572.283L313.129 574.627L313.323 574.816L313.022 574.954L312.686 574.612L312.574 574.5L310.23 572.161L307.891 569.817L305.547 567.478L303.208 565.134L300.869 562.79L298.525 560.451L296.187 558.107L293.843 555.768L291.504 553.424L289.16 551.085L286.821 548.746L284.477 546.401L282.139 544.062L279.795 541.718L277.456 539.379L275.117 537.04L272.778 534.696L270.439 532.357L268.096 530.013L266.093 528.01C266.118 527.919 266.159 527.817 266.205 527.72Z" fill="#5DB77D"/>
<path d="M265.385 529.646C265.426 529.544 265.461 529.442 265.507 529.335L266.292 530.155L268.631 532.494L270.969 534.838L273.308 537.177L275.652 539.522L277.996 541.876L280.34 544.215L282.679 546.559L286.189 550.029L287.361 551.201L289.705 553.54L292.044 555.879L294.388 558.223L296.727 560.562L299.066 562.907L301.404 565.246L303.743 567.59L306.087 569.929L308.426 572.268L310.77 574.612L311.667 575.509L311.356 575.631L310.225 574.489L307.886 572.15L305.547 569.806L300.869 565.123L298.526 562.779L296.187 560.44L291.504 555.757L289.16 553.413L286.821 551.074L284.477 548.735L282.139 546.391L279.795 544.052L277.456 541.708L275.112 539.369L272.773 537.03L270.434 534.686L268.09 532.347L265.752 530.003L265.385 529.646Z" fill="#5DB77D"/>
<path d="M268.702 523.19L270.99 525.463L273.329 527.807L275.673 530.146L278.012 532.485L280.355 534.829L282.694 537.168L285.038 539.512L287.362 541.877L289.706 544.216L292.044 546.56L294.388 548.899L296.727 551.243L299.066 553.582L301.405 555.921L303.744 558.265L306.087 560.604L308.426 562.948L310.77 565.287L313.109 567.631L315.453 569.97L317.792 572.309L317.832 572.35L317.567 572.518L317.236 572.187L314.892 569.843L312.554 567.504L310.21 565.16L307.871 562.816L305.532 560.477L300.854 555.794L298.511 553.449L296.172 551.11L292.381 547.324L291.489 546.427L289.145 544.088L286.806 541.744L284.462 539.405L282.124 537.066L279.78 534.722L277.441 532.383L275.097 530.039L272.758 527.7L270.419 525.356L268.529 523.47L268.702 523.19Z" fill="#5DB77D"/>
<path d="M267.647 524.911C267.703 524.82 267.754 524.728 267.805 524.636L268.63 525.462L270.969 527.806L273.313 530.155L275.657 532.494L277.996 534.838L280.339 537.177L282.678 539.521L285.022 541.86L287.361 544.199L289.705 546.543L292.044 548.882L294.388 551.226L296.726 553.565L299.07 555.904L301.409 558.249L303.748 560.588L306.092 562.932L308.431 565.271L310.775 567.615L313.113 569.954L315.457 572.293L316.385 573.225L316.115 573.383L314.897 572.171L312.558 569.826L310.214 567.487L307.875 565.143L305.536 562.799L303.198 560.46L300.859 558.116L298.515 555.777L296.176 553.433L293.832 551.094L291.493 548.755L289.149 546.411L286.785 544.067L284.441 541.723L282.102 539.384L279.759 537.045L277.42 534.701L275.081 532.362L272.742 530.017L270.403 527.678L268.059 525.334L267.647 524.911Z" fill="#5DB77D"/>
<path d="M271.499 519.419L271.698 519.184L273.293 520.779L275.637 523.123L277.976 525.462L280.32 527.807L282.679 530.156L285.023 532.495L287.362 534.839L289.705 537.178L292.044 539.522L294.388 541.861L296.727 544.2L299.071 546.544L301.41 548.883L303.749 551.227L306.092 553.566L308.431 555.905L310.775 558.249L313.114 560.588L315.458 562.932L320.141 567.615L321.837 569.312L321.608 569.511L319.57 567.473L317.231 565.129L314.887 562.785L312.548 560.446L310.204 558.101L307.866 555.762L305.527 553.418L303.188 551.079L300.849 548.74L298.505 546.396L296.167 544.057L293.823 541.713L291.484 539.374L289.14 537.035L286.801 534.691L284.457 532.352L282.118 530.008L279.774 527.669L277.436 525.325L275.097 522.986L272.758 520.647L271.499 519.419Z" fill="#5DB77D"/>
<path d="M272.626 518.186L272.834 517.961L273.313 518.44L275.657 520.779L277.996 523.124L280.34 525.463L282.679 527.807L285.023 530.146L287.362 532.485L289.705 534.829L292.044 537.168L294.388 539.512L296.727 541.876L299.071 544.215L301.41 546.559L303.748 548.898L306.092 551.243L308.431 553.582L310.775 555.921L313.114 558.265L315.458 560.604L317.797 562.948L320.141 565.287L322.479 567.631L323.065 568.212L322.841 568.421L321.924 567.503L319.58 565.159L317.241 562.815L314.897 560.476L312.558 558.132L310.215 555.793L307.876 553.449L305.537 551.11L301.028 546.6L300.859 546.427L298.515 544.088L296.177 541.744L293.833 539.405L291.494 537.066L289.15 534.722L286.811 532.383L284.467 530.039L282.129 527.7L279.785 525.356L277.446 523.017L275.102 520.678L272.763 518.333L272.626 518.186Z" fill="#5DB77D"/>
<path d="M270.48 520.703C270.546 520.626 270.608 520.545 270.674 520.463L270.99 520.779L273.328 523.123L275.672 525.462L278.011 527.807L280.355 530.146L282.694 532.485L285.038 534.829L287.377 537.168L289.721 539.512L292.044 541.876L294.388 544.215L296.727 546.559L299.071 548.898L301.409 551.242L303.748 553.581L308.334 558.168L308.446 558.28L310.79 560.619L313.129 562.963L315.473 565.302L317.812 567.646L320.156 569.985L320.573 570.408L320.334 570.597L319.595 569.858L317.256 567.519L314.912 565.175L312.574 562.83L310.23 560.491L307.891 558.147L305.552 555.808L303.213 553.464L300.874 551.125L298.531 548.786L296.192 546.442L293.848 544.103L291.509 541.759L289.165 539.42L286.826 537.081L284.482 534.737L282.144 532.398L279.8 530.054L277.461 527.715L275.117 525.371L272.778 523.032L270.48 520.703Z" fill="#5DB77D"/>
<path d="M273.787 517.004L274.006 516.79L275.657 518.436L277.996 520.775L280.34 523.119L282.679 525.458L285.022 527.802L287.361 530.156L289.705 532.495L292.044 534.839L294.388 537.178L296.727 539.522L299.065 541.877L301.404 544.216L303.743 546.56L307.259 550.071L308.426 551.243L310.77 553.582L313.108 555.921L315.452 558.265L317.791 560.604L320.135 562.948L322.453 565.261L324.206 567.014L323.992 567.234L321.898 565.134L319.554 562.79L317.215 560.451L312.533 555.768L310.189 553.424L307.85 551.085L305.506 548.746L303.167 546.402L300.828 544.063L298.485 541.719L296.146 539.38L293.802 537.041L291.463 534.696L289.119 532.357L286.78 530.013L284.436 527.674L282.098 525.33L279.754 522.991L277.415 520.652L275.076 518.308L273.787 517.004Z" fill="#5DB77D"/>
<path d="M294.388 509.074L296.727 511.418L299.071 513.757L301.41 516.101L303.748 518.445L306.092 520.784L308.431 523.128L310.775 525.467L313.114 527.812L315.458 530.151L317.797 532.49L320.14 534.834L322.454 537.168L324.798 539.512L327.162 541.876L329.506 544.215L331.845 546.559L333.572 548.282L333.511 548.654L331.289 546.432L328.945 544.093L326.607 541.749L324.263 539.41L321.924 537.071L319.58 534.727L317.241 532.388L314.897 530.043L312.558 527.704L310.215 525.36L307.876 523.021L305.532 520.682L303.193 518.338L300.854 515.999L298.51 513.655L296.172 511.316L293.828 508.977L292.391 507.535L292.763 507.474L294.388 509.074Z" fill="#5DB77D"/>
<path d="M296.727 509.074L299.066 511.418L301.404 513.757L303.743 516.101L306.087 518.445L308.426 520.784L310.77 523.128L313.109 525.467L315.452 527.811L317.796 530.155L320.14 532.494L322.479 534.838L324.823 537.177L327.162 539.521L329.506 541.86L331.845 544.199L333.847 546.202L333.801 546.589L333.628 546.416L331.289 544.077L328.945 541.733L326.606 539.394L324.263 537.055L321.924 534.711L319.58 532.372L317.241 530.028L314.897 527.689L312.558 525.345L310.225 523.021L307.886 520.682L305.547 518.338L303.208 515.999L300.869 513.655L298.505 511.301L296.166 508.962L294.429 507.224L294.816 507.178L296.727 509.074Z" fill="#5DB77D"/>
<path d="M299.071 509.074L301.41 511.418L303.748 513.757L306.092 516.096L308.431 518.44L310.775 520.779L313.114 523.123L315.458 525.462L317.797 527.806L320.14 530.145L322.454 532.484L324.798 534.828L327.136 537.167L329.48 539.512L331.845 541.876L334 544.032V544.449L333.643 544.093L331.305 541.749L328.961 539.41L326.622 537.071L324.278 534.727L321.939 532.388L319.595 530.043L317.256 527.704L314.912 525.36L312.574 523.021L310.23 520.682L307.891 518.338L305.547 515.999L303.208 513.655L300.869 511.316L298.526 508.977L296.61 507.061H297.028L299.071 509.074Z" fill="#5DB77D"/>
<path d="M301.41 509.074L303.748 511.418L306.092 513.757L308.431 516.101L310.775 518.445L313.114 520.784L315.458 523.128L317.797 525.467L320.14 527.812L322.454 530.156L324.798 532.495L327.136 534.839L329.48 537.178L331.819 539.522L334 541.703C334 541.846 334 541.993 334 542.136L333.597 541.733L331.259 539.394L328.915 537.055L326.576 534.711L324.232 532.372L321.893 530.028L319.549 527.689L317.211 525.345L314.867 523.006L312.528 520.667L310.184 518.323L307.845 515.984L305.506 513.64L303.193 511.301L300.854 508.962L298.892 507H299.331L301.41 509.074Z" fill="#5DB77D"/>
<path d="M306.093 509.074L308.431 511.418L310.775 513.757L313.114 516.101L315.458 518.445L317.797 520.784L320.141 523.128L322.454 525.462L324.798 527.806L327.162 530.156L329.506 532.495L331.845 534.839L333.531 536.52C333.557 536.694 333.587 536.867 333.613 537.03L331.289 534.701L328.946 532.362L326.607 530.018L324.263 527.679L321.924 525.335L319.58 522.996L317.241 520.657L314.897 518.313L312.559 515.974L310.215 513.63L307.876 511.291L305.537 508.952L304.008 507.423L304.518 507.509L306.093 509.074Z" fill="#5DB77D"/>
<path d="M305.532 576.844L303.193 574.5L300.854 572.161L298.51 569.817L296.171 567.478L293.828 565.133L291.489 562.789L289.145 560.45L286.806 558.106L284.462 555.767L282.123 553.423L279.779 551.084L277.441 548.745L275.102 546.401L272.763 544.062L270.424 541.718L268.08 539.379L265.742 537.04L263.775 535.073L263.856 534.742L263.963 534.844L266.302 537.183L268.646 539.527L270.99 541.876L273.329 544.215L275.673 546.559L278.011 548.898L280.355 551.242L282.694 553.581L287.28 558.167L287.392 558.28L289.736 560.619L292.075 562.963L294.419 565.302L296.757 567.646L299.101 569.985L301.44 572.324L303.779 574.668L306.123 577.007L306.332 577.216L305.975 577.292L305.562 576.885L305.532 576.844Z" fill="#5DB77D"/>
<path d="M305.537 574.49L303.198 572.151L300.859 569.807L298.516 567.468L296.177 565.124L293.833 562.78L291.494 560.441L289.15 558.097L286.811 555.758L284.467 553.413L282.129 551.074L279.785 548.735L277.446 546.391L275.102 544.052L272.763 541.708L270.424 539.369L268.081 537.03L265.742 534.686L264.213 533.157C264.244 533.045 264.269 532.933 264.305 532.816L266.277 534.793L268.616 537.132L270.954 539.476L273.314 541.876L275.657 544.215L277.996 546.559L280.34 548.898L282.679 551.243L285.023 553.582L287.362 555.921L289.706 558.265L292.044 560.604L294.388 562.948L299.071 567.631L301.41 569.97L303.749 572.309L308.187 576.707L307.845 576.798L305.537 574.49Z" fill="#5DB77D"/>
<path d="M307.876 574.49L305.537 572.151L303.199 569.807L300.86 567.468L298.516 565.124L296.177 562.78L293.833 560.441L291.494 558.097L289.151 555.758L286.812 553.413L284.468 551.074L280.682 547.288L279.785 546.391L277.446 544.052L275.108 541.708L272.769 539.369L270.43 537.03L268.086 534.686L265.747 532.347L264.779 531.379C264.815 531.267 264.845 531.16 264.886 531.053L266.303 532.469L268.646 534.813L270.99 537.168L273.329 539.512L275.673 541.851L278.012 544.19L280.356 546.534L282.695 548.873L285.039 551.217L287.377 553.556L289.721 555.895L292.06 558.239L294.404 560.578L296.743 562.922L299.087 565.261L301.425 567.605L303.764 569.944L306.108 572.283L308.447 574.628L309.976 576.156L309.649 576.263L307.876 574.49Z" fill="#5DB77D"/>
<path d="M310.225 508.967L310.897 509.206L313.104 511.418L315.447 513.757L317.786 516.096L320.13 518.44L322.454 520.779L324.798 523.123L327.136 525.462L329.48 527.806L331.783 530.11C331.87 530.334 331.947 530.558 332.028 530.787L331.264 530.018L328.92 527.679L326.581 525.335L324.237 522.996L321.898 520.657L319.554 518.313L317.216 515.974L314.872 513.63L312.533 511.291L310.225 508.967Z" fill="#5DB77D"/>
<path d="M312.558 572.161L310.214 569.817L307.875 567.478L305.536 565.134L303.198 562.79L300.859 560.451L298.515 558.107L296.176 555.768L293.832 553.423L291.493 551.084L289.149 548.745L286.811 546.401L284.467 544.062L282.128 541.718L279.784 539.379L277.445 537.04L275.101 534.696L272.763 532.357L270.424 530.013L268.08 527.674L266.831 526.426C266.882 526.329 266.933 526.237 266.979 526.14L268.635 527.801L270.989 530.156L273.328 532.495L275.672 534.839L278.011 537.178L280.355 539.522L282.678 541.876L285.022 544.215L287.361 546.559L289.705 548.898L292.044 551.242L294.388 553.581L299.07 558.265L301.409 560.604L303.748 562.948L308.334 567.534L308.446 567.651L310.79 569.99L313.129 572.329L314.892 574.092L314.606 574.24L312.558 572.161Z" fill="#5DB77D"/>
<path d="M315.162 511.122L315.458 511.418L317.796 513.757L320.14 516.101L322.454 518.435L324.798 520.774L327.136 523.118L329.48 525.457L329.868 525.85C330.027 526.145 330.18 526.441 330.326 526.736L328.92 525.33L326.581 522.991L324.237 520.652L321.898 518.308L319.554 515.969L317.216 513.625L314.872 511.286L314.25 510.664C314.571 510.817 314.867 510.964 315.162 511.122Z" fill="#5DB77D"/>
<path d="M317.241 569.816L312.655 565.23L312.543 565.113L310.199 562.769L307.861 560.43L305.517 558.086L303.178 555.747L300.839 553.403L298.495 551.064L296.156 548.725L293.812 546.38L291.474 544.041L289.13 541.697L286.791 539.358L284.447 537.019L282.108 534.675L279.764 532.336L277.426 529.992L275.087 527.653L272.748 525.309L270.409 522.97L269.461 522.022L269.64 521.772L270.965 523.097L273.303 525.436L275.647 527.78L277.996 530.155L280.34 532.494L282.679 534.838L285.023 537.177L287.362 539.521L289.706 541.86L292.044 544.199L294.388 546.544L299.066 551.227L301.405 553.566L303.743 555.905L306.087 558.249L308.426 560.588L310.77 562.932L313.109 565.271L315.453 567.615L317.792 569.954L319.223 571.381L318.969 571.564L317.241 569.816Z" fill="#5DB77D"/>
<path d="M325.348 565.786L325.144 566.015L324.263 565.133L321.924 562.789L319.58 560.45L317.241 558.106L314.897 555.767L312.559 553.423L310.215 551.084L307.876 548.745L305.537 546.401L303.198 544.062L300.86 541.718L298.516 539.379L296.177 537.04L293.833 534.696L291.494 532.357L289.15 530.013L286.811 527.674L284.468 525.329L282.129 522.99L279.785 520.651L277.446 518.307L275.102 515.968L275.01 515.872L275.24 515.668L275.663 516.096L278.001 518.44L280.345 520.779L282.684 523.123L285.028 525.462L287.367 527.806L289.711 530.145L292.05 532.484L294.393 534.828L296.732 537.167L299.076 539.511L301.41 541.876L303.749 544.215L306.093 546.559L308.431 548.898L310.775 551.242L313.114 553.581L315.458 555.92L317.797 558.264L320.141 560.603L322.454 562.922L324.798 565.261L325.348 565.786Z" fill="#5DB77D"/>
<path d="M327.412 563.172L327.229 563.421L326.607 562.795L324.263 560.456L321.924 558.112L319.58 555.773L317.242 553.428L314.898 551.089L312.559 548.75L310.215 546.406L307.876 544.067L305.537 541.723L303.199 539.384L300.86 537.045L298.516 534.701L296.177 532.362L293.833 530.018L291.494 527.679L289.15 525.335L286.786 523.021L284.442 520.682L282.103 518.338L279.76 515.999L277.579 513.818L277.828 513.635L277.976 513.783L280.32 516.127L282.659 518.471L285.003 520.81L287.342 523.154L289.685 525.493L292.024 527.837L294.368 530.176L296.707 532.515L299.051 534.859L301.39 537.198L303.728 539.542L306.072 541.881L308.411 544.22L310.755 546.564L313.094 548.903L315.438 551.247L317.777 553.586L320.121 555.925L322.459 558.27L324.803 560.609L327.142 562.953L327.412 563.172Z" fill="#5DB77D"/>
<path d="M326.607 560.456L321.924 555.773L319.58 553.429L317.241 551.09L313.45 547.303L312.559 546.406L310.215 544.067L307.876 541.723L305.537 539.384L303.198 537.045L300.86 534.701L298.516 532.362L296.177 530.018L293.833 527.679L291.494 525.335L289.15 522.996L286.811 520.657L284.467 518.313L282.129 515.974L279.785 513.63L278.99 512.835L279.25 512.662L280.345 513.757L282.684 516.101L285.028 518.445L287.367 520.784L289.711 523.129L292.05 525.468L294.393 527.812L296.727 530.156L299.066 532.495L301.405 534.839L303.744 537.178L306.087 539.522L308.431 541.876L310.775 544.215L313.114 546.559L315.458 548.898L317.797 551.242L320.141 553.581L322.454 555.895L324.798 558.239L327.137 560.578L328.334 561.776L328.166 562.041L326.607 560.456Z" fill="#5DB77D"/>
<path d="M326.214 564.746L324.263 562.794L321.924 560.455L319.58 558.111L317.241 555.772L314.897 553.428L312.558 551.089L310.214 548.75L307.876 546.406L305.537 544.067L303.198 541.723L300.859 539.384L298.515 537.045L296.176 534.701L293.833 532.362L291.494 530.018L289.15 527.679L286.811 525.335L284.467 522.996L282.128 520.656L279.784 518.312L277.446 515.973L276.279 514.806L276.518 514.613L278.001 516.101L280.345 518.445L282.684 520.784L285.028 523.128L287.366 525.467L289.71 527.811L292.044 530.155L294.388 532.494L296.727 534.838L299.066 537.177L301.404 539.521L303.748 541.876L306.092 544.215L308.431 546.559L310.775 548.898L313.114 551.242L315.458 553.581L320.14 558.264L322.454 560.578L324.798 562.922L326.382 564.506L326.214 564.746Z" fill="#5DB77D"/>
<path d="M329.505 558.239L330.096 558.815L329.943 559.095L328.96 558.111L326.621 555.772L324.277 553.428L321.938 551.089L319.595 548.75L317.256 546.406L314.912 544.067L312.573 541.723L310.229 539.384L307.89 537.045L305.552 534.701L303.213 532.362L300.874 530.018L298.53 527.679L296.191 525.335L293.847 522.996L291.509 520.657L289.165 518.313L286.826 515.974L284.482 513.63L282.143 511.291L281.944 511.092L282.225 510.939L282.698 511.418L285.042 513.757L287.381 516.101L289.725 518.445L292.064 520.784L294.408 523.128L296.747 525.467L299.085 527.811L301.409 530.155L303.748 532.494L306.092 534.839L308.43 537.178L310.774 539.522L313.113 541.876L315.457 544.215L317.796 546.559L320.14 548.898L322.479 551.242L324.822 553.581L329.408 558.167L329.526 558.28L329.505 558.239Z" fill="#5DB77D"/>
<path d="M328.945 555.772L326.606 553.428L324.262 551.089L321.924 548.75L319.58 546.405L317.241 544.066L314.897 541.722L312.558 539.383L310.214 537.044L307.875 534.7L305.537 532.361L303.198 530.017L300.859 527.678L298.515 525.334L296.176 522.995L293.832 520.656L291.494 518.312L289.15 515.973L286.811 513.629L284.467 511.29L283.489 510.311L283.784 510.174L285.027 511.417L287.366 513.756L289.71 516.1L292.049 518.444L294.393 520.783L296.732 523.128L299.07 525.467L301.409 527.811L303.748 530.155L306.092 532.494L308.431 534.838L310.775 537.177L313.114 539.521L315.457 541.86L317.796 544.199L320.14 546.543L322.453 548.872L324.797 551.216L327.136 553.555L329.48 555.894L330.82 557.239L330.683 557.535L328.945 555.772Z" fill="#5DB77D"/>
<path d="M329.077 560.598L328.935 560.456L326.596 558.112L324.252 555.773L321.913 553.429L319.569 551.09L317.231 548.751L314.887 546.406L312.548 544.067L310.204 541.723L307.865 539.384L305.526 537.045L303.188 534.701L300.849 532.362L298.505 530.018L296.166 527.679L293.822 525.335L291.483 522.996L289.139 520.657L286.801 518.313L284.457 515.974L282.118 513.63L280.416 511.933L280.691 511.77L282.673 513.757L285.017 516.096L287.356 518.44L289.7 520.779L292.039 523.123L294.383 525.462L296.721 527.806L299.065 530.145L301.404 532.484L303.743 534.829L306.087 537.168L308.426 539.512L310.77 541.851L313.108 544.19L315.452 546.534L320.135 551.217L322.453 553.556L324.797 555.895L327.136 558.239L329.225 560.328C329.195 560.415 329.144 560.507 329.077 560.598Z" fill="#5DB77D"/>
<path d="M331.289 532.362L328.945 530.018L326.607 527.679L324.263 525.335L321.944 523.022L319.6 520.683L317.262 518.339L314.918 516L312.579 513.655L310.225 511.301L307.886 508.962L306.923 507.994L307.494 508.137L308.441 509.084L310.785 511.429L313.124 513.768L315.468 516.112L317.807 518.456L320.151 520.795L322.454 523.124L324.798 525.463L327.137 527.807L329.48 530.146L331.819 532.485L332.838 533.534C332.889 533.723 332.935 533.917 332.981 534.105L331.289 532.362Z" fill="#5DB77D"/>
<path d="M331.289 548.751L328.945 546.406L326.607 544.067L324.263 541.723L321.924 539.384L319.58 537.045L317.241 534.701L314.897 532.362L312.558 530.018L310.215 527.679L307.876 525.335L305.537 523.021L303.198 520.682L300.859 518.338L298.515 515.999L296.177 513.655L293.833 511.316L291.494 508.977L290.475 507.933L290.826 507.851L292.075 509.1L294.419 511.444L296.758 513.783L299.096 516.127L301.41 518.435L303.748 520.774L306.092 523.118L308.431 525.457L310.775 527.801L313.114 530.156L315.458 532.495L317.797 534.839L320.141 537.178L322.479 539.522L324.823 541.861L327.162 544.2L329.506 546.544L331.845 548.883L333.195 550.233C333.195 550.351 333.144 550.468 333.113 550.585L331.289 548.751Z" fill="#5DB77D"/>
<path d="M332.064 554.208L331.289 553.429L328.946 551.09L326.607 548.75L324.263 546.406L321.944 544.067L319.6 541.723L317.262 539.384L314.918 537.045L312.579 534.701L310.235 532.362L307.896 530.018L305.557 527.679L303.219 525.335L300.88 522.996L298.536 520.657L296.197 518.313L293.853 515.974L291.514 513.63L289.171 511.291L286.786 508.957L287.107 508.845L287.336 509.074L289.68 511.418L292.019 513.757L294.363 516.101L296.702 518.445L299.04 520.784L301.379 523.128L303.718 525.467L306.062 527.812L308.431 530.156L310.775 532.495L313.114 534.839L315.458 537.178L317.797 539.522L320.141 541.861L322.454 544.19L324.798 546.534L328.334 550.03L329.506 551.202L331.845 553.541L332.176 553.872L332.064 554.208Z" fill="#5DB77D"/>
<path d="M331.29 551.089L328.946 548.75L326.607 546.406L324.263 544.067L321.924 541.723L319.58 539.384L317.241 537.045L314.898 534.701L312.559 532.362L310.215 530.018L307.876 527.679L305.532 525.335L303.193 523.021L300.855 520.682L298.511 518.338L296.172 515.999L293.828 513.655L291.489 511.316L289.145 508.977L288.59 508.417L288.921 508.32L289.706 509.099L292.045 511.444L294.388 513.783L296.727 516.122L299.071 518.466L301.41 520.805L303.749 523.149L306.093 525.488L308.431 527.832L310.775 530.171L313.114 532.51L315.458 534.854L317.797 537.193L320.141 539.537L322.454 541.876L324.798 544.215L327.137 546.559L329.481 548.898L331.819 551.242L332.701 552.124C332.67 552.236 332.635 552.343 332.604 552.455L331.29 551.089Z" fill="#5DB77D"/>
<path d="M331.422 555.905L331.289 555.773L328.945 553.429L326.607 551.09L322.092 546.58L321.924 546.406L319.58 544.067L317.241 541.723L314.897 539.384L312.558 537.045L310.215 534.701L307.876 532.362L305.532 530.018L303.193 527.679L300.854 525.335L298.505 523.021L296.166 520.682L293.823 518.338L291.484 515.999L289.14 513.655L286.786 511.301L285.094 509.609L285.4 509.487L287.341 511.428L289.685 513.767L292.024 516.111L294.368 518.456L296.707 520.795L299.05 523.139L301.389 525.478L303.728 527.822L306.072 530.161L308.411 532.5L310.755 534.844L313.093 537.183L315.437 539.527L317.797 541.876L320.14 544.215L322.479 546.559L324.823 548.898L327.162 551.242L329.506 553.581L331.544 555.62L331.422 555.905Z" fill="#5DB77D"/>
<path d="M333.628 539.384L331.289 537.045L328.945 534.701L326.606 532.362L324.262 530.018L321.923 527.679L319.579 525.335L317.241 522.996L314.897 520.657L312.558 518.313L310.214 515.974L307.875 513.63L305.531 511.291L303.193 508.952L301.338 507.097L301.812 507.138L303.748 509.074L306.092 511.418L308.431 513.757L310.775 516.101L313.113 518.445L315.457 520.784L317.796 523.129L320.14 525.468L322.479 527.812L324.823 530.151L327.161 532.49L329.505 534.834L331.844 537.173L333.882 539.211C333.882 539.369 333.882 539.527 333.923 539.685L333.628 539.384Z" fill="#5DB77D"/>
<path d="M358.635 490.274C358.635 490.274 373.031 506.632 372.825 513.424L364.122 529.796C363.108 531.557 362.543 533.541 362.476 535.573C362.409 537.604 362.843 539.621 363.738 541.445L409.612 521.691L382.766 476.337L358.635 490.274Z" fill="#13141B"/>
<path d="M351.067 280.631C348.117 285.341 360.493 399.552 360.493 399.552L400.319 485.181L356.466 507.135L312.215 411.393L318.159 280.631H351.067Z" fill="white" stroke="#13141B" stroke-linecap="round" stroke-linejoin="round"/>
<path d="M311.64 504.27C311.64 504.27 318.602 524.939 315.785 531.111L301.433 542.848C299.819 544.079 298.534 545.688 297.69 547.535C296.846 549.381 296.47 551.407 296.595 553.433L346.51 552.916L337.04 502.72L311.64 504.27Z" fill="#13141B"/>
<path d="M287.936 281.37L277.419 361.211C273.147 398.528 276.469 436.325 287.184 472.322L300.902 518.503H351.127L326.125 401.87L344.356 281.311L287.936 281.37Z" fill="white" stroke="#13141B" stroke-linecap="round" stroke-linejoin="round"/>
<path d="M293.129 183.797L287.11 151.214L300.651 138.414L318.883 181.907L293.129 183.797Z" fill="white" stroke="#13141B" stroke-linecap="round" stroke-linejoin="round"/>
<path d="M289.854 161.843L296.816 154.432L288.541 155.067L289.854 161.843Z" fill="#13141B" stroke="#13141B" stroke-linecap="round" stroke-linejoin="round"/>
<path d="M268.805 125.481C266.755 132.257 262.905 151.11 282.42 155.687C293.822 158.359 303.07 152.085 310.195 138.916C317.57 125.215 308.307 107.912 295.621 103.896C282.936 99.8806 273.392 110.378 268.805 125.481Z" fill="white" stroke="#13141B" stroke-linecap="round" stroke-linejoin="round"/>
<path d="M310.194 138.9C303.07 152.07 293.821 158.344 282.419 155.672C264.203 151.405 266.341 134.708 268.377 127.001C277.227 128.33 292.317 138.546 292.317 138.546C302.406 146.312 307.893 127.872 298.394 124.639C288.895 121.406 283.009 113.02 280.694 106.317C282.792 104.701 285.259 103.632 287.872 103.207C290.485 102.782 293.163 103.014 295.665 103.881C308.306 107.897 317.599 125.215 310.194 138.9Z" fill="#13141B" stroke="#13141B" stroke-linecap="round" stroke-linejoin="round"/>
<path d="M272.92 135.948C274.098 136.507 275.431 136.645 276.699 136.339C277.966 136.033 279.089 135.301 279.882 134.265" stroke="#F0EFE6" stroke-linecap="round" stroke-linejoin="round"/>
<path d="M292.317 138.561C294.448 139.358 296.795 139.358 298.926 138.561C303.498 136.893 306.02 132.316 304.56 128.345C303.572 125.643 301.227 124.58 298.395 124.698" fill="white"/>
<path d="M292.317 138.561C294.448 139.358 296.795 139.358 298.926 138.561C303.498 136.893 306.02 132.316 304.56 128.345C303.572 125.643 301.227 124.58 298.395 124.698" stroke="#13141B" stroke-linecap="round" stroke-linejoin="round"/>
<path d="M295.399 132.419C295.399 132.419 298.571 129.85 300.901 132.552L295.399 132.419Z" fill="white"/>
<path d="M295.399 132.419C295.399 132.419 298.571 129.85 300.901 132.552" stroke="#13141B" stroke-linecap="round" stroke-linejoin="round"/>
<path d="M251.901 234.096C247.709 235.949 243.205 236.996 238.626 237.182C200.275 238.259 197.074 176.902 171.099 146.223C167.514 141.986 164.284 138.28 162.16 138.502C158.575 138.886 158.133 135.549 162.47 133.822C162.47 133.822 156.776 135.785 156.127 133.969C155.345 131.77 162.75 129.201 162.75 129.201C162.75 129.201 155.375 132.153 155.832 129.348C156.289 126.543 163.001 125.037 163.001 125.037C163.001 125.037 149.637 126.647 149.017 124.122C148.501 122.055 159.062 121.317 168.384 121.848C173.883 122.15 179.145 124.186 183.415 127.665C189.416 132.866 194.721 138.821 199.198 145.382C199.198 145.382 221.737 179.486 239.172 208.983L294.102 180.194C297.404 178.424 301.14 177.628 304.876 177.897C308.612 178.166 312.195 179.49 315.21 181.715C319.959 185.332 323.706 190.75 321.243 198.398C320.325 201.067 318.839 203.506 316.889 205.545C314.938 207.584 312.569 209.175 309.944 210.209L251.901 234.096Z" fill="white" stroke="#13141B" stroke-linecap="round" stroke-linejoin="round"/>
<path d="M240.661 206.075L255.633 242.157C255.633 242.157 333.456 223.88 326.346 190.322C319.104 156.13 288.88 177.921 240.661 206.075Z" fill="#13141B" stroke="#13141B" stroke-linecap="round" stroke-linejoin="round"/>
<path d="M288.881 170.775L310.283 156.514C310.283 156.514 356.909 215.465 361.762 286.035H281.579L288.881 170.775Z" fill="#13141B" stroke="#13141B" stroke-linecap="round" stroke-linejoin="round"/>
<path d="M351.098 249.244C353.021 253.426 354.137 257.934 354.387 262.531C356.024 300.842 294.781 305.006 264.513 331.447C260.338 335.094 256.223 338.49 256.931 340.512C261.091 352.397 255.825 348.145 252.255 340.276C252.255 340.276 255.5 349.961 253.73 350.611C251.547 351.423 247.668 340.04 247.668 340.04C247.668 340.04 251.768 353.519 248.951 353.046C246.134 352.574 243.508 339.848 243.508 339.848C243.508 339.848 245.323 353.135 242.8 353.859C240.75 354.405 239.85 343.834 240.248 334.503C240.462 328.994 242.42 323.694 245.839 319.371C250.932 313.289 256.787 307.891 263.259 303.308C263.259 303.308 296.993 280.262 326.199 262.383L296.624 207.758C294.8 204.475 293.943 200.742 294.155 196.992C294.366 193.241 295.637 189.628 297.819 186.572C301.359 181.759 306.669 177.95 314.384 180.298C317.067 181.173 319.528 182.62 321.599 184.539C323.669 186.458 325.299 188.804 326.376 191.415L351.098 249.244Z" fill="white" stroke="#13141B" stroke-linecap="round" stroke-linejoin="round"/>
<path d="M351.157 249.155L315.889 265.868C315.889 265.868 276.328 191.799 303.144 177.906C330.698 163.644 351.157 249.155 351.157 249.155Z" fill="#13141B" stroke="#13141B" stroke-linecap="round" stroke-linejoin="round"/>
</svg>
