<svg width="40" height="40" viewBox="0 0 40 40" fill="none" xmlns="http://www.w3.org/2000/svg">
<path d="M33.0882 9.23175C33.9003 10.2957 34.5877 11.4517 35.1366 12.6763L19.5653 24.3092L13.0576 20.175V15.2012L19.5653 19.3355L33.0882 9.23175Z" fill="#21A038"/>
<path d="M6.41612 19.8234C6.41612 19.6002 6.42149 19.3785 6.43223 19.1581L2.4884 18.9622C2.47497 19.2479 2.46692 19.5363 2.46692 19.8274C2.46525 22.1019 2.90667 24.3542 3.7659 26.4552C4.62511 28.5563 5.88521 30.4648 7.47389 32.0712L10.2714 29.2374C9.04844 28.0031 8.0783 26.5359 7.41668 24.9203C6.75507 23.3048 6.41504 21.5725 6.41612 19.8234Z" fill="url(#paint0_linear_256_4393)"/>
<path d="M19.5621 6.50122C19.7822 6.50122 20.001 6.50939 20.2184 6.52027L20.4158 2.52201C20.1331 2.5084 19.8484 2.5016 19.5621 2.5016C17.3168 2.49882 15.0932 2.94555 13.0189 3.81612C10.9445 4.68669 9.06021 5.96397 7.47424 7.5746L10.2717 10.4097C11.4897 9.16993 12.9376 8.18638 14.5319 7.51562C16.1263 6.84487 17.8357 6.50012 19.5621 6.50122Z" fill="url(#paint1_linear_256_4393)"/>
<path d="M19.5623 33.1464C19.3422 33.1464 19.1234 33.1464 18.9046 33.1287L18.7073 37.1256C18.9909 37.1401 19.276 37.1474 19.5623 37.1474C21.8067 37.1497 24.0292 36.7027 26.1025 35.8319C28.1758 34.9611 30.0588 33.6836 31.6436 32.073L28.8515 29.2393C27.6332 30.4784 26.1855 31.4614 24.5915 32.1319C22.9974 32.8024 21.2883 33.1472 19.5623 33.1464Z" fill="url(#paint2_linear_256_4393)"/>
<path d="M26.9716 8.82596L30.2953 6.3432C27.2574 3.85018 23.4654 2.49308 19.5564 2.50003V6.50101C22.2034 6.49768 24.7889 7.30837 26.9716 8.82596Z" fill="url(#paint3_linear_256_4393)"/>
<path d="M36.6556 19.8233C36.6578 18.7825 36.5679 17.7434 36.3871 16.7188L32.7078 19.4668C32.7078 19.5853 32.7078 19.7036 32.7078 19.8233C32.7087 21.6847 32.3237 23.5256 31.5778 25.2266C30.8317 26.9275 29.7413 28.4506 28.3773 29.6972L31.0312 32.6698C32.8045 31.0473 34.2216 29.0653 35.1905 26.8523C36.1595 24.6392 36.6586 22.2444 36.6556 19.8233Z" fill="#21A038"/>
<path d="M19.5623 33.1464C17.7255 33.147 15.9089 32.7567 14.2303 32.0007C12.5518 31.2447 11.0486 30.1398 9.81816 28.7577L6.88647 31.4459C8.48717 33.2433 10.4428 34.6797 12.6265 35.6619C14.8102 36.6441 17.1732 37.1502 19.5623 37.1473V33.1464Z" fill="url(#paint4_linear_256_4393)"/>
<path d="M10.7466 9.94968L8.09407 6.97717C6.32024 8.5993 4.90266 10.5812 3.93325 12.7943C2.96385 15.0073 2.46428 17.4022 2.46693 19.8236H6.41613C6.41531 17.9622 6.80039 16.1214 7.54637 14.4204C8.29236 12.7195 9.38263 11.1963 10.7466 9.94968Z" fill="url(#paint5_linear_256_4393)"/>
<defs>
<linearGradient id="paint0_linear_256_4393" x1="8.27259" y1="31.5719" x2="3.85416" y2="18.9688" gradientUnits="userSpaceOnUse">
<stop offset="0.14" stop-color="#F1E813"/>
<stop offset="0.3" stop-color="#E6E418"/>
<stop offset="0.58" stop-color="#C9DA26"/>
<stop offset="0.89" stop-color="#A2CC39"/>
</linearGradient>
<linearGradient id="paint1_linear_256_4393" x1="8.60181" y1="8.28202" x2="19.7524" y2="4.0891" gradientUnits="userSpaceOnUse">
<stop offset="0.06" stop-color="#0FA7DF"/>
<stop offset="0.54" stop-color="#0098F8"/>
<stop offset="0.92" stop-color="#0290EA"/>
</linearGradient>
<linearGradient id="paint2_linear_256_4393" x1="18.4469" y1="34.7326" x2="31.03" y2="31.9277" gradientUnits="userSpaceOnUse">
<stop offset="0.12" stop-color="#A2CC39"/>
<stop offset="0.28" stop-color="#86C239"/>
<stop offset="0.87" stop-color="#219F38"/>
</linearGradient>
<linearGradient id="paint3_linear_256_4393" x1="18.7349" y1="3.84004" x2="29.5038" y2="7.11914" gradientUnits="userSpaceOnUse">
<stop offset="0.06" stop-color="#0290EA"/>
<stop offset="0.79" stop-color="#0C89CA"/>
</linearGradient>
<linearGradient id="paint4_linear_256_4393" x1="7.87711" y1="30.9588" x2="19.6097" y2="35.2855" gradientUnits="userSpaceOnUse">
<stop offset="0.13" stop-color="#F1E813"/>
<stop offset="0.3" stop-color="#EAE616"/>
<stop offset="0.53" stop-color="#D8DF1F"/>
<stop offset="0.8" stop-color="#BAD52D"/>
<stop offset="0.98" stop-color="#A2CC39"/>
</linearGradient>
<linearGradient id="paint5_linear_256_4393" x1="3.93814" y1="20.3079" x2="8.74279" y2="7.97522" gradientUnits="userSpaceOnUse">
<stop offset="0.07" stop-color="#A2CC39"/>
<stop offset="0.26" stop-color="#81C45E"/>
<stop offset="0.92" stop-color="#0FA7DF"/>
</linearGradient>
</defs>
</svg>
