<svg width="40" height="40" viewBox="0 0 40 40" fill="none" xmlns="http://www.w3.org/2000/svg">
<path d="M33.689 7.576C33.6618 7.37731 33.4882 7.26708 33.3441 7.25508C33.2012 7.24308 30.4003 7.20052 30.4003 7.20052C30.4003 7.20052 28.0578 4.92574 27.8264 4.69433C27.595 4.46292 27.1431 4.53278 26.9673 4.58517C26.9652 4.58627 26.5275 4.72162 25.7907 4.94975C25.6673 4.55025 25.4861 4.05905 25.2274 3.56567C24.3935 1.9742 23.1721 1.13262 21.6963 1.13045C21.6941 1.13045 21.693 1.13045 21.6908 1.13045C21.5882 1.13045 21.4867 1.14027 21.3841 1.149C21.3405 1.0966 21.2968 1.0453 21.2509 0.995089C20.608 0.30742 19.7839 -0.027684 18.7961 0.00178762C16.8902 0.0563648 14.9921 1.4328 13.453 3.87786C12.3702 5.59812 11.546 7.75941 11.3125 9.43272C9.1239 10.1106 7.59355 10.5843 7.55972 10.5952C6.45507 10.9423 6.42015 10.9761 6.27606 12.0175C6.16909 12.8045 3.27869 35.155 3.27869 35.155L27.5011 39.3443L37.9995 36.7344C37.9995 36.7344 33.7163 7.77469 33.689 7.576ZM24.578 5.32524C24.0202 5.4977 23.386 5.69418 22.6983 5.90704C22.6841 4.94211 22.5695 3.59951 22.1198 2.4392C23.5661 2.71318 24.2778 4.3494 24.578 5.32524ZM21.431 6.29999C20.1616 6.69292 18.7764 7.1219 17.3869 7.552C17.7776 6.05548 18.5188 4.56553 19.4292 3.5886C19.7675 3.22511 20.2412 2.82015 20.8023 2.58874C21.3295 3.68902 21.4441 5.24665 21.431 6.29999ZM18.8342 1.27016C19.2818 1.26033 19.6584 1.35858 19.9804 1.57033C19.4652 1.83776 18.9674 2.22199 18.5003 2.723C17.2897 4.02194 16.3619 6.03802 15.9919 7.98315C14.8381 8.34007 13.7094 8.69049 12.6703 9.01141C13.3264 5.94961 15.8925 1.3553 18.8342 1.27016Z" fill="#95BF47"/>
<path d="M33.3449 7.25632C33.202 7.24432 30.4011 7.20176 30.4011 7.20176C30.4011 7.20176 28.0586 4.92696 27.8272 4.69556C27.741 4.60933 27.6242 4.56457 27.5019 4.54602L27.503 39.3433L38.0004 36.7345C38.0004 36.7345 33.7172 7.77592 33.6899 7.57723C33.6626 7.37855 33.488 7.26832 33.3449 7.25632Z" fill="#5E8E3E"/>
<path d="M21.683 12.6538L20.4638 17.2153C20.4638 17.2153 19.1037 16.5964 17.4915 16.6979C15.1272 16.8475 15.1021 18.3385 15.1261 18.713C15.2549 20.753 20.622 21.1984 20.9233 25.9772C21.1602 29.7364 18.929 32.3081 15.7145 32.5111C11.8558 32.7545 9.73169 30.4787 9.73169 30.4787L10.5493 27.001C10.5493 27.001 12.6876 28.6143 14.3991 28.5063C15.5169 28.4353 15.9164 27.5261 15.876 26.8831C15.7079 24.2219 11.3373 24.3791 11.0612 20.0064C10.8287 16.3269 13.2454 12.5981 18.5775 12.2619C20.6318 12.1299 21.683 12.6538 21.683 12.6538Z" fill="white"/>
</svg>
