<svg width="40" height="40" viewBox="0 0 40 40" fill="none" xmlns="http://www.w3.org/2000/svg">
<path d="M20 36.25C28.9746 36.25 36.25 28.9746 36.25 20C36.25 11.0254 28.9746 3.75 20 3.75C11.0254 3.75 3.75 11.0254 3.75 20C3.75 28.9746 11.0254 36.25 20 36.25Z" fill="url(#paint0_linear_256_4347)"/>
<path fill-rule="evenodd" clip-rule="evenodd" d="M11.1055 19.8288C15.8427 17.7649 19.0016 16.4042 20.5821 15.7468C25.0949 13.8698 26.0326 13.5437 26.6438 13.533C26.7783 13.5306 27.0788 13.5639 27.2735 13.7219C27.4379 13.8553 27.4832 14.0355 27.5048 14.1619C27.5265 14.2884 27.5534 14.5765 27.532 14.8017C27.2874 17.3711 26.2293 23.6067 25.6909 26.4846C25.4631 27.7023 25.0146 28.1106 24.5804 28.1506C23.6367 28.2374 22.9201 27.5269 22.0061 26.9278C20.5759 25.9903 19.768 25.4067 18.3797 24.4918C16.7753 23.4346 17.8154 22.8535 18.7297 21.9038C18.969 21.6553 23.1268 17.8734 23.2073 17.5303C23.2174 17.4874 23.2267 17.3275 23.1317 17.243C23.0367 17.1586 22.8964 17.1874 22.7952 17.2104C22.6518 17.243 20.367 18.7531 15.9409 21.7409C15.2924 22.1862 14.705 22.4032 14.1786 22.3918C13.5984 22.3793 12.4823 22.0638 11.6527 21.7941C10.635 21.4633 9.82615 21.2884 9.89661 20.7266C9.93327 20.434 10.3362 20.1347 11.1055 19.8288Z" fill="white"/>
<defs>
<linearGradient id="paint0_linear_256_4347" x1="20" y1="3.75" x2="20" y2="36.0089" gradientUnits="userSpaceOnUse">
<stop stop-color="#2AABEE"/>
<stop offset="1" stop-color="#229ED9"/>
</linearGradient>
</defs>
</svg>
