<svg width="40" height="40" viewBox="0 0 40 40" fill="none" xmlns="http://www.w3.org/2000/svg">
<path d="M20.9733 17.7466V31.6133H18.3867V16.7733L20.9733 17.7466Z" fill="#13141B"/>
<path d="M10.64 16.4534C10.64 12.9067 12.5733 10.9734 14.84 10.9734C17.1067 10.9734 17.4267 11.2934 20 12.5867C22.5733 13.8801 23.2267 14.2001 24.52 14.2001C25.8133 14.2001 26.4533 13.2267 26.4533 11.2934H28.7067C29.0267 15.1601 26.7733 16.7734 24.5067 16.7734C22.24 16.7734 21.6 16.4534 19.3467 15.1601C17.0933 13.8667 16.44 13.5467 15.1467 13.5467C13.8533 13.5467 13.2133 14.5201 12.8933 16.7734L10.64 16.4534Z" fill="#13141B"/>
<path d="M20 40C8.97333 40 0 31.0267 0 20C0 8.97333 8.97333 0 20 0C31.0267 0 40 8.97333 40 20C40 31.0267 31.0267 40 20 40ZM20 1.29333C9.68 1.29333 1.29333 9.68 1.29333 20C1.29333 30.32 9.68 38.7067 20 38.7067C30.32 38.7067 38.7067 30.32 38.7067 20C38.7067 9.68 30.32 1.29333 20 1.29333Z" fill="#13141B"/>
</svg>
