<svg width="58" height="40" viewBox="0 0 58 40" fill="none" xmlns="http://www.w3.org/2000/svg">
<path d="M34.8289 3.75C25.6824 3.75 18.4078 11.0519 18.4078 20C18.4078 29.0513 25.7866 36.25 34.8289 36.25C43.8704 36.25 51.25 28.9481 51.25 20C51.25 11.0519 43.8704 3.75 34.8289 3.75ZM34.8289 25.9654C31.5028 25.9654 28.6956 23.1882 28.6956 19.8968C28.6956 16.6062 31.5028 13.8291 34.8289 13.8291C38.1542 13.8291 40.9605 16.6062 40.9605 19.8968C40.8563 23.2914 38.1542 25.9654 34.8281 25.9654H34.8289ZM18.3035 8.378V32.0331H12.4823L5 8.378H18.3035Z" fill="#8B3FFD"/>
</svg>
