<svg width="40" height="40" viewBox="0 0 40 40" fill="none" xmlns="http://www.w3.org/2000/svg">
<path d="M4.37516 29.375C0.875158 26.375 2.91682 13.5416 4.37516 7.49998C5.20844 6.45832 7.25 4.25 8.75 3.75C10.625 3.125 15.625 2.49998 18.75 1.87498C21.25 1.37498 28.125 2.91665 31.25 3.74998L35.625 8.12498L37.5 15L36.25 23.75L32.5 31.25L18.75 33.125L17.5 32.5L11.875 39.375L11.25 38.75L10.625 33.75V32.5C10.0001 32.7083 7.87516 32.375 4.37516 29.375Z" fill="#9747FF"/>
<path d="M18.9975 0.00630873C15.7875 0.0450587 8.88626 0.572559 5.02626 4.11381C2.15501 6.95881 1.15251 11.1651 1.03501 16.3663C0.937511 21.5488 0.820011 31.2813 10.2013 33.9313V37.9676C10.2013 37.9676 10.1425 39.5826 11.21 39.9138C12.525 40.3301 13.2738 39.0876 14.5238 37.7526L16.855 35.1163C23.2738 35.6501 28.19 34.4201 28.7563 34.2376C30.0588 33.8213 37.395 32.8838 38.5938 23.1501C39.8238 13.0976 37.995 6.76381 34.6938 3.89881H34.6738C33.6775 2.98131 29.6738 0.0638087 20.7288 0.0313087C20.7288 0.0313087 20.065 -0.0136913 18.9975 0.00505873V0.00630873ZM19.1075 2.83256C20.0188 2.82631 20.5725 2.86506 20.5725 2.86506C28.1438 2.88506 31.7575 5.16381 32.61 5.93131C35.39 8.31381 36.8225 14.0238 35.7738 22.4163C34.7775 30.5538 28.8275 31.0688 27.7263 31.4201C27.2575 31.5701 22.9275 32.6376 17.4725 32.2863C17.4725 32.2863 13.41 37.1888 12.14 38.4513C11.9388 38.6726 11.7038 38.7376 11.5538 38.7051C11.3388 38.6526 11.2738 38.3863 11.2863 38.0213L11.325 31.3226C3.36876 29.1226 3.83751 20.8213 3.92251 16.4851C4.02001 12.1488 4.83376 8.60131 7.25626 6.19881C10.5175 3.25006 16.3775 2.85256 19.105 2.83256H19.1075ZM19.7075 7.16756C19.642 7.1669 19.5771 7.17921 19.5164 7.20377C19.4557 7.22834 19.4004 7.26467 19.3538 7.31069C19.3072 7.3567 19.2702 7.41148 19.2449 7.47187C19.2195 7.53227 19.2064 7.59707 19.2063 7.66256C19.2063 7.94256 19.4338 8.16381 19.7075 8.16381C20.9469 8.14024 22.1787 8.36227 23.3318 8.81709C24.485 9.27191 25.5367 9.95053 26.4263 10.8138C28.2425 12.5776 29.1275 14.9476 29.1613 18.0463C29.1613 18.3201 29.3825 18.5476 29.6625 18.5476V18.5276C29.7945 18.5279 29.9212 18.476 30.0151 18.3833C30.109 18.2906 30.1624 18.1645 30.1638 18.0326C30.2245 16.574 29.9879 15.1183 29.4685 13.754C28.9492 12.3897 28.1578 11.1453 27.1425 10.0963C25.1638 8.16256 22.6563 7.16631 19.7075 7.16631V7.16756ZM13.1188 8.31381C12.7649 8.26211 12.4041 8.33313 12.0963 8.51506H12.07C11.3553 8.93398 10.7115 9.46346 10.1625 10.0838C9.70626 10.6113 9.45876 11.1451 9.39376 11.6588C9.35501 11.9651 9.38126 12.2713 9.47251 12.5638L9.50501 12.5838C10.0188 14.0938 10.69 15.5463 11.51 16.9138C12.5663 18.835 13.8662 20.6118 15.3775 22.2001L15.4225 22.2651L15.4938 22.3176L15.5388 22.3701L15.5913 22.4151C17.1853 23.9308 18.9664 25.2368 20.8913 26.3013C23.0913 27.4988 24.4263 28.0651 25.2275 28.3001V28.3126C25.4625 28.3838 25.6763 28.4163 25.8913 28.4163C26.5741 28.3663 27.2206 28.089 27.7275 27.6288C28.345 27.0797 28.8686 26.4332 29.2775 25.7151V25.7026C29.6613 24.9801 29.5313 24.2963 28.9775 23.8338C27.8685 22.8644 26.6693 22.0034 25.3963 21.2626C24.5438 20.8001 23.6775 21.0801 23.3263 21.5488L22.5775 22.4926C22.1938 22.9613 21.4963 22.8963 21.4963 22.8963L21.4763 22.9088C16.275 21.5801 14.8875 16.3138 14.8875 16.3138C14.8875 16.3138 14.8225 15.5976 15.3038 15.2326L16.2413 14.4776C16.69 14.1126 17.0025 13.2476 16.5213 12.3938C15.7855 11.119 14.9264 9.9195 13.9563 8.81256C13.7442 8.5516 13.4466 8.37405 13.1163 8.31131L13.1188 8.31381ZM20.5725 9.79881C19.9088 9.79881 19.9088 10.8013 20.5788 10.8013C21.4041 10.8147 22.2187 10.9906 22.9761 11.319C23.7334 11.6473 24.4186 12.1217 24.9925 12.7151C25.516 13.2926 25.9183 13.9693 26.1756 14.7051C26.4328 15.4409 26.5397 16.2209 26.49 16.9988C26.4923 17.1305 26.546 17.256 26.6397 17.3485C26.7334 17.441 26.8596 17.4932 26.9913 17.4938L27.0113 17.5201C27.1439 17.5191 27.2708 17.466 27.3646 17.3722C27.4584 17.2784 27.5115 17.1514 27.5125 17.0188C27.5575 15.0326 26.94 13.3663 25.7288 12.0313C24.5113 10.6963 22.8125 9.94756 20.6438 9.79881H20.5725ZM21.3938 12.4938C20.71 12.4738 20.6838 13.4963 21.3613 13.5163C23.0088 13.6013 23.8088 14.4338 23.9138 16.1463C23.916 16.2763 23.9691 16.4002 24.0616 16.4916C24.1542 16.5829 24.2788 16.6344 24.4088 16.6351H24.4288C24.4956 16.6322 24.5612 16.616 24.6217 16.5875C24.6823 16.5591 24.7365 16.5188 24.7813 16.4691C24.8261 16.4194 24.8606 16.3613 24.8827 16.2982C24.9048 16.235 24.9141 16.1681 24.91 16.1013C24.7925 13.8688 23.575 12.6113 21.4138 12.4951H21.3938V12.4938Z" fill="white"/>
</svg>
