<svg width="40" height="40" viewBox="0 0 40 40" fill="none" xmlns="http://www.w3.org/2000/svg">
<path d="M2.5 19.3C2.5 11.3804 2.5 7.42061 4.9603 4.9603C7.42061 2.5 11.3804 2.5 19.3 2.5H20.7C28.6196 2.5 32.5794 2.5 35.0397 4.9603C37.5 7.42061 37.5 11.3804 37.5 19.3V20.7C37.5 28.6196 37.5 32.5794 35.0397 35.0397C32.5794 37.5 28.6196 37.5 20.7 37.5H19.3C11.3804 37.5 7.42061 37.5 4.9603 35.0397C2.5 32.5794 2.5 28.6196 2.5 20.7V19.3Z" fill="#0077FF"/>
<path d="M21.1233 27.7146C13.1462 27.7146 8.59632 22.2459 8.40674 13.1459H12.4026C12.5338 19.825 15.4796 22.6542 17.8129 23.2375V13.1459H21.5756V18.9063C23.8797 18.6584 26.3003 16.0334 27.1169 13.1459H30.8795C30.2524 16.7042 27.6274 19.3292 25.7608 20.4084C27.6274 21.2834 30.6172 23.573 31.7547 27.7146H27.6128C26.7233 24.9438 24.5068 22.8 21.5756 22.5084V27.7146H21.1233Z" fill="white"/>
</svg>
