<svg width="40" height="40" viewBox="0 0 40 40" fill="none" xmlns="http://www.w3.org/2000/svg">
<path d="M20 40C31.0457 40 40 31.0457 40 20C40 8.9543 31.0457 0 20 0C8.9543 0 0 8.9543 0 20C0 31.0457 8.9543 40 20 40Z" fill="url(#paint0_linear_256_4438)"/>
<path d="M25.4965 25.415H28.7619C29.687 25.415 30.4489 24.6531 30.4489 23.7007C30.4489 22.7211 29.7142 21.9864 28.7619 21.9864H25.4965V25.415ZM28.3809 16.8708H25.4965V20.1089H28.3809C29.2789 20.1089 29.9591 19.4014 29.9591 18.4762C29.9591 17.5782 29.2789 16.8708 28.3809 16.8708ZM30.7482 20.898C31.8367 21.4694 32.4625 22.4762 32.4625 23.7823C32.4625 24.7891 32.1088 25.6327 31.3741 26.3129C30.6394 26.9932 29.7959 27.3197 28.7346 27.3197H23.4829V14.966H28.3809C29.3877 14.966 30.2584 15.2925 30.9387 15.9456C31.6462 16.5987 31.9999 17.415 31.9999 18.3674C31.9999 19.4558 31.5646 20.2993 30.7482 20.898ZM11.5374 27.2925H9.19723L5.71423 14.966H7.83668L10.4217 24.5987L13.2516 14.966H15.1292L17.9047 24.5987L20.4897 14.966H22.6122L19.1292 27.2925H16.7891L14.1768 18.2857L11.5374 27.2925Z" fill="white"/>
<defs>
<linearGradient id="paint0_linear_256_4438" x1="32.1429" y1="6.25001" x2="11.25" y2="36.6071" gradientUnits="userSpaceOnUse">
<stop stop-color="#501277"/>
<stop offset="1" stop-color="#BF11A6"/>
</linearGradient>
</defs>
</svg>
