<svg width="40" height="40" viewBox="0 0 40 40" fill="none" xmlns="http://www.w3.org/2000/svg">
<g clip-path="url(#clip0_256_4341)">
<path d="M10.5724 34.2583L11.2263 34.5816C13.9513 36.1975 17.003 36.9516 20.0549 36.9516C29.6463 36.9516 37.4938 29.195 37.4938 19.7147C37.4938 15.1901 35.6408 10.7731 32.3711 7.5411C29.1013 4.30913 24.7414 2.47778 20.0549 2.47778C10.4635 2.47778 2.61582 10.2344 2.72488 19.8225C2.72488 23.0543 3.70582 26.1786 5.34066 28.8718L5.7766 29.5182L4.03285 35.8744L10.5724 34.2583Z" fill="#00E676"/>
<path d="M34.2239 5.81745C30.5181 2.04695 25.3955 0 20.1637 0C9.04656 0 0.109062 8.94162 0.217969 19.8224C0.217969 23.2698 1.19891 26.6096 2.83391 29.6259L0 39.8604L10.5723 37.1671C13.5152 38.7832 16.7848 39.5373 20.0548 39.5373C31.0631 39.5373 40.0006 30.5955 40.0006 19.7149C40.0006 14.436 37.9297 9.48031 34.2241 5.81745H34.2239ZM20.1637 36.1977C17.2209 36.1977 14.2781 35.4437 11.7712 33.9354L11.1173 33.6122L4.79578 35.2281L6.43062 29.0876L5.99469 28.4411C1.19891 20.7923 3.48781 10.6653 11.3353 5.9251C19.1828 1.18502 29.3192 3.44741 34.115 11.204C38.9106 18.9606 36.6217 28.9796 28.7744 33.7198C26.2673 35.3358 23.2156 36.1975 20.1637 36.1975V36.1977ZM29.7552 24.2397L28.5562 23.701C28.5562 23.701 26.8125 22.9469 25.7225 22.4082C25.6134 22.4082 25.5045 22.3004 25.3955 22.3004C25.0684 22.3004 24.8505 22.4082 24.6325 22.516C24.6325 22.516 24.5236 22.6236 22.9977 24.3473C22.8886 24.5628 22.6706 24.6706 22.4527 24.6706H22.3436C22.2347 24.6706 22.0167 24.5628 21.9077 24.4551L21.3627 24.2397C20.1637 23.701 19.0739 23.0545 18.2019 22.1927C17.9839 21.9773 17.6569 21.7619 17.4389 21.5464C16.6759 20.7923 15.913 19.9303 15.3681 18.9608L15.2591 18.7453C15.1502 18.6375 15.1502 18.5299 15.0411 18.3144C15.0411 18.099 15.0411 17.8836 15.1502 17.7758C15.1502 17.7758 15.5861 17.2371 15.913 16.914C16.1311 16.6984 16.24 16.3753 16.458 16.1598C16.6759 15.8366 16.785 15.4057 16.6759 15.0825C16.567 14.5438 15.2591 11.6351 14.9322 10.9887C14.7141 10.6655 14.4963 10.5578 14.1692 10.45H12.9703C12.7522 10.45 12.5344 10.5578 12.3162 10.5578L12.2072 10.6655C11.9892 10.7733 11.7713 10.9887 11.5533 11.0964C11.3353 11.312 11.2263 11.5273 11.0083 11.7429C10.2453 12.7124 9.80937 13.8975 9.80937 15.0825C9.80937 15.9442 10.0273 16.8062 10.3544 17.5603L10.4634 17.8836C11.4444 19.9303 12.7522 21.7619 14.4963 23.3778L14.9322 23.8086C15.2591 24.1319 15.5861 24.3473 15.8041 24.6704C18.093 26.6097 20.7087 28.0102 23.6516 28.7643C23.9786 28.872 24.4145 28.872 24.7416 28.9798H25.8314C26.3764 28.9798 27.0303 28.7643 27.4664 28.5489C27.7933 28.3334 28.0113 28.3334 28.2292 28.118L28.4473 27.9024C28.6653 27.6869 28.8833 27.5793 29.1012 27.3639C29.3192 27.1484 29.5372 26.933 29.6462 26.7174C29.8642 26.2865 29.9731 25.7478 30.0822 25.2093V24.4551C30.0822 24.4551 29.9731 24.3473 29.7552 24.2397Z" fill="white"/>
</g>
<defs>
<clipPath id="clip0_256_4341">
<rect width="40" height="40" fill="white"/>
</clipPath>
</defs>
</svg>
