<svg width="40" height="40" viewBox="0 0 40 40" fill="none" xmlns="http://www.w3.org/2000/svg">
<path d="M20 0C8.97355 0 0 8.97355 0 20C0 31.0264 8.97355 40 20 40C31.0264 40 40 31.0264 40 20C40 8.97355 31.0264 0 20 0ZM2.01059 20C2.01059 17.3968 2.56084 14.9207 3.57672 12.6773L12.1481 36.1693C6.15873 33.2699 2.01059 27.1111 2.01059 20ZM20 37.9895C18.2433 37.9895 16.5291 37.7355 14.9207 37.2487L20.3175 21.5661L25.8413 36.6984C25.8836 36.7831 25.9259 36.8677 25.9683 36.9524C24.1059 37.6296 22.0952 37.9895 20 37.9895ZM22.4761 11.5767C23.5556 11.5132 24.5291 11.4074 24.5291 11.4074C25.5027 11.3016 25.3756 9.86244 24.4233 9.92592C24.4233 9.92592 21.5027 10.1587 19.6403 10.1587C17.8836 10.1587 14.8995 9.92592 14.8995 9.92592C13.9259 9.86244 13.8201 11.3439 14.7936 11.4074C14.7936 11.4074 15.7037 11.5132 16.6772 11.5767L19.4709 19.2381L15.5344 31.0476L8.99471 11.5767C10.0741 11.5132 11.0476 11.4074 11.0476 11.4074C12.0212 11.3016 11.8942 9.86244 10.9418 9.92592C10.9418 9.92592 8.02116 10.1587 6.15873 10.1587C5.82011 10.1587 5.41799 10.1587 4.99471 10.1376C8.21164 5.24868 13.7355 2.03175 20.0212 2.03175C24.6984 2.03175 28.9736 3.83069 32.1693 6.75132C32.0847 6.75132 32.0212 6.73016 31.9365 6.73016C30.1799 6.73016 28.91 8.27513 28.91 9.92592C28.91 11.4074 29.7567 12.6561 30.6667 14.1376C31.3439 15.3439 32.1481 16.8677 32.1481 19.09C32.1481 20.6349 31.5556 22.4127 30.7725 24.91L28.9736 30.8995L22.4761 11.5767ZM35.7884 11.3651C37.1852 13.9259 37.9895 16.8677 37.9895 20C37.9895 26.6244 34.3916 32.4233 29.0583 35.5344L34.5608 19.6613C35.5767 17.1005 35.9365 15.0476 35.9365 13.2275C35.8941 12.5503 35.8519 11.9365 35.7884 11.3651Z" fill="#3771C8"/>
</svg>
