<svg width="40" height="40" viewBox="0 0 40 40" fill="none" xmlns="http://www.w3.org/2000/svg">
<path d="M6.36938 27.2758C4.57133 23.6206 4.29471 17.4138 7.06094 15.0689C8.85899 13.5517 10.5879 13.4138 12.1785 12.862C13.2158 12.4483 16.6736 11.9655 17.7801 12.1724C19.0941 12.5172 19.5782 13.8276 18.7483 15.4827C16.1204 20.862 15.4288 21.7586 13.4233 24.4482C12.7317 25.3448 10.9337 27.6206 10.0346 28.1033C8.51322 29.1378 6.99179 28.6552 6.36938 27.2758ZM29.5365 31.1378C26.8396 33.5517 22.3444 35 19.3707 35C16.397 35 15.083 34.5172 13.285 33.7586C7.82166 31.3447 17.711 28.1724 24.2116 28.3102C27.047 28.3102 30.9889 29.2069 29.5365 31.1378ZM31.9571 10.7931C33.8934 13.3448 35 16.5172 35 19.8965C35 21.3448 34.7926 22.7241 34.3775 24.0344C33.6169 26.5862 31.3347 26.862 29.3984 26.6551C27.2545 26.4482 25.1106 26.2413 22.8977 26.1034C20.6155 25.9655 18.4025 24.7931 19.7165 21.6206C19.7856 21.2758 24.1425 12.7241 24.2808 12.5172C25.8022 9.9655 30.0899 8.65517 31.9571 10.7931ZM19.9931 5C21.5837 5 25.3181 5.2069 26.4246 6.65517C26.9779 7.34483 27.047 8.37931 25.1106 8.44826C22.4827 8.44826 16.3278 8.44826 12.5934 10.2414C7.1301 12.862 9.55055 9.34482 10.7262 8.24137C13.4233 5.62069 17.0194 5 19.9931 5Z" fill="#F00606"/>
</svg>
