<svg width="262" height="508" viewBox="0 0 262 508" fill="none" xmlns="http://www.w3.org/2000/svg">
<path d="M63.9994 82.6382L66.172 84.7994L71.505 90.1444L76.8495 95.4778L82.1824 100.823L87.5154 106.156L92.8599 111.49L98.1928 116.835L103.537 122.168L108.87 127.513L119.327 137.971L119.583 138.238L124.927 143.571L130.26 148.905L135.605 154.25L140.938 159.583L143.354 162H142.343L139.671 159.327L134.327 153.982L128.994 148.649L123.649 143.304L118.316 137.971L112.972 132.626L107.639 127.281L102.294 121.947L96.9613 116.602L91.6283 111.269L86.2954 105.924L80.9625 100.59L75.6179 95.2571L70.285 89.912L64.9405 84.5787L64.0691 83.7072C64.011 83.3121 63.9994 83.01 63.9994 82.6382Z" fill="#5DB77D"/>
<path d="M64.3133 88.2859L66.1723 90.145L71.5052 95.4784L76.8382 100.823L82.2176 106.157L92.6743 116.614L92.9299 116.87L98.2628 122.203L103.607 127.548L108.94 132.882L114.285 138.227L119.618 143.56L124.962 148.894L130.295 154.239L135.64 159.572L137.743 161.675L136.651 161.582L129.284 154.204L129.029 153.948L123.684 148.615L118.351 143.27L113.007 137.936L107.674 132.591L102.329 127.246L96.9964 121.913L91.6519 116.568L86.3189 111.235L80.986 105.89L75.6415 100.556L70.3085 95.2228L64.964 89.8778L64.476 89.3897C64.3715 89.0063 64.3366 88.6461 64.3133 88.2859Z" fill="#5DB77D"/>
<path d="M107.441 152.727C106.709 152.344 105.989 151.96 105.28 151.565L102.259 148.556L96.926 143.211L91.5815 137.878L86.2486 132.533L80.9156 127.188L75.5711 121.854L74.4092 120.692C74.0142 119.972 73.6192 119.251 73.2474 118.531L76.8956 122.18L82.2169 127.513L92.6736 137.971L92.9293 138.238L98.2622 143.571L103.607 148.905L107.441 152.727Z" fill="#5DB77D"/>
<path d="M117.073 157.027L115.481 156.423L112.972 153.913L107.639 148.58L102.294 143.235L96.9613 137.901L91.6284 132.556L86.2954 127.211L80.9625 121.878L75.618 116.533L70.2851 111.2L69.5763 110.491C69.3672 109.968 69.1697 109.433 68.9722 108.899L71.5515 111.478L76.8844 116.823L82.2173 122.168L87.5503 127.513L92.8948 132.847L98.2277 138.192L103.572 143.525L108.905 148.859L117.073 157.027Z" fill="#5DB77D"/>
<path d="M118.235 153.89L112.891 148.556L107.558 143.211L102.213 137.878L96.8804 132.533L91.5474 127.188L86.2145 121.855L80.8816 116.51L75.537 111.176L70.2041 105.831L66.8463 102.485C66.7185 102.032 66.5908 101.578 66.4746 101.125L71.4705 106.122L76.8151 111.455L82.148 116.8L87.4809 122.133L92.8255 127.478L98.1584 132.812L103.503 138.157L108.836 143.49L114.18 148.824L119.513 154.169L124.753 159.409L123.406 159.037L118.235 153.89Z" fill="#5DB77D"/>
<path d="M123.614 153.889L118.281 148.556L112.936 143.211L102.48 132.753L102.212 132.486L96.8794 127.141L91.5465 121.808L80.8807 111.129L75.5361 105.784L70.2032 100.451L65.2653 95.5128C65.184 95.1177 65.1259 94.7227 65.0562 94.3508L68.8322 98.1156L71.5045 100.788L76.8374 106.121L82.2168 111.49L87.5497 116.835L92.8943 122.168L98.2272 127.513L103.572 132.846L108.905 138.191L114.249 143.525L119.582 148.858L124.927 154.203L130.26 159.537L131.549 160.861L130.387 160.652L128.982 159.258L123.614 153.889Z" fill="#5DB77D"/>
<path d="M195.766 17.8708C200.294 21.5222 204.419 25.6473 208.07 30.176L203.69 25.7954L198.357 20.462L195.766 17.8708Z" fill="#5DB77D"/>
<path d="M65.0687 67.6838L66.1725 68.7877L71.5054 74.1327L76.8383 79.5242L82.2178 84.7995L87.5507 90.1445L92.8952 95.4779L98.2281 100.823L103.573 106.156L108.906 111.49L114.25 116.835L119.583 122.168L124.928 127.513L130.261 132.846L135.605 138.191L140.938 143.525L146.271 148.858L151.604 154.203L156.937 159.536L158.261 160.861L157.413 161.001L150.314 153.889L144.97 148.556L139.637 143.211L129.18 132.753L128.924 132.486L123.58 127.141L118.247 121.808L112.902 116.463L107.569 111.129L102.225 105.784L96.892 100.451L91.5475 95.1177L86.2145 89.7726L80.8816 84.4393L75.5371 79.0943L70.2041 73.7609L64.8945 68.4507C64.9642 68.2532 65.0222 67.9743 65.0687 67.6838Z" fill="#5DB77D"/>
<path d="M64.4297 72.3894L66.1725 74.1323L71.5054 79.5238L76.85 84.8572L82.1829 90.2022L90.1881 98.1151L92.8604 100.788L98.1933 106.121L103.538 111.454L108.871 116.799L114.215 122.133L119.548 127.478L124.893 132.811L130.226 138.156L135.57 143.49L140.903 148.823L146.248 154.168L151.581 159.501L153.567 161.488L152.661 161.57L150.337 159.246L144.958 153.889L139.625 148.556L134.281 143.211L128.948 137.877L123.603 132.532L118.27 127.187L112.926 121.854L102.248 111.176L96.9152 105.831L91.5823 100.497L82.9497 91.8638L80.9165 89.8188L75.5719 84.4854L70.239 79.1404L64.8944 73.807L64.3367 73.2493C64.3716 72.982 64.3949 72.6915 64.4297 72.3894Z" fill="#5DB77D"/>
<path d="M64.0572 77.3633L66.1718 79.5245L71.5047 84.8579L76.8376 90.2029L82.217 95.4782L87.5499 100.823L92.8945 106.157L98.2274 111.49L103.572 116.835L108.905 122.168L114.249 127.513L119.582 132.847L124.927 138.192L130.26 143.525L135.604 148.858L146.282 159.537L148.606 161.861H147.653L144.981 159.188L139.648 153.843L134.303 148.51L128.97 143.165L123.626 137.831L118.293 132.486L112.948 127.142L107.615 121.808L102.271 116.463L96.9377 111.13L91.6048 105.785L86.2719 100.451L80.9389 95.118L75.5944 89.773L70.2615 84.4396L64.9169 79.0946L64.0455 78.2231L64.0572 77.3633Z" fill="#5DB77D"/>
<path d="M71.3075 47.2456L71.5051 47.4432L76.8496 52.7765L82.2174 58.1099L87.5503 63.4549L92.8949 68.7883L98.2278 74.1333L103.572 79.4667L108.905 84.8L114.25 90.1451L119.583 95.4784L124.927 100.823L130.26 106.157L135.605 111.49L140.938 116.835L146.282 122.169L151.615 127.514L156.948 132.847L162.293 138.192L167.626 143.525L172.97 148.859L178.303 154.204L178.745 154.634L178.059 154.947L177.292 154.169L177.037 153.913L171.692 148.58L166.359 143.235L161.015 137.901L155.682 132.556L150.349 127.211L145.004 121.878L139.671 116.533L134.327 111.2L128.994 105.855L123.649 100.521L118.316 95.1879L112.972 89.8429L107.639 84.5096L102.294 79.1646L96.9614 73.8312L91.6284 68.4978L86.2955 63.1528L80.9626 57.8194L75.618 52.4744L71.0519 47.9079C71.11 47.6988 71.203 47.4664 71.3075 47.2456Z" fill="#5DB77D"/>
<path d="M69.4366 51.6375C69.5296 51.4051 69.6109 51.1727 69.7155 50.9287L71.5047 52.7994L76.8377 58.1328L82.1706 63.4778L87.5035 68.8112L92.8481 74.1562L98.1926 79.5244L103.537 84.8578L108.87 90.2028L116.875 98.1157L119.548 100.788L124.892 106.122L130.225 111.455L135.57 116.8L140.902 122.133L146.235 127.478L151.568 132.812L156.901 138.157L162.246 143.49L167.579 148.824L172.923 154.169L174.968 156.214L174.259 156.492L171.68 153.89L166.347 148.556L161.014 143.211L150.348 132.533L145.004 127.188L139.671 121.855L128.993 111.176L123.649 105.831L118.316 100.498L112.971 95.1644L107.639 89.8194L102.294 84.486L96.961 79.141L91.6165 73.8076L86.2836 68.4742L80.9506 63.1293L75.6061 57.7958L70.2732 52.4509L69.4366 51.6375Z" fill="#5DB77D"/>
<path d="M77.0011 36.9155L82.2178 42.0979L87.5507 47.4429L92.8953 52.7763L98.2282 58.1096L103.573 63.4546L108.906 68.788L114.25 74.133L119.548 79.5245L124.893 84.8579L130.226 90.2029L135.57 95.5363L140.903 100.881L146.236 106.215L151.569 111.548L156.902 116.893L162.247 122.226L167.579 127.571L172.924 132.905L178.257 138.25L183.601 143.583L188.934 148.917L189.027 149.009L188.423 149.393L187.668 148.638L182.323 143.293L176.991 137.959L171.646 132.614L166.313 127.269L160.98 121.936L150.314 111.258L144.97 105.913L139.637 100.579L130.993 91.9458L128.959 89.9008L123.615 84.5674L118.282 79.2224L112.937 73.889L107.604 68.5556L102.26 63.2106L96.9269 57.8772L91.5824 52.5322L86.2495 47.1989L80.9165 41.8538L76.606 37.5546L77.0011 36.9155Z" fill="#5DB77D"/>
<path d="M74.5953 40.8423C74.7231 40.6331 74.8393 40.424 74.9555 40.2148L76.8377 42.0972L82.1706 47.4422L87.5151 52.7988L92.8597 58.1322L98.1926 63.4772L103.537 68.8106L108.87 74.1556L114.215 79.489L119.548 84.8223L124.892 90.1674L130.225 95.5007L135.57 100.846L140.902 106.179L146.247 111.512L151.58 116.857L156.913 122.191L162.257 127.536L167.59 132.869L172.935 138.214L178.268 143.548L183.612 148.881L185.727 151.007L185.111 151.368L182.334 148.602L177.001 143.257L171.657 137.924L166.324 132.579L160.991 127.234L155.658 121.9L150.325 116.555L144.981 111.222L139.648 105.877L134.303 100.544L128.97 95.2102L123.626 89.8652L118.235 84.5202L112.89 79.1753L107.557 73.8418L102.213 68.5085L96.8797 63.1635L91.5468 57.8301L86.2139 52.4851L80.8809 47.1517L75.5364 41.8067L74.5953 40.8423Z" fill="#5DB77D"/>
<path d="M83.3791 28.3162L83.8322 27.7817L87.4688 31.4187L92.8134 36.7637L98.1463 42.0971L103.491 47.4421L108.87 52.7987L114.215 58.132L119.548 63.477L124.892 68.8104L130.225 74.1554L135.57 79.4888L140.903 84.8222L146.247 90.1672L151.58 95.5006L156.913 100.846L162.258 106.179L167.591 111.512L172.935 116.857L178.268 122.191L183.613 127.536L194.29 138.214L198.159 142.083L197.636 142.537L192.989 137.889L187.656 132.544L182.311 127.199L176.978 121.865L171.634 116.52L166.301 111.187L160.968 105.842L155.635 100.509L150.302 95.1752L144.958 89.8302L139.625 84.4968L134.28 79.1518L128.947 73.8185L123.603 68.4851L118.27 63.1401L112.925 57.8067L107.592 52.4617L102.248 47.1283L96.9147 41.7833L91.5818 36.4499L86.2489 31.1165L83.3791 28.3162Z" fill="#5DB77D"/>
<path d="M85.9465 25.5049L86.4229 24.9937L87.515 26.0859L92.8596 31.4193L98.1925 36.7643L103.537 42.0977L108.87 47.4427L114.215 52.776L119.547 58.1094L124.892 63.4544L130.225 68.7878L135.569 74.1328L140.902 79.5243L146.247 84.8576L151.58 90.2027L156.913 95.536L162.257 100.881L167.59 106.214L172.935 111.548L178.268 116.893L183.612 122.226L188.945 127.571L194.29 132.905L199.623 138.25L200.959 139.574L200.448 140.051L198.356 137.959L193.012 132.614L187.679 127.269L182.334 121.936L177.001 116.591L171.657 111.257L166.324 105.912L160.991 100.579L150.708 90.2956L150.325 89.9005L144.981 84.5672L139.648 79.2221L134.303 73.8888L128.97 68.5554L123.626 63.2104L118.293 57.877L112.948 52.532L107.615 47.1986L102.271 41.8536L96.9377 36.5202L91.5932 31.1869L86.2602 25.8419L85.9465 25.5049Z" fill="#5DB77D"/>
<path d="M81.0555 31.2446C81.2065 31.0703 81.3459 30.8844 81.497 30.6985L82.2173 31.4189L87.5503 36.7639L92.8948 42.0973L98.2277 47.4423L103.572 52.7757L108.905 58.109L114.25 63.454L119.583 68.7874L124.927 74.1324L130.225 79.5239L135.57 84.8573L140.903 90.2023L146.247 95.5357L151.58 100.881L156.913 106.214L167.37 116.672L167.625 116.927L172.97 122.261L178.303 127.606L183.647 132.939L188.98 138.284L194.325 143.617L195.278 144.582L194.732 145.012L193.047 143.327L187.714 137.994L182.369 132.649L177.037 127.304L171.692 121.97L166.359 116.625L161.026 111.292L155.693 105.947L150.36 100.613L145.016 95.28L139.683 89.935L134.338 84.6016L129.005 79.2566L123.661 73.9233L118.328 68.5899L112.983 63.2449L107.65 57.9115L102.306 52.5665L96.9729 47.2331L91.6284 41.8881L86.2954 36.5547L81.0555 31.2446Z" fill="#5DB77D"/>
<path d="M88.5956 22.8096L89.0952 22.3215L92.8596 26.0747L98.1925 31.408L103.537 36.7531L108.87 42.0864L114.215 47.4314L119.547 52.7997L124.892 58.133L130.225 63.4781L135.569 68.8114L140.902 74.1564L146.235 79.5247L151.568 84.8581L156.901 90.2031L164.918 98.2089L167.579 100.881L172.923 106.215L178.256 111.548L183.601 116.893L188.934 122.227L194.278 127.572L199.565 132.847L203.561 136.844L203.073 137.344L198.298 132.556L192.954 127.211L187.621 121.878L176.943 111.2L171.599 105.855L166.266 100.521L160.921 95.1879L155.588 89.8429L150.255 84.5095L144.911 79.1645L139.578 73.8311L134.233 68.4977L128.9 63.1527L123.556 57.8193L118.223 52.4743L112.878 47.1409L107.546 41.7959L102.201 36.4626L96.868 31.1292L91.5351 25.7842L88.5956 22.8096Z" fill="#5DB77D"/>
<path d="M135.57 4.72913L140.903 10.0741L146.248 15.4075L151.581 20.7525L156.914 26.0975L162.258 31.4309L167.591 36.7759L172.936 42.1092L178.269 47.4543L183.613 52.7876L188.946 58.121L194.291 63.466L199.565 68.7878L204.91 74.1328L210.301 79.5243L215.646 84.8576L220.978 90.2026L224.917 94.1301L224.778 94.9783L219.712 89.9122L214.367 84.5788L209.035 79.2338L203.69 73.9004L198.357 68.567L193.013 63.222L187.68 57.8886L182.335 52.5436L177.002 47.2103L171.658 41.8652L166.325 36.5319L160.98 31.1985L155.647 25.8535L150.314 20.5201L144.97 15.1751L139.637 9.84173L134.292 4.50835L131.016 1.22L131.864 1.08057L135.57 4.72913Z" fill="#5DB77D"/>
<path d="M140.903 4.72873L146.236 10.0737L151.569 15.4071L156.902 20.7521L162.246 26.0971L167.579 31.4305L172.924 36.7755L178.257 42.1089L183.601 47.4539L188.946 52.7989L194.29 58.1322L199.623 63.4773L204.968 68.8106L210.301 74.1556L215.645 79.489L220.978 84.8224L225.544 89.3889L225.44 90.272L225.045 89.8769L219.712 84.5435L214.367 79.1985L209.034 73.8652L203.69 68.5318L198.357 63.1868L193.012 57.8534L187.679 52.5084L182.335 47.175L177.002 41.83L171.681 36.5315L166.348 31.1981L161.015 25.8531L155.682 20.5197L150.349 15.1747L144.958 9.80648L139.625 4.4731L135.663 0.510822L136.546 0.40625L140.903 4.72873Z" fill="#5DB77D"/>
<path d="M146.247 4.72915L151.58 10.0742L156.913 15.4075L162.258 20.7409L167.591 26.0859L172.935 31.4193L178.268 36.7643L183.613 42.0977L188.946 47.4427L194.29 52.7761L199.565 58.1094L204.909 63.4544L210.242 68.7878L215.587 74.1328L220.978 79.5243L225.893 84.4394V85.3922L225.079 84.5788L219.746 79.2338L214.402 73.9004L209.069 68.567L203.724 63.222L198.391 57.8887L193.047 52.5437L187.714 47.2103L182.369 41.8653L177.036 36.5319L171.692 31.1985L166.359 25.8535L161.014 20.5201L155.682 15.1751L150.349 9.84175L145.004 4.50837L140.635 0.139404H141.588L146.247 4.72915Z" fill="#5DB77D"/>
<path d="M151.58 4.72917L156.913 10.0742L162.258 15.4076L167.591 20.7526L172.935 26.0975L178.268 31.4309L183.613 36.7759L188.946 42.1093L194.29 47.4543L199.565 52.7993L204.909 58.1327L210.242 63.4777L215.587 68.8111L220.92 74.1561L225.893 79.1292C225.893 79.4546 225.893 79.7916 225.893 80.1169L224.975 79.199L219.642 73.8656L214.297 68.5322L208.964 63.1872L203.62 57.8538L198.287 52.5088L192.942 47.1754L187.609 41.8304L182.265 36.4971L176.932 31.1637L171.587 25.8187L166.254 20.4853L160.922 15.1403L155.647 9.80692L150.314 4.47354L145.841 0H146.84L151.58 4.72917Z" fill="#5DB77D"/>
<path d="M162.257 4.72945L167.59 10.0745L172.935 15.4078L178.268 20.7528L183.612 26.0978L188.945 31.4312L194.29 36.7762L199.565 42.098L204.909 47.443L210.3 52.7996L215.645 58.133L220.978 63.478L224.823 67.3124C224.881 67.7075 224.951 68.1025 225.009 68.4744L219.711 63.1643L214.367 57.8308L209.034 52.4859L203.689 47.1525L198.356 41.8075L193.012 36.4741L187.679 31.1407L182.334 25.7957L177.001 20.4624L171.657 15.1173L166.324 9.78397L160.991 4.45059L157.505 0.964722L158.667 1.16223L162.257 4.72945Z" fill="#5DB77D"/>
<path d="M160.98 159.258L155.647 153.913L150.314 148.579L144.97 143.234L139.637 137.901L134.292 132.556L128.959 127.211L123.615 121.878L118.282 116.533L112.937 111.199L107.604 105.854L102.26 100.521L96.9268 95.1874L91.5938 89.8424L86.2609 84.509L80.928 79.164L75.5834 73.8306L70.2505 68.4973L65.7657 64.0121L65.9516 63.2568L66.1956 63.4892L71.5286 68.8226L76.8731 74.1676L82.2176 79.5242L87.5506 84.8576L92.8951 90.2026L98.228 95.536L103.573 100.881L108.906 106.214L119.362 116.672L119.618 116.928L124.962 122.261L130.295 127.606L135.64 132.939L140.973 138.284L146.317 143.618L151.65 148.951L156.983 154.296L162.328 159.63L162.804 160.106L161.991 160.28L161.05 159.351L160.98 159.258Z" fill="#5DB77D"/>
<path d="M160.991 153.89L155.658 148.557L150.325 143.212L144.981 137.878L139.648 132.533L134.303 127.188L128.97 121.855L123.626 116.51L118.293 111.177L112.948 105.832L107.615 100.498L102.271 95.1647L96.9379 89.8197L91.5934 84.4864L86.2604 79.1414L80.9275 73.808L75.583 68.4746L70.2501 63.1296L66.7645 59.6438C66.8342 59.3881 66.8923 59.1325 66.9736 58.8652L71.47 63.3736L76.8029 68.707L82.1358 74.052L87.5152 79.5248L92.8598 84.8582L98.1927 90.2032L103.537 95.5366L108.87 100.882L114.215 106.215L119.548 111.548L124.892 116.893L130.225 122.227L135.57 127.572L146.247 138.25L151.58 143.583L156.913 148.917L167.033 158.945L166.254 159.154L160.991 153.89Z" fill="#5DB77D"/>
<path d="M166.325 153.89L160.992 148.556L155.659 143.211L150.326 137.878L144.981 132.533L139.648 127.188L134.304 121.854L128.971 116.509L123.626 111.176L118.293 105.831L112.949 100.498L104.316 91.8644L102.271 89.8193L96.9384 84.486L91.6055 79.141L86.2726 73.8076L80.9396 68.4742L75.5951 63.1292L70.2622 57.7958L68.0546 55.5881C68.136 55.3325 68.2057 55.0885 68.2986 54.8445L71.5286 58.0747L76.8731 63.4197L82.2177 68.788L87.5506 74.1329L92.8952 79.4663L98.2281 84.7997L103.573 90.1447L108.906 95.4781L114.25 100.823L119.583 106.156L124.928 111.49L130.26 116.835L135.605 122.168L140.938 127.513L146.283 132.847L151.615 138.192L156.948 143.525L162.293 148.858L167.626 154.203L171.111 157.689L170.368 157.933L166.325 153.89Z" fill="#5DB77D"/>
<path d="M171.68 4.48486L173.214 5.03098L178.245 10.0739L183.589 15.4072L188.922 20.7406L194.267 26.0856L199.565 31.419L204.909 36.764L210.242 42.0974L215.587 47.4424L220.838 52.6944C221.036 53.2057 221.21 53.7169 221.396 54.2398L219.653 52.4853L214.309 47.1519L208.976 41.8069L203.631 36.4735L198.298 31.1401L192.954 25.7951L187.621 20.4618L182.276 15.1168L176.943 9.78338L171.68 4.48486Z" fill="#5DB77D"/>
<path d="M177.001 148.579L171.657 143.234L166.324 137.901L160.991 132.556L155.658 127.211L150.325 121.878L144.98 116.533L139.648 111.199L134.303 105.854L128.97 100.521L123.625 95.1875L118.293 89.8425L112.948 84.5091L107.615 79.1641L102.271 73.8307L96.9376 68.4973L91.5931 63.1523L86.2602 57.819L80.9272 52.4739L75.5827 47.1406L72.7361 44.2938C72.8523 44.073 72.9685 43.8638 73.0731 43.6431L76.8491 47.4311L82.2169 52.7993L87.5498 58.1327L92.8944 63.4777L98.2273 68.8111L103.572 74.1561L108.87 79.5243L114.214 84.8577L119.547 90.2027L124.892 95.536L130.225 100.881L135.569 106.214L146.247 116.893L151.58 122.226L156.913 127.571L167.369 138.029L167.625 138.296L172.97 143.629L178.303 148.963L182.323 152.983L181.672 153.32L177.001 148.579Z" fill="#5DB77D"/>
<path d="M182.939 9.40025L183.613 10.0742L188.945 15.4076L194.29 20.7526L199.565 26.0743L204.909 31.4077L210.242 36.7527L215.587 42.0861L216.47 42.9808C216.834 43.6547 217.182 44.3287 217.516 45.0026L214.309 41.7956L208.976 36.4622L203.631 31.1288L198.298 25.7838L192.954 20.4505L187.621 15.1055L182.276 9.77208L180.859 8.35449C181.591 8.70308 182.265 9.04004 182.939 9.40025Z" fill="#5DB77D"/>
<path d="M187.68 143.234L177.223 132.776L176.967 132.509L171.623 127.164L166.29 121.831L160.945 116.486L155.612 111.152L150.279 105.807L144.935 100.474L139.602 95.1407L134.257 89.7957L128.924 84.4623L123.58 79.1173L118.247 73.7839L112.902 68.4506L107.569 63.1056L102.225 57.7722L96.892 52.4272L91.5591 47.0938L86.2261 41.7488L80.8932 36.4154L78.7322 34.2542L79.1388 33.6848L82.1596 36.7059L87.4925 42.0393L92.8371 47.3843L98.1933 52.799L103.538 58.1324L108.871 63.4774L114.215 68.8108L119.548 74.1558L124.893 79.4892L130.226 84.8225L135.57 90.1675L146.236 100.846L151.569 106.179L156.902 111.513L162.246 116.858L167.579 122.191L172.924 127.536L178.257 132.869L183.601 138.214L188.934 143.548L192.199 146.801L191.618 147.22L187.68 143.234Z" fill="#5DB77D"/>
<path d="M206.164 134.044L205.699 134.566L203.689 132.556L198.356 127.211L193.012 121.878L187.679 116.533L182.334 111.2L177.001 105.854L171.657 100.521L166.324 95.1878L160.991 89.8427L155.658 84.5094L150.325 79.1644L144.981 73.831L139.648 68.4976L134.303 63.1526L128.97 57.8192L123.626 52.4742L118.293 47.1408L112.948 41.7958L107.615 36.4624L102.271 31.1291L96.9378 25.7841L91.5933 20.4507L91.3841 20.2299L91.907 19.7651L92.8713 20.7412L98.2042 26.0862L103.549 31.4196L108.882 36.7646L114.226 42.0979L119.559 47.443L124.904 52.7763L130.237 58.1097L135.581 63.4547L140.914 68.7881L146.259 74.1331L151.58 79.5246L156.913 84.8579L162.257 90.2029L167.59 95.5363L172.935 100.881L178.268 106.215L183.612 111.548L188.945 116.893L194.29 122.226L199.565 127.513L204.909 132.847L206.164 134.044Z" fill="#5DB77D"/>
<path d="M210.87 128.083L210.451 128.652L209.034 127.223L203.689 121.889L198.357 116.544L193.012 111.211L187.679 105.866L182.335 100.533L177.002 95.1993L171.657 89.8544L166.324 84.521L160.991 79.176L155.658 73.8426L150.325 68.5092L144.981 63.1642L139.648 57.8308L134.303 52.4858L128.97 47.1525L123.626 41.8075L118.235 36.5322L112.89 31.1988L107.557 25.8538L102.213 20.5204L97.2401 15.5472L97.8094 15.1289L98.1463 15.4659L103.491 20.8109L108.824 26.1559L114.168 31.4893L119.501 36.8343L124.846 42.1677L130.179 47.5127L135.523 52.846L140.856 58.1794L146.201 63.5244L151.534 68.8578L156.867 74.2028L162.211 79.5362L167.544 84.8696L172.889 90.2146L178.222 95.548L183.566 100.893L188.899 106.226L194.244 111.56L199.576 116.905L204.921 122.238L210.254 127.583L210.87 128.083Z" fill="#5DB77D"/>
<path d="M209.034 121.889L198.357 111.211L193.012 105.866L187.679 100.532L179.035 91.8988L177.002 89.8538L171.657 84.5204L166.324 79.1754L160.991 73.842L155.658 68.5087L150.325 63.1637L144.981 57.8303L139.648 52.4853L134.303 47.1519L128.971 41.8069L123.626 36.4735L118.293 31.1401L112.949 25.7952L107.616 20.4618L102.271 15.1168L100.459 13.3041L101.051 12.9091L103.549 15.4073L108.882 20.7523L114.227 26.0972L119.559 31.4306L124.904 36.7756L130.237 42.109L135.581 47.454L140.903 52.799L146.236 58.1324L151.569 63.4774L156.902 68.8108L162.246 74.1558L167.591 79.524L172.935 84.8574L178.268 90.2024L183.613 95.5358L188.946 100.881L194.29 106.214L199.565 111.489L204.91 116.834L210.242 122.168L212.973 124.898L212.589 125.503L209.034 121.889Z" fill="#5DB77D"/>
<path d="M208.14 131.673L203.69 127.223L198.357 121.889L193.013 116.544L187.68 111.211L182.335 105.866L177.002 100.532L171.658 95.1991L166.325 89.8541L160.992 84.5207L155.659 79.1757L150.326 73.8423L144.981 68.5089L139.648 63.164L134.304 57.8306L128.971 52.4856L123.626 47.1522L118.293 41.8072L112.949 36.4738L107.616 31.1404L102.271 25.7954L96.9385 20.4621L94.2779 17.8012L94.8239 17.3596L98.2049 20.7525L103.549 26.0975L108.882 31.4309L114.227 36.7759L119.56 42.1093L124.904 47.4543L130.226 52.7993L135.57 58.1327L140.903 63.4777L146.236 68.8111L151.569 74.1561L156.914 79.5243L162.258 84.8577L167.591 90.2027L172.936 95.5361L178.269 100.881L183.613 106.214L194.291 116.893L199.565 122.168L204.91 127.513L208.523 131.127L208.14 131.673Z" fill="#5DB77D"/>
<path d="M215.645 116.834L216.992 118.147L216.644 118.786L214.402 116.544L209.069 111.21L203.724 105.866L198.391 100.532L193.047 95.1987L187.714 89.8538L182.369 84.5203L177.036 79.1754L171.692 73.842L166.359 68.5086L161.026 63.1636L155.693 57.8302L150.36 52.4852L145.015 47.1519L139.683 41.8068L134.338 36.4735L129.005 31.1401L123.66 25.7951L118.328 20.4617L112.983 15.1167L107.65 9.78332L107.197 9.33014L107.836 8.98157L108.917 10.0738L114.261 15.4072L119.594 20.7522L124.939 26.0972L130.271 31.4305L135.616 36.7756L140.949 42.1089L146.282 47.4539L151.58 52.7989L156.913 58.1323L162.257 63.4773L167.59 68.8107L172.935 74.1557L178.268 79.5239L183.612 84.8573L188.945 90.2023L194.29 95.5357L199.623 100.881L204.967 106.214L215.424 116.672L215.691 116.927L215.645 116.834Z" fill="#5DB77D"/>
<path d="M214.367 111.21L209.034 105.866L203.689 100.532L198.356 95.1987L193.012 89.8538L187.679 84.5204L182.334 79.1754L177.001 73.842L171.657 68.5086L166.324 63.1636L160.991 57.8302L155.658 52.4852L150.325 47.1519L144.98 41.8069L139.647 36.4735L134.303 31.1401L128.97 25.7951L123.625 20.4617L118.293 15.1167L112.948 9.78334L110.717 7.55236L111.391 7.23865L114.226 10.0738L119.559 15.4072L124.904 20.7522L130.236 26.0972L135.581 31.4306L140.914 36.7756L146.247 42.1089L151.58 47.4539L156.913 52.799L162.257 58.1323L167.59 63.4773L172.935 68.8107L178.268 74.1557L183.612 79.4891L188.945 84.8225L194.29 90.1675L199.564 95.4776L204.909 100.823L210.242 106.156L215.586 111.489L218.642 114.557L218.328 115.231L214.367 111.21Z" fill="#5DB77D"/>
<path d="M214.669 122.214L214.344 121.889L209.011 116.544L203.667 111.211L198.334 105.866L192.989 100.532L187.656 95.1988L182.312 89.8538L176.979 84.5204L171.634 79.1754L166.301 73.842L160.968 68.5086L155.635 63.1637L150.302 57.8302L144.958 52.4853L139.625 47.1519L134.28 41.8069L128.947 36.4735L123.603 31.1401L118.27 25.7951L112.925 20.4618L107.593 15.1167L103.712 11.2474L104.339 10.8756L108.859 15.4072L114.203 20.7406L119.536 26.0856L124.881 31.419L130.214 36.764L135.558 42.0974L140.891 47.4424L146.236 52.7758L151.569 58.1091L156.902 63.4542L162.246 68.7875L167.579 74.1325L172.924 79.4659L178.257 84.7993L183.601 90.1443L194.279 100.823L199.565 106.156L204.91 111.489L210.243 116.834L215.006 121.598C214.937 121.796 214.82 122.005 214.669 122.214Z" fill="#5DB77D"/>
<path d="M219.711 57.8309L214.367 52.4859L209.034 47.1525L203.689 41.8075L198.403 36.5322L193.058 31.1988L187.725 25.8538L182.381 20.5204L177.048 15.1754L171.68 9.8072L166.347 4.47382L164.151 2.26611L165.453 2.59146L167.614 4.75268L172.958 10.0977L178.291 15.4311L183.636 20.7761L188.969 26.1211L194.313 31.4545L199.565 36.7646L204.909 42.098L210.242 47.443L215.587 52.7764L220.92 58.1097L223.243 60.5034C223.36 60.9333 223.464 61.3748 223.569 61.8048L219.711 57.8309Z" fill="#5DB77D"/>
<path d="M219.711 95.1988L214.367 89.8538L209.034 84.5204L203.689 79.1754L198.356 73.842L193.012 68.5087L187.679 63.1637L182.334 57.8303L177.001 52.4853L171.657 47.1519L166.324 41.8069L160.991 36.5316L155.658 31.1982L150.325 25.8532L144.98 20.5199L139.647 15.1749L134.303 9.84148L128.97 4.5081L126.646 2.1261L127.448 1.94019L130.295 4.78696L135.639 10.132L140.972 15.4653L146.305 20.8103L151.58 26.074L156.913 31.4074L162.257 36.7524L167.59 42.0858L172.935 47.4308L178.268 52.799L183.612 58.1324L188.945 63.4774L194.29 68.8108L199.623 74.1558L204.967 79.4892L210.3 84.8225L215.645 90.1675L220.977 95.5009L224.056 98.5801C224.056 98.8473 223.94 99.1146 223.87 99.3818L219.711 95.1988Z" fill="#5DB77D"/>
<path d="M221.478 107.644L219.712 105.866L214.367 100.532L209.034 95.199L203.69 89.854L198.403 84.5206L193.059 79.1756L187.726 73.8422L182.381 68.5089L177.049 63.1639L171.704 57.8305L166.371 52.4855L161.038 47.1521L155.705 41.8071L150.372 36.4737L145.028 31.1403L139.695 25.7954L134.35 20.462L129.017 15.117L123.673 9.78359L118.235 4.46181L118.967 4.20618L119.49 4.72907L124.835 10.0741L130.168 15.4075L135.512 20.7525L140.845 26.0974L146.178 31.4308L151.511 36.7758L156.844 42.1092L162.188 47.4542L167.591 52.7992L172.936 58.1326L178.268 63.4776L183.613 68.811L188.946 74.156L194.29 79.4894L199.565 84.7995L204.91 90.1445L212.973 98.1155L215.645 100.788L220.978 106.121L221.734 106.877L221.478 107.644Z" fill="#5DB77D"/>
<path d="M219.711 100.533L214.367 95.1996L209.034 89.8547L203.689 84.5213L198.357 79.1763L193.012 73.8429L187.679 68.5095L182.335 63.1645L177.002 57.8311L171.657 52.4861L166.324 47.1528L160.98 41.8078L155.647 36.5325L150.314 31.1991L144.969 25.8541L139.636 20.5207L134.292 15.1757L128.959 9.84232L123.614 4.50894L122.348 3.23078L123.103 3.01001L124.892 4.7878L130.225 10.1328L135.57 15.4662L140.903 20.7996L146.247 26.1446L151.58 31.4779L156.913 36.823L162.258 42.1563L167.591 47.5013L172.935 52.8347L178.268 58.1681L183.613 63.5131L188.945 68.8465L194.29 74.1915L199.565 79.5249L204.909 84.8582L210.242 90.2032L215.587 95.5366L220.92 100.882L222.93 102.892C222.86 103.147 222.779 103.391 222.709 103.647L219.711 100.533Z" fill="#5DB77D"/>
<path d="M220.014 111.513L219.712 111.211L214.367 105.866L209.035 100.533L198.74 90.2492L198.357 89.8542L193.012 84.5208L187.68 79.1758L182.335 73.8424L177.002 68.509L171.658 63.164L166.325 57.8306L160.98 52.4857L155.647 47.1523L150.314 41.8073L144.958 36.532L139.625 31.1986L134.281 25.8536L128.948 20.5202L123.603 15.1752L118.235 9.80697L114.378 5.94927L115.075 5.67041L119.502 10.0975L124.846 15.4308L130.179 20.7758L135.524 26.1209L140.857 31.4542L146.201 36.7992L151.534 42.1326L156.867 47.4776L162.212 52.811L167.545 58.1444L172.889 63.4894L178.222 68.8228L183.567 74.1678L188.946 79.5244L194.291 84.8577L199.623 90.2028L204.968 95.5361L210.301 100.881L215.645 106.215L220.293 110.862L220.014 111.513Z" fill="#5DB77D"/>
<path d="M225.044 73.8424L219.711 68.509L214.367 63.164L209.034 57.8306L203.689 52.4856L198.356 47.1523L193.012 41.8073L187.679 36.4739L182.334 31.1405L177.001 25.7955L171.657 20.4621L166.324 15.1171L160.979 9.78374L155.646 4.45036L151.417 0.220825L152.498 0.313766L156.913 4.72922L162.257 10.0742L167.59 15.4076L172.935 20.7526L178.268 26.0976L183.612 31.431L188.945 36.776L194.29 42.1093L199.623 47.4544L204.967 52.7877L210.3 58.1211L215.645 63.4661L220.977 68.7995L225.625 73.4473C225.625 73.8075 225.625 74.1678 225.718 74.528L225.044 73.8424Z" fill="#5DB77D"/>
<path d="M115 472.241L115.953 473.189L118.292 475.533L120.636 477.872L122.975 480.216L125.313 482.556L127.657 484.895L129.996 487.239L132.34 489.578L134.679 491.922L139.265 496.508L139.377 496.625L141.721 498.964L144.059 501.303L146.403 503.647L148.742 505.986L149.802 507.046H149.359L148.187 505.874L145.843 503.53L143.504 501.191L141.16 498.847L138.821 496.508L136.477 494.164L134.139 491.82L131.795 489.481L129.456 487.137L127.117 484.798L124.778 482.454L122.44 480.115L120.096 477.776L117.757 475.431L115.413 473.092L115.031 472.71C115.005 472.537 115 472.405 115 472.241Z" fill="#5DB77D"/>
<path d="M115.138 474.719L115.953 475.535L118.292 477.874L120.631 480.218L122.99 482.557L127.576 487.143L127.688 487.255L130.027 489.594L132.371 491.938L134.709 494.277L137.053 496.621L139.392 498.96L141.736 501.299L144.075 503.643L146.419 505.982L147.341 506.905L146.862 506.864L143.632 503.628L143.519 503.516L141.176 501.177L138.837 498.833L136.493 496.494L134.154 494.15L131.81 491.806L129.471 489.467L127.127 487.123L124.789 484.784L122.45 482.439L120.106 480.1L117.767 477.761L115.423 475.417L115.209 475.203C115.163 475.035 115.148 474.877 115.138 474.719Z" fill="#5DB77D"/>
<path d="M134.052 502.98C133.731 502.812 133.415 502.643 133.104 502.47L131.779 501.15L129.44 498.806L127.096 496.467L124.757 494.123L122.419 491.779L120.075 489.44L119.565 488.93C119.392 488.615 119.219 488.299 119.056 487.983L120.656 489.583L122.989 491.922L127.575 496.508L127.687 496.625L130.026 498.964L132.37 501.303L134.052 502.98Z" fill="#5DB77D"/>
<path d="M138.276 504.866L137.578 504.601L136.478 503.5L134.139 501.161L131.795 498.817L129.456 496.478L127.117 494.134L124.778 491.79L122.44 489.451L120.096 487.107L117.757 484.768L117.446 484.457C117.354 484.228 117.268 483.993 117.181 483.759L118.312 484.89L120.651 487.234L122.99 489.578L125.329 491.922L127.673 494.261L130.012 496.605L132.355 498.944L134.694 501.283L138.276 504.866Z" fill="#5DB77D"/>
<path d="M138.786 503.489L136.442 501.15L134.103 498.806L131.759 496.467L129.42 494.123L127.081 491.779L124.743 489.44L122.404 487.096L120.06 484.757L117.721 482.413L116.249 480.945C116.193 480.747 116.137 480.548 116.086 480.349L118.277 482.54L120.62 484.879L122.959 487.223L125.298 489.562L127.642 491.907L129.981 494.246L132.325 496.59L134.664 498.929L137.007 501.268L139.346 503.612L141.644 505.91L141.053 505.747L138.786 503.489Z" fill="#5DB77D"/>
<path d="M141.144 503.489L138.805 501.15L136.461 498.806L131.876 494.22L131.758 494.103L129.42 491.759L127.081 489.42L122.403 484.737L120.059 482.393L117.72 480.054L115.555 477.888C115.519 477.715 115.494 477.541 115.463 477.378L117.119 479.029L118.291 480.201L120.63 482.54L122.989 484.895L125.328 487.239L127.672 489.578L130.011 491.922L132.355 494.261L134.693 496.605L137.037 498.944L139.376 501.283L141.72 503.627L144.059 505.966L144.624 506.547L144.115 506.455L143.498 505.844L141.144 503.489Z" fill="#5DB77D"/>
<path d="M172.788 443.838C174.774 445.439 176.583 447.248 178.184 449.234L176.263 447.313L173.924 444.974L172.788 443.838Z" fill="#5DB77D"/>
<path d="M115.469 465.684L115.953 466.168L118.292 468.512L120.631 470.876L122.99 473.19L125.329 475.534L127.673 477.873L130.012 480.217L132.356 482.556L134.694 484.895L137.038 487.239L139.377 489.578L141.721 491.922L144.06 494.261L146.404 496.605L148.742 498.944L151.081 501.283L153.42 503.627L155.759 505.966L156.34 506.547L155.968 506.609L152.855 503.49L150.511 501.151L148.172 498.807L143.586 494.22L143.474 494.103L141.13 491.759L138.791 489.42L136.447 487.076L134.108 484.737L131.764 482.393L129.426 480.054L127.082 477.715L124.743 475.371L122.404 473.032L120.06 470.688L117.721 468.349L115.393 466.02C115.423 465.933 115.449 465.811 115.469 465.684Z" fill="#5DB77D"/>
<path d="M115.189 467.748L115.953 468.512L118.292 470.876L120.636 473.215L122.975 475.56L126.485 479.03L127.657 480.202L129.996 482.541L132.34 484.88L134.679 487.224L137.023 489.563L139.361 491.907L141.705 494.246L144.044 496.59L146.388 498.929L148.727 501.268L151.071 503.612L153.41 505.951L154.281 506.823L153.883 506.858L152.864 505.839L150.505 503.49L148.166 501.151L145.822 498.807L143.484 496.468L141.14 494.124L138.801 491.78L136.457 489.441L131.774 484.758L129.436 482.413L127.097 480.074L123.311 476.288L122.419 475.391L120.075 473.052L117.736 470.708L115.393 468.369L115.148 468.125C115.163 468.007 115.173 467.88 115.189 467.748Z" fill="#5DB77D"/>
<path d="M115.025 469.928L115.953 470.876L118.292 473.215L120.63 475.559L122.99 477.873L125.328 480.217L127.672 482.556L130.011 484.895L132.355 487.239L134.694 489.578L137.038 491.922L139.377 494.261L141.72 496.605L144.059 498.944L146.403 501.283L151.086 505.966L152.105 506.986H151.687L150.515 505.814L148.176 503.469L145.832 501.13L143.494 498.786L141.15 496.447L138.811 494.103L136.467 491.759L134.128 489.42L131.784 487.076L129.446 484.737L127.107 482.393L124.768 480.054L122.429 477.715L120.085 475.371L117.746 473.032L115.403 470.688L115.02 470.306L115.025 469.928Z" fill="#5DB77D"/>
<path d="M118.205 456.72L118.292 456.807L120.636 459.146L122.99 461.485L125.329 463.829L127.672 466.168L130.011 468.512L132.355 470.851L134.694 473.19L137.038 475.534L139.377 477.873L141.721 480.217L144.059 482.556L146.403 484.895L148.742 487.239L151.086 489.578L153.425 491.922L155.764 494.261L158.107 496.605L160.446 498.944L162.79 501.283L165.129 503.627L165.323 503.816L165.022 503.954L164.686 503.612L164.574 503.5L162.23 501.161L159.891 498.817L157.547 496.478L155.208 494.134L152.869 491.79L150.525 489.451L148.187 487.107L145.843 484.768L143.504 482.424L141.16 480.085L138.821 477.746L136.477 475.401L134.139 473.062L131.795 470.718L129.456 468.379L127.117 466.04L124.778 463.696L122.439 461.357L120.096 459.013L118.093 457.01C118.118 456.919 118.159 456.817 118.205 456.72Z" fill="#5DB77D"/>
<path d="M117.385 458.646C117.426 458.544 117.461 458.442 117.507 458.335L118.292 459.155L120.631 461.494L122.969 463.838L125.308 466.177L127.652 468.522L129.996 470.876L132.34 473.215L134.679 475.559L138.189 479.029L139.361 480.201L141.705 482.54L144.044 484.879L146.388 487.223L148.727 489.562L151.066 491.907L153.404 494.246L155.743 496.59L158.087 498.929L160.426 501.268L162.77 503.612L163.667 504.509L163.356 504.631L162.225 503.489L159.886 501.15L157.547 498.806L152.869 494.123L150.526 491.779L148.187 489.44L143.504 484.757L141.16 482.413L138.821 480.074L136.477 477.735L134.139 475.391L131.795 473.052L129.456 470.708L127.112 468.369L124.773 466.03L122.434 463.686L120.09 461.347L117.752 459.003L117.385 458.646Z" fill="#5DB77D"/>
<path d="M120.702 452.19L122.99 454.463L125.329 456.807L127.673 459.146L130.012 461.485L132.355 463.829L134.694 466.168L137.038 468.512L139.362 470.877L141.706 473.216L144.044 475.56L146.388 477.899L148.727 480.243L151.066 482.582L153.405 484.921L155.744 487.265L158.087 489.604L160.426 491.948L162.77 494.287L165.109 496.631L167.453 498.97L169.792 501.309L169.832 501.35L169.567 501.518L169.236 501.187L166.892 498.843L164.554 496.504L162.21 494.16L159.871 491.816L157.532 489.477L152.854 484.794L150.511 482.449L148.172 480.11L144.381 476.324L143.489 475.427L141.145 473.088L138.806 470.744L136.462 468.405L134.124 466.066L131.78 463.722L129.441 461.383L127.097 459.039L124.758 456.7L122.419 454.356L120.529 452.47L120.702 452.19Z" fill="#5DB77D"/>
<path d="M119.647 453.911C119.703 453.82 119.754 453.728 119.805 453.636L120.63 454.462L122.969 456.806L125.313 459.155L127.657 461.494L129.996 463.838L132.339 466.177L134.678 468.521L137.022 470.86L139.361 473.199L141.705 475.543L144.044 477.882L146.388 480.226L148.726 482.565L151.07 484.904L153.409 487.249L155.748 489.588L158.092 491.932L160.431 494.271L162.775 496.615L165.113 498.954L167.457 501.293L168.385 502.225L168.115 502.383L166.897 501.171L164.558 498.826L162.214 496.487L159.875 494.143L157.536 491.799L155.198 489.46L152.859 487.116L150.515 484.777L148.176 482.433L145.832 480.094L143.493 477.755L141.149 475.411L138.785 473.067L136.441 470.723L134.102 468.384L131.759 466.045L129.42 463.701L127.081 461.362L124.742 459.017L122.403 456.678L120.059 454.334L119.647 453.911Z" fill="#5DB77D"/>
<path d="M123.499 448.419L123.698 448.184L125.293 449.779L127.637 452.123L129.976 454.462L132.32 456.807L134.679 459.156L137.023 461.495L139.362 463.839L141.705 466.178L144.044 468.522L146.388 470.861L148.727 473.2L151.071 475.544L153.41 477.883L155.749 480.227L158.092 482.566L160.431 484.905L162.775 487.249L165.114 489.588L167.458 491.932L172.141 496.615L173.837 498.312L173.608 498.511L171.57 496.473L169.231 494.129L166.887 491.785L164.548 489.446L162.204 487.101L159.866 484.762L157.527 482.418L155.188 480.079L152.849 477.74L150.505 475.396L148.167 473.057L145.823 470.713L143.484 468.374L141.14 466.035L138.801 463.691L136.457 461.352L134.118 459.008L131.774 456.669L129.436 454.325L127.097 451.986L124.758 449.647L123.499 448.419Z" fill="#5DB77D"/>
<path d="M124.626 447.186L124.834 446.961L125.313 447.44L127.657 449.779L129.996 452.124L132.34 454.463L134.679 456.807L137.023 459.146L139.362 461.485L141.705 463.829L144.044 466.168L146.388 468.512L148.727 470.876L151.071 473.215L153.41 475.559L155.748 477.898L158.092 480.243L160.431 482.582L162.775 484.921L165.114 487.265L167.458 489.604L169.797 491.948L172.141 494.287L174.479 496.631L175.065 497.212L174.841 497.421L173.924 496.503L171.58 494.159L169.241 491.815L166.897 489.476L164.558 487.132L162.215 484.793L159.876 482.449L157.537 480.11L153.028 475.6L152.859 475.427L150.515 473.088L148.177 470.744L145.833 468.405L143.494 466.066L141.15 463.722L138.811 461.383L136.467 459.039L134.129 456.7L131.785 454.356L129.446 452.017L127.102 449.678L124.763 447.333L124.626 447.186Z" fill="#5DB77D"/>
<path d="M122.48 449.703C122.546 449.626 122.608 449.545 122.674 449.463L122.99 449.779L125.328 452.123L127.672 454.462L130.011 456.807L132.355 459.146L134.694 461.485L137.038 463.829L139.377 466.168L141.721 468.512L144.044 470.876L146.388 473.215L148.727 475.559L151.071 477.898L153.409 480.242L155.748 482.581L160.334 487.168L160.446 487.28L162.79 489.619L165.129 491.963L167.473 494.302L169.812 496.646L172.156 498.985L172.573 499.408L172.334 499.597L171.595 498.858L169.256 496.519L166.912 494.175L164.574 491.83L162.23 489.491L159.891 487.147L157.552 484.808L155.213 482.464L152.874 480.125L150.531 477.786L148.192 475.442L145.848 473.103L143.509 470.759L141.165 468.42L138.826 466.081L136.482 463.737L134.144 461.398L131.8 459.054L129.461 456.715L127.117 454.371L124.778 452.032L122.48 449.703Z" fill="#5DB77D"/>
<path d="M125.787 446.004L126.006 445.79L127.657 447.436L129.996 449.775L132.34 452.119L134.679 454.458L137.022 456.802L139.361 459.156L141.705 461.495L144.044 463.839L146.388 466.178L148.727 468.522L151.065 470.877L153.404 473.216L155.743 475.56L159.259 479.071L160.426 480.243L162.77 482.582L165.108 484.921L167.452 487.265L169.791 489.604L172.135 491.948L174.453 494.261L176.206 496.014L175.992 496.234L173.898 494.134L171.554 491.79L169.215 489.451L164.533 484.768L162.189 482.424L159.85 480.085L157.506 477.746L155.167 475.402L152.828 473.063L150.485 470.719L148.146 468.38L145.802 466.041L143.463 463.696L141.119 461.357L138.78 459.013L136.436 456.674L134.098 454.33L131.754 451.991L129.415 449.652L127.076 447.308L125.787 446.004Z" fill="#5DB77D"/>
<path d="M146.388 438.074L148.727 440.418L151.071 442.757L153.41 445.101L155.748 447.445L158.092 449.784L160.431 452.128L162.775 454.467L165.114 456.812L167.458 459.151L169.797 461.49L172.14 463.834L174.454 466.168L176.798 468.512L179.162 470.876L181.506 473.215L183.845 475.559L185.572 477.282L185.511 477.654L183.289 475.432L180.945 473.093L178.607 470.749L176.263 468.41L173.924 466.071L171.58 463.727L169.241 461.388L166.897 459.043L164.558 456.704L162.215 454.36L159.876 452.021L157.532 449.682L155.193 447.338L152.854 444.999L150.51 442.655L148.172 440.316L145.828 437.977L144.391 436.535L144.763 436.474L146.388 438.074Z" fill="#5DB77D"/>
<path d="M148.727 438.074L151.066 440.418L153.404 442.757L155.743 445.101L158.087 447.445L160.426 449.784L162.77 452.128L165.109 454.467L167.452 456.811L169.796 459.155L172.14 461.494L174.479 463.838L176.823 466.177L179.162 468.521L181.506 470.86L183.845 473.199L185.847 475.202L185.801 475.589L185.628 475.416L183.289 473.077L180.945 470.733L178.606 468.394L176.263 466.055L173.924 463.711L171.58 461.372L169.241 459.028L166.897 456.689L164.558 454.345L162.225 452.021L159.886 449.682L157.547 447.338L155.208 444.999L152.869 442.655L150.505 440.301L148.166 437.962L146.429 436.224L146.816 436.178L148.727 438.074Z" fill="#5DB77D"/>
<path d="M151.071 438.074L153.41 440.418L155.748 442.757L158.092 445.096L160.431 447.44L162.775 449.779L165.114 452.123L167.458 454.462L169.797 456.806L172.14 459.145L174.454 461.484L176.798 463.828L179.136 466.167L181.48 468.512L183.845 470.876L186 473.032V473.449L185.643 473.093L183.305 470.749L180.961 468.41L178.622 466.071L176.278 463.727L173.939 461.388L171.595 459.043L169.256 456.704L166.912 454.36L164.574 452.021L162.23 449.682L159.891 447.338L157.547 444.999L155.208 442.655L152.869 440.316L150.526 437.977L148.61 436.061H149.028L151.071 438.074Z" fill="#5DB77D"/>
<path d="M153.41 438.074L155.748 440.418L158.092 442.757L160.431 445.101L162.775 447.445L165.114 449.784L167.458 452.128L169.797 454.467L172.14 456.812L174.454 459.156L176.798 461.495L179.136 463.839L181.48 466.178L183.819 468.522L186 470.703C186 470.846 186 470.993 186 471.136L185.597 470.733L183.259 468.394L180.915 466.055L178.576 463.711L176.232 461.372L173.893 459.028L171.549 456.689L169.211 454.345L166.867 452.006L164.528 449.667L162.184 447.323L159.845 444.984L157.506 442.64L155.193 440.301L152.854 437.962L150.892 436H151.331L153.41 438.074Z" fill="#5DB77D"/>
<path d="M158.093 438.074L160.431 440.418L162.775 442.757L165.114 445.101L167.458 447.445L169.797 449.784L172.141 452.128L174.454 454.462L176.798 456.806L179.162 459.156L181.506 461.495L183.845 463.839L185.531 465.52C185.557 465.694 185.587 465.867 185.613 466.03L183.289 463.701L180.946 461.362L178.607 459.018L176.263 456.679L173.924 454.335L171.58 451.996L169.241 449.657L166.897 447.313L164.559 444.974L162.215 442.63L159.876 440.291L157.537 437.952L156.008 436.423L156.518 436.509L158.093 438.074Z" fill="#5DB77D"/>
<path d="M157.532 505.844L155.193 503.5L152.854 501.161L150.51 498.817L148.171 496.478L145.828 494.133L143.489 491.789L141.145 489.45L138.806 487.106L136.462 484.767L134.123 482.423L131.779 480.084L129.441 477.745L127.102 475.401L124.763 473.062L122.424 470.718L120.08 468.379L117.742 466.04L115.775 464.073L115.856 463.742L115.963 463.844L118.302 466.183L120.646 468.527L122.99 470.876L125.329 473.215L127.673 475.559L130.011 477.898L132.355 480.242L134.694 482.581L139.28 487.167L139.392 487.28L141.736 489.619L144.075 491.963L146.419 494.302L148.757 496.646L151.101 498.985L153.44 501.324L155.779 503.668L158.123 506.007L158.332 506.216L157.975 506.292L157.562 505.885L157.532 505.844Z" fill="#5DB77D"/>
<path d="M157.537 503.49L155.198 501.151L152.859 498.807L150.516 496.468L148.177 494.124L145.833 491.78L143.494 489.441L141.15 487.097L138.811 484.758L136.467 482.413L134.129 480.074L131.785 477.735L129.446 475.391L127.102 473.052L124.763 470.708L122.424 468.369L120.081 466.03L117.742 463.686L116.213 462.157C116.244 462.045 116.269 461.933 116.305 461.816L118.277 463.793L120.616 466.132L122.954 468.476L125.314 470.876L127.657 473.215L129.996 475.559L132.34 477.898L134.679 480.243L137.023 482.582L139.362 484.921L141.706 487.265L144.044 489.604L146.388 491.948L151.071 496.631L153.41 498.97L155.749 501.309L160.187 505.707L159.845 505.798L157.537 503.49Z" fill="#5DB77D"/>
<path d="M159.876 503.49L157.537 501.151L155.199 498.807L152.86 496.468L150.516 494.124L148.177 491.78L145.833 489.441L143.494 487.097L141.151 484.758L138.812 482.413L136.468 480.074L132.682 476.288L131.785 475.391L129.446 473.052L127.108 470.708L124.769 468.369L122.43 466.03L120.086 463.686L117.747 461.347L116.779 460.379C116.815 460.267 116.845 460.16 116.886 460.053L118.303 461.469L120.646 463.813L122.99 466.168L125.329 468.512L127.673 470.851L130.012 473.19L132.356 475.534L134.695 477.873L137.039 480.217L139.377 482.556L141.721 484.895L144.06 487.239L146.404 489.578L148.743 491.922L151.087 494.261L153.425 496.605L155.764 498.944L158.108 501.283L160.447 503.628L161.976 505.156L161.649 505.263L159.876 503.49Z" fill="#5DB77D"/>
<path d="M162.225 437.967L162.897 438.206L165.104 440.418L167.447 442.757L169.786 445.096L172.13 447.44L174.454 449.779L176.798 452.123L179.136 454.462L181.48 456.806L183.783 459.11C183.87 459.334 183.947 459.558 184.028 459.787L183.264 459.018L180.92 456.679L178.581 454.335L176.237 451.996L173.898 449.657L171.554 447.313L169.216 444.974L166.872 442.63L164.533 440.291L162.225 437.967Z" fill="#5DB77D"/>
<path d="M164.558 501.161L162.214 498.817L159.875 496.478L157.536 494.134L155.198 491.79L152.859 489.451L150.515 487.107L148.176 484.768L145.832 482.423L143.493 480.084L141.149 477.745L138.811 475.401L136.467 473.062L134.128 470.718L131.784 468.379L129.445 466.04L127.101 463.696L124.763 461.357L122.424 459.013L120.08 456.674L118.831 455.426C118.882 455.329 118.933 455.237 118.979 455.14L120.635 456.801L122.989 459.156L125.328 461.495L127.672 463.839L130.011 466.178L132.355 468.522L134.678 470.876L137.022 473.215L139.361 475.559L141.705 477.898L144.044 480.242L146.388 482.581L151.07 487.265L153.409 489.604L155.748 491.948L160.334 496.534L160.446 496.651L162.79 498.99L165.129 501.329L166.892 503.092L166.606 503.24L164.558 501.161Z" fill="#5DB77D"/>
<path d="M167.162 440.122L167.458 440.418L169.796 442.757L172.14 445.101L174.454 447.435L176.798 449.774L179.136 452.118L181.48 454.457L181.868 454.85C182.027 455.145 182.18 455.441 182.326 455.736L180.92 454.33L178.581 451.991L176.237 449.652L173.898 447.308L171.554 444.969L169.216 442.625L166.872 440.286L166.25 439.664C166.571 439.817 166.867 439.964 167.162 440.122Z" fill="#5DB77D"/>
<path d="M169.241 498.816L164.655 494.23L164.543 494.113L162.199 491.769L159.861 489.43L157.517 487.086L155.178 484.747L152.839 482.403L150.495 480.064L148.156 477.725L145.812 475.38L143.474 473.041L141.13 470.697L138.791 468.358L136.447 466.019L134.108 463.675L131.764 461.336L129.426 458.992L127.087 456.653L124.748 454.309L122.409 451.97L121.461 451.022L121.64 450.772L122.965 452.097L125.303 454.436L127.647 456.78L129.996 459.155L132.34 461.494L134.679 463.838L137.023 466.177L139.362 468.521L141.706 470.86L144.044 473.199L146.388 475.544L151.066 480.227L153.405 482.566L155.743 484.905L158.087 487.249L160.426 489.588L162.77 491.932L165.109 494.271L167.453 496.615L169.792 498.954L171.223 500.381L170.969 500.564L169.241 498.816Z" fill="#5DB77D"/>
<path d="M177.348 494.786L177.144 495.015L176.263 494.133L173.924 491.789L171.58 489.45L169.241 487.106L166.897 484.767L164.559 482.423L162.215 480.084L159.876 477.745L157.537 475.401L155.198 473.062L152.86 470.718L150.516 468.379L148.177 466.04L145.833 463.696L143.494 461.357L141.15 459.013L138.811 456.674L136.468 454.329L134.129 451.99L131.785 449.651L129.446 447.307L127.102 444.968L127.01 444.872L127.24 444.668L127.663 445.096L130.001 447.44L132.345 449.779L134.684 452.123L137.028 454.462L139.367 456.806L141.711 459.145L144.05 461.484L146.393 463.828L148.732 466.167L151.076 468.511L153.41 470.876L155.749 473.215L158.093 475.559L160.431 477.898L162.775 480.242L165.114 482.581L167.458 484.92L169.797 487.264L172.141 489.603L174.454 491.922L176.798 494.261L177.348 494.786Z" fill="#5DB77D"/>
<path d="M179.412 492.172L179.229 492.421L178.607 491.795L176.263 489.456L173.924 487.112L171.58 484.773L169.242 482.428L166.898 480.089L164.559 477.75L162.215 475.406L159.876 473.067L157.537 470.723L155.199 468.384L152.86 466.045L150.516 463.701L148.177 461.362L145.833 459.018L143.494 456.679L141.15 454.335L138.786 452.021L136.442 449.682L134.103 447.338L131.76 444.999L129.579 442.818L129.828 442.635L129.976 442.783L132.32 445.127L134.659 447.471L137.003 449.81L139.342 452.154L141.685 454.493L144.024 456.837L146.368 459.176L148.707 461.515L151.051 463.859L153.39 466.198L155.728 468.542L158.072 470.881L160.411 473.22L162.755 475.564L165.094 477.903L167.438 480.247L169.777 482.586L172.121 484.925L174.459 487.27L176.803 489.609L179.142 491.953L179.412 492.172Z" fill="#5DB77D"/>
<path d="M178.607 489.456L173.924 484.773L171.58 482.429L169.241 480.09L165.45 476.303L164.559 475.406L162.215 473.067L159.876 470.723L157.537 468.384L155.198 466.045L152.86 463.701L150.516 461.362L148.177 459.018L145.833 456.679L143.494 454.335L141.15 451.996L138.811 449.657L136.467 447.313L134.129 444.974L131.785 442.63L130.99 441.835L131.25 441.662L132.345 442.757L134.684 445.101L137.028 447.445L139.367 449.784L141.711 452.129L144.05 454.468L146.393 456.812L148.727 459.156L151.066 461.495L153.405 463.839L155.744 466.178L158.087 468.522L160.431 470.876L162.775 473.215L165.114 475.559L167.458 477.898L169.797 480.242L172.141 482.581L174.454 484.895L176.798 487.239L179.137 489.578L180.334 490.776L180.166 491.041L178.607 489.456Z" fill="#5DB77D"/>
<path d="M178.214 493.746L176.263 491.794L173.924 489.455L171.58 487.111L169.241 484.772L166.897 482.428L164.558 480.089L162.214 477.75L159.876 475.406L157.537 473.067L155.198 470.723L152.859 468.384L150.515 466.045L148.176 463.701L145.833 461.362L143.494 459.018L141.15 456.679L138.811 454.335L136.467 451.996L134.128 449.656L131.784 447.312L129.446 444.973L128.279 443.806L128.518 443.613L130.001 445.101L132.345 447.445L134.684 449.784L137.028 452.128L139.366 454.467L141.71 456.811L144.044 459.155L146.388 461.494L148.727 463.838L151.066 466.177L153.404 468.521L155.748 470.876L158.092 473.215L160.431 475.559L162.775 477.898L165.114 480.242L167.458 482.581L172.14 487.264L174.454 489.578L176.798 491.922L178.382 493.506L178.214 493.746Z" fill="#5DB77D"/>
<path d="M181.505 487.239L182.096 487.815L181.943 488.095L180.96 487.111L178.621 484.772L176.277 482.428L173.938 480.089L171.595 477.75L169.256 475.406L166.912 473.067L164.573 470.723L162.229 468.384L159.89 466.045L157.552 463.701L155.213 461.362L152.874 459.018L150.53 456.679L148.191 454.335L145.847 451.996L143.509 449.657L141.165 447.313L138.826 444.974L136.482 442.63L134.143 440.291L133.944 440.092L134.225 439.939L134.698 440.418L137.042 442.757L139.381 445.101L141.725 447.445L144.064 449.784L146.408 452.128L148.747 454.467L151.085 456.811L153.409 459.155L155.748 461.494L158.092 463.839L160.43 466.178L162.774 468.522L165.113 470.876L167.457 473.215L169.796 475.559L172.14 477.898L174.479 480.242L176.822 482.581L181.408 487.167L181.526 487.28L181.505 487.239Z" fill="#5DB77D"/>
<path d="M180.945 484.772L178.606 482.428L176.262 480.089L173.924 477.75L171.58 475.405L169.241 473.066L166.897 470.722L164.558 468.383L162.214 466.044L159.875 463.7L157.537 461.361L155.198 459.017L152.859 456.678L150.515 454.334L148.176 451.995L145.832 449.656L143.494 447.312L141.15 444.973L138.811 442.629L136.467 440.29L135.489 439.311L135.784 439.174L137.027 440.417L139.366 442.756L141.71 445.1L144.049 447.444L146.393 449.783L148.732 452.128L151.07 454.467L153.409 456.811L155.748 459.155L158.092 461.494L160.431 463.838L162.775 466.177L165.114 468.521L167.457 470.86L169.796 473.199L172.14 475.543L174.453 477.872L176.797 480.216L179.136 482.555L181.48 484.894L182.82 486.239L182.683 486.535L180.945 484.772Z" fill="#5DB77D"/>
<path d="M181.077 489.598L180.935 489.456L178.596 487.112L176.252 484.773L173.913 482.429L171.569 480.09L169.231 477.751L166.887 475.406L164.548 473.067L162.204 470.723L159.865 468.384L157.526 466.045L155.188 463.701L152.849 461.362L150.505 459.018L148.166 456.679L145.822 454.335L143.483 451.996L141.139 449.657L138.801 447.313L136.457 444.974L134.118 442.63L132.416 440.933L132.691 440.77L134.673 442.757L137.017 445.096L139.356 447.44L141.7 449.779L144.039 452.123L146.383 454.462L148.721 456.806L151.065 459.145L153.404 461.484L155.743 463.829L158.087 466.168L160.426 468.512L162.77 470.851L165.108 473.19L167.452 475.534L172.135 480.217L174.453 482.556L176.797 484.895L179.136 487.239L181.225 489.328C181.195 489.415 181.144 489.507 181.077 489.598Z" fill="#5DB77D"/>
<path d="M183.289 461.362L180.945 459.018L178.607 456.679L176.263 454.335L173.944 452.022L171.6 449.683L169.262 447.339L166.918 445L164.579 442.655L162.225 440.301L159.886 437.962L158.923 436.994L159.494 437.137L160.441 438.084L162.785 440.429L165.124 442.768L167.468 445.112L169.807 447.456L172.151 449.795L174.454 452.124L176.798 454.463L179.137 456.807L181.48 459.146L183.819 461.485L184.838 462.534C184.889 462.723 184.935 462.917 184.981 463.105L183.289 461.362Z" fill="#5DB77D"/>
<path d="M183.289 477.751L180.945 475.406L178.607 473.067L176.263 470.723L173.924 468.384L171.58 466.045L169.241 463.701L166.897 461.362L164.558 459.018L162.215 456.679L159.876 454.335L157.537 452.021L155.198 449.682L152.859 447.338L150.515 444.999L148.177 442.655L145.833 440.316L143.494 437.977L142.475 436.933L142.826 436.851L144.075 438.1L146.419 440.444L148.758 442.783L151.096 445.127L153.41 447.435L155.748 449.774L158.092 452.118L160.431 454.457L162.775 456.801L165.114 459.156L167.458 461.495L169.797 463.839L172.141 466.178L174.479 468.522L176.823 470.861L179.162 473.2L181.506 475.544L183.845 477.883L185.195 479.233C185.195 479.351 185.144 479.468 185.113 479.585L183.289 477.751Z" fill="#5DB77D"/>
<path d="M184.064 483.208L183.289 482.429L180.946 480.09L178.607 477.75L176.263 475.406L173.944 473.067L171.6 470.723L169.262 468.384L166.918 466.045L164.579 463.701L162.235 461.362L159.896 459.018L157.557 456.679L155.219 454.335L152.88 451.996L150.536 449.657L148.197 447.313L145.853 444.974L143.514 442.63L141.171 440.291L138.786 437.957L139.107 437.845L139.336 438.074L141.68 440.418L144.019 442.757L146.363 445.101L148.702 447.445L151.04 449.784L153.379 452.128L155.718 454.467L158.062 456.812L160.431 459.156L162.775 461.495L165.114 463.839L167.458 466.178L169.797 468.522L172.141 470.861L174.454 473.19L176.798 475.534L180.334 479.03L181.506 480.202L183.845 482.541L184.176 482.872L184.064 483.208Z" fill="#5DB77D"/>
<path d="M183.29 480.089L180.946 477.75L178.607 475.406L176.263 473.067L173.924 470.723L171.58 468.384L169.241 466.045L166.898 463.701L164.559 461.362L162.215 459.018L159.876 456.679L157.532 454.335L155.193 452.021L152.855 449.682L150.511 447.338L148.172 444.999L145.828 442.655L143.489 440.316L141.145 437.977L140.59 437.417L140.921 437.32L141.706 438.099L144.045 440.444L146.388 442.783L148.727 445.122L151.071 447.466L153.41 449.805L155.749 452.149L158.093 454.488L160.431 456.832L162.775 459.171L165.114 461.51L167.458 463.854L169.797 466.193L172.141 468.537L174.454 470.876L176.798 473.215L179.137 475.559L181.481 477.898L183.819 480.242L184.701 481.124C184.67 481.236 184.635 481.343 184.604 481.455L183.29 480.089Z" fill="#5DB77D"/>
<path d="M183.422 484.905L183.289 484.773L180.945 482.429L178.607 480.09L174.092 475.58L173.924 475.406L171.58 473.067L169.241 470.723L166.897 468.384L164.558 466.045L162.215 463.701L159.876 461.362L157.532 459.018L155.193 456.679L152.854 454.335L150.505 452.021L148.166 449.682L145.823 447.338L143.484 444.999L141.14 442.655L138.786 440.301L137.094 438.609L137.4 438.487L139.341 440.428L141.685 442.767L144.024 445.111L146.368 447.456L148.707 449.795L151.05 452.139L153.389 454.478L155.728 456.822L158.072 459.161L160.411 461.5L162.755 463.844L165.093 466.183L167.437 468.527L169.797 470.876L172.14 473.215L174.479 475.559L176.823 477.898L179.162 480.242L181.506 482.581L183.544 484.62L183.422 484.905Z" fill="#5DB77D"/>
<path d="M185.628 468.384L183.289 466.045L180.945 463.701L178.606 461.362L176.262 459.018L173.923 456.679L171.579 454.335L169.241 451.996L166.897 449.657L164.558 447.313L162.214 444.974L159.875 442.63L157.531 440.291L155.193 437.952L153.338 436.097L153.812 436.138L155.748 438.074L158.092 440.418L160.431 442.757L162.775 445.101L165.113 447.445L167.457 449.784L169.796 452.129L172.14 454.468L174.479 456.812L176.823 459.151L179.161 461.49L181.505 463.834L183.844 466.173L185.882 468.211C185.882 468.369 185.882 468.527 185.923 468.685L185.628 468.384Z" fill="#5DB77D"/>
<path d="M210.635 419.274C210.635 419.274 225.031 435.632 224.825 442.424L216.122 458.796C215.108 460.557 214.543 462.541 214.476 464.573C214.409 466.604 214.843 468.621 215.738 470.445L261.612 450.691L234.766 405.337L210.635 419.274Z" fill="#13141B"/>
<path d="M203.067 209.631C200.117 214.341 212.493 328.552 212.493 328.552L252.319 414.181L208.466 436.135L164.215 340.393L170.159 209.631H203.067Z" fill="white" stroke="#13141B" stroke-linecap="round" stroke-linejoin="round"/>
<path d="M163.64 433.27C163.64 433.27 170.602 453.939 167.785 460.111L153.433 471.848C151.819 473.079 150.534 474.688 149.69 476.535C148.846 478.381 148.47 480.407 148.595 482.433L198.51 481.916L189.04 431.72L163.64 433.27Z" fill="#13141B"/>
<path d="M139.936 210.37L129.419 290.211C125.147 327.528 128.469 365.325 139.184 401.322L152.902 447.503H203.127L178.125 330.87L196.356 210.311L139.936 210.37Z" fill="white" stroke="#13141B" stroke-linecap="round" stroke-linejoin="round"/>
<path d="M145.129 112.797L139.11 80.2136L152.651 67.4136L170.883 110.907L145.129 112.797Z" fill="white" stroke="#13141B" stroke-linecap="round" stroke-linejoin="round"/>
<path d="M141.854 90.8435L148.816 83.4321L140.541 84.067L141.854 90.8435Z" fill="#13141B" stroke="#13141B" stroke-linecap="round" stroke-linejoin="round"/>
<path d="M120.805 54.4807C118.755 61.2572 114.905 80.1103 134.42 84.6871C145.822 87.3593 155.07 81.0847 162.195 67.9156C169.57 54.215 160.307 36.912 147.621 32.8963C134.936 28.8806 125.392 39.3776 120.805 54.4807Z" fill="white" stroke="#13141B" stroke-linecap="round" stroke-linejoin="round"/>
<path d="M162.194 67.9004C155.07 81.0696 145.821 87.3441 134.419 84.6719C116.203 80.4052 118.341 63.7076 120.377 56.001C129.227 57.3297 144.317 67.5461 144.317 67.5461C154.406 75.3117 159.893 56.872 150.394 53.6388C140.895 50.4055 135.009 42.0198 132.694 35.3171C134.792 33.7011 137.259 32.6324 139.872 32.2072C142.485 31.782 145.163 32.0136 147.665 32.8811C160.306 36.8968 169.599 54.2146 162.194 67.9004Z" fill="#13141B" stroke="#13141B" stroke-linecap="round" stroke-linejoin="round"/>
<path d="M124.92 64.9477C126.098 65.5073 127.431 65.6455 128.699 65.3391C129.966 65.0328 131.089 64.3005 131.882 63.2646" stroke="#F0EFE6" stroke-linecap="round" stroke-linejoin="round"/>
<path d="M144.317 67.5613C146.448 68.3581 148.795 68.3581 150.926 67.5613C155.498 65.893 158.02 61.3163 156.56 57.3449C155.572 54.6431 153.227 53.5801 150.395 53.6983" fill="white"/>
<path d="M144.317 67.5613C146.448 68.3581 148.795 68.3581 150.926 67.5613C155.498 65.893 158.02 61.3163 156.56 57.3449C155.572 54.6431 153.227 53.5801 150.395 53.6983" stroke="#13141B" stroke-linecap="round" stroke-linejoin="round"/>
<path d="M147.399 61.4193C147.399 61.4193 150.571 58.8504 152.901 61.5521L147.399 61.4193Z" fill="white"/>
<path d="M147.399 61.4193C147.399 61.4193 150.571 58.8504 152.901 61.5521" stroke="#13141B" stroke-linecap="round" stroke-linejoin="round"/>
<path d="M103.901 163.096C99.7086 164.949 95.2051 165.996 90.6258 166.182C52.2748 167.259 49.074 105.902 23.0985 75.2232C19.5142 70.986 16.2839 67.2803 14.1598 67.5018C10.5755 67.8857 10.133 64.5491 14.4696 62.8217C14.4696 62.8217 8.77594 64.7853 8.12692 62.9694C7.34515 60.7696 14.7499 58.2007 14.7499 58.2007C14.7499 58.2007 7.37468 61.1535 7.83194 58.3484C8.2892 55.5433 15.0006 54.0374 15.0006 54.0374C15.0006 54.0374 1.63674 55.6466 1.01723 53.1221C0.500964 51.0552 11.0622 50.317 20.3845 50.8485C25.8828 51.1495 31.1446 53.1859 35.4151 56.6653C41.4163 61.8659 46.7212 67.8206 51.198 74.3816C51.198 74.3816 73.7366 108.486 91.1716 137.983L146.102 109.194C149.404 107.424 153.14 106.628 156.876 106.897C160.612 107.166 164.195 108.49 167.21 110.715C171.959 114.332 175.706 119.75 173.243 127.398C172.325 130.067 170.839 132.506 168.889 134.545C166.938 136.584 164.569 138.175 161.944 139.209L103.901 163.096Z" fill="white" stroke="#13141B" stroke-linecap="round" stroke-linejoin="round"/>
<path d="M92.6611 135.075L107.633 171.157C107.633 171.157 185.456 152.88 178.346 119.322C171.104 85.1298 140.88 106.921 92.6611 135.075Z" fill="#13141B" stroke="#13141B" stroke-linecap="round" stroke-linejoin="round"/>
<path d="M140.881 99.7753L162.283 85.5137C162.283 85.5137 208.909 144.465 213.762 215.035H133.579L140.881 99.7753Z" fill="#13141B" stroke="#13141B" stroke-linecap="round" stroke-linejoin="round"/>
<path d="M203.098 178.244C205.021 182.426 206.137 186.934 206.387 191.531C208.024 229.842 146.781 234.006 116.513 260.447C112.338 264.094 108.223 267.49 108.931 269.512C113.091 281.397 107.825 277.145 104.255 269.276C104.255 269.276 107.5 278.961 105.73 279.611C103.547 280.423 99.6679 269.04 99.6679 269.04C99.6679 269.04 103.768 282.519 100.951 282.046C98.1338 281.574 95.5083 268.848 95.5083 268.848C95.5083 268.848 97.3226 282.135 94.8003 282.859C92.75 283.405 91.8502 272.834 92.2484 263.503C92.4624 257.994 94.4201 252.694 97.8388 248.371C102.932 242.289 108.787 236.891 115.259 232.308C115.259 232.308 148.993 209.262 178.199 191.383L148.624 136.758C146.8 133.475 145.943 129.742 146.155 125.992C146.366 122.241 147.637 118.628 149.819 115.572C153.359 110.759 158.669 106.95 166.384 109.298C169.067 110.173 171.528 111.62 173.599 113.539C175.669 115.458 177.299 117.804 178.376 120.415L203.098 178.244Z" fill="white" stroke="#13141B" stroke-linecap="round" stroke-linejoin="round"/>
<path d="M203.157 178.155L167.889 194.868C167.889 194.868 128.328 120.799 155.144 106.906C182.698 92.6445 203.157 178.155 203.157 178.155Z" fill="#13141B" stroke="#13141B" stroke-linecap="round" stroke-linejoin="round"/>
</svg>
