<svg width="241" height="229" viewBox="0 0 241 229" fill="none" xmlns="http://www.w3.org/2000/svg">
<path d="M80.3078 179.741C66.479 166.779 53.6042 152.473 42.2351 137.434C36.5395 129.927 31.2571 122.274 26.4474 114.56C21.6169 106.831 17.3241 99.0673 13.6267 91.3736C9.90397 83.6483 6.8896 76.0456 4.63706 68.7005C2.37467 61.3167 1.009 54.2852 0.572049 47.7705C0.158876 41.2426 0.758679 35.3373 2.35506 30.2162C3.98969 25.1136 6.5671 20.8124 10.0224 17.4207L11.3447 16.181L12.6961 15.0055L14.1035 13.8855L15.5428 12.8053C17.4849 11.3887 19.5263 10.0857 21.6671 8.89655C25.943 6.50861 30.6212 4.62242 35.67 3.25074C45.7849 0.52479 57.5334 0.000120193 70.7212 2.39926C77.3207 3.58985 84.2562 5.55106 91.4258 8.25406C105.857 13.6965 121.054 22.2423 136.013 33.3259C139.74 36.08 143.436 38.9694 147.1 41.9939C148.012 42.7565 148.931 43.5058 149.837 44.2772C150.744 45.0486 151.655 45.8211 152.559 46.6069L155.258 48.9741L157.918 51.3446C165.02 57.7095 171.985 64.3374 178.777 71.1939C185.619 78.0848 192.219 85.257 198.52 92.6481C204.881 100.109 210.811 107.831 216.219 115.695C221.692 123.663 226.415 131.758 230.258 139.76C232.178 143.787 233.832 147.768 235.205 151.666C235.905 153.622 236.504 155.545 237.063 157.451C237.622 159.357 238.074 161.228 238.451 163.059C239.234 166.732 239.72 170.264 239.905 173.622C240.098 176.971 240.013 180.151 239.65 183.139C239.296 186.112 238.703 188.914 237.877 191.527C237.068 194.135 236.052 196.57 234.833 198.823C234.52 199.371 234.22 199.944 233.892 200.471L232.914 202.065C232.604 202.608 232.236 203.098 231.9 203.618C231.564 204.138 231.21 204.644 230.845 205.137C229.417 207.137 227.881 209.037 226.21 210.791C224.539 212.545 222.788 214.218 220.895 215.736C219.003 217.254 217.007 218.646 214.909 219.922C210.687 222.442 206.022 224.416 200.949 225.827C195.881 227.229 190.396 228.03 184.543 228.222C178.69 228.397 172.462 227.917 165.923 226.787C159.397 225.647 152.557 223.796 145.491 221.26C138.45 218.74 131.191 215.468 123.829 211.496C116.491 207.537 109.085 202.845 101.749 197.508C94.433 192.18 87.2379 186.218 80.3078 179.741ZM80.5604 179.3C84.0061 182.476 87.5188 185.523 91.0802 188.424C94.6398 191.316 98.2423 194.053 101.868 196.621C109.113 201.736 116.407 206.157 123.598 209.793C130.751 213.401 137.768 216.286 144.531 218.4C151.272 220.494 157.756 221.897 163.897 222.591C170.016 223.276 175.81 223.335 181.221 222.767C186.625 222.216 191.662 221.092 196.289 219.407C198.618 218.589 200.832 217.62 202.956 216.54C205.08 215.461 207.108 214.261 209.043 212.955C210.978 211.65 212.803 210.211 214.532 208.673C216.261 207.134 217.899 205.495 219.43 203.756C220.205 202.89 220.931 201.976 221.667 201.071C222.404 200.166 223.084 199.206 223.745 198.223C224.081 197.741 224.415 197.253 224.727 196.745C225.039 196.237 225.372 195.752 225.673 195.234L226.567 193.67C226.864 193.151 227.131 192.618 227.415 192.091C229.572 187.803 231.169 183.027 231.781 177.57C232.393 172.112 232.18 166.105 230.792 159.536C229.446 152.968 227.045 145.944 223.677 138.72C220.26 131.424 216.04 124.029 211.13 116.731C206.157 109.346 200.685 102.081 194.799 95.0465C188.848 87.9458 182.603 81.0459 176.118 74.4072C169.591 67.7291 162.891 61.2681 156.052 55.0582L153.478 52.7299L150.934 50.4736C150.078 49.7189 149.216 48.9852 148.369 48.2526C147.523 47.52 146.641 46.7918 145.785 46.0669C142.323 43.1792 138.825 40.4078 135.289 37.7528C121.131 27.1198 106.71 18.8652 92.9806 13.5339C86.1128 10.8705 79.4603 8.91175 73.1207 7.68648C60.3508 5.13128 48.8619 5.40337 38.8762 7.82671C33.8724 9.04424 29.2268 10.7677 24.9711 12.9852C22.8378 14.0912 20.7965 15.3108 18.8473 16.6441L17.4019 17.6679L15.9922 18.725L14.6219 19.8186L13.3052 20.9621C6.37895 27.2207 2.94437 37.0458 3.35382 49.4293C3.58717 55.6492 4.72242 62.3913 6.73315 69.4988C8.743 76.6333 11.5092 84.044 14.9824 91.5988C18.4794 99.18 22.5891 106.85 27.2535 114.501C41.3696 137.643 59.7926 160.037 80.5734 179.315L80.5604 179.3Z" fill="#D4ECDC"/>
</svg>
