<svg width="464" height="548" viewBox="0 0 464 548" fill="none" xmlns="http://www.w3.org/2000/svg">
<path d="M132.128 420.731C132.699 421.251 133.102 421.929 133.287 422.679C133.472 423.428 133.43 424.215 133.167 424.941C132.904 425.666 132.431 426.296 131.809 426.752C131.186 427.208 130.443 427.469 129.671 427.501C128.9 427.534 128.137 427.336 127.478 426.934C126.819 426.532 126.294 425.943 125.969 425.243C125.645 424.542 125.536 423.761 125.656 422.999C125.776 422.237 126.12 421.527 126.644 420.961C127.343 420.207 128.311 419.76 129.338 419.717C130.365 419.674 131.368 420.038 132.128 420.731Z" stroke="white" stroke-linecap="round" stroke-linejoin="round"/>
<path d="M196.795 268.264C197.933 269.305 198.737 270.661 199.104 272.159C199.472 273.657 199.387 275.23 198.859 276.679C198.332 278.128 197.386 279.388 196.142 280.298C194.898 281.208 193.411 281.729 191.87 281.793C190.329 281.858 188.803 281.464 187.486 280.661C186.168 279.858 185.118 278.682 184.469 277.283C183.82 275.883 183.6 274.323 183.838 272.8C184.076 271.276 184.761 269.858 185.806 268.724C187.201 267.206 189.142 266.305 191.203 266.218C193.264 266.132 195.275 266.868 196.795 268.264V268.264Z" stroke="white" stroke-linecap="round" stroke-linejoin="round"/>
<path d="M438.471 117.284C441.556 114.667 443.941 111.324 445.411 107.554C446.882 103.784 447.392 99.7075 446.895 95.6902C446.303 91.5665 444.7 87.6527 442.23 84.2973C439.76 80.9419 436.5 78.2491 432.739 76.4587C430.773 75.4958 428.646 74.9072 426.466 74.7228C425.265 74.6341 424.059 74.7601 422.902 75.0948C421.64 75.454 420.487 76.1199 419.545 77.0333C418.595 77.9735 417.903 79.1422 417.535 80.4275C417.107 81.8648 417.215 83.409 417.839 84.7732C418.45 86.0219 419.399 87.074 420.578 87.8096C421.619 88.475 422.757 88.9738 423.951 89.2881C426.319 89.8609 428.803 89.7145 431.087 88.8676C433.261 88.0829 435.244 86.8489 436.909 85.246C438.587 83.6575 439.934 81.7527 440.874 79.641C441.338 78.5459 441.684 77.4045 441.906 76.236C442.103 75.1103 442.205 73.9697 442.21 72.8267C442.13 68.4114 440.958 64.0839 438.798 60.2309C436.811 56.5626 434.382 53.1516 431.566 50.0742C428.905 47.0124 425.991 44.1795 422.857 41.6056C419.667 39.0607 416.276 36.7796 412.717 34.785C398.552 26.8492 381.802 23.4209 366.191 26.0213L366.218 26.732C373.878 27.4389 381.439 28.9878 388.762 31.3507C390.519 32.0219 392.348 32.5825 394.098 33.3127C394.964 33.6755 395.854 33.9839 396.712 34.3792L399.27 35.5607C400.99 36.3351 402.633 37.2364 404.333 38.1183L406.767 39.5358L407.966 40.2137L409.139 40.9889C415.469 44.9355 421.302 49.6269 426.516 54.9627C429.148 57.4922 431.454 60.3401 433.382 63.4403C435.224 66.3381 436.329 69.6431 436.598 73.0658C436.629 73.8773 436.595 74.6899 436.495 75.4958C436.394 76.2493 436.205 76.9884 435.932 77.698C435.357 79.1975 434.484 80.5643 433.365 81.7155C431.142 84.054 427.895 85.5446 425.09 84.9306C424.389 84.7697 423.712 84.515 423.079 84.1736C422.572 83.9064 422.145 83.5101 421.841 83.0249C421.63 82.6009 421.578 82.1157 421.694 81.6569C421.844 81.0512 422.143 80.4926 422.563 80.0318C423.002 79.5556 423.554 79.1989 424.169 78.9952C424.884 78.7548 425.637 78.6451 426.391 78.6712C428.125 78.7644 429.828 79.1744 431.416 79.881C434.818 81.2871 437.821 83.5115 440.159 86.3569C442.497 89.2022 444.096 92.5804 444.816 96.1916C445.469 99.9335 445.198 103.778 444.026 107.389C442.854 111.001 440.817 114.27 438.093 116.913L438.471 117.284Z" fill="white"/>
<path d="M380.127 13.8096C377.396 15.3864 374.782 17.1423 372.103 18.8808C369.424 20.6192 366.863 22.372 364.29 24.1998L362.63 25.3779L363.704 27.6897C364.418 29.2099 365.044 30.7937 365.645 32.379C366.234 33.9629 367.037 35.4584 368.033 36.8237C369.056 38.2054 370.199 39.4943 371.448 40.6755C372.772 41.955 374.264 43.048 375.884 43.9243L376.5 43.5687C376.548 41.7297 376.344 39.8927 375.894 38.1087C375.495 36.4364 374.95 34.8023 374.265 33.2254C373.581 31.6804 372.688 30.2368 371.61 28.9349C370.538 27.6222 369.479 26.2874 368.52 24.9095L367.933 28.3995C370.104 26.1598 372.239 23.8584 374.34 21.5219C376.441 19.1854 378.488 16.852 380.549 14.3744L380.127 13.8096Z" fill="white"/>
<path d="M68.5459 536.524C70.3741 537.892 72.5563 538.707 74.833 538.871C77.0856 538.996 79.3385 538.637 81.4402 537.817C83.5413 537.029 85.4699 535.841 87.1198 534.319C88.7578 532.797 90.1291 531.011 91.1767 529.035C93.2271 524.989 94.5616 520.617 95.1213 516.114C95.2948 514.978 95.4496 513.834 95.581 512.666C95.7437 511.616 95.7984 510.551 95.7442 509.49C95.7233 509.086 95.6449 508.688 95.5115 508.306C95.4161 508.026 95.2432 507.976 95.4352 508.082C95.6273 508.188 95.8929 508.145 95.758 508.206C95.5676 508.362 95.4049 508.55 95.2769 508.76C94.8903 509.523 94.6616 510.355 94.6046 511.209C94.5475 512.062 94.6634 512.918 94.945 513.725C95.5615 515.656 96.5776 517.435 97.9272 518.947C100.609 522.255 104.088 524.826 108.035 526.418C109.766 527.064 111.642 527.218 113.455 526.861C115.191 526.474 116.779 525.596 118.031 524.332C120.625 521.747 122.184 517.549 123.435 513.222C124.058 511.028 124.597 508.77 125.186 506.385L125.672 504.659L126.057 503.093C126.296 502.013 126.526 500.905 126.737 499.741C127.177 497.422 127.588 495.02 128.209 492.546C128.803 489.842 129.777 487.236 131.1 484.805C131.957 483.298 133.088 481.965 134.435 480.875C134.834 480.582 135.238 480.304 135.702 480.021C136.094 479.797 136.499 479.596 136.915 479.42L138.152 478.888C138.624 478.743 139.105 478.626 139.591 478.538C140.077 478.419 140.573 478.344 141.073 478.313L142.636 478.326C143.142 478.352 143.645 478.432 144.135 478.563C144.63 478.69 145.121 478.803 145.584 478.973C147.237 479.617 148.747 480.581 150.027 481.809C152.062 483.779 153.772 486.06 155.092 488.567C155.726 489.692 156.289 490.795 156.81 491.818C157.065 492.293 157.325 492.781 157.481 493.055C157.637 493.33 157.967 493.794 158.221 494.129C159.072 495.381 160.243 496.382 161.611 497.028C162.025 497.209 162.483 497.264 162.928 497.187C163.422 497.09 163.883 496.868 164.266 496.543C165.645 495.232 166.756 493.666 167.54 491.932C168.102 490.929 168.635 489.842 169.298 488.726L170.396 487.01C170.789 486.471 171.219 485.95 171.625 485.405C174.965 481.364 179.371 478.342 184.343 476.682C189.12 475.085 194.267 474.958 199.119 476.319L198.981 477.193C194.56 477.132 190.196 478.196 186.299 480.284C182.402 482.373 179.099 485.417 176.7 489.133C176.433 489.583 176.161 490.019 175.926 490.474L175.293 491.86L173.898 495.081C172.941 497.761 171.477 500.231 169.586 502.356C168.287 503.682 166.668 504.648 164.885 505.161C163.029 505.684 161.064 505.691 159.203 505.181C156.087 504.241 153.325 502.384 151.275 499.853C150.79 499.284 150.337 498.689 149.919 498.07C149.438 497.345 149.135 496.777 148.809 496.233C148.213 495.173 147.66 494.192 147.098 493.276C146.187 491.599 145.038 490.063 143.687 488.715C143.258 488.29 142.768 487.931 142.233 487.651C141.855 487.593 141.644 487.431 141.22 487.56C141.123 487.593 141.039 487.622 140.927 487.66L140.522 487.798C140.39 487.836 140.259 487.88 140.131 487.932C140.046 487.983 139.951 488.015 139.852 488.027C139.346 488.414 138.918 488.894 138.589 489.441C137.531 491.123 136.721 492.949 136.185 494.863C135.524 496.945 134.962 499.18 134.396 501.495C134.101 502.641 133.792 503.838 133.461 505.059L132.891 506.907L132.362 508.553C131.665 510.757 130.973 513.068 130.178 515.398C129.388 517.81 128.425 520.162 127.296 522.434C126.078 524.924 124.423 527.175 122.409 529.078C120.203 531.078 117.471 532.405 114.535 532.904C111.653 533.343 108.706 532.984 106.014 531.865C103.55 530.843 101.261 529.439 99.2327 527.705C97.2747 526.052 95.4971 524.196 93.9297 522.168C92.2295 520.037 90.9998 517.569 90.3215 514.928C89.9211 513.457 89.8405 511.918 90.0853 510.413C90.3302 508.909 90.8947 507.475 91.7407 506.208C92.2799 505.432 93.0008 504.8 93.8404 504.368C94.1007 504.264 94.3663 504.173 94.6361 504.096C94.9398 504.011 95.2527 503.961 95.568 503.95C96.2612 503.923 96.9486 504.087 97.5542 504.427C98.5013 505.015 99.1977 505.933 99.5092 507.004C99.7352 507.755 99.854 508.533 99.8621 509.317C99.8521 510.628 99.7133 511.935 99.4477 513.218C99.2326 514.415 98.9988 515.602 98.7462 516.78C97.8256 521.619 96.0715 526.261 93.562 530.499C92.2516 532.637 90.5944 534.541 88.6586 536.134C86.703 537.712 84.4631 538.9 82.0601 539.634C79.679 540.364 77.1692 540.577 74.6986 540.258C72.2216 539.909 69.9009 538.841 68.0236 537.186L68.5459 536.524Z" fill="white"/>
<path d="M117.992 187.729L47.4317 203.09C46.6628 203.253 45.8617 203.161 45.1495 202.829C44.4372 202.497 43.8524 201.942 43.4834 201.248L11.3366 129.623C10.917 128.832 10.3456 128.131 9.65512 127.561C8.96463 126.99 8.16854 126.562 7.31236 126.299C6.45617 126.037 5.55668 125.946 4.66524 126.031C3.7738 126.116 2.9079 126.376 2.11701 126.796L0 127.919L33.3747 211.929V212.024C33.8472 212.913 34.6062 213.616 35.5284 214.02C36.4506 214.423 37.4821 214.503 38.4555 214.247L124.417 191.837C124.083 190.455 123.228 189.256 122.031 188.49C120.833 187.724 119.386 187.452 117.992 187.729Z" fill="#5DB77D"/>
</svg>
