<svg width="1368" height="1096" viewBox="0 0 1368 1096" fill="none" xmlns="http://www.w3.org/2000/svg">
<path d="M592.177 553.131C590.095 561.575 588.632 570.263 587.795 579.154C586.909 588.005 586.55 597.028 586.718 606.222C586.923 624.571 589.987 643.559 595.838 662.745C598.88 672.379 602.915 682.03 607.894 691.58C612.891 701.146 619.043 710.529 626.233 719.552C633.48 728.571 641.842 737.105 651.116 744.948C660.23 752.835 669.841 760.307 679.873 767.304C699.929 781.513 721.992 793.05 744.846 801.278C767.807 809.39 791.105 813.324 812.928 812.772C834.621 812.042 854.531 807.46 871.493 799.296C888.444 791.2 902.896 780.449 914.338 767.421C937.382 741.544 949.485 708.151 950.973 671.92C952.374 635.479 943.158 596.559 924.039 558.177C905.045 519.905 876.684 482.902 842.73 449.7C808.775 416.497 769.629 386.588 728.227 360.547C717.879 354.034 707.414 347.684 696.795 341.6C686.177 335.516 675.349 329.679 664.428 324.158C642.564 313.166 620.285 303.212 597.73 294.357C552.739 276.674 506.472 263.114 460.939 255.932C438.147 252.307 415.655 250.417 393.741 250.287C371.821 250.231 350.666 252.146 330.606 256.001C310.584 259.946 291.823 265.89 274.641 273.732C270.278 275.629 266.177 277.799 262.03 279.896C257.882 281.994 253.906 284.329 250.04 286.819C246.173 289.309 242.426 291.746 238.652 294.228C234.879 296.711 231.35 299.457 227.947 302.292C214.103 313.391 201.789 325.766 191.129 339.292C185.697 346.041 180.927 353.23 176.848 360.815C172.797 368.427 169.524 376.46 167.056 384.851C162.097 401.647 160.255 419.699 161.582 438.502C162.942 457.268 166.953 476.525 173.536 495.892C186.678 534.585 208.604 573.057 235.5 609.614C262.596 646.181 294.196 681.09 329.572 713.539C364.802 746.062 403.348 776.061 444.426 802.925C454.721 809.607 465.133 816.126 475.727 822.366C481.043 825.435 486.342 828.571 491.675 831.573C497.007 834.575 502.373 837.596 507.785 840.459C529.338 852.118 551.281 863.064 573.501 873.185C617.999 893.541 663.601 910.222 709.478 922.924C755.432 935.622 801.352 943.649 846.138 946.814C891.033 950.03 934.174 947.588 974.19 939.566C1014.38 931.608 1050.29 917.083 1080.29 896.647C1087.76 891.51 1094.77 885.949 1101.28 879.984C1107.87 874.01 1113.93 867.619 1119.44 860.841C1130.48 847.366 1139.16 832.336 1145.31 816.041C1146.12 814.019 1146.81 811.953 1147.48 809.866C1148.16 807.779 1148.87 805.711 1149.46 803.653L1153.08 791.189C1155.44 782.863 1157.66 774.471 1159.73 766.016C1163.83 749.091 1167.31 731.933 1169.73 714.272C1172.29 696.695 1173.68 678.722 1173.88 660.427C1174.06 642.072 1172.67 623.329 1169.73 604.326C1163.92 566.13 1150.14 526.987 1129 488.664C1107.83 450.38 1079.25 413.516 1046.53 379.331C1013.8 345.146 977.049 313.311 938.499 283.67L931.259 278.121L923.949 272.655C919.095 268.976 914.132 265.449 909.236 261.806C904.34 258.164 899.32 254.697 894.347 251.149C889.374 247.601 884.212 244.036 879.053 240.658C858.317 227.26 836.857 214.921 814.85 203.744C771.122 181.562 726.388 161.865 681.054 144.834C635.806 127.657 590.169 112.611 544.402 99.7815C498.602 86.8386 452.75 76.4237 407.177 68.6119C361.611 60.9496 316.265 56.1211 272.32 56.1319C250.309 56.0783 228.846 57.4616 208.107 60.2706C187.227 63.0763 167.425 67.8161 149 74.4186C139.766 77.7542 130.985 81.66 122.707 86.1133C114.484 90.6021 106.718 95.5627 99.4449 100.973C85.0173 111.771 72.0303 123.818 60.6027 137.005C37.6125 163.275 20.7414 193.669 10.5452 227.187C0.314605 260.824 -1.98415 297.632 3.75089 335.979C6.71203 355.149 11.6969 374.593 18.6476 394.083C25.6614 413.543 34.4704 432.973 44.9866 452.179C65.9267 490.283 90.4576 527.756 118.291 564.158C145.933 600.495 175.946 635.958 208.136 670.318C240.26 704.67 274.252 737.989 309.94 770.107C345.601 802.278 382.972 833.142 421.848 862.53C460.748 892.038 501.43 919.639 543.55 945.101C564.629 957.81 586.341 969.807 608.147 981.104C629.953 992.402 651.972 1003.18 674.245 1013.36C718.858 1034.04 764.457 1051.61 810.447 1065.84C856.521 1079.89 903.212 1089.85 948.67 1093.76C960.043 1094.79 971.298 1095.33 982.445 1095.57C988.033 1095.72 993.463 1095.61 999.078 1095.63C1004.69 1095.66 1010.04 1095.38 1015.45 1095.04C1037.15 1093.9 1058.14 1091.16 1078.19 1086.87C1118.33 1078.35 1154.4 1063.64 1186.09 1044.85C1249.19 1006.8 1297.49 955.047 1327.9 892.892C1343.28 862.039 1354.33 828.948 1360.89 794.102C1367.41 759.21 1368.87 722.556 1365.21 684.807C1363.32 665.916 1360.09 646.788 1355.54 627.52C1350.93 608.264 1344.98 588.901 1337.71 569.534C1323.13 530.776 1303.58 492.198 1279.45 454.552C1255.32 417.033 1227.44 380.505 1196.19 345.484C1180.64 327.938 1164.34 310.928 1147.4 294.059C1130.24 277.29 1112.01 261.234 1092.83 246.014C1054.46 215.748 1013.19 188.455 969.887 164.71C926.748 141.064 882.271 120.22 836.998 102.432C746.664 66.7225 654.417 41.6305 563.506 24.8172C472.433 7.91854 382.61 -0.153446 295.873 0.766214C252.542 1.18936 210.42 4.64671 169.899 11.1058C149.675 14.3936 130.103 18.8073 111.285 24.3232C92.4114 29.7748 74.7049 36.8325 58.3706 45.415L59.6276 46.7561C76.1449 38.5501 93.9956 31.8691 112.974 26.7904C131.919 21.6688 151.563 17.6012 171.807 14.6075C212.379 8.72646 254.499 5.83797 297.77 5.96924C340.995 6.00329 385.014 8.34134 429.586 12.9705C474.107 17.5048 519.075 24.1558 564.275 32.8919C609.425 41.5916 654.746 52.4858 699.999 65.5167C745.214 78.4546 790.251 93.9079 834.77 111.76C879.17 129.566 922.758 150.33 965.013 173.803C1007.14 197.171 1047.26 223.98 1084.5 253.667C1103 268.505 1120.58 284.139 1137.11 300.454C1153.43 316.892 1169.49 333.779 1184.61 350.956C1214.97 385.285 1242.06 421.049 1265.52 457.756C1288.87 494.405 1307.74 531.949 1321.76 569.651C1328.74 588.471 1334.44 607.282 1338.81 625.982C1343.14 644.672 1346.2 663.221 1347.96 681.537C1351.35 718.197 1349.77 753.778 1343.25 787.628C1336.73 821.494 1325.86 853.652 1310.81 883.639C1295.92 913.701 1276.73 941.356 1253.55 966.174C1229.95 990.727 1203.26 1012.98 1172.57 1031.18C1142.12 1049.55 1107.17 1063.16 1068.76 1071.59C1030.27 1079.76 988.41 1082.01 944.78 1078.24C901.176 1074.6 856.196 1065.04 811.497 1051.48C766.631 1037.65 722.139 1020.57 678.601 1000.46C656.749 990.505 635.07 979.942 613.635 968.844C592.201 957.745 571.198 946.204 550.522 933.79C509.193 908.842 469.247 881.83 431.008 852.974C392.643 824.107 355.749 793.785 320.526 762.173C285.254 730.579 251.646 697.795 219.873 663.987C188.075 630.222 158.414 595.363 131.081 559.635C103.725 524.017 79.6065 487.337 59.0112 450.031C48.8277 431.527 40.2823 412.805 33.4597 394.051C26.7343 375.326 21.8876 356.643 18.9754 338.215C13.3501 301.29 15.4468 265.829 25.173 233.402C34.9452 200.91 51.1718 171.426 73.3203 145.916C84.3074 133.139 96.8127 121.466 110.72 111.006C117.629 105.814 125.014 101.054 132.84 96.7479C140.669 92.5042 148.981 88.7847 157.729 85.6115C175.388 79.2528 194.369 74.6784 214.386 71.9572C234.526 69.2116 255.371 67.8515 276.749 67.8883C319.51 67.8246 364.015 72.4286 408.9 79.9293C453.846 87.5416 499.075 97.7199 544.261 110.391C589.484 123.008 634.585 137.806 679.309 154.702C723.999 171.414 768.106 190.749 811.233 212.532C832.652 223.37 853.545 235.335 873.741 248.328C878.758 251.609 883.562 254.875 888.509 258.393C893.455 261.91 898.369 265.332 903.219 268.901C908.069 272.47 912.966 275.959 917.75 279.567L924.974 284.953L932.111 290.412C970.152 319.559 1006.28 350.711 1038.34 384.141C1070.4 417.572 1098.22 453.326 1118.84 490.428C1139.45 527.63 1152.92 565.641 1158.65 602.746C1161.58 621.328 1162.98 639.659 1162.85 657.614C1162.7 675.613 1161.38 693.297 1158.91 710.597C1156.54 727.946 1153.12 744.956 1149.12 761.752C1147.08 770.132 1144.9 778.461 1142.6 786.739L1139.04 799.131C1138.44 801.201 1137.79 803.209 1137.13 805.196C1136.47 807.183 1135.83 809.201 1135.06 811.154C1129.12 826.871 1120.75 841.371 1110.11 854.373C1104.79 860.889 1098.96 867.04 1092.62 872.8C1086.3 878.579 1079.5 883.969 1072.26 888.949C1043.11 908.904 1008.2 923.109 969.11 930.926C929.998 938.849 887.817 941.316 843.906 938.249C799.951 935.226 754.871 927.43 709.742 915.047C664.565 902.612 619.648 886.259 575.806 866.286C553.879 856.334 532.254 845.602 510.931 834.092C505.579 831.278 500.302 828.293 495.006 825.343C489.71 822.393 484.494 819.382 479.268 816.349C468.858 810.247 458.615 803.856 448.472 797.292C407.973 770.92 369.937 741.469 335.131 709.533C300.221 677.65 269.013 643.334 242.225 607.374C215.649 571.448 194.087 533.724 181.111 496.004C174.632 477.143 170.647 458.382 169.233 440.089C167.892 421.838 169.612 404.308 174.345 387.982C176.716 379.836 179.857 372.032 183.744 364.627C187.684 357.236 192.298 350.229 197.556 343.649C207.985 330.32 220.042 318.121 233.606 307.175C236.92 304.381 240.558 301.866 244.066 299.231C247.575 296.595 251.375 294.22 255.181 291.911C258.988 289.601 262.933 287.356 266.859 285.146C270.785 282.936 274.925 280.927 279.198 279.071C295.979 271.345 314.306 265.472 333.872 261.549C353.501 257.684 374.216 255.726 395.692 255.705C417.212 255.784 439.308 257.594 461.703 261.111C506.52 268.08 552.184 281.307 596.757 298.719C619.086 307.413 641.149 317.192 662.81 327.993C684.421 338.908 705.535 350.898 725.997 363.875C766.981 389.644 805.771 418.947 839.345 451.776C872.919 484.605 900.959 520.977 919.71 558.601C938.625 596.383 947.796 634.713 946.512 670.621C945.158 706.314 933.364 739.286 910.759 764.786C899.574 777.608 885.43 788.199 868.827 796.188C852.266 804.207 832.809 808.716 811.6 809.452C790.312 810.027 767.574 806.222 745.155 798.334C722.753 790.297 701.12 779.019 681.444 765.119C671.549 758.239 662.064 750.892 653.067 743.136C643.975 735.507 635.756 727.206 628.604 718.428C621.515 709.604 615.44 700.42 610.495 691.052C605.545 681.668 601.526 672.181 598.488 662.705C592.502 643.68 589.29 624.832 588.926 606.604C588.65 597.471 588.924 588.481 589.748 579.635C590.504 570.786 591.879 562.136 593.867 553.723L592.177 553.131Z" fill="#D4ECDC" fill-opacity="0.36"/>
</svg>
