<svg width="215" height="69" viewBox="0 0 215 69" fill="none" xmlns="http://www.w3.org/2000/svg">
<path d="M117.797 61.4681C103.848 63.8587 89.783 65.654 76.2045 66.7772C69.415 67.345 62.7854 67.7389 56.3899 67.9543C49.9753 68.1739 43.8438 68.1972 38.0778 68.0237C32.2825 67.8531 26.9409 67.456 22.1479 66.8394C17.3308 66.2189 13.183 65.3496 9.80166 64.2517C6.42718 63.1428 3.91708 61.796 2.34 60.2482C0.79314 58.6904 0.15758 56.9537 0.449297 55.082L0.58905 54.3769L0.775898 53.6739L1.02061 52.9618L1.30235 52.246C1.70221 51.2881 2.21216 50.317 2.83223 49.3327C4.06472 47.3642 5.76301 45.3501 7.91564 43.3041C12.2389 39.2093 18.5326 34.9609 27.0368 30.7664C31.2876 28.6654 36.0968 26.5939 41.3938 24.5823C52.0564 20.5339 64.6409 16.8113 78.3147 13.6608C81.7183 12.8742 85.1694 12.1248 88.668 11.4126C89.5432 11.2374 90.4162 11.057 91.2928 10.8852C92.1694 10.7135 93.0493 10.5403 93.9313 10.3723L96.5759 9.87418L99.1997 9.39085C106.223 8.10694 113.296 6.92205 120.383 5.8423C127.515 4.75123 134.647 3.79965 141.718 2.99581C148.856 2.18443 155.88 1.57516 162.681 1.17735C169.569 0.776623 176.1 0.665423 182.095 0.846778C185.105 0.942762 187.944 1.12394 190.586 1.38863C191.919 1.51743 193.178 1.67561 194.408 1.84463C195.637 2.01366 196.791 2.21356 197.883 2.43252C200.088 2.86218 202.06 3.36941 203.781 3.94957C205.501 4.5251 206.986 5.1664 208.222 5.86847C209.457 6.56528 210.477 7.31286 211.275 8.10685C212.08 8.89366 212.687 9.72056 213.093 10.5837C213.183 10.7995 213.291 11.0156 213.362 11.2328L213.585 11.8843C213.674 12.0983 213.705 12.3224 213.768 12.5408C213.831 12.7592 213.877 12.9816 213.912 13.2051C214.079 14.0938 214.139 15.0012 214.052 15.9283C213.966 16.8554 213.796 17.7952 213.473 18.755C213.15 19.7149 212.708 20.6869 212.153 21.673C211.015 23.6476 209.366 25.6741 207.219 27.7363C205.07 29.7948 202.399 31.8851 199.231 33.9883C196.053 36.0883 192.352 38.1948 188.164 40.2858C183.978 42.3705 179.276 44.4295 174.117 46.4366C168.98 48.4379 163.359 50.3716 157.343 52.2072C151.347 54.0368 144.961 55.7494 138.302 57.3135C131.659 58.8722 124.778 60.2664 117.797 61.4681ZM117.725 61.294C121.175 60.6881 124.6 60.0336 127.982 59.334C131.358 58.6332 134.684 57.8875 137.941 57.1011C144.442 55.5266 150.636 53.8013 156.394 51.9616C162.118 50.1297 167.418 48.207 172.204 46.2258C176.969 44.2484 181.258 42.2291 185.014 40.1946C188.753 38.1661 192.01 36.1319 194.752 34.1127C197.497 32.0989 199.763 30.1047 201.529 28.1473C202.434 27.1677 203.201 26.1999 203.864 25.2426C204.527 24.2853 205.08 23.3389 205.529 22.4047C205.979 21.4705 206.303 20.5497 206.525 19.6437C206.747 18.7378 206.871 17.8443 206.886 16.9696C206.901 16.5296 206.865 16.0976 206.839 15.6636C206.814 15.2297 206.73 14.8049 206.625 14.3829C206.58 14.1716 206.531 13.96 206.461 13.7521C206.39 13.5442 206.341 13.3335 206.26 13.1275L206.005 12.5114C205.92 12.3069 205.812 12.1103 205.717 11.9085C204.853 10.3228 203.443 8.84123 201.155 7.57625C198.867 6.31127 195.855 5.23173 191.918 4.4591C188.004 3.6719 183.284 3.1695 177.927 2.97006C172.509 2.77406 166.596 2.84236 160.344 3.17313C154.016 3.50937 147.468 4.04459 140.8 4.77057C134.064 5.50655 127.261 6.38513 120.449 7.39864C113.596 8.41909 106.75 9.54264 99.9486 10.7634L97.3928 11.2247L94.8883 11.6892C94.048 11.8462 93.2141 12.0095 92.3896 12.1676C91.5651 12.3256 90.723 12.4969 89.8967 12.6599C86.5771 13.3268 83.2928 14.0292 80.0437 14.7672C67.0329 17.7218 55.0217 21.2259 44.8033 25.0483C39.6935 26.9609 35.0432 28.9329 30.9205 30.9355C22.5741 34.9525 16.3033 39.0607 11.9062 43.0518C9.70446 45.0523 7.94593 47.0236 6.64266 48.9522C5.98663 49.9178 5.43663 50.8729 4.99268 51.8173L4.68039 52.5244L4.40405 53.2252L4.16721 53.9192L3.98432 54.6038C3.13937 58.2519 5.95788 61.3528 12.1507 63.5884C15.2766 64.7016 19.1566 65.5966 23.7004 66.2529C28.2567 66.9147 33.3675 67.3625 38.9417 67.5884C44.5419 67.811 50.5264 67.8344 56.8107 67.6584C75.8229 67.1229 96.8751 64.9234 117.74 61.2924L117.725 61.294Z" fill="#D4ECDC"/>
</svg>
