<svg width="1475" height="1208" viewBox="0 0 1475 1208" fill="none" xmlns="http://www.w3.org/2000/svg">
<path d="M838.611 596.357C841.106 586.853 842.934 577.094 844.088 567.123C845.294 557.196 845.932 547.091 846.001 536.809C846.282 516.286 843.472 495.126 837.637 473.821C834.595 463.125 830.473 452.438 825.322 441.89C820.152 431.325 813.721 420.995 806.152 411.098C798.521 401.206 789.664 391.887 779.797 383.367C770.105 374.793 759.861 366.696 749.147 359.143C727.733 343.796 704.064 331.494 679.444 322.915C654.704 314.468 629.484 310.707 605.744 311.922C582.141 313.334 560.371 319.006 541.706 328.606C523.056 338.129 507.05 350.554 494.253 365.443C468.492 395.027 454.417 432.72 451.806 473.296C449.284 514.105 458.235 557.397 477.967 599.814C497.567 642.113 527.384 682.734 563.387 718.951C599.39 755.167 641.127 787.555 685.422 815.555C696.494 822.558 707.697 829.375 719.074 835.891C730.45 842.407 742.062 848.64 753.784 854.517C777.251 866.216 801.199 876.742 825.476 886.03C873.902 904.58 923.829 918.482 973.133 925.269C997.812 928.7 1022.21 930.197 1046.03 929.742C1069.86 929.203 1092.91 926.481 1114.83 921.617C1136.7 916.653 1157.26 909.489 1176.15 900.244C1180.95 898.002 1185.47 895.462 1190.03 893.002C1194.6 890.541 1198.99 887.82 1203.26 884.927C1207.53 882.035 1211.67 879.207 1215.84 876.326C1220.01 873.445 1223.92 870.275 1227.7 867.01C1243.06 854.213 1256.78 840.03 1268.74 824.604C1274.83 816.905 1280.22 808.731 1284.86 800.133C1289.47 791.504 1293.25 782.428 1296.16 772.972C1302.01 754.044 1304.51 733.797 1303.58 712.796C1302.62 691.838 1298.79 670.403 1292.16 648.916C1278.94 605.986 1256.16 563.544 1227.92 523.381C1199.46 483.213 1166.07 445.023 1128.5 409.689C1091.09 374.267 1050.01 341.762 1006.09 312.833C995.08 305.639 983.939 298.631 972.593 291.94C966.898 288.652 961.223 285.289 955.508 282.077C949.793 278.864 944.043 275.632 938.238 272.577C915.126 260.123 891.572 248.479 867.693 237.765C819.875 216.21 770.757 198.798 721.231 185.845C671.62 172.899 621.919 165.178 573.317 162.866C524.597 160.499 477.63 164.414 433.907 174.486C389.992 184.493 350.559 201.728 317.384 225.415C309.12 231.367 301.351 237.782 294.106 244.634C286.778 251.498 280.011 258.814 273.836 266.549C261.468 281.928 251.622 298.982 244.488 317.382C243.547 319.667 242.746 321.997 241.955 324.35C241.164 326.704 240.337 329.037 239.637 331.356L235.361 345.399C232.563 354.78 229.923 364.229 227.44 373.746C222.522 392.794 218.267 412.086 215.147 431.912C211.879 451.648 209.88 471.794 209.158 492.269C208.459 512.809 209.453 533.741 212.133 554.921C217.4 597.496 231.311 640.911 253.24 683.208C275.208 725.46 305.26 765.921 339.899 803.27C374.538 840.619 413.622 875.228 454.719 907.333L462.437 913.343L470.234 919.259C475.41 923.241 480.708 927.051 485.932 930.992C491.155 934.933 496.517 938.674 501.826 942.507C507.135 946.341 512.649 950.187 518.165 953.826C540.34 968.247 563.332 981.463 586.95 993.365C633.881 1016.98 681.973 1037.79 730.79 1055.6C779.51 1073.58 828.711 1089.16 878.114 1102.26C927.55 1115.49 977.112 1125.88 1026.44 1133.37C1075.77 1140.69 1124.93 1144.85 1172.71 1143.63C1196.64 1143.09 1220.01 1140.95 1242.63 1137.24C1265.41 1133.53 1287.07 1127.69 1307.28 1119.79C1317.41 1115.81 1327.06 1111.2 1336.18 1105.99C1345.24 1100.74 1353.82 1094.98 1361.88 1088.72C1377.86 1076.25 1392.31 1062.41 1405.09 1047.35C1430.81 1017.32 1449.98 982.856 1461.99 945.076C1474.03 907.162 1477.54 865.918 1472.36 823.172C1469.66 801.805 1464.78 780.188 1457.76 758.572C1450.67 736.993 1441.62 715.496 1430.72 694.296C1409 652.239 1383.36 610.987 1354.1 571.024C1325.04 531.127 1293.39 492.273 1259.33 454.714C1225.35 417.162 1189.31 380.817 1151.39 345.861C1113.51 310.846 1073.73 277.34 1032.27 245.526C990.788 213.579 947.318 183.814 902.226 156.482C879.658 142.842 856.384 130.015 832.988 117.974C809.592 105.932 785.949 94.481 762.014 83.6994C714.08 61.7901 664.989 43.3817 615.382 28.7146C565.679 14.2615 515.193 4.40075 465.88 1.27469C453.544 0.43597 441.323 0.135192 429.211 0.176916C423.14 0.162778 417.235 0.435985 411.131 0.560151C405.027 0.684318 399.203 1.14424 393.316 1.67247C369.689 3.54751 346.801 7.18063 324.88 12.5357C281.014 23.1664 241.396 40.6138 206.426 62.5074C136.783 106.809 82.8607 166.033 48.0949 236.408C30.5241 271.348 17.6029 308.674 9.51918 347.84C1.46855 387.056 -1.11353 428.105 1.81999 470.239C3.36663 491.323 6.35261 512.634 10.7631 534.068C15.2487 555.485 21.1923 576.985 28.5623 598.454C43.3493 641.417 63.5406 684.043 88.7416 725.5C113.944 766.815 143.258 806.918 176.271 845.243C192.693 864.447 209.947 883.031 227.893 901.439C246.088 919.731 265.475 937.194 285.906 953.697C326.787 986.507 370.904 1015.91 417.332 1041.29C463.582 1066.56 511.363 1088.66 560.093 1107.32C657.32 1144.8 756.918 1170.34 855.29 1186.66C953.835 1203.07 1051.26 1209.63 1145.59 1206.22C1192.7 1204.56 1238.59 1199.54 1282.82 1191.2C1304.9 1186.97 1326.3 1181.49 1346.9 1174.81C1367.57 1168.19 1387.02 1159.81 1405.01 1149.76L1403.68 1148.29C1385.5 1157.92 1365.91 1165.89 1345.14 1172.09C1324.4 1178.34 1302.93 1183.43 1280.84 1187.34C1236.57 1195.03 1190.7 1199.42 1143.67 1200.46C1096.67 1201.6 1048.88 1200.19 1000.55 1196.24C952.278 1192.39 903.575 1186.18 854.674 1177.64C805.829 1169.15 756.857 1158.2 708.019 1144.86C659.218 1131.63 610.68 1115.58 562.771 1096.82C514.99 1078.12 468.173 1056.08 422.88 1030.98C377.718 1005.99 334.847 977.098 295.168 944.906C275.47 928.812 256.787 911.802 239.26 894.003C221.967 876.06 204.97 857.606 189.001 838.804C156.944 801.228 128.47 761.958 103.971 721.533C79.5968 681.17 60.1122 639.683 45.8984 597.886C38.8274 577.021 33.1548 556.132 28.9111 535.33C24.7164 514.538 21.9043 493.868 20.4891 473.425C17.8105 432.502 20.5018 392.651 28.5138 354.6C36.5332 316.531 49.2301 280.254 66.422 246.291C83.433 212.249 105.049 180.781 130.931 152.38C157.266 124.261 186.892 98.6365 220.755 77.4305C254.355 56.0428 292.731 39.8599 334.722 29.3716C376.786 19.1709 422.355 15.5115 469.683 18.5336C516.988 21.4083 565.625 30.865 613.847 44.8118C662.243 59.0537 710.144 76.9445 756.925 98.2507C780.408 108.789 803.686 120.012 826.684 131.841C849.683 143.671 872.199 156.007 894.336 169.329C938.583 196.107 981.269 225.233 1022.05 256.469C1062.97 287.713 1102.24 320.626 1139.67 355.028C1177.15 389.409 1212.78 425.166 1246.4 462.119C1280.04 499.024 1311.33 537.211 1340.07 576.434C1368.83 615.535 1394.04 655.91 1415.41 697.084C1425.97 717.507 1434.75 738.219 1441.65 759.014C1448.45 779.78 1453.21 800.55 1455.87 821.087C1460.97 862.245 1457.72 901.977 1446.26 938.524C1434.74 975.144 1416.29 1008.58 1391.51 1037.72C1379.22 1052.32 1365.3 1065.72 1349.9 1077.81C1342.24 1083.81 1334.08 1089.34 1325.46 1094.37C1316.83 1099.33 1307.69 1103.72 1298.1 1107.51C1278.72 1115.11 1257.96 1120.75 1236.13 1124.34C1214.16 1127.96 1191.46 1130.06 1168.22 1130.6C1121.73 1131.85 1073.47 1127.92 1024.88 1120.76C976.226 1113.47 927.335 1103.32 878.559 1090.39C829.741 1077.51 781.116 1062.19 732.958 1044.52C684.832 1027.04 637.411 1006.62 591.123 983.433C568.135 971.894 545.749 959.081 524.15 945.098C518.786 941.565 513.653 938.042 508.371 934.243C503.09 930.443 497.842 926.75 492.668 922.89C487.493 919.029 482.265 915.26 477.163 911.355L469.457 905.527L461.848 899.615C421.292 868.048 382.865 834.186 348.932 797.663C314.998 761.14 285.732 721.901 264.333 680.956C242.946 639.899 229.341 597.742 224.132 556.385C221.463 535.676 220.439 515.205 221.069 495.114C221.731 474.971 223.645 455.15 226.805 435.728C229.865 416.252 234.047 397.127 238.857 378.225C241.306 368.794 243.898 359.416 246.632 350.091L250.837 336.129C251.545 333.797 252.309 331.532 253.082 329.291C253.856 327.05 254.602 324.775 255.497 322.569C262.385 304.821 271.883 288.368 283.81 273.529C289.767 266.093 296.28 259.051 303.322 252.434C310.353 245.795 317.89 239.578 325.903 233.808C358.139 210.682 396.477 193.832 439.192 184.013C481.931 174.077 527.855 170.16 575.508 172.387C623.211 174.564 672.005 182.05 720.727 194.666C769.5 207.339 817.883 224.403 864.997 245.547C888.563 256.08 911.778 267.494 934.642 279.787C940.385 282.788 946.039 285.983 951.715 289.138C957.392 292.293 962.98 295.519 968.579 298.769C979.728 305.311 990.688 312.18 1001.53 319.245C1044.84 347.64 1085.38 379.547 1122.35 414.323C1159.42 449.037 1192.41 486.574 1220.55 526.071C1248.45 565.537 1270.86 607.152 1283.93 648.998C1290.46 669.922 1294.28 690.803 1295.31 711.231C1296.27 731.613 1293.92 751.273 1288.32 769.668C1285.52 778.847 1281.89 787.665 1277.47 796.057C1272.98 804.434 1267.77 812.4 1261.87 819.906C1250.17 835.104 1236.73 849.084 1221.68 861.702C1218 864.919 1213.98 867.833 1210.09 870.877C1206.21 873.922 1202.01 876.683 1197.81 879.372C1193.61 882.061 1189.26 884.68 1184.93 887.261C1180.6 889.841 1176.04 892.202 1171.35 894.396C1152.89 903.5 1132.81 910.574 1111.43 915.5C1089.98 920.362 1067.41 923.121 1044.06 923.733C1020.67 924.235 996.695 922.816 972.445 919.495C923.914 912.928 874.633 899.382 826.653 881.124C802.618 872.008 778.9 861.673 755.648 850.183C732.452 838.563 709.827 825.728 687.938 811.771C644.089 784.064 602.723 752.344 567.123 716.535C531.524 680.726 502.038 640.801 482.685 599.222C463.158 557.47 454.24 514.836 456.621 474.627C459.071 434.656 472.797 397.443 498.072 368.293C510.583 353.641 526.25 341.403 544.519 332.011C562.743 322.584 584.019 317.005 607.097 315.601C630.256 314.373 654.871 318.006 679.027 326.217C703.16 334.594 726.37 346.619 747.379 361.631C757.948 369.057 768.057 377.017 777.626 385.448C787.301 393.734 796.009 402.796 803.543 412.42C811.008 422.099 817.361 432.207 822.479 442.553C827.604 452.915 831.713 463.42 834.755 473.938C840.741 495.059 843.716 516.058 843.611 536.442C843.661 546.653 843.117 556.718 841.978 566.639C840.914 576.559 839.182 586.275 836.79 595.742L838.611 596.357Z" fill="#D4ECDC" fill-opacity="0.36"/>
</svg>
