<svg width="880" height="112" viewBox="0 0 880 112" fill="none" xmlns="http://www.w3.org/2000/svg">
<path d="M0 110.545C7.41055 103.672 14.5874 96.5294 21.9979 89.621C29.4085 82.7125 36.9748 75.9513 44.9048 69.6229C52.8231 63.247 61.1774 57.4325 69.9068 52.2219C78.6662 46.9725 87.9804 42.7102 97.679 39.5132C107.436 36.303 117.63 34.621 127.901 34.5267C138.216 34.5183 148.459 36.2449 158.201 39.6344C167.881 43.0851 177.063 47.8008 185.506 53.659C189.722 56.5678 193.782 59.7191 197.704 62.9828L203.556 67.6837C205.548 69.19 207.608 70.6185 209.616 72.0902C226.134 83.4552 244.471 91.9165 263.836 97.1095C283.161 102.382 303.187 104.619 323.199 103.741C333.158 103.304 343.06 101.992 352.789 99.8192C362.476 97.6905 371.877 94.4213 380.795 90.0798C385.212 87.9338 389.455 85.4474 393.486 82.6433C395.408 81.1456 397.451 79.7778 399.226 78.1243C400.092 77.3105 401.087 76.5486 401.944 75.7002L404.49 73.1031C405.355 72.2373 406.221 71.2851 407.087 70.3674L409.684 67.5625C410.55 66.6275 411.415 65.6839 412.281 64.7662L414.956 62.0305C418.48 58.3426 422.185 54.8191 425.873 51.287C433.343 44.2627 441.214 37.678 449.446 31.5659C457.713 25.4083 466.466 19.9306 475.617 15.1865C484.836 10.3888 494.552 6.61483 504.593 3.93215C514.709 1.2657 525.133 -0.0557783 535.594 0.00180353C546.064 0.136403 556.474 1.61145 566.569 4.39098C569.063 5.15281 571.582 5.83675 574.049 6.65918L581.382 9.34289L588.541 12.4335C590.913 13.481 593.19 14.7277 595.51 15.8964C604.646 20.7372 613.4 26.2649 621.698 32.4316C623.767 33.9639 625.759 35.5915 627.758 37.1671L630.788 39.5565L633.715 42.0497C635.662 43.7292 637.645 45.3654 639.558 47.0709L645.211 52.2652L650.752 57.4595L653.496 60.0134C654.362 60.8791 655.332 61.7448 656.284 62.5153L661.946 67.4066C663.859 69.0082 665.824 70.5319 667.763 72.0988C675.581 78.2356 683.843 83.7856 692.48 88.7033C701.07 93.6307 710.185 97.5799 719.654 100.477C729.085 103.325 738.874 104.811 748.725 104.892C753.651 104.911 758.571 104.552 763.443 103.819C764.663 103.62 765.867 103.36 767.079 103.135L768.897 102.78C769.504 102.679 770.105 102.543 770.697 102.373L774.29 101.447C774.887 101.291 775.493 101.152 776.082 100.979L777.813 100.408C787.298 97.3669 796.368 93.1589 804.815 87.8809C813.356 82.5955 821.397 76.5421 828.839 69.796C830.683 68.0646 832.562 66.4111 834.38 64.6623C836.198 62.9136 837.981 61.1388 839.747 59.3381L844.941 53.8754L850.032 48.2569L850.629 48.7504L845.833 54.6546L840.872 60.4289C839.141 62.3249 837.41 64.1515 835.678 66.0215C833.947 67.8914 832.103 69.6315 830.311 71.4495C823.037 78.624 815.13 85.1261 806.685 90.8763C798.138 96.6236 788.904 101.277 779.199 104.728L777.372 105.394C776.757 105.594 776.134 105.767 775.519 105.948L771.788 107.039C771.165 107.23 770.541 107.385 769.901 107.515L768.005 107.94C766.741 108.208 765.477 108.52 764.204 108.805C759.097 109.71 753.928 110.225 748.743 110.346C738.334 110.581 727.949 109.274 717.923 106.468C707.931 103.657 698.287 99.7308 689.172 94.7633C680.131 89.8098 671.483 84.1689 663.305 77.8905C661.279 76.3062 659.227 74.7566 657.245 73.1464L651.349 68.1944C650.354 67.3807 649.393 66.5323 648.449 65.6666L645.601 63.0694L639.948 57.9703L634.399 52.9405C632.52 51.287 630.581 49.72 628.685 48.1098L625.819 45.7031L622.867 43.4176C620.885 41.9112 618.945 40.3443 616.937 38.8812C608.949 33.0113 600.54 27.7363 591.779 23.0992C574.37 13.8187 555.081 8.06164 535.507 7.74133C525.703 7.56178 515.918 8.67072 506.402 11.0397C496.831 13.4498 487.555 16.9076 478.742 21.3504C469.864 25.8318 461.364 31.0259 453.325 36.8814C445.231 42.7346 437.484 49.0535 430.124 55.806C426.47 59.2689 422.808 62.6538 419.302 66.2466L416.653 68.9476C415.787 69.8133 414.922 70.7656 414.056 71.6746L411.459 74.4103C410.593 75.3279 409.727 76.2196 408.81 77.1633L406.005 79.9682C405.061 80.8858 404.022 81.6996 403.035 82.5653C401.087 84.3401 398.897 85.7859 396.811 87.3701C392.508 90.3118 387.984 92.9167 383.28 95.1616C373.934 99.6021 364.094 102.918 353.966 105.039C343.914 107.192 333.69 108.449 323.415 108.797C302.897 109.507 282.394 107.018 262.642 101.421C242.868 95.9163 224.179 87.0742 207.383 75.276C205.331 73.7437 203.245 72.2547 201.228 70.679L195.297 65.7964C191.506 62.5298 187.575 59.442 183.506 56.5332C175.372 50.7418 166.508 46.0495 157.145 42.5778C147.762 39.1759 137.873 37.3761 127.893 37.2537C117.882 37.2229 107.928 38.7385 98.3802 41.7467C88.7923 44.7685 79.5704 48.8481 70.885 53.9101C62.1632 58.9672 53.8059 64.6284 45.8744 70.8522C37.9012 77.0421 30.2915 83.6735 22.7857 90.478C15.2799 97.2826 8.0685 104.33 0.519436 111.125L0 110.545Z" fill="#D4ECDC"/>
<path d="M790.488 28C796.548 30.424 802.764 32.5883 808.98 34.5795C812.088 35.575 815.222 36.4927 818.364 37.3584C821.507 38.2242 824.641 39.0293 827.81 39.7218C834.051 41.1835 840.4 42.1389 846.795 42.5787C849.887 42.7714 852.991 42.6757 856.066 42.293C858.929 41.9407 861.721 41.1493 864.343 39.9469L865.009 47.47L865.434 47.5566H865.39H865.278C865.068 47.6115 864.863 47.6809 864.663 47.7644C864.096 48.0051 863.552 48.2947 863.036 48.6301C862.734 48.8034 862.445 48.9972 862.17 49.2101C861.884 49.4265 861.581 49.617 861.304 49.8421C860.715 50.3442 860.118 50.7944 859.573 51.3225C857.129 53.5633 854.852 55.9793 852.759 58.5512C851.695 59.8931 850.561 61.1484 849.522 62.5855C848.483 64.0226 847.349 65.3125 846.319 66.7409L844.717 68.8533C844.163 69.5458 843.617 70.2557 843.098 70.9743C842.042 72.4114 840.942 73.8225 839.782 75.225L839.081 74.8787C839.969 71.3636 841.103 67.9153 842.475 64.5593C843.124 62.8279 843.92 61.2176 844.708 59.5728C845.496 57.9279 846.44 56.3263 847.305 54.7248C849.2 51.4382 851.469 48.382 854.067 45.6174C854.742 44.8988 855.53 44.2495 856.266 43.5656C856.655 43.2367 857.131 42.9336 857.512 42.6133C857.93 42.2898 858.373 42.0003 858.837 41.7476C859.33 41.4706 859.763 41.1676 860.3 40.8819C860.841 40.6191 861.396 40.385 861.962 40.1807C862.591 39.9532 863.241 39.7851 863.901 39.6786C864.079 39.6406 864.258 39.6117 864.438 39.592L865.061 39.5487C865.292 39.5312 865.523 39.5312 865.754 39.5487C866.118 39.5605 866.481 39.6068 866.836 39.6872L879.77 42.3969L867.503 47.2103C864.028 48.4905 860.358 49.1612 856.655 49.1928C853.183 49.2633 849.711 49.0781 846.267 48.6388C842.91 48.2172 839.578 47.6161 836.285 46.838C833.004 46.1108 829.792 45.1845 826.615 44.1889C820.293 42.2021 814.077 39.8904 807.993 37.2632C801.933 34.666 795.968 31.8265 790.168 28.6839L790.488 28Z" fill="#D4ECDC"/>
</svg>
