<svg width="594" height="439" viewBox="0 0 594 439" fill="none" xmlns="http://www.w3.org/2000/svg">
<path d="M388.852 366.74L390.831 368.709L395.689 373.579L400.559 378.438L405.417 383.307L410.276 388.166L415.145 393.025L420.003 397.894L424.872 402.753L429.731 407.623L439.258 417.15L439.49 417.394L444.36 422.253L449.218 427.112L454.087 431.981L458.946 436.84L461.147 439.042H460.227L457.792 436.607L452.923 431.738L448.064 426.879L443.195 422.009L438.337 417.15L433.468 412.281L428.609 407.411L423.74 402.552L418.881 397.683L414.023 392.824L409.164 387.954L404.306 383.095L399.437 378.236L394.578 373.367L389.709 368.508L388.915 367.714C388.862 367.354 388.852 367.079 388.852 366.74Z" fill="#5DB77D"/>
<path d="M389.137 371.885L390.831 373.579L395.689 378.437L400.548 383.307L405.449 388.166L414.975 397.693L415.208 397.926L420.067 402.785L424.936 407.655L429.795 412.514L434.664 417.383L439.522 422.242L444.391 427.101L449.25 431.971L454.119 436.83L456.035 438.746L455.04 438.661L448.329 431.939L448.096 431.706L443.227 426.847L438.368 421.978L433.499 417.119L428.641 412.249L423.772 407.38L418.913 402.521L414.044 397.651L409.185 392.792L404.327 387.922L399.458 383.064L394.599 378.205L389.73 373.335L389.286 372.89C389.19 372.541 389.158 372.213 389.137 371.885Z" fill="#5DB77D"/>
<path d="M428.429 430.595C427.762 430.245 427.106 429.896 426.46 429.536L423.708 426.794L418.85 421.925L413.98 417.066L409.122 412.196L404.263 407.327L399.394 402.468L398.336 401.409C397.976 400.753 397.616 400.096 397.277 399.44L400.601 402.764L405.449 407.623L414.975 417.15L415.208 417.394L420.067 422.253L424.936 427.112L428.429 430.595Z" fill="#5DB77D"/>
<path d="M437.204 434.511L435.754 433.961L433.468 431.674L428.609 426.815L423.74 421.946L418.881 417.087L414.023 412.217L409.164 407.348L404.306 402.489L399.437 397.619L394.578 392.76L393.932 392.115C393.742 391.638 393.562 391.151 393.382 390.664L395.732 393.014L400.59 397.884L405.449 402.753L410.307 407.623L415.177 412.482L420.035 417.352L424.904 422.21L429.763 427.069L437.204 434.511Z" fill="#5DB77D"/>
<path d="M438.263 431.653L433.393 426.794L428.535 421.925L423.666 417.066L418.807 412.196L413.949 407.327L409.09 402.468L404.232 397.598L399.362 392.739L394.504 387.87L391.445 384.821C391.328 384.408 391.212 383.995 391.106 383.582L395.658 388.134L400.527 392.993L405.385 397.863L410.244 402.722L415.113 407.591L419.972 412.45L424.841 417.32L429.699 422.179L434.568 427.038L439.427 431.907L444.201 436.681L442.973 436.343L438.263 431.653Z" fill="#5DB77D"/>
<path d="M443.163 431.653L438.305 426.794L433.436 421.925L423.909 412.397L423.666 412.154L418.807 407.284L413.949 402.425L404.232 392.697L399.362 387.827L394.504 382.968L390.005 378.469C389.931 378.109 389.878 377.749 389.815 377.411L393.255 380.84L395.689 383.275L400.548 388.134L405.449 393.025L410.307 397.894L415.177 402.753L420.035 407.623L424.904 412.482L429.763 417.351L434.632 422.21L439.49 427.069L444.36 431.939L449.218 436.798L450.393 438.005L449.335 437.814L448.054 436.544L443.163 431.653Z" fill="#5DB77D"/>
<path d="M508.897 307.734C513.022 311.06 516.78 314.819 520.106 318.944L516.116 314.953L511.257 310.095L508.897 307.734Z" fill="#5DB77D"/>
<path d="M389.825 353.116L390.831 354.122L395.689 358.991L400.548 363.903L405.449 368.709L410.307 373.579L415.177 378.437L420.035 383.307L424.904 388.166L429.763 393.025L434.632 397.894L439.49 402.753L444.36 407.623L449.218 412.482L454.087 417.351L458.946 422.21L463.804 427.069L468.663 431.939L473.521 436.798L474.728 438.005L473.955 438.132L467.488 431.653L462.619 426.794L457.76 421.925L448.234 412.397L448.001 412.154L443.132 407.284L438.273 402.425L433.404 397.556L428.546 392.697L423.676 387.827L418.818 382.968L413.949 378.109L409.09 373.24L404.232 368.381L399.363 363.511L394.504 358.652L389.667 353.815C389.73 353.635 389.783 353.38 389.825 353.116Z" fill="#5DB77D"/>
<path d="M389.243 357.403L390.831 358.991L395.689 363.903L400.559 368.762L405.417 373.632L412.71 380.841L415.145 383.275L420.003 388.134L424.873 392.993L429.731 397.863L434.6 402.722L439.459 407.591L444.328 412.45L449.186 417.32L454.056 422.179L458.914 427.038L463.783 431.907L468.642 436.766L470.452 438.576L469.626 438.65L467.509 436.533L462.608 431.653L457.75 426.794L452.881 421.925L448.022 417.066L443.153 412.196L438.294 407.327L433.425 402.468L423.698 392.739L418.839 387.87L413.98 383.011L406.116 375.145L404.263 373.282L399.394 368.423L394.536 363.554L389.667 358.695L389.158 358.187C389.19 357.943 389.211 357.678 389.243 357.403Z" fill="#5DB77D"/>
<path d="M388.904 361.934L390.831 363.903L395.689 368.762L400.548 373.631L405.449 378.437L410.307 383.307L415.177 388.166L420.035 393.025L424.904 397.894L429.763 402.753L434.632 407.623L439.49 412.482L444.36 417.351L449.218 422.21L454.087 427.069L463.815 436.798L465.932 438.915H465.064L462.629 436.48L457.771 431.611L452.902 426.752L448.043 421.882L443.174 417.023L438.315 412.154L433.446 407.284L428.588 402.425L423.719 397.556L418.86 392.697L414.002 387.827L409.143 382.968L404.284 378.109L399.415 373.24L394.557 368.381L389.688 363.511L388.894 362.717L388.904 361.934Z" fill="#5DB77D"/>
<path d="M395.509 334.495L395.689 334.675L400.559 339.534L405.449 344.393L410.307 349.263L415.176 354.122L420.035 358.991L424.904 363.85L429.763 368.709L434.632 373.579L439.49 378.438L444.36 383.307L449.218 388.166L454.087 393.025L458.946 397.895L463.815 402.753L468.673 407.623L473.532 412.482L478.401 417.352L483.26 422.21L488.129 427.069L492.987 431.939L493.39 432.331L492.765 432.616L492.066 431.907L491.834 431.674L486.964 426.815L482.106 421.946L477.237 417.087L472.378 412.217L467.52 407.348L462.65 402.489L457.792 397.619L452.923 392.76L448.064 387.891L443.195 383.032L438.337 378.173L433.467 373.303L428.609 368.444L423.74 363.575L418.881 358.716L414.023 353.857L409.164 348.987L404.306 344.128L399.437 339.259L395.277 335.099C395.33 334.908 395.414 334.696 395.509 334.495Z" fill="#5DB77D"/>
<path d="M393.805 338.497C393.89 338.285 393.964 338.073 394.059 337.851L395.689 339.555L400.548 344.414L405.407 349.284L410.265 354.143L415.134 359.012L420.003 363.903L424.873 368.762L429.731 373.632L437.024 380.841L439.459 383.275L444.328 388.134L449.186 392.993L454.056 397.863L458.914 402.722L463.773 407.591L468.631 412.45L473.49 417.32L478.359 422.179L483.217 427.038L488.086 431.907L489.949 433.77L489.304 434.024L486.954 431.653L482.095 426.794L477.237 421.925L467.52 412.196L462.651 407.327L457.792 402.468L448.064 392.739L443.195 387.87L438.337 383.011L433.468 378.152L428.609 373.282L423.74 368.423L418.881 363.554L414.012 358.695L409.154 353.836L404.295 348.966L399.426 344.107L394.567 339.238L393.805 338.497Z" fill="#5DB77D"/>
<path d="M400.696 325.084L405.449 329.806L410.307 334.675L415.177 339.534L420.035 344.393L424.904 349.263L429.763 354.122L434.632 358.991L439.459 363.903L444.328 368.762L449.186 373.631L454.055 378.49L458.914 383.36L463.773 388.219L468.631 393.078L473.49 397.947L478.359 402.806L483.217 407.676L488.086 412.535L492.945 417.404L497.814 422.263L502.673 427.122L502.757 427.207L502.207 427.556L501.519 426.868L496.65 421.999L491.791 417.14L486.922 412.27L482.064 407.401L477.205 402.542L467.488 392.813L462.619 387.944L457.76 383.085L449.885 375.219L448.033 373.356L443.163 368.497L438.305 363.628L433.436 358.769L428.577 353.91L423.708 349.04L418.85 344.181L413.98 339.312L409.122 334.453L404.263 329.583L400.336 325.666L400.696 325.084Z" fill="#5DB77D"/>
<path d="M398.505 328.662C398.622 328.472 398.727 328.281 398.833 328.091L400.548 329.806L405.407 334.675L410.276 339.555L415.145 344.414L420.003 349.284L424.873 354.143L429.731 359.012L434.6 363.871L439.459 368.73L444.328 373.6L449.186 378.459L454.056 383.328L458.914 388.187L463.783 393.046L468.642 397.916L473.5 402.775L478.369 407.644L483.228 412.503L488.097 417.373L492.956 422.232L497.825 427.091L499.751 429.028L499.19 429.356L496.66 426.837L491.802 421.967L486.933 417.108L482.074 412.239L477.216 407.369L472.357 402.51L467.499 397.64L462.629 392.782L457.771 387.912L452.902 383.053L448.043 378.194L443.174 373.325L438.263 368.455L433.393 363.585L428.535 358.726L423.666 353.868L418.807 348.998L413.949 344.139L409.09 339.269L404.232 334.411L399.363 329.541L398.505 328.662Z" fill="#5DB77D"/>
<path d="M406.507 317.251L406.92 316.764L410.233 320.077L415.102 324.947L419.961 329.806L424.83 334.675L429.731 339.555L434.6 344.414L439.459 349.284L444.328 354.143L449.186 359.012L454.055 363.871L458.914 368.73L463.783 373.6L468.642 378.459L473.5 383.328L478.369 388.187L483.228 393.046L488.097 397.916L492.956 402.775L497.825 407.644L507.552 417.373L511.077 420.898L510.601 421.311L506.367 417.076L501.508 412.207L496.639 407.337L491.781 402.478L486.912 397.609L482.053 392.75L477.194 387.88L472.336 383.021L467.477 378.162L462.608 373.293L457.75 368.434L452.881 363.564L448.022 358.705L443.153 353.846L438.294 348.977L433.425 344.118L428.567 339.248L423.698 334.389L418.839 329.52L413.98 324.661L409.122 319.802L406.507 317.251Z" fill="#5DB77D"/>
<path d="M408.847 314.689L409.281 314.223L410.276 315.218L415.145 320.077L420.003 324.947L424.872 329.806L429.731 334.675L434.6 339.534L439.459 344.393L444.328 349.263L449.186 354.122L454.055 358.991L458.914 363.903L463.783 368.762L468.642 373.631L473.5 378.49L478.369 383.36L483.228 388.219L488.097 393.078L492.956 397.947L497.825 402.806L502.683 407.676L507.552 412.535L512.411 417.404L513.628 418.611L513.162 419.045L511.257 417.14L506.388 412.27L501.529 407.401L496.66 402.542L491.802 397.672L486.933 392.813L482.074 387.944L477.216 383.085L467.848 373.716L467.498 373.356L462.629 368.497L457.771 363.628L452.902 358.769L448.043 353.91L443.174 349.04L438.315 344.181L433.446 339.312L428.588 334.453L423.719 329.583L418.86 324.724L413.991 319.865L409.132 314.996L408.847 314.689Z" fill="#5DB77D"/>
<path d="M404.39 319.918C404.528 319.76 404.655 319.59 404.793 319.421L405.449 320.077L410.307 324.947L415.177 329.806L420.035 334.675L424.904 339.534L429.763 344.393L434.632 349.263L439.49 354.122L444.36 358.991L449.186 363.903L454.055 368.762L458.914 373.631L463.783 378.49L468.642 383.36L473.5 388.219L483.027 397.746L483.26 397.979L488.129 402.838L492.987 407.708L497.856 412.567L502.715 417.436L507.584 422.295L508.452 423.174L507.955 423.565L506.42 422.031L501.561 417.172L496.692 412.302L491.834 407.432L486.964 402.574L482.106 397.704L477.247 392.845L472.389 387.975L467.53 383.117L462.661 378.258L457.803 373.388L452.933 368.529L448.075 363.66L443.206 358.801L438.347 353.942L433.478 349.072L428.62 344.213L423.75 339.344L418.892 334.485L414.023 329.615L409.164 324.756L404.39 319.918Z" fill="#5DB77D"/>
<path d="M411.26 312.233L411.715 311.788L415.145 315.208L420.003 320.067L424.872 324.936L429.731 329.795L434.6 334.665L439.459 339.555L444.328 344.414L449.186 349.284L454.055 354.143L458.914 359.012L463.773 363.903L468.631 368.762L473.49 373.631L480.793 380.925L483.217 383.36L488.086 388.219L492.945 393.078L497.814 397.947L502.673 402.806L507.542 407.676L512.358 412.482L515.999 416.124L515.555 416.579L511.204 412.217L506.335 407.348L501.477 402.489L491.749 392.76L486.88 387.891L482.021 383.032L477.152 378.173L472.294 373.303L467.435 368.444L462.566 363.575L457.707 358.716L452.838 353.857L447.98 348.987L443.111 344.128L438.252 339.259L433.383 334.4L428.524 329.53L423.655 324.671L418.797 319.812L413.938 314.943L411.26 312.233Z" fill="#5DB77D"/>
<path d="M454.055 295.761L458.914 300.631L463.783 305.49L468.642 310.359L473.5 315.229L478.369 320.088L483.228 324.957L488.097 329.816L492.956 334.686L497.825 339.545L502.683 344.404L507.552 349.273L512.358 354.122L517.227 358.991L522.139 363.903L527.008 368.762L531.866 373.632L535.455 377.21L535.328 377.982L530.712 373.367L525.843 368.508L520.985 363.638L516.116 358.779L511.257 353.92L506.388 349.051L501.529 344.192L496.66 339.322L491.802 334.463L486.933 329.594L482.074 324.735L477.205 319.876L472.346 315.006L467.488 310.147L462.619 305.278L457.76 300.419L452.891 295.56L449.906 292.564L450.679 292.437L454.055 295.761Z" fill="#5DB77D"/>
<path d="M458.914 295.761L463.773 300.631L468.631 305.49L473.49 310.359L478.359 315.229L483.217 320.088L488.086 324.957L492.945 329.816L497.814 334.686L502.683 339.555L507.552 344.414L512.411 349.284L517.28 354.143L522.139 359.012L527.008 363.871L531.866 368.73L536.026 372.89L535.931 373.695L535.571 373.335L530.712 368.476L525.843 363.607L520.985 358.748L516.116 353.889L511.257 349.019L506.388 344.16L501.529 339.291L496.66 334.432L491.802 329.562L486.954 324.735L482.095 319.876L477.237 315.006L472.378 310.147L467.52 305.278L462.608 300.387L457.75 295.528L454.14 291.918L454.945 291.823L458.914 295.761Z" fill="#5DB77D"/>
<path d="M463.783 295.761L468.642 300.631L473.5 305.49L478.369 310.349L483.228 315.218L488.097 320.077L492.956 324.947L497.825 329.806L502.683 334.675L507.552 339.534L512.358 344.393L517.227 349.263L522.086 354.122L526.955 358.991L531.866 363.903L536.344 368.381V369.249L535.603 368.508L530.744 363.638L525.875 358.779L521.017 353.92L516.147 349.051L511.289 344.192L506.42 339.322L501.561 334.463L496.692 329.594L491.834 324.735L486.964 319.876L482.106 315.006L477.237 310.147L472.378 305.278L467.52 300.419L462.651 295.56L458.671 291.58H459.539L463.783 295.761Z" fill="#5DB77D"/>
<path d="M468.642 295.761L473.5 300.631L478.369 305.49L483.228 310.359L488.097 315.229L492.956 320.088L497.825 324.957L502.683 329.816L507.552 334.686L512.358 339.555L517.227 344.414L522.086 349.284L526.955 354.143L531.813 359.012L536.344 363.543C536.344 363.839 536.344 364.146 536.344 364.443L535.508 363.607L530.649 358.748L525.78 353.889L520.921 349.019L516.052 344.16L511.194 339.291L506.325 334.432L501.466 329.562L496.597 324.703L491.738 319.844L486.869 314.975L482.011 310.116L477.152 305.246L472.346 300.387L467.488 295.528L463.413 291.453H464.323L468.642 295.761Z" fill="#5DB77D"/>
<path d="M478.369 295.761L483.228 300.631L488.097 305.49L492.956 310.359L497.825 315.229L502.683 320.088L507.552 324.957L512.358 329.806L517.227 334.675L522.139 339.555L527.008 344.414L531.866 349.284L535.37 352.777C535.423 353.137 535.486 353.497 535.539 353.836L530.713 348.998L525.843 344.139L520.985 339.269L516.116 334.411L511.257 329.541L506.388 324.682L501.53 319.823L496.66 314.954L491.802 310.095L486.933 305.225L482.074 300.366L477.216 295.507L474.04 292.331L475.099 292.511L478.369 295.761Z" fill="#5DB77D"/>
<path d="M477.205 436.544L472.346 431.674L467.488 426.815L462.619 421.946L457.76 417.087L452.891 412.217L448.033 407.348L443.163 402.489L438.305 397.619L433.436 392.76L428.577 387.891L423.708 383.032L418.85 378.173L413.991 373.303L409.132 368.444L404.274 363.575L399.405 358.716L394.546 353.857L390.46 349.771L390.63 349.083L390.852 349.294L395.711 354.153L400.58 359.023L405.449 363.903L410.307 368.762L415.177 373.632L420.035 378.49L424.904 383.36L429.763 388.219L439.289 397.746L439.522 397.979L444.391 402.838L449.25 407.708L454.119 412.567L458.977 417.436L463.847 422.295L468.705 427.154L473.564 432.024L478.433 436.883L478.867 437.317L478.126 437.475L477.268 436.629L477.205 436.544Z" fill="#5DB77D"/>
<path d="M477.216 431.653L472.357 426.794L467.499 421.925L462.629 417.066L457.771 412.196L452.902 407.327L448.043 402.468L443.174 397.598L438.316 392.739L433.446 387.87L428.588 383.011L423.719 378.152L418.86 373.282L413.991 368.423L409.132 363.554L404.274 358.695L399.405 353.836L394.546 348.966L391.371 345.79C391.434 345.557 391.487 345.325 391.561 345.081L395.658 349.188L400.516 354.047L405.375 358.917L410.276 363.903L415.145 368.762L420.003 373.631L424.872 378.49L429.731 383.36L434.6 388.219L439.459 393.078L444.328 397.947L449.186 402.806L454.055 407.676L463.783 417.404L468.642 422.263L473.5 427.122L482.72 436.258L482.011 436.449L477.216 431.653Z" fill="#5DB77D"/>
<path d="M482.074 431.653L477.216 426.794L472.357 421.925L467.499 417.066L462.629 412.196L457.771 407.327L452.902 402.468L448.043 397.598L443.174 392.739L438.316 387.87L433.446 383.011L425.582 375.145L423.719 373.282L418.86 368.423L414.002 363.554L409.143 358.695L404.285 353.836L399.415 348.966L394.557 344.107L392.546 342.096C392.62 341.863 392.683 341.641 392.768 341.418L395.711 344.361L400.58 349.231L405.449 354.122L410.307 358.991L415.177 363.85L420.035 368.709L424.904 373.579L429.763 378.438L434.632 383.307L439.49 388.166L444.36 393.025L449.218 397.894L454.087 402.753L458.946 407.623L463.815 412.482L468.673 417.352L473.532 422.21L478.401 427.069L483.26 431.939L486.435 435.115L485.758 435.337L482.074 431.653Z" fill="#5DB77D"/>
<path d="M486.954 295.539L488.351 296.036L492.934 300.631L497.804 305.49L502.662 310.349L507.531 315.218L512.358 320.077L517.227 324.947L522.086 329.806L526.955 334.675L531.739 339.46C531.919 339.926 532.078 340.392 532.247 340.868L530.66 339.269L525.79 334.41L520.932 329.541L516.063 324.682L511.204 319.823L506.335 314.953L501.477 310.095L496.607 305.225L491.749 300.366L486.954 295.539Z" fill="#5DB77D"/>
<path d="M491.802 426.815L486.933 421.946L482.074 417.087L477.216 412.217L472.357 407.348L467.499 402.489L462.629 397.619L457.771 392.76L452.902 387.891L448.043 383.032L443.174 378.173L438.316 373.303L433.446 368.444L428.588 363.575L423.719 358.716L418.86 353.857L413.991 348.987L409.132 344.128L404.274 339.259L399.405 334.4L396.811 331.806C396.917 331.605 397.023 331.415 397.118 331.214L400.559 334.665L405.449 339.555L410.307 344.414L415.177 349.284L420.035 354.143L424.904 359.012L429.731 363.903L434.6 368.762L439.459 373.631L444.328 378.49L449.186 383.36L454.055 388.219L463.783 397.947L468.642 402.806L473.5 407.676L483.027 417.203L483.26 417.447L488.129 422.306L492.987 427.165L496.65 430.827L496.057 431.134L491.802 426.815Z" fill="#5DB77D"/>
<path d="M497.211 300.017L497.825 300.631L502.683 305.49L507.552 310.359L512.358 315.208L517.227 320.067L522.086 324.936L526.955 329.795L527.759 330.61C528.091 331.224 528.408 331.838 528.712 332.452L525.79 329.53L520.932 324.671L516.063 319.812L511.204 314.943L506.335 310.084L501.477 305.214L496.607 300.355L495.316 299.064C495.983 299.382 496.597 299.689 497.211 300.017Z" fill="#5DB77D"/>
<path d="M501.53 421.946L492.003 412.418L491.77 412.175L486.901 407.305L482.042 402.447L477.173 397.577L472.315 392.718L467.456 387.848L462.587 382.99L457.729 378.131L452.859 373.261L448.001 368.402L443.132 363.532L438.273 358.674L433.404 353.815L428.546 348.945L423.676 344.086L418.818 339.217L413.959 334.358L409.101 329.488L404.242 324.629L402.273 322.66L402.644 322.141L405.396 324.894L410.255 329.753L415.124 334.622L420.003 339.555L424.872 344.414L429.731 349.284L434.6 354.143L439.459 359.012L444.328 363.871L449.186 368.73L454.056 373.6L463.773 383.328L468.631 388.187L473.49 393.046L478.359 397.916L483.217 402.775L488.086 407.644L492.945 412.503L497.814 417.373L502.673 422.232L505.647 425.196L505.118 425.577L501.53 421.946Z" fill="#5DB77D"/>
<path d="M518.37 413.572L517.947 414.049L516.116 412.217L511.257 407.348L506.388 402.489L501.529 397.619L496.66 392.76L491.802 387.891L486.933 383.032L482.074 378.173L477.216 373.303L472.357 368.444L467.498 363.575L462.629 358.716L457.771 353.857L452.902 348.987L448.043 344.128L443.174 339.259L438.315 334.4L433.446 329.53L428.588 324.671L423.719 319.812L418.86 314.943L413.991 310.084L413.8 309.883L414.277 309.459L415.155 310.349L420.014 315.218L424.883 320.077L429.742 324.947L434.611 329.806L439.469 334.675L444.338 339.534L449.197 344.393L454.066 349.263L458.925 354.122L463.794 358.991L468.642 363.903L473.5 368.762L478.369 373.631L483.228 378.49L488.097 383.36L492.956 388.219L497.825 393.078L502.683 397.947L507.552 402.806L512.358 407.623L517.227 412.482L518.37 413.572Z" fill="#5DB77D"/>
<path d="M522.657 408.142L522.276 408.66L520.985 407.358L516.116 402.499L511.257 397.63L506.388 392.771L501.529 387.901L496.66 383.042L491.802 378.183L486.933 373.314L482.074 368.455L477.216 363.585L472.357 358.726L467.498 353.867L462.629 348.998L457.771 344.139L452.902 339.269L448.043 334.41L443.174 329.541L438.263 324.735L433.393 319.876L428.535 315.006L423.666 310.147L419.135 305.617L419.654 305.236L419.961 305.543L424.83 310.412L429.689 315.282L434.558 320.141L439.416 325.01L444.285 329.869L449.144 334.739L454.013 339.598L458.872 344.457L463.741 349.326L468.599 354.185L473.458 359.055L478.327 363.914L483.186 368.773L488.055 373.642L492.913 378.501L497.782 383.371L502.641 388.23L507.51 393.088L512.369 397.958L517.238 402.817L522.096 407.687L522.657 408.142Z" fill="#5DB77D"/>
<path d="M520.985 402.499L511.257 392.771L506.388 387.901L501.529 383.042L493.654 375.177L491.802 373.314L486.933 368.455L482.074 363.585L477.216 358.726L472.357 353.867L467.498 348.998L462.629 344.139L457.771 339.269L452.902 334.41L448.043 329.541L443.174 324.682L438.315 319.823L433.446 314.953L428.588 310.095L423.719 305.225L422.067 303.574L422.607 303.214L424.883 305.49L429.742 310.359L434.611 315.229L439.469 320.088L444.338 324.957L449.197 329.816L454.066 334.686L458.914 339.555L463.773 344.414L468.631 349.284L473.49 354.143L478.359 359.012L483.228 363.903L488.097 368.762L492.956 373.631L497.825 378.49L502.683 383.36L507.552 388.219L512.358 393.025L517.227 397.894L522.086 402.753L524.573 405.241L524.224 405.792L520.985 402.499Z" fill="#5DB77D"/>
<path d="M520.17 411.413L516.116 407.358L511.257 402.499L506.388 397.63L501.529 392.771L496.66 387.901L491.802 383.042L486.933 378.183L482.074 373.314L477.216 368.455L472.357 363.585L467.499 358.726L462.629 353.867L457.771 348.998L452.902 344.139L448.043 339.269L443.174 334.41L438.316 329.541L433.446 324.682L428.588 319.823L423.719 314.953L418.86 310.095L416.436 307.67L416.934 307.268L420.014 310.359L424.883 315.229L429.742 320.088L434.611 324.957L439.469 329.816L444.338 334.686L449.186 339.555L454.055 344.414L458.914 349.284L463.773 354.143L468.631 359.012L473.5 363.903L478.369 368.762L483.228 373.631L488.097 378.49L492.956 383.36L497.825 388.219L507.552 397.947L512.358 402.753L517.227 407.623L520.519 410.915L520.17 411.413Z" fill="#5DB77D"/>
<path d="M527.008 397.894L528.236 399.091L527.918 399.673L525.875 397.63L521.017 392.771L516.147 387.901L511.289 383.042L506.42 378.183L501.561 373.314L496.692 368.455L491.834 363.585L486.964 358.726L482.106 353.867L477.247 348.998L472.389 344.139L467.53 339.269L462.661 334.41L457.803 329.541L452.933 324.682L448.075 319.823L443.206 314.953L438.347 310.094L433.478 305.225L428.62 300.366L428.207 299.953L428.789 299.636L429.773 300.631L434.642 305.49L439.501 310.359L444.37 315.229L449.229 320.088L454.098 324.957L458.956 329.816L463.815 334.686L468.642 339.555L473.5 344.414L478.369 349.284L483.228 354.143L488.097 359.012L492.956 363.903L497.825 368.762L502.683 373.631L507.552 378.49L512.411 383.36L517.28 388.219L526.807 397.746L527.05 397.979L527.008 397.894Z" fill="#5DB77D"/>
<path d="M525.843 392.771L520.985 387.901L516.116 383.042L511.257 378.183L506.388 373.314L501.529 368.455L496.66 363.585L491.802 358.726L486.933 353.867L482.074 348.998L477.216 344.139L472.357 339.269L467.498 334.41L462.629 329.541L457.771 324.682L452.902 319.823L448.043 314.953L443.174 310.095L438.315 305.225L433.446 300.366L431.414 298.333L432.028 298.048L434.611 300.631L439.469 305.49L444.338 310.359L449.197 315.229L454.066 320.088L458.925 324.957L463.783 329.816L468.642 334.686L473.5 339.555L478.369 344.414L483.228 349.284L488.097 354.143L492.956 359.012L497.825 363.871L502.683 368.73L507.552 373.6L512.358 378.437L517.227 383.307L522.086 388.166L526.955 393.025L529.739 395.82L529.453 396.434L525.843 392.771Z" fill="#5DB77D"/>
<path d="M526.119 402.796L525.822 402.499L520.964 397.63L516.095 392.771L511.236 387.901L506.367 383.042L501.508 378.183L496.639 373.314L491.781 368.455L486.912 363.585L482.053 358.726L477.194 353.867L472.336 348.998L467.477 344.139L462.608 339.269L457.75 334.41L452.881 329.541L448.022 324.682L443.153 319.823L438.294 314.953L433.425 310.095L428.567 305.225L425.031 301.7L425.603 301.361L429.72 305.49L434.59 310.349L439.448 315.218L444.317 320.077L449.176 324.947L454.045 329.806L458.903 334.675L463.773 339.534L468.631 344.393L473.49 349.263L478.359 354.122L483.217 358.991L488.086 363.85L492.945 368.709L497.814 373.579L507.542 383.307L512.358 388.166L517.227 393.025L522.086 397.894L526.426 402.235C526.362 402.415 526.256 402.605 526.119 402.796Z" fill="#5DB77D"/>
<path d="M530.712 344.139L525.843 339.269L520.985 334.41L516.116 329.541L511.299 324.735L506.43 319.876L501.572 315.006L496.703 310.147L491.844 305.278L486.954 300.387L482.095 295.528L480.095 293.517L481.28 293.813L483.249 295.782L488.118 300.652L492.977 305.511L497.846 310.38L502.704 315.25L507.574 320.109L512.358 324.947L517.227 329.806L522.086 334.675L526.955 339.534L531.813 344.393L533.93 346.574C534.036 346.965 534.131 347.368 534.227 347.759L530.712 344.139Z" fill="#5DB77D"/>
<path d="M530.713 378.183L525.843 373.314L520.985 368.455L516.116 363.585L511.257 358.726L506.388 353.867L501.529 348.998L496.66 344.139L491.802 339.269L486.933 334.411L482.074 329.541L477.216 324.735L472.357 319.876L467.499 315.006L462.629 310.147L457.771 305.278L452.902 300.419L448.043 295.56L445.926 293.39L446.657 293.221L449.25 295.814L454.119 300.684L458.978 305.543L463.836 310.412L468.642 315.208L473.5 320.067L478.369 324.936L483.228 329.795L488.097 334.665L492.956 339.555L497.825 344.414L502.683 349.284L507.552 354.143L512.411 359.012L517.28 363.871L522.139 368.73L527.008 373.6L531.866 378.459L534.671 381.264C534.671 381.507 534.565 381.751 534.502 381.994L530.713 378.183Z" fill="#5DB77D"/>
<path d="M532.321 389.521L530.713 387.901L525.843 383.042L520.985 378.183L516.116 373.314L511.3 368.455L506.43 363.585L501.572 358.726L496.703 353.867L491.844 348.998L486.975 344.139L482.116 339.269L477.258 334.41L472.399 329.541L467.541 324.682L462.672 319.823L457.813 314.953L452.944 310.095L448.086 305.225L443.216 300.366L438.263 295.518L438.929 295.285L439.406 295.761L444.275 300.631L449.133 305.49L454.003 310.359L458.861 315.229L463.72 320.088L468.578 324.957L473.437 329.816L478.306 334.686L483.228 339.555L488.097 344.414L492.956 349.284L497.825 354.143L502.683 359.012L507.552 363.871L512.358 368.709L517.227 373.579L524.573 380.841L527.008 383.275L531.866 388.134L532.554 388.822L532.321 389.521Z" fill="#5DB77D"/>
<path d="M530.712 383.042L525.843 378.183L520.985 373.314L516.116 368.455L511.257 363.585L506.388 358.726L501.529 353.867L496.66 348.998L491.802 344.139L486.933 339.269L482.074 334.411L477.205 329.541L472.346 324.735L467.488 319.876L462.619 315.006L457.76 310.147L452.891 305.278L448.033 300.419L443.163 295.56L442.01 294.396L442.698 294.194L444.328 295.814L449.186 300.684L454.055 305.543L458.914 310.402L463.783 315.271L468.642 320.13L473.5 325L478.369 329.859L483.228 334.728L488.097 339.587L492.956 344.446L497.825 349.316L502.683 354.174L507.552 359.044L512.358 363.903L517.227 368.762L522.086 373.631L526.955 378.49L531.813 383.36L533.645 385.191C533.581 385.424 533.507 385.647 533.443 385.879L530.712 383.042Z" fill="#5DB77D"/>
<path d="M530.988 393.046L530.713 392.771L525.843 387.901L520.985 383.042L511.606 373.674L511.257 373.314L506.388 368.455L501.529 363.585L496.66 358.726L491.802 353.867L486.933 348.998L482.074 344.139L477.205 339.269L472.346 334.411L467.488 329.541L462.608 324.735L457.75 319.876L452.881 315.006L448.022 310.147L443.153 305.278L438.263 300.387L434.748 296.873L435.383 296.619L439.416 300.652L444.285 305.511L449.144 310.38L454.013 315.25L458.872 320.109L463.741 324.978L468.599 329.837L473.458 334.707L478.327 339.566L483.186 344.425L488.055 349.294L492.913 354.153L497.782 359.023L502.683 363.903L507.552 368.762L512.411 373.631L517.28 378.49L522.139 383.36L527.008 388.219L531.242 392.453L530.988 393.046Z" fill="#5DB77D"/>
<path d="M535.571 358.726L530.713 353.867L525.843 348.998L520.985 344.139L516.116 339.269L511.257 334.41L506.388 329.541L501.53 324.682L496.66 319.823L491.802 314.953L486.933 310.095L482.074 305.225L477.205 300.366L472.346 295.507L468.494 291.654L469.478 291.738L473.5 295.761L478.369 300.631L483.228 305.49L488.097 310.359L492.956 315.229L497.825 320.088L502.683 324.957L507.552 329.816L512.411 334.686L517.28 339.545L522.139 344.404L527.008 349.273L531.866 354.132L536.1 358.366C536.1 358.695 536.1 359.023 536.185 359.351L535.571 358.726Z" fill="#5DB77D"/>
<path d="M277.941 223.131H393.795V414.991H277.941V223.131Z" fill="white" stroke="#13141B" stroke-linecap="round" stroke-linejoin="round"/>
<path d="M177.309 256.562H264.456V415.658H177.309V256.562Z" fill="#5DB77D"/>
<path d="M76.6559 316.266H163.803V415.181H76.6559V316.266Z" fill="white" stroke="#13141B" stroke-linecap="round" stroke-linejoin="round"/>
<path d="M531.675 336.03H593.344V415.298H531.675V336.03Z" fill="white" stroke="#13141B" stroke-linecap="round" stroke-linejoin="round"/>
<path d="M483.301 137.607L484.593 138.888L487.768 142.064L490.944 145.239L494.119 148.415L497.295 151.591L500.47 154.767L503.646 157.943L506.821 161.118L509.997 164.294L516.168 170.455L516.316 170.614L519.492 173.79L522.667 176.966L525.843 180.141L529.018 183.317L530.447 184.746H529.844L528.267 183.158L525.091 179.983L521.916 176.807L518.74 173.631L515.565 170.455L512.389 167.279L509.214 164.104L506.038 160.928L502.863 157.752L499.687 154.576L496.512 151.4L493.336 148.225L490.161 145.049L486.985 141.873L483.809 138.697L483.301 138.189C483.312 138.009 483.301 137.808 483.301 137.607Z" fill="#5DB77D"/>
<path d="M483.492 140.952L484.551 142.011L487.726 145.187L490.902 148.362L494.077 151.538L500.248 157.699L500.397 157.858L503.572 161.034L506.748 164.21L509.923 167.385L513.099 170.561L516.274 173.737L519.45 176.913L522.625 180.088L525.801 183.264L527.05 184.513L526.404 184.45L522.043 180.088L521.884 179.94L518.709 176.764L515.533 173.589L512.358 170.413L509.182 167.237L506.007 164.061L502.831 160.886L499.656 157.71L496.48 154.534L493.305 151.358L490.129 148.182L486.954 145.007L483.778 141.831L483.492 141.545C483.524 141.386 483.503 141.164 483.492 140.952Z" fill="#5DB77D"/>
<path d="M509.023 179.125C508.589 178.903 508.166 178.67 507.743 178.437L505.964 176.648L502.789 173.472L499.613 170.296L496.438 167.121L493.262 163.945L490.087 160.769L489.367 160.06L488.668 158.779L490.838 160.896L494.014 164.072L500.185 170.233L500.333 170.392L503.509 173.567L506.684 176.743L509.023 179.125Z" fill="#5DB77D"/>
<path d="M514.708 181.655L513.766 181.295L512.284 179.813L509.109 176.637L505.933 173.461L502.757 170.286L499.582 167.11L496.406 163.934L493.231 160.758L490.055 157.583L486.88 154.407L486.467 153.994C486.34 153.676 486.224 153.369 486.107 153.052L487.631 154.576L490.807 157.752L493.982 160.928L497.158 164.103L500.333 167.279L503.509 170.455L506.685 173.631L509.86 176.807L514.708 181.655Z" fill="#5DB77D"/>
<path d="M515.438 179.813L512.263 176.638L509.087 173.462L505.911 170.286L502.736 167.11L499.56 163.934L496.385 160.759L493.209 157.583L490.034 154.407L486.858 151.231L484.868 149.241C484.794 148.976 484.72 148.712 484.657 148.437L487.61 151.401L490.785 154.576L493.961 157.752L497.136 160.928L500.312 164.104L503.488 167.28L506.663 170.455L509.839 173.631L513.014 176.807L516.19 179.983L519.291 183.084L518.497 182.862L515.438 179.813Z" fill="#5DB77D"/>
<path d="M518.603 179.813L515.427 176.637L512.252 173.461L506.08 167.29L505.932 167.131L502.757 163.955L499.581 160.779L493.23 154.428L490.055 151.252L486.879 148.076L483.958 145.155L483.831 144.445L486.054 146.668L487.631 148.246L490.806 151.421L493.982 154.597L497.157 157.773L500.333 160.949L503.508 164.125L506.684 167.3L509.859 170.476L513.035 173.652L516.21 176.828L519.386 180.004L522.561 183.179L523.345 183.963L522.636 183.846L521.799 183.01L518.603 179.813Z" fill="#5DB77D"/>
<path d="M561.314 99.2539C563.994 101.415 566.435 103.857 568.597 106.537L566.014 103.943L562.838 100.768L561.314 99.2539Z" fill="#5DB77D"/>
<path d="M483.937 128.757L484.594 129.414L487.769 132.589L490.945 135.765L494.12 138.941L497.296 142.117L500.471 145.293L503.647 148.468L506.822 151.644L509.998 154.82L513.173 157.996L516.349 161.172L519.524 164.347L522.7 167.523L525.875 170.699L529.051 173.875L532.226 177.051L535.402 180.226L538.577 183.402L539.382 184.196L538.874 184.281L534.64 180.046L531.464 176.871L528.289 173.695L521.885 167.322L521.726 167.163L518.55 163.987L515.375 160.812L512.199 157.636L509.024 154.46L505.848 151.284L502.673 148.108L499.497 144.933L496.322 141.757L493.146 138.581L489.971 135.405L486.795 132.23L483.62 129.054C483.874 129.096 483.906 128.895 483.937 128.757Z" fill="#5DB77D"/>
<path d="M483.555 131.541L484.614 132.6L487.789 135.775L490.965 138.951L494.14 142.127L498.883 146.869L500.46 148.447L503.635 151.623L506.811 154.798L509.986 157.974L513.162 161.15L516.337 164.326L519.513 167.502L522.688 170.677L525.864 173.853L529.039 177.029L532.215 180.205L535.39 183.38L536.565 184.556L536.036 184.608L534.639 183.211L531.463 180.035L528.288 176.86L525.112 173.684L521.937 170.508L518.761 167.332L515.586 164.156L512.41 160.981L506.059 154.629L502.884 151.453L499.708 148.277L494.596 143.164L493.389 141.958L490.213 138.782L487.038 135.606L483.862 132.43L483.534 132.102C483.524 131.901 483.534 131.721 483.555 131.541Z" fill="#5DB77D"/>
<path d="M483.344 134.484L484.593 135.733L487.769 138.909L490.944 142.085L494.12 145.26L497.295 148.436L500.471 151.612L503.646 154.788L506.822 157.964L509.997 161.139L513.173 164.315L516.348 167.491L519.524 170.667L522.699 173.843L525.875 177.018L532.226 183.37L533.623 184.767H533.062L531.474 183.179L528.299 180.004L525.123 176.828L521.948 173.652L518.772 170.476L515.597 167.3L512.421 164.125L509.246 160.949L506.07 157.773L502.895 154.597L499.719 151.421L496.544 148.246L493.368 145.07L490.193 141.894L487.017 138.718L483.841 135.542L483.333 135.024C483.323 134.854 483.333 134.674 483.344 134.484Z" fill="#5DB77D"/>
<path d="M487.631 116.657L487.747 116.774L490.923 119.949L494.098 123.125L497.274 126.301L500.449 129.477L503.625 132.653L506.8 135.828L509.976 139.004L513.151 142.18L516.327 145.356L519.502 148.532L522.678 151.707L525.854 154.883L529.029 158.059L532.205 161.235L535.38 164.411L538.556 167.586L541.731 170.762L544.907 173.938L548.082 177.114L551.258 180.289L551.512 180.544L551.109 180.723L550.654 180.268L550.506 180.12L547.331 176.944L544.155 173.769L540.98 170.593L537.804 167.417L534.629 164.241L531.453 161.065L528.278 157.89L525.102 154.714L521.926 151.538L518.751 148.362L515.575 145.186L512.4 142.011L509.224 138.835L506.049 135.659L502.873 132.483L499.698 129.307L496.522 126.132L493.347 122.956L490.171 119.78L487.462 117.081C487.514 116.922 487.567 116.784 487.631 116.657Z" fill="#5DB77D"/>
<path d="M486.52 119.282C486.52 119.145 486.626 119.007 486.69 118.87L487.748 119.928L490.924 123.104L494.099 126.28L497.275 129.456L500.45 132.631L503.626 135.807L506.801 138.983L509.977 142.159L514.719 146.901L516.296 148.479L519.471 151.654L522.647 154.83L525.822 158.006L528.998 161.182L532.174 164.358L535.349 167.533L538.525 170.709L541.7 173.885L544.876 177.061L548.051 180.236L549.258 181.433L548.834 181.602L547.3 180.067L544.124 176.891L540.949 173.716L534.598 167.364L531.422 164.188L528.246 161.012L521.895 154.661L518.72 151.485L515.544 148.309L512.369 145.133L509.193 141.958L506.018 138.782L502.842 135.606L499.667 132.43L496.491 129.254L493.316 126.079L490.14 122.903L486.965 119.727L486.52 119.282Z" fill="#5DB77D"/>
<path d="M490.997 110.539L494.067 113.608L497.242 116.784L500.418 119.96L503.593 123.136L506.769 126.312L509.944 129.487L513.12 132.663L516.295 135.839L519.471 139.015L522.646 142.191L525.822 145.366L528.997 148.542L532.173 151.718L535.349 154.894L538.524 158.07L541.7 161.245L544.875 164.421L548.051 167.597L551.226 170.773L554.402 173.949L557.577 177.124L557.217 177.357L556.773 176.902L553.597 173.726L550.422 170.55L547.246 167.375L544.071 164.199L540.895 161.023L534.544 154.671L531.369 151.496L528.193 148.32L523.07 143.207L521.863 142L518.688 138.824L515.512 135.648L512.337 132.473L509.161 129.297L505.986 126.121L502.81 122.945L499.635 119.77L496.459 116.594L493.283 113.418L490.743 110.867L490.997 110.539Z" fill="#5DB77D"/>
<path d="M489.579 112.868L489.791 112.497L490.913 113.609L494.088 116.784L497.264 119.96L500.439 123.136L503.615 126.312L506.79 129.488L509.966 132.663L513.141 135.839L516.317 139.015L519.492 142.191L522.668 145.366L525.843 148.542L529.019 151.718L532.194 154.894L535.37 158.07L538.545 161.245L541.721 164.421L544.896 167.597L548.072 170.773L551.247 173.949L554.423 177.124L555.683 178.384L555.312 178.596L553.671 176.955L550.496 173.779L547.32 170.603L544.145 167.428L540.969 164.252L537.794 161.076L534.618 157.9L531.443 154.724L528.267 151.549L525.092 148.373L521.916 145.197L518.741 142.021L515.565 138.846L512.39 135.67L509.214 132.494L506.039 129.318L502.863 126.142L499.688 122.967L496.512 119.791L493.337 116.615L490.161 113.439L489.579 112.868Z" fill="#5DB77D"/>
<path d="M494.808 105.447L495.073 105.129L497.19 107.247L500.365 110.422L503.541 113.598L506.716 116.774L509.892 119.95L513.067 123.126L516.243 126.301L519.418 129.477L522.594 132.653L525.769 135.829L528.945 139.004L532.12 142.18L535.296 145.356L538.471 148.532L541.647 151.708L544.822 154.883L547.998 158.059L551.173 161.235L554.349 164.411L560.7 170.762L562.986 173.06L562.679 173.324L559.938 170.593L556.762 167.417L553.587 164.241L550.411 161.066L547.236 157.89L544.06 154.714L540.885 151.538L537.709 148.362L534.534 145.187L531.358 142.011L528.183 138.835L525.007 135.659L521.832 132.484L518.656 129.308L515.481 126.132L512.305 122.956L509.13 119.78L505.954 116.605L502.778 113.429L499.603 110.253L496.427 107.077L494.808 105.447Z" fill="#5DB77D"/>
<path d="M496.301 103.785L496.586 103.478L497.232 104.124L500.408 107.3L503.583 110.475L506.759 113.651L509.934 116.827L513.11 120.003L516.285 123.179L519.461 126.354L522.636 129.53L525.812 132.706L528.987 135.882L532.163 139.057L535.338 142.233L538.514 145.409L541.689 148.585L544.865 151.761L548.04 154.936L551.216 158.112L554.391 161.288L557.567 164.464L560.742 167.64L563.918 170.815L564.701 171.599L564.405 171.885L563.166 170.646L559.991 167.47L556.815 164.294L553.64 161.119L550.464 157.943L547.289 154.767L544.113 151.591L540.938 148.415L534.851 142.329L534.618 142.096L531.443 138.92L528.267 135.744L525.092 132.568L521.916 129.392L518.741 126.217L515.565 123.041L512.39 119.865L509.214 116.689L506.039 113.514L502.863 110.338L499.688 107.162L496.512 103.986L496.301 103.785Z" fill="#5DB77D"/>
<path d="M493.39 107.183L493.644 106.854L494.067 107.289L497.243 110.464L500.418 113.64L503.594 116.816L506.769 119.992L509.945 123.167L513.12 126.343L516.296 129.519L519.471 132.695L522.647 135.871L525.822 139.046L528.998 142.222L532.173 145.398L535.349 148.574L538.524 151.75L544.696 157.911L544.854 158.069L548.03 161.245L551.205 164.421L554.381 167.597L557.556 170.773L560.732 173.948L561.293 174.52L560.965 174.774L559.97 173.79L556.794 170.614L553.619 167.438L550.443 164.262L547.268 161.086L544.092 157.911L540.917 154.735L537.741 151.559L534.566 148.383L531.39 145.207L528.215 142.032L525.039 138.856L521.864 135.68L518.688 132.504L515.513 129.329L512.337 126.153L509.162 122.977L505.986 119.801L502.81 116.625L499.635 113.45L496.459 110.274L493.39 107.183Z" fill="#5DB77D"/>
<path d="M497.867 102.186L498.163 101.9L500.386 104.123L503.562 107.299L506.737 110.475L509.913 113.651L513.088 116.827L516.264 120.002L519.439 123.178L522.615 126.354L525.79 129.53L528.966 132.706L532.141 135.881L535.317 139.057L538.492 142.233L543.054 146.795L544.642 148.373L547.818 151.549L550.993 154.724L554.169 157.9L557.344 161.076L560.52 164.252L563.695 167.428L566.066 169.799C565.971 169.894 565.865 169.989 565.77 170.095L562.944 167.258L559.768 164.082L556.593 160.907L550.242 154.555L547.066 151.379L543.891 148.203L540.715 145.028L537.54 141.852L534.364 138.676L531.189 135.5L528.013 132.324L524.838 129.149L521.662 125.973L518.487 122.797L515.311 119.621L512.136 116.446L508.96 113.27L505.784 110.094L502.609 106.918L499.433 103.742L497.867 102.186Z" fill="#5DB77D"/>
<path d="M525.674 91.4838L528.849 94.6596L532.025 97.8354L535.2 101.011L538.376 104.187L541.551 107.363L544.727 110.539L547.902 113.714L551.078 116.89L554.253 120.066L557.429 123.242L560.604 126.417L563.78 129.593L566.955 132.769L570.131 135.945L573.306 139.121L576.482 142.296L578.821 144.625C578.821 144.795 578.758 144.964 578.737 145.123L575.73 142.127L572.555 138.951L569.379 135.775L566.204 132.6L563.028 129.424L559.853 126.248L556.677 123.072L553.502 119.897L550.326 116.721L547.151 113.545L543.975 110.369L540.8 107.193L537.624 104.018L534.449 100.842L531.273 97.666L528.098 94.4902L524.922 91.3144L522.985 89.3772L523.483 89.2925L525.674 91.4838Z" fill="#5DB77D"/>
<path d="M528.839 91.4838L532.014 94.6596L535.19 97.8354L538.365 101.011L541.541 104.187L544.716 107.363L547.892 110.539L551.067 113.714L554.243 116.89L557.418 120.066L560.594 123.242L563.769 126.417L566.945 129.593L570.12 132.769L573.296 135.945L576.471 139.121L578.948 141.598L578.885 142.116L578.652 141.884L575.476 138.708L572.301 135.532L569.125 132.356L565.95 129.18L562.774 126.005L559.599 122.829L556.423 119.653L553.248 116.477L550.072 113.301L546.897 110.126L543.721 106.95L540.546 103.774L537.37 100.598L534.195 97.4225L531.019 94.2467L527.844 91.071L525.504 88.7314H526.023L528.839 91.4838Z" fill="#5DB77D"/>
<path d="M531.993 91.484L535.169 94.6598L538.344 97.8356L541.52 101.011L544.695 104.187L547.871 107.363L551.046 110.539L554.222 113.715L557.397 116.89L560.573 120.066L563.749 123.242L566.924 126.418L570.1 129.593L573.275 132.769L576.451 135.945L579.372 138.856V139.417L578.896 138.93L575.72 135.754L572.545 132.579L569.369 129.403L566.194 126.227L563.018 123.051L559.843 119.876L556.667 116.7L553.492 113.524L550.316 110.348L547.141 107.172L543.965 103.997L540.79 100.821L537.614 97.645L534.438 94.4692L531.263 91.2934L528.68 88.7104H529.241L531.993 91.484Z" fill="#5DB77D"/>
<path d="M535.158 91.4837L538.333 94.6595L541.509 97.8353L544.684 101.011L547.86 104.187L551.035 107.363L554.211 110.538L557.386 113.714L560.562 116.89L563.737 120.066L566.913 123.242L570.088 126.417L573.264 129.593L576.439 132.769L579.393 135.712V136.305L578.853 135.765L575.677 132.589L572.502 129.413L569.326 126.237L566.151 123.062L562.975 119.886L559.8 116.71L556.624 113.534L553.449 110.358L550.273 107.183L547.098 104.007L543.922 100.831L540.747 97.6553L537.571 94.4795L534.395 91.3037L531.749 88.6572H532.331L535.158 91.4837Z" fill="#5DB77D"/>
<path d="M541.477 91.4839L544.652 94.6596L547.828 97.8354L551.003 101.011L554.179 104.187L557.354 107.363L560.53 110.539L563.706 113.714L566.881 116.89L570.057 120.066L573.232 123.242L576.408 126.418L578.683 128.694C578.683 128.926 578.768 129.159 578.8 129.392L575.624 126.216L572.449 123.041L569.273 119.865L566.098 116.689L562.922 113.513L559.747 110.337L556.571 107.162L553.396 103.986L550.22 100.81L547.045 97.6343L543.869 94.4585L540.694 91.2827L538.577 89.1655L539.275 89.282L541.477 91.4839Z" fill="#5DB77D"/>
<path d="M540.726 182.968L537.551 179.792L534.375 176.616L531.2 173.441L528.024 170.265L524.849 167.089L521.673 163.913L518.498 160.738L515.322 157.562L512.147 154.386L508.971 151.21L505.795 148.034L502.62 144.859L499.444 141.683L496.269 138.507L493.093 135.331L489.918 132.155L486.742 128.98L484.086 126.323C484.086 126.164 484.16 126.005 484.191 125.846L484.34 125.984L487.515 129.16L490.691 132.335L493.866 135.511L497.042 138.687L500.217 141.863L503.393 145.039L506.568 148.214L509.744 151.39L515.915 157.551L516.063 157.71L519.239 160.886L522.414 164.062L525.59 167.237L528.765 170.413L531.941 173.589L535.116 176.765L538.292 179.94L541.467 183.116L541.753 183.402L541.266 183.508L540.716 182.947L540.726 182.968Z" fill="#5DB77D"/>
<path d="M540.725 179.813L537.55 176.637L534.374 173.461L531.199 170.286L528.023 167.11L524.848 163.934L521.672 160.758L518.497 157.583L515.321 154.407L512.146 151.231L508.97 148.055L505.795 144.879L502.619 141.704L499.444 138.528L496.268 135.352L493.093 132.176L489.917 129L486.742 125.825L484.709 123.792C484.709 123.633 484.783 123.485 484.826 123.337L487.493 125.994L490.669 129.17L493.844 132.346L497.02 135.521L500.195 138.697L503.371 141.873L506.546 145.049L509.722 148.225L512.897 151.4L516.073 154.576L519.248 157.752L522.424 160.928L525.599 164.103L531.95 170.455L535.126 173.631L538.302 176.807L544.271 182.777L543.816 182.904L540.725 179.813Z" fill="#5DB77D"/>
<path d="M543.891 179.813L540.715 176.637L537.54 173.462L534.364 170.286L531.189 167.11L528.013 163.934L524.838 160.758L521.662 157.583L518.487 154.407L515.311 151.231L512.136 148.055L507.023 142.942L505.816 141.736L502.641 138.56L499.465 135.384L496.29 132.208L493.114 129.032L489.939 125.857L486.763 122.681L485.461 121.368C485.461 121.22 485.546 121.072 485.599 120.934L487.515 122.85L490.69 126.026L493.866 129.202L497.041 132.378L500.217 135.553L503.392 138.729L506.568 141.905L509.743 145.081L512.919 148.256L516.094 151.432L519.27 154.608L522.445 157.784L525.621 160.96L528.796 164.135L531.972 167.311L535.147 170.487L538.323 173.663L541.499 176.839L544.674 180.014L546.728 182.068L546.294 182.216L543.891 179.813Z" fill="#5DB77D"/>
<path d="M547.066 91.3359L547.976 91.6641L550.961 94.6493L554.137 97.8251L557.312 101.001L560.488 104.177L563.663 107.352L566.839 110.528L570.014 113.704L573.19 116.88L576.302 119.992C576.418 120.289 576.524 120.596 576.63 120.903L575.571 119.844L572.396 116.668L569.22 113.492L566.045 110.317L562.869 107.141L559.694 103.965L556.518 100.789L553.343 97.6134L550.167 94.4376L547.066 91.3359Z" fill="#5DB77D"/>
<path d="M550.21 176.648L547.035 173.472L543.859 170.296L540.684 167.12L537.508 163.945L534.333 160.769L531.157 157.593L527.982 154.417L524.806 151.241L521.631 148.066L518.455 144.89L515.28 141.714L512.104 138.538L508.929 135.363L505.753 132.187L502.577 129.011L499.402 125.835L496.226 122.659L493.051 119.484L489.875 116.308L488.192 114.625L488.383 114.233L490.627 116.477L493.802 119.653L496.978 122.829L500.154 126.005L503.329 129.18L506.505 132.356L509.68 135.532L512.856 138.708L516.031 141.883L519.207 145.059L522.382 148.235L525.558 151.411L531.909 157.762L535.084 160.938L538.26 164.114L544.431 170.275L544.59 170.434L547.765 173.61L550.941 176.785L553.322 179.167L552.931 179.368L550.21 176.648Z" fill="#5DB77D"/>
<path d="M553.725 94.2468L554.116 94.6491L557.292 97.8248L560.467 101.001L563.643 104.176L566.818 107.352L569.994 110.528L573.169 113.704L573.699 114.233C573.91 114.625 574.111 115.027 574.312 115.429L572.418 113.534L569.242 110.359L566.067 107.183L562.891 104.007L559.716 100.831L556.54 97.6555L553.365 94.4797L552.528 93.6328L553.725 94.2468Z" fill="#5DB77D"/>
<path d="M556.529 173.493L550.358 167.322L550.21 167.163L547.035 163.987L543.859 160.811L540.684 157.636L537.508 154.46L534.333 151.284L531.157 148.108L527.982 144.932L524.806 141.757L521.631 138.581L518.455 135.405L515.279 132.229L512.104 129.053L508.928 125.878L505.753 122.702L502.577 119.526L499.402 116.35L496.226 113.174L493.051 109.999L491.77 108.728L492.014 108.39L493.802 110.179L496.978 113.354L500.153 116.53L503.329 119.706L506.504 122.882L509.68 126.058L512.856 129.233L516.031 132.409L519.207 135.585L522.382 138.761L525.558 141.937L531.909 148.288L535.084 151.464L538.26 154.64L541.435 157.816L544.611 160.991L547.786 164.167L550.962 167.343L554.137 170.519L557.313 173.694L559.239 175.632L558.901 175.875L556.529 173.493Z" fill="#5DB77D"/>
<path d="M567.475 168.063L567.199 168.38L566.014 167.184L562.838 164.008L559.663 160.833L556.487 157.657L553.312 154.481L550.136 151.305L546.961 148.129L543.785 144.954L540.61 141.778L537.434 138.602L534.259 135.426L531.083 132.251L527.908 129.075L524.732 125.899L521.557 122.723L518.381 119.547L515.206 116.372L512.03 113.196L508.855 110.02L505.679 106.844L502.504 103.668L499.328 100.493L499.201 100.366L499.508 100.09L500.08 100.662L503.255 103.838L506.431 107.014L509.606 110.189L512.782 113.365L515.957 116.541L519.133 119.717L522.308 122.893L525.484 126.068L528.659 129.244L531.835 132.42L535.01 135.596L538.186 138.771L541.361 141.947L544.537 145.123L547.712 148.299L550.888 151.475L554.063 154.65L557.239 157.826L560.414 161.002L563.59 164.178L566.765 167.354L567.475 168.063Z" fill="#5DB77D"/>
<path d="M570.258 164.516L570.014 164.855L569.168 164.008L565.992 160.832L562.817 157.657L559.641 154.481L556.465 151.305L553.29 148.129L550.114 144.953L546.939 141.778L543.763 138.602L540.588 135.426L537.412 132.25L534.237 129.074L531.061 125.899L527.886 122.723L524.71 119.547L521.535 116.371L518.359 113.196L515.184 110.02L512.008 106.844L508.833 103.668L505.657 100.492L502.715 97.5495L503.053 97.2954L503.254 97.4965L506.43 100.672L509.605 103.848L512.781 107.024L515.956 110.2L519.132 113.375L522.307 116.551L525.483 119.727L528.659 122.903L531.834 126.079L535.01 129.254L538.185 132.43L541.361 135.606L544.536 138.782L547.712 141.958L550.887 145.133L554.063 148.309L557.238 151.485L560.414 154.661L563.589 157.837L566.765 161.012L569.94 164.188L570.258 164.516Z" fill="#5DB77D"/>
<path d="M569.168 160.843L562.817 154.491L559.641 151.316L556.466 148.14L551.353 143.027L550.146 141.82L546.971 138.644L543.795 135.469L540.62 132.293L537.444 129.117L534.269 125.941L531.093 122.765L527.918 119.59L524.742 116.414L521.567 113.238L518.391 110.062L515.216 106.886L512.04 103.711L508.865 100.535L505.689 97.359L504.631 96.3004L504.98 96.0781L506.462 97.5496L509.637 100.725L512.813 103.901L515.988 107.077L519.164 110.253L522.339 113.429L525.515 116.604L528.691 119.78L531.866 122.956L535.042 126.132L538.217 129.307L541.393 132.483L544.568 135.659L547.744 138.835L550.919 142.011L554.095 145.186L557.27 148.362L560.446 151.538L563.621 154.714L566.797 157.89L569.972 161.065L571.592 162.685C571.518 162.801 571.444 162.918 571.359 163.034L569.168 160.843Z" fill="#5DB77D"/>
<path d="M568.638 166.644L566.013 164.008L562.838 160.833L559.662 157.657L556.487 154.481L553.311 151.305L550.136 148.129L546.96 144.954L543.785 141.778L540.609 138.602L537.434 135.426L534.258 132.25L531.083 129.075L527.907 125.899L524.732 122.723L521.556 119.547L518.381 116.371L515.205 113.196L512.029 110.02L508.854 106.844L505.678 103.668L502.503 100.493L500.926 98.9152L501.254 98.6611L503.254 100.662L506.43 103.838L509.605 107.013L512.781 110.189L515.957 113.365L519.132 116.541L522.308 119.717L525.483 122.892L528.659 126.068L531.834 129.244L535.01 132.42L538.185 135.596L541.361 138.771L544.536 141.947L547.712 145.123L550.887 148.299L554.063 151.475L560.414 157.826L563.589 161.002L566.765 164.178L568.882 166.295L568.638 166.644Z" fill="#5DB77D"/>
<path d="M573.085 157.858L573.857 158.631C573.794 158.758 573.73 158.885 573.656 159.012L572.333 157.688L569.158 154.513L565.982 151.337L562.807 148.161L559.631 144.985L556.456 141.81L553.28 138.634L550.105 135.458L546.929 132.282L543.754 129.106L540.578 125.931L537.402 122.755L534.227 119.579L531.051 116.403L527.876 113.227L524.7 110.052L521.525 106.876L518.349 103.7L515.174 100.524L511.998 97.3485L508.823 94.1727L508.558 93.8975L509.183 93.961L509.818 94.6067L512.993 97.7825L516.169 100.958L519.344 104.134L522.52 107.31L525.695 110.486L528.871 113.661L532.046 116.837L535.222 120.013L538.397 123.189L541.573 126.365L544.749 129.54L547.924 132.716L551.1 135.892L554.275 139.068L557.451 142.244L560.626 145.419L563.802 148.595L566.977 151.771L573.138 157.932L573.296 158.091L573.085 157.858Z" fill="#5DB77D"/>
<path d="M572.333 154.523L569.157 151.347L565.982 148.172L562.806 144.996L559.631 141.82L556.455 138.644L553.28 135.469L550.104 132.293L546.929 129.117L543.753 125.941L540.578 122.765L537.402 119.59L534.227 116.414L531.051 113.238L527.876 110.062L524.7 106.886L521.525 103.711L518.349 100.535L515.174 97.359L511.998 94.1832L510.675 92.86L511.067 92.6694L512.75 94.3526L515.925 97.5284L519.101 100.704L522.276 103.88L525.452 107.056L528.627 110.232L531.803 113.407L534.978 116.583L538.154 119.759L541.329 122.935L544.505 126.11L547.68 129.286L550.856 132.462L554.031 135.638L557.207 138.814L560.382 141.989L563.558 145.165L566.733 148.341L569.909 151.517L573.084 154.693L574.895 156.503C574.831 156.64 574.768 156.767 574.715 156.905L572.333 154.523Z" fill="#5DB77D"/>
<path d="M572.523 161.044L572.332 160.843L569.157 157.667L565.981 154.491L562.806 151.316L559.63 148.14L556.455 144.964L553.279 141.788L550.104 138.612L546.928 135.437L543.753 132.261L540.577 129.085L537.402 125.909L534.226 122.734L531.051 119.558L527.875 116.382L524.7 113.206L521.524 110.03L518.349 106.855L515.173 103.679L511.998 100.503L508.822 97.3272L506.525 95.0301L506.896 94.8184L509.574 97.4966L512.749 100.672L515.925 103.848L519.1 107.024L522.276 110.2L525.451 113.376L528.627 116.551L531.802 119.727L534.978 122.903L538.153 126.079L541.329 129.255L544.504 132.43L547.68 135.606L550.855 138.782L554.031 141.958L560.382 148.309L563.557 151.485L566.733 154.661L569.909 157.837L572.692 160.652L572.523 161.044Z" fill="#5DB77D"/>
<path d="M575.487 122.924L572.312 119.748L569.136 116.573L565.961 113.397L562.785 110.221L559.61 107.045L556.434 103.869L553.259 100.694L550.083 97.5179L546.908 94.3421L543.732 91.1663L542.419 89.8643L543.203 90.0548L544.484 91.3357L547.659 94.5115L550.835 97.6873L554.01 100.863L557.186 104.039L560.361 107.215L563.537 110.39L566.712 113.566L569.888 116.742L573.063 119.918L576.239 123.094L577.657 124.502L577.848 125.274L575.487 122.924Z" fill="#5DB77D"/>
<path d="M575.488 145.049L572.312 141.873L569.137 138.698L565.961 135.522L562.785 132.346L559.61 129.17L556.434 125.994L553.259 122.819L550.083 119.643L546.908 116.467L543.732 113.291L540.557 110.115L537.381 106.94L534.206 103.764L531.03 100.588L527.855 97.4122L524.679 94.2365L521.504 91.0607L520.096 89.6527L520.572 89.5469L522.266 91.23L525.441 94.4058L528.617 97.5816L531.792 100.757L534.968 103.933L538.143 107.109L541.319 110.285L544.494 113.461L547.67 116.636L550.846 119.812L554.021 122.988L557.197 126.164L560.372 129.34L563.548 132.515L566.723 135.691L569.899 138.867L573.074 142.043L576.25 145.218L578.07 147.039L577.975 147.516L575.488 145.049Z" fill="#5DB77D"/>
<path d="M576.535 152.417L575.476 151.358L572.301 148.183L569.125 145.007L565.95 141.831L562.774 138.655L559.599 135.479L556.423 132.304L553.248 129.128L550.072 125.952L546.897 122.776L543.721 119.6L540.546 116.425L537.37 113.249L534.195 110.073L531.019 106.897L527.843 103.721L524.668 100.546L521.492 97.3699L518.317 94.1941L515.141 91.0183L515.575 90.8701L515.882 91.1771L519.058 94.3529L522.233 97.5287L525.409 100.704L528.584 103.88L531.76 107.056L534.935 110.232L538.111 113.408L541.287 116.583L544.462 119.759L547.638 122.935L550.813 126.111L553.989 129.287L557.164 132.462L560.34 135.638L563.515 138.814L566.691 141.99L571.433 146.732L573.01 148.31L576.185 151.485L576.641 151.93L576.535 152.417Z" fill="#5DB77D"/>
<path d="M575.487 148.203L572.311 145.028L569.136 141.852L565.96 138.676L562.785 135.5L559.609 132.325L556.434 129.149L553.258 125.973L550.083 122.797L546.907 119.621L543.732 116.446L540.556 113.27L537.381 110.094L534.205 106.918L531.03 103.742L527.854 100.567L524.679 97.3909L521.503 94.2151L518.328 91.0393L517.576 90.2877L518.021 90.1606L519.079 91.2192L522.255 94.395L525.43 97.5708L528.606 100.747L531.781 103.922L534.957 107.098L538.132 110.274L541.308 113.45L544.483 116.626L547.659 119.801L550.834 122.977L554.01 126.153L557.185 129.329L560.361 132.505L563.536 135.68L566.712 138.856L569.887 142.032L573.063 145.208L576.238 148.383L577.435 149.569L577.308 150.024L575.487 148.203Z" fill="#5DB77D"/>
<path d="M575.667 154.703L575.487 154.523L572.312 151.348L569.136 148.172L563.05 142.085L562.817 141.852L559.641 138.676L556.466 135.5L553.29 132.325L550.115 129.149L546.939 125.973L543.764 122.797L540.588 119.622L537.413 116.446L534.237 113.27L531.062 110.094L527.886 106.918L524.711 103.743L521.535 100.567L518.36 97.391L515.184 94.2152L512.908 91.9287L513.321 91.7593L515.936 94.3846L519.111 97.5604L522.287 100.736L525.462 103.912L528.638 107.088L531.813 110.264L534.989 113.439L538.164 116.615L541.34 119.791L544.515 122.967L547.691 126.142L550.866 129.318L554.042 132.494L557.217 135.67L560.393 138.846L563.568 142.021L566.744 145.197L569.919 148.373L573.095 151.549L575.868 154.301C575.783 154.428 575.731 154.566 575.667 154.703Z" fill="#5DB77D"/>
<path d="M578.652 132.399L575.477 129.223L572.301 126.047L569.126 122.871L565.95 119.696L562.775 116.52L559.599 113.344L556.424 110.168L553.248 106.992L550.073 103.817L546.897 100.641L543.722 97.4651L540.546 94.2893L537.371 91.1135L534.872 88.6152L535.508 88.6682L538.122 91.2829L541.298 94.4587L544.473 97.6345L547.649 100.81L550.824 103.986L554 107.162L557.175 110.338L560.351 113.513L563.526 116.689L566.702 119.865L569.877 123.041L573.053 126.217L576.228 129.392L578.98 132.145L579.044 132.78L578.652 132.399Z" fill="#5DB77D"/>
<path d="M473.606 188.695C473.606 189.337 473.797 189.966 474.154 190.5C474.511 191.035 475.018 191.451 475.612 191.697C476.206 191.943 476.859 192.008 477.49 191.882C478.12 191.757 478.699 191.447 479.154 190.993C479.608 190.538 479.918 189.959 480.043 189.329C480.168 188.698 480.104 188.045 479.858 187.451C479.612 186.857 479.196 186.35 478.661 185.993C478.127 185.635 477.499 185.445 476.856 185.445C475.994 185.445 475.167 185.787 474.558 186.397C473.949 187.006 473.606 187.833 473.606 188.695Z" stroke="#13141B" stroke-linecap="round" stroke-linejoin="round"/>
<path d="M120.234 7.02908C118.439 7.02908 116.984 5.57405 116.984 3.77919C116.984 1.98432 118.439 0.529297 120.234 0.529297C122.028 0.529297 123.483 1.98432 123.483 3.77919C123.483 5.57405 122.028 7.02908 120.234 7.02908Z" stroke="#13141B" stroke-linecap="round" stroke-linejoin="round"/>
<path d="M57.1998 185.445C57.1998 186.731 57.581 187.987 58.2951 189.056C59.0092 190.125 60.0243 190.958 61.2119 191.45C62.3994 191.942 63.7062 192.071 64.9669 191.82C66.2276 191.569 67.3857 190.95 68.2946 190.041C69.2036 189.132 69.8226 187.974 70.0734 186.713C70.3241 185.452 70.1954 184.145 69.7035 182.958C69.2116 181.77 68.3786 180.755 67.3098 180.041C66.241 179.327 64.9844 178.945 63.699 178.945C61.9753 178.945 60.3222 179.63 59.1033 180.849C57.8845 182.068 57.1998 183.721 57.1998 185.445V185.445Z" stroke="#13141B" stroke-linecap="round" stroke-linejoin="round"/>
<path d="M397.446 79.8606L414.139 59.9907H397.446V79.8606Z" stroke="#5DB77D" stroke-linecap="round" stroke-linejoin="round"/>
<path d="M471.859 59.9803V7.7915H397.446V48.0817V59.9803V59.9909H414.139L414.15 59.9803H471.859Z" stroke="#13141B" stroke-linecap="round" stroke-linejoin="round"/>
<path d="M415.515 26.2534H458.194" stroke="#13141B" stroke-linecap="round" stroke-linejoin="round"/>
<path d="M415.515 41.8994H447.662" stroke="#13141B" stroke-linecap="round" stroke-linejoin="round"/>
<path d="M214.07 209.814L188.539 179.421H214.07V209.814Z" stroke="#5DB77D" stroke-linecap="round" stroke-linejoin="round"/>
<path d="M100.27 179.411V99.5928H214.07V161.214V179.411V179.422H188.539L188.529 179.411H100.27Z" stroke="#13141B" stroke-linecap="round" stroke-linejoin="round"/>
<path d="M186.443 127.826H121.155" stroke="#13141B" stroke-linecap="round" stroke-linejoin="round"/>
<path d="M186.443 151.76H137.276" stroke="#13141B" stroke-linecap="round" stroke-linejoin="round"/>
<path d="M350.057 155.138L420.617 170.498C421.386 170.661 422.187 170.57 422.899 170.237C423.612 169.905 424.196 169.35 424.565 168.656L456.712 97.0311C457.132 96.24 457.703 95.5392 458.394 94.969C459.084 94.3987 459.88 93.9701 460.736 93.7076C461.593 93.4451 462.492 93.3539 463.384 93.4392C464.275 93.5245 465.141 93.7846 465.932 94.2047L468.049 95.3268L434.674 179.337V179.432C434.202 180.321 433.443 181.024 432.52 181.428C431.598 181.831 430.567 181.912 429.593 181.655L343.632 159.245C343.965 157.863 344.821 156.664 346.018 155.898C347.216 155.133 348.663 154.86 350.057 155.138Z" fill="#5DB77D"/>
<path d="M464.979 279.639C464.979 279.639 470.727 291.548 475.014 294.258L486.753 297.042C488.265 297.154 489.726 297.635 491.009 298.443C492.292 299.252 493.356 300.363 494.109 301.679L463.085 316.033L448.16 286.901L464.979 279.639Z" fill="#13141B"/>
<path d="M304.213 176.172C304.213 176.172 378.086 178.945 412.741 184.207C417.692 184.966 422.394 186.885 426.461 189.809C430.529 192.732 433.847 196.577 436.145 201.028L476.897 279.798L440.802 298.789L398.938 223.11L322.885 220.834L304.213 176.172Z" fill="white" stroke="#13141B" stroke-linecap="round" stroke-linejoin="round"/>
<path d="M301.302 158.271C302.231 161.494 303.757 164.514 305.801 167.173C323.107 189.139 358.97 162.293 388.269 162.516C392.323 162.516 395.912 162.621 396.737 163.923C398.198 166.104 399.913 169.216 400.971 169.164C402.188 169.058 400.283 164.781 399.203 161.563C399.203 161.563 402.813 170.466 404.136 169.979C405.734 169.386 401.659 159.244 401.659 159.244C401.659 159.244 406.846 169.629 408.18 168.01C409.513 166.39 403.871 157.159 403.871 157.159C403.871 157.159 409.164 165.395 410.921 164.569C412.308 163.892 407.746 157.625 403.141 152.66C400.399 149.72 396.798 147.723 392.852 146.954C387.144 146.012 381.337 145.813 375.578 146.361C375.578 146.361 345.939 149.664 321.308 153.676L311.781 109.448C311.232 106.766 309.932 104.295 308.034 102.322C306.136 100.348 303.717 98.9543 301.059 98.3011C296.825 97.3272 292.04 97.7612 288.907 102.715C287.837 104.474 287.162 106.445 286.93 108.49C286.698 110.536 286.914 112.607 287.563 114.561L301.302 158.271Z" fill="white" stroke="#13141B" stroke-linecap="round" stroke-linejoin="round"/>
<path d="M394.535 297.211C394.535 297.211 386.416 312.127 386.829 317.177L391.688 328.249C392.511 329.522 393.008 330.978 393.136 332.488C393.263 333.998 393.017 335.516 392.418 336.909L362.282 320.765L376.625 291.22L394.535 297.211Z" fill="#13141B"/>
<path d="M296.782 166.803C296.782 166.803 399.986 160.695 429.72 188.695C453.674 211.264 400.833 308.242 400.833 308.242L363.224 292.363L393.805 224.052L305.949 222.908C305.949 222.908 270.245 212.704 279.433 166.803H296.782Z" fill="white" stroke="#13141B" stroke-linecap="round" stroke-linejoin="round"/>
<path d="M310.967 105.405L322.208 77.4047L312.417 63.5371L288.304 99.0848L310.967 105.405Z" fill="white" stroke="#13141B" stroke-linecap="round" stroke-linejoin="round"/>
<path d="M316.956 90.8735L309.587 83.0279L318.346 83.6999L316.956 90.8735Z" fill="#13141B" stroke="#13141B" stroke-linecap="round" stroke-linejoin="round"/>
<path d="M339.236 52.38C341.407 59.5536 345.482 79.5114 324.825 84.3563C312.756 87.1851 302.967 80.5429 295.425 66.6021C287.619 52.0987 297.424 33.7819 310.851 29.5309C324.279 25.2799 334.381 36.3919 339.236 52.38Z" fill="white" stroke="#13141B" stroke-linecap="round" stroke-linejoin="round"/>
<path d="M295.425 66.5861C302.966 80.5269 312.756 87.1691 324.825 84.3403C344.107 79.8236 341.843 62.1475 339.689 53.9894C330.321 55.3959 314.348 66.211 314.348 66.211C303.669 74.4317 297.86 54.9114 307.915 51.4888C317.97 48.0661 324.2 39.189 326.651 32.0935C324.43 30.3828 321.819 29.2515 319.053 28.8013C316.287 28.3512 313.452 28.5964 310.804 29.5148C297.423 33.7658 287.587 52.0983 295.425 66.5861Z" fill="#13141B" stroke="#13141B" stroke-linecap="round" stroke-linejoin="round"/>
<path d="M334.881 63.4604C333.634 64.0528 332.223 64.199 330.881 63.8748C329.54 63.5505 328.35 62.7753 327.511 61.6787" stroke="#F0EFE6" stroke-linecap="round" stroke-linejoin="round"/>
<path d="M314.35 66.2271C312.094 67.0706 309.61 67.0706 307.355 66.2271C302.515 64.461 299.845 59.6161 301.391 55.412C302.437 52.552 304.919 51.4267 307.917 51.5517" fill="white"/>
<path d="M314.35 66.2271C312.094 67.0706 309.61 67.0706 307.355 66.2271C302.515 64.461 299.845 59.6161 301.391 55.412C302.437 52.552 304.919 51.4267 307.917 51.5517" stroke="#13141B" stroke-linecap="round" stroke-linejoin="round"/>
<path d="M311.085 59.7252C311.085 59.7252 307.728 57.0058 305.261 59.8658L311.085 59.7252Z" fill="white"/>
<path d="M311.085 59.7252C311.085 59.7252 307.728 57.0058 305.261 59.8658" stroke="#13141B" stroke-linecap="round" stroke-linejoin="round"/>
<path d="M316.502 99.2716L292.744 87.8633C292.744 87.8633 263.271 158.26 263.271 203.25C263.271 203.25 321.174 181.974 350.068 181.549L316.502 99.2716Z" fill="#13141B"/>
<path d="M310.754 110.729H301.133" stroke="white" stroke-linecap="round" stroke-linejoin="round"/>
<path d="M305.938 101.107L296.973 97.3804" stroke="white" stroke-linecap="round" stroke-linejoin="round"/>
<path d="M290.844 100.228V110.729" stroke="white" stroke-linecap="round" stroke-linejoin="round"/>
<path d="M295.438 123.411L289.097 116.848" stroke="white" stroke-linecap="round" stroke-linejoin="round"/>
<path d="M308.129 122.099L309.22 129.975" stroke="white" stroke-linecap="round" stroke-linejoin="round"/>
<path d="M300.032 133.044L290.844 134.791" stroke="white" stroke-linecap="round" stroke-linejoin="round"/>
<path d="M283.191 133.913L277.073 127.794" stroke="white" stroke-linecap="round" stroke-linejoin="round"/>
<path d="M295.438 142.011L289.097 147.039" stroke="white" stroke-linecap="round" stroke-linejoin="round"/>
<path d="M289.097 157.689H279.476" stroke="white" stroke-linecap="round" stroke-linejoin="round"/>
<path d="M284.281 148.055L275.316 144.34" stroke="white" stroke-linecap="round" stroke-linejoin="round"/>
<path d="M269.198 147.187V157.689" stroke="white" stroke-linecap="round" stroke-linejoin="round"/>
<path d="M273.791 170.371L267.44 163.807" stroke="white" stroke-linecap="round" stroke-linejoin="round"/>
<path d="M286.472 169.058L287.563 176.934" stroke="white" stroke-linecap="round" stroke-linejoin="round"/>
<path d="M278.375 180.004L269.197 181.751" stroke="white" stroke-linecap="round" stroke-linejoin="round"/>
<path d="M261.534 180.872L255.416 174.753" stroke="white" stroke-linecap="round" stroke-linejoin="round"/>
<path d="M273.791 188.97L267.44 193.998" stroke="white" stroke-linecap="round" stroke-linejoin="round"/>
<path d="M332.369 137.745H322.747" stroke="white" stroke-linecap="round" stroke-linejoin="round"/>
<path d="M327.563 128.122L318.598 124.396" stroke="white" stroke-linecap="round" stroke-linejoin="round"/>
<path d="M317.063 150.437L310.723 143.874" stroke="white" stroke-linecap="round" stroke-linejoin="round"/>
<path d="M329.744 149.125L330.845 157.001" stroke="white" stroke-linecap="round" stroke-linejoin="round"/>
<path d="M321.657 160.06L312.469 161.807" stroke="white" stroke-linecap="round" stroke-linejoin="round"/>
<path d="M304.816 160.939L298.687 154.809" stroke="white" stroke-linecap="round" stroke-linejoin="round"/>
<path d="M317.063 169.026L310.723 174.055" stroke="white" stroke-linecap="round" stroke-linejoin="round"/>
<path d="M328.421 171.567C330.316 174.336 332.715 176.724 335.492 178.607C358.779 194.03 384.437 157.286 412.329 148.288C416.182 147.05 419.611 145.991 420.797 146.955C422.914 148.574 425.497 151.009 426.481 150.596C427.465 150.183 424.449 146.648 422.406 143.927C422.406 143.927 428.63 151.252 429.731 150.374C431.064 149.315 424.015 140.963 424.015 140.963C424.015 140.963 432.197 149.188 432.959 147.24C433.721 145.293 425.465 138.295 425.465 138.295C425.465 138.295 433.118 144.435 434.483 143.112C435.595 142.053 429.328 137.501 423.358 134.251C419.834 132.317 415.786 131.554 411.799 132.071C406.084 132.968 400.509 134.601 395.213 136.93C395.213 136.93 368.125 149.368 345.982 160.917L323.012 121.929C321.647 119.557 319.638 117.621 317.217 116.345C314.797 115.069 312.064 114.506 309.336 114.72C304.996 115.123 300.593 117.039 299.174 122.723C298.719 124.726 298.701 126.803 299.123 128.813C299.545 130.823 300.397 132.718 301.62 134.368L328.421 171.567Z" fill="white" stroke="#13141B" stroke-linecap="round" stroke-linejoin="round"/>
<path d="M345.114 150.416L318.588 169.174C318.588 169.174 276.248 115.863 295.82 102.98C314.238 90.8379 345.114 150.416 345.114 150.416Z" fill="#13141B" stroke="#13141B" stroke-linecap="round" stroke-linejoin="round"/>
<path d="M310.754 110.729H301.133" stroke="white" stroke-linecap="round" stroke-linejoin="round"/>
<path d="M305.938 101.107L296.973 97.3804" stroke="white" stroke-linecap="round" stroke-linejoin="round"/>
<path d="M290.844 100.228V110.729" stroke="white" stroke-linecap="round" stroke-linejoin="round"/>
<path d="M295.438 123.411L289.097 116.848" stroke="white" stroke-linecap="round" stroke-linejoin="round"/>
<path d="M308.129 122.099L309.22 129.975" stroke="white" stroke-linecap="round" stroke-linejoin="round"/>
<path d="M300.032 133.044L290.844 134.791" stroke="white" stroke-linecap="round" stroke-linejoin="round"/>
<path d="M283.191 133.913L277.073 127.794" stroke="white" stroke-linecap="round" stroke-linejoin="round"/>
<path d="M295.438 142.011L289.097 147.039" stroke="white" stroke-linecap="round" stroke-linejoin="round"/>
<path d="M289.097 157.689H279.476" stroke="white" stroke-linecap="round" stroke-linejoin="round"/>
<path d="M284.281 148.055L275.316 144.34" stroke="white" stroke-linecap="round" stroke-linejoin="round"/>
<path d="M269.198 147.187V157.689" stroke="white" stroke-linecap="round" stroke-linejoin="round"/>
<path d="M273.791 170.371L267.44 163.807" stroke="white" stroke-linecap="round" stroke-linejoin="round"/>
<path d="M286.472 169.058L287.563 176.934" stroke="white" stroke-linecap="round" stroke-linejoin="round"/>
<path d="M278.375 180.004L269.197 181.751" stroke="white" stroke-linecap="round" stroke-linejoin="round"/>
<path d="M261.534 180.872L255.416 174.753" stroke="white" stroke-linecap="round" stroke-linejoin="round"/>
<path d="M273.791 188.97L267.44 193.998" stroke="white" stroke-linecap="round" stroke-linejoin="round"/>
<path d="M332.369 137.745H322.747" stroke="white" stroke-linecap="round" stroke-linejoin="round"/>
<path d="M327.563 128.122L318.598 124.396" stroke="white" stroke-linecap="round" stroke-linejoin="round"/>
<path d="M317.063 150.437L310.723 143.874" stroke="white" stroke-linecap="round" stroke-linejoin="round"/>
<path d="M329.744 149.125L330.845 157.001" stroke="white" stroke-linecap="round" stroke-linejoin="round"/>
<path d="M321.657 160.06L312.469 161.807" stroke="white" stroke-linecap="round" stroke-linejoin="round"/>
<path d="M304.816 160.939L298.687 154.809" stroke="white" stroke-linecap="round" stroke-linejoin="round"/>
<path d="M317.063 169.026L310.723 174.055" stroke="white" stroke-linecap="round" stroke-linejoin="round"/>
<path d="M516.422 57.4926C516.421 58.4396 516.623 59.3758 517.014 60.2382C517.405 61.1006 517.976 61.8692 518.69 62.4921C519.403 63.1151 520.241 63.5779 521.148 63.8495C522.055 64.1211 523.01 64.1951 523.948 64.0665C528.331 63.209 530.458 58.3077 533.867 55.4072C534.578 54.7118 535.443 54.1934 536.392 53.8936C537.341 53.5939 538.346 53.5213 539.328 53.6816C540.217 53.9483 541.035 54.4114 541.721 55.0367C544.367 57.2915 545.859 60.5519 547.701 63.5054C549.543 66.4589 552.094 69.3171 555.513 69.857C558.932 70.3969 562.192 68.5126 564.33 65.919C566.469 63.3255 567.633 60.0862 568.755 56.9104" stroke="#13141B" stroke-linecap="round" stroke-linejoin="round"/>
<path d="M26.5697 257.875C28.7212 262.424 31.9716 266.367 36.0282 269.348C40.0847 272.329 44.82 274.255 49.8076 274.952C54.9539 275.567 60.1734 274.902 65.001 273.014C69.8287 271.126 74.1147 268.075 77.4774 264.132C79.2674 262.08 80.6598 259.713 81.5834 257.153C82.0766 255.738 82.3138 254.248 82.2838 252.75C82.2586 251.118 81.8298 249.517 81.0355 248.091C80.2114 246.647 79.0298 245.439 77.6038 244.582C76.0143 243.605 74.1237 243.238 72.2832 243.549C70.5859 243.881 69.016 244.683 67.7523 245.863C66.6176 246.899 65.6517 248.106 64.8896 249.44C63.4386 252.101 62.8145 255.134 63.097 258.151C63.34 261.016 64.1842 263.797 65.5746 266.314C66.9432 268.842 68.7984 271.074 71.0337 272.883C72.2003 273.793 73.4605 274.577 74.7932 275.22C76.0825 275.82 77.4203 276.309 78.7924 276.684C84.1242 278.009 89.7022 277.994 95.028 276.64C100.076 275.433 104.958 273.612 109.563 271.218C114.099 269.006 118.442 266.417 122.544 263.479C126.63 260.466 130.463 257.125 134.006 253.49C148.104 239.023 157.618 219.997 159.52 200.399L158.657 200.202C155.34 209.181 151.045 217.768 145.847 225.808C144.474 227.703 143.212 229.721 141.771 231.588C141.056 232.513 140.399 233.483 139.647 234.387L137.404 237.08C135.919 238.898 134.307 240.582 132.7 242.341L130.213 244.81L129.012 246.032L127.702 247.193C120.922 253.528 113.405 259.028 105.314 263.576C101.427 265.924 97.2616 267.779 92.9152 269.097C88.8395 270.378 84.5121 270.641 80.312 269.863C79.3268 269.639 78.3613 269.336 77.425 268.956C76.5521 268.592 75.7248 268.127 74.9597 267.571C73.3429 266.397 71.9817 264.907 70.9586 263.191C68.8642 259.767 68.1182 255.385 69.7593 252.212C70.1785 251.421 70.7023 250.69 71.3167 250.039C71.8009 249.516 72.4146 249.13 73.0958 248.921C73.6731 248.804 74.273 248.898 74.7869 249.185C75.4666 249.56 76.0417 250.099 76.4601 250.753C76.8912 251.433 77.142 252.212 77.1889 253.016C77.2474 253.953 77.1369 254.893 76.8625 255.791C76.1921 257.845 75.151 259.76 73.7908 261.44C71.0055 265.076 67.3652 267.969 63.193 269.862C59.0209 271.755 54.446 272.59 49.8745 272.292C45.1675 271.871 40.6352 270.307 36.6723 267.736C32.7094 265.165 29.436 261.665 27.1371 257.54L26.5697 257.875Z" fill="#13141B"/>
<path d="M138.409 397.238C118.128 383.815 106.569 358.314 109.829 334.22" stroke="#13141B" stroke-linecap="round" stroke-linejoin="round"/>
<path d="M117.154 343.864L109.84 334.22L101.88 343.25" stroke="#13141B" stroke-linecap="round" stroke-linejoin="round"/>
<path d="M243.02 51.0665C241.731 52.9522 239.929 54.428 237.827 55.3185C235.736 56.1642 233.488 56.5518 231.234 56.4553C228.991 56.3875 226.782 55.8861 224.729 54.9789C222.687 54.0675 220.813 52.8199 219.183 51.288C215.936 48.1206 213.261 44.4143 211.277 40.3334C210.746 39.3147 210.229 38.2813 209.728 37.2183C209.235 36.277 208.839 35.2876 208.548 34.2656C208.437 33.8767 208.383 33.474 208.386 33.0697C208.386 32.7744 208.533 32.6711 208.386 32.8335C208.238 32.9959 207.973 33.0402 208.12 33.055C208.351 33.1413 208.565 33.2661 208.754 33.424C209.367 34.0206 209.852 34.7349 210.181 35.5239C210.511 36.3129 210.678 37.1604 210.672 38.0155C210.712 40.042 210.325 42.0542 209.536 43.921C208.066 47.9175 205.604 51.4739 202.382 54.2555C200.953 55.4265 199.227 56.1778 197.397 56.4257C195.628 56.62 193.842 56.3023 192.249 55.5104C188.959 53.9012 186.127 50.4317 183.546 46.7408C182.248 44.8658 181.009 42.9023 179.681 40.8354L178.664 39.359L177.793 38.0008C177.218 37.0559 176.643 36.0815 176.068 35.048C174.902 32.9959 173.737 30.8552 172.35 28.7145C170.915 26.3472 169.152 24.195 167.114 22.3218C165.816 21.1728 164.316 20.2765 162.689 19.6791C162.217 19.5315 161.745 19.3986 161.214 19.2805C160.77 19.1953 160.322 19.1362 159.872 19.1033L158.529 19C158.035 19.0145 157.543 19.0588 157.054 19.1329C156.556 19.1776 156.062 19.2665 155.579 19.3986L154.104 19.9153C153.633 20.1041 153.183 20.3416 152.762 20.624C152.334 20.9045 151.906 21.1703 151.523 21.4803C150.166 22.6234 149.049 24.0232 148.234 25.5993C146.944 28.1213 146.063 30.8322 145.623 33.6307C145.387 34.9004 145.21 36.1258 145.048 37.2626C144.959 37.7941 144.871 38.3403 144.812 38.6504C144.753 38.9604 144.59 39.5066 144.458 39.9053C144.056 41.3649 143.272 42.6903 142.186 43.7438C141.853 44.0489 141.437 44.2492 140.991 44.3196C140.492 44.3874 139.985 44.3265 139.516 44.1424C137.788 43.3464 136.231 42.2234 134.929 40.8354C134.073 40.0677 133.218 39.2114 132.229 38.3698L130.636 37.1002C130.091 36.7163 129.515 36.362 128.955 35.9782C124.489 33.2323 119.343 31.795 114.101 31.8296C109.064 31.8608 104.152 33.4037 99.9998 36.2587L100.413 37.0411C104.578 35.5554 109.051 35.1526 113.414 35.8705C117.776 36.5883 121.886 38.4034 125.356 41.1454C125.754 41.485 126.152 41.8098 126.521 42.1641L127.568 43.2714L129.928 45.8698C131.7 48.0972 133.883 49.9619 136.36 51.3618C138.016 52.1973 139.861 52.589 141.714 52.4986C143.64 52.3939 145.501 51.7661 147.098 50.6827C149.743 48.786 151.758 46.1369 152.88 43.0794C153.156 42.3846 153.392 41.6749 153.588 40.9535C153.809 40.112 153.913 39.4771 154.045 38.857C154.267 37.6612 154.473 36.5539 154.709 35.5057C155.03 33.6243 155.621 31.7993 156.464 30.0875C156.733 29.5467 157.081 29.049 157.497 28.6111C157.836 28.4339 157.984 28.2125 158.426 28.1977C158.529 28.1977 158.618 28.1977 158.736 28.1977H159.164C159.301 28.1903 159.439 28.1903 159.577 28.1977C159.674 28.2185 159.774 28.2185 159.872 28.1977C160.476 28.4011 161.036 28.7167 161.524 29.1278C163.068 30.3782 164.425 31.845 165.551 33.4831C166.849 35.24 168.102 37.174 169.386 39.1819C170.035 40.171 170.713 41.2045 171.421 42.2527L172.557 43.8176L173.59 45.2054C174.961 47.0656 176.363 49.0292 177.867 50.978C179.394 53.0056 181.065 54.92 182.867 56.7062C184.824 58.6695 187.117 60.2648 189.638 61.4158C192.372 62.5958 195.386 62.9697 198.326 62.4936C201.195 61.9783 203.868 60.6865 206.055 58.7584C208.057 56.9949 209.769 54.9273 211.129 52.6315C212.448 50.4343 213.531 48.1034 214.36 45.6778C215.28 43.1118 215.647 40.3795 215.436 37.6612C215.34 36.1397 214.919 34.6566 214.202 33.3118C213.484 31.9671 212.487 30.792 211.277 29.866C210.516 29.306 209.63 28.9411 208.695 28.803C208.415 28.7883 208.135 28.7883 207.855 28.803C207.539 28.8198 207.227 28.8744 206.925 28.9654C206.26 29.1634 205.663 29.5415 205.2 30.0579C204.493 30.9207 204.131 32.0145 204.182 33.1288C204.21 33.9121 204.349 34.6875 204.595 35.4319C205.028 36.6692 205.581 37.861 206.247 38.9899C206.837 40.0529 207.442 41.1011 208.061 42.1346C210.495 46.4172 213.655 50.2438 217.398 53.4435C219.329 55.0437 221.512 56.311 223.859 57.1934C226.219 58.0552 228.723 58.4561 231.234 58.3745C233.723 58.2966 236.167 57.6876 238.403 56.5881C240.634 55.4576 242.485 53.697 243.728 51.5242L243.02 51.0665Z" fill="#13141B"/>
</svg>
