<svg width="253" height="273" viewBox="0 0 253 273" fill="none" xmlns="http://www.w3.org/2000/svg">
<path d="M0.999985 155.266H88.1468V254.181H0.999985V155.266Z" fill="white" stroke="#13141B" stroke-linecap="round" stroke-linejoin="round"/>
<path d="M62.7532 236.238C42.4723 222.815 30.9133 197.314 34.1735 173.22" stroke="#13141B" stroke-linecap="round" stroke-linejoin="round"/>
<path d="M41.4984 182.864L34.1841 173.22L26.2241 182.25" stroke="#13141B" stroke-linecap="round" stroke-linejoin="round"/>
<path d="M117.471 117.284C120.556 114.667 122.941 111.324 124.411 107.554C125.882 103.784 126.392 99.7075 125.895 95.6902C125.303 91.5665 123.7 87.6527 121.23 84.2973C118.76 80.9419 115.5 78.2491 111.739 76.4587C109.773 75.4958 107.646 74.9072 105.466 74.7228C104.265 74.6341 103.059 74.7601 101.902 75.0948C100.64 75.454 99.4871 76.1199 98.545 77.0333C97.5952 77.9735 96.9029 79.1422 96.5346 80.4275C96.1068 81.8648 96.2152 83.409 96.8395 84.7732C97.4502 86.0219 98.3991 87.074 99.5782 87.8096C100.619 88.475 101.757 88.9738 102.951 89.2881C105.319 89.8609 107.803 89.7145 110.087 88.8676C112.261 88.0829 114.244 86.8489 115.909 85.246C117.587 83.6575 118.934 81.7527 119.874 79.641C120.338 78.5459 120.684 77.4045 120.906 76.236C121.103 75.1103 121.205 73.9697 121.21 72.8267C121.13 68.4114 119.958 64.0839 117.798 60.2309C115.811 56.5626 113.382 53.1516 110.566 50.0742C107.905 47.0124 104.991 44.1795 101.857 41.6056C98.6672 39.0607 95.2762 36.7796 91.7172 34.785C77.5525 26.8492 60.8017 23.4209 45.1905 26.0213L45.2175 26.732C52.8784 27.4389 60.4388 28.9878 67.762 31.3507C69.5185 32.0219 71.3481 32.5825 73.0976 33.3127C73.9642 33.6755 74.8541 33.9839 75.7121 34.3792L78.2698 35.5607C79.99 36.3351 81.6329 37.2364 83.3331 38.1183L85.767 39.5358L86.9661 40.2137L88.1392 40.9889C94.4685 44.9355 100.302 49.6269 105.516 54.9627C108.148 57.4922 110.454 60.3401 112.382 63.4403C114.224 66.3381 115.329 69.6431 115.598 73.0658C115.629 73.8773 115.595 74.6899 115.495 75.4958C115.394 76.2493 115.205 76.9884 114.932 77.698C114.357 79.1975 113.484 80.5643 112.365 81.7155C110.142 84.054 106.895 85.5446 104.09 84.9306C103.389 84.7697 102.712 84.515 102.079 84.1736C101.572 83.9064 101.145 83.5101 100.841 83.0249C100.63 82.6009 100.578 82.1157 100.694 81.6569C100.844 81.0512 101.143 80.4926 101.563 80.0318C102.002 79.5556 102.554 79.1989 103.169 78.9952C103.884 78.7548 104.637 78.6451 105.391 78.6712C107.125 78.7644 108.828 79.1744 110.416 79.881C113.818 81.2871 116.821 83.5115 119.159 86.3569C121.497 89.2022 123.096 92.5804 123.816 96.1916C124.469 99.9335 124.198 103.778 123.026 107.389C121.854 111.001 119.817 114.27 117.093 116.913L117.471 117.284Z" fill="#13141B"/>
<path d="M59.127 13.8096C56.3959 15.3864 53.7818 17.1423 51.1029 18.8808C48.424 20.6192 45.8629 22.372 43.2903 24.1998L41.6295 25.3779L42.7041 27.6897C43.4175 29.2099 44.0444 30.7937 44.6449 32.379C45.2337 33.9629 46.0373 35.4584 47.033 36.8237C48.0561 38.2054 49.1989 39.4943 50.4479 40.6755C51.7722 41.955 53.2645 43.048 54.8836 43.9243L55.4997 43.5687C55.5475 41.7297 55.3437 39.8927 54.8938 38.1087C54.4953 36.4364 53.9504 34.8023 53.2654 33.2254C52.5809 31.6804 51.6875 30.2368 50.6103 28.9349C49.5375 27.6222 48.4794 26.2874 47.5196 24.9095L46.9334 28.3995C49.1039 26.1598 51.2388 23.8584 53.3397 21.5219C55.4405 19.1854 57.4885 16.852 59.549 14.3744L59.127 13.8096Z" fill="#13141B"/>
<path d="M154.757 224.013L156.072 225.321L159.299 228.555L162.534 231.783L165.761 235.018L168.989 238.246L172.223 241.474L175.451 244.708L178.685 247.936L181.913 251.171L188.241 257.5L188.396 257.662L191.63 260.889L194.858 264.117L198.092 267.352L201.32 270.58L202.782 272.042H202.171L200.553 270.425L197.319 267.19L194.091 263.962L190.857 260.728L187.629 257.5L184.395 254.265L181.167 251.03L177.933 247.802L174.705 244.568L171.478 241.34L168.25 238.105L165.023 234.877L161.788 231.65L158.561 228.415L155.326 225.187L154.799 224.66C154.764 224.421 154.757 224.238 154.757 224.013Z" fill="#5DB77D"/>
<path d="M154.947 227.43L156.072 228.555L159.299 231.783L162.527 235.018L165.782 238.246L172.111 244.575L172.266 244.729L175.493 247.957L178.728 251.192L181.955 254.42L185.19 257.654L188.417 260.882L191.652 264.11L194.879 267.345L198.114 270.572L199.386 271.845L198.725 271.789L194.267 267.324L194.113 267.169L190.878 263.941L187.651 260.706L184.416 257.479L181.189 254.244L177.954 251.009L174.727 247.781L171.492 244.546L168.265 241.319L165.037 238.084L161.803 234.856L158.575 231.628L155.341 228.394L155.045 228.098C154.982 227.866 154.961 227.648 154.947 227.43Z" fill="#5DB77D"/>
<path d="M181.048 266.43C180.605 266.198 180.169 265.966 179.74 265.727L177.911 263.906L174.684 260.671L171.449 257.443L168.222 254.209L164.995 250.974L161.76 247.746L161.057 247.043C160.818 246.607 160.579 246.171 160.354 245.735L162.562 247.943L165.782 251.171L172.11 257.5L172.265 257.661L175.493 260.889L178.727 264.117L181.048 266.43Z" fill="#5DB77D"/>
<path d="M186.877 269.032L185.914 268.667L184.395 267.148L181.167 263.92L177.933 260.685L174.705 257.457L171.478 254.223L168.25 250.988L165.023 247.76L161.788 244.525L158.561 241.298L158.132 240.869C158.005 240.552 157.886 240.229 157.766 239.905L159.327 241.466L162.555 244.701L165.782 247.936L169.01 251.171L172.244 254.398L175.472 257.633L178.706 260.861L181.934 264.089L186.877 269.032Z" fill="#5DB77D"/>
<path d="M187.58 267.134L184.346 263.906L181.118 260.671L177.884 257.444L174.656 254.209L171.429 250.974L168.201 247.746L164.974 244.511L161.739 241.284L158.512 238.049L156.48 236.024C156.402 235.749 156.325 235.475 156.255 235.201L159.278 238.225L162.513 241.453L165.74 244.687L168.968 247.915L172.202 251.15L175.43 254.378L178.664 257.612L181.892 260.84L185.126 264.068L188.354 267.303L191.525 270.474L190.709 270.249L187.58 267.134Z" fill="#5DB77D"/>
<path d="M190.835 267.134L187.608 263.906L184.373 260.671L178.045 254.342L177.883 254.18L174.656 250.946L171.428 247.718L164.973 241.255L161.739 238.021L158.511 234.793L155.523 231.804C155.474 231.565 155.439 231.326 155.396 231.101L157.682 233.379L159.299 234.997L162.526 238.225L165.782 241.473L169.009 244.708L172.244 247.936L175.471 251.171L178.706 254.398L181.933 257.633L185.168 260.861L188.395 264.089L191.63 267.324L194.857 270.551L195.638 271.353L194.935 271.226L194.084 270.383L190.835 267.134Z" fill="#5DB77D"/>
<path d="M234.502 184.815C237.242 187.025 239.739 189.522 241.948 192.263L239.297 189.611L236.07 186.384L234.502 184.815Z" fill="#5DB77D"/>
<path d="M155.404 214.962L156.072 215.63L159.299 218.865L162.527 222.128L165.783 225.321L169.01 228.555L172.245 231.783L175.472 235.018L178.707 238.246L181.934 241.473L185.169 244.708L188.396 247.936L191.631 251.171L194.858 254.398L198.093 257.633L201.32 260.861L204.547 264.089L207.775 267.324L211.002 270.551L211.804 271.353L211.291 271.437L206.994 267.134L203.76 263.906L200.532 260.671L194.204 254.342L194.049 254.18L190.815 250.946L187.587 247.718L184.353 244.483L181.125 241.255L177.891 238.021L174.663 234.793L171.429 231.565L168.201 228.33L164.974 225.103L161.739 221.868L158.512 218.64L155.299 215.426C155.341 215.307 155.376 215.138 155.404 214.962Z" fill="#5DB77D"/>
<path d="M155.017 217.81L156.072 218.865L159.299 222.128L162.534 225.356L165.761 228.591L170.606 233.379L172.223 234.997L175.451 238.225L178.685 241.452L181.913 244.687L185.147 247.915L188.375 251.15L191.609 254.377L194.837 257.612L198.071 260.84L201.299 264.068L204.533 267.303L207.761 270.53L208.963 271.733L208.415 271.782L207.009 270.376L203.753 267.134L200.525 263.906L197.291 260.671L194.063 257.443L190.829 254.209L187.601 250.974L184.367 247.746L177.905 241.284L174.677 238.049L171.45 234.821L166.226 229.596L164.995 228.359L161.761 225.131L158.533 221.896L155.299 218.668L154.961 218.331C154.982 218.169 154.996 217.993 155.017 217.81Z" fill="#5DB77D"/>
<path d="M154.792 220.82L156.072 222.128L159.299 225.356L162.527 228.591L165.782 231.783L169.01 235.018L172.244 238.246L175.472 241.473L178.706 244.708L181.934 247.936L185.168 251.171L188.396 254.399L191.63 257.633L194.858 260.861L198.092 264.089L204.554 270.551L205.96 271.958H205.384L203.767 270.34L200.539 267.106L197.305 263.878L194.077 260.643L190.843 257.415L187.615 254.181L184.381 250.946L181.153 247.718L177.919 244.483L174.691 241.255L171.464 238.021L168.236 234.793L165.009 231.565L161.774 228.33L158.547 225.103L155.312 221.868L154.785 221.34L154.792 220.82Z" fill="#5DB77D"/>
<path d="M159.18 202.593L159.299 202.712L162.534 205.94L165.782 209.168L169.01 212.403L172.244 215.63L175.472 218.865L178.706 222.093L181.934 225.321L185.168 228.555L188.396 231.783L191.63 235.018L194.858 238.246L198.092 241.473L201.32 244.708L204.554 247.936L207.782 251.171L211.009 254.398L214.244 257.633L217.471 260.861L220.706 264.089L223.933 267.324L224.2 267.584L223.786 267.774L223.321 267.302L223.167 267.148L219.932 263.92L216.705 260.685L213.47 257.457L210.243 254.223L207.015 250.988L203.781 247.76L200.553 244.525L197.319 241.298L194.091 238.063L190.857 234.835L187.629 231.607L184.395 228.372L181.167 225.145L177.933 221.91L174.705 218.682L171.478 215.454L168.25 212.22L165.023 208.992L161.788 205.757L159.025 202.993C159.06 202.867 159.116 202.726 159.18 202.593Z" fill="#5DB77D"/>
<path d="M158.047 205.251C158.104 205.11 158.153 204.97 158.216 204.822L159.299 205.954L162.527 209.182L165.754 212.417L168.982 215.644L172.216 218.879L175.451 222.128L178.685 225.356L181.913 228.591L186.757 233.38L188.375 234.997L191.609 238.225L194.837 241.452L198.071 244.687L201.298 247.915L204.526 251.15L207.753 254.378L210.981 257.612L214.215 260.84L217.443 264.068L220.677 267.303L221.915 268.54L221.486 268.709L219.925 267.134L216.698 263.906L213.47 260.671L207.015 254.209L203.781 250.974L200.553 247.746L194.091 241.284L190.857 238.049L187.629 234.821L184.395 231.593L181.167 228.359L177.933 225.131L174.705 221.896L171.471 218.668L168.243 215.441L165.016 212.206L161.781 208.978L158.554 205.743L158.047 205.251Z" fill="#5DB77D"/>
<path d="M162.625 196.341L165.783 199.477L169.01 202.712L172.245 205.94L175.472 209.168L178.707 212.402L181.934 215.63L185.169 218.865L188.375 222.128L191.609 225.356L194.837 228.59L198.071 231.818L201.299 235.053L204.526 238.281L207.754 241.508L210.981 244.743L214.216 247.971L217.443 251.206L220.678 254.434L223.905 257.668L227.14 260.896L230.367 264.124L230.424 264.18L230.058 264.412L229.601 263.955L226.366 260.72L223.139 257.492L219.904 254.258L216.677 251.023L213.449 247.795L206.994 241.333L203.76 238.098L200.532 234.87L195.301 229.645L194.07 228.408L190.836 225.18L187.609 221.945L184.374 218.717L181.147 215.489L177.912 212.255L174.685 209.027L171.45 205.792L168.223 202.564L164.995 199.33L162.386 196.728L162.625 196.341Z" fill="#5DB77D"/>
<path d="M161.169 198.718C161.247 198.592 161.317 198.465 161.387 198.338L162.527 199.478L165.754 202.712L168.989 205.954L172.223 209.182L175.451 212.417L178.685 215.644L181.913 218.879L185.147 222.107L188.375 225.335L191.609 228.57L194.836 231.797L198.071 235.032L201.298 238.26L204.533 241.488L207.76 244.722L210.988 247.95L214.222 251.185L217.45 254.413L220.684 257.647L223.912 260.875L227.146 264.103L228.426 265.39L228.054 265.608L226.373 263.934L223.145 260.699L219.911 257.472L216.684 254.237L213.456 251.002L210.229 247.774L207.001 244.54L203.767 241.312L200.539 238.077L197.305 234.849L194.077 231.622L190.843 228.387L187.58 225.152L184.345 221.917L181.118 218.689L177.883 215.462L174.656 212.227L171.428 208.999L168.201 205.764L164.974 202.537L161.739 199.302L161.169 198.718Z" fill="#5DB77D"/>
<path d="M166.485 191.137L166.76 190.814L168.961 193.015L172.195 196.25L175.423 199.477L178.657 202.712L181.913 205.954L185.147 209.182L188.375 212.417L191.609 215.644L194.837 218.879L198.071 222.107L201.299 225.335L204.533 228.569L207.761 231.797L210.988 235.032L214.223 238.26L217.45 241.487L220.685 244.722L223.912 247.95L227.147 251.185L233.609 257.647L235.95 259.989L235.634 260.263L232.821 257.45L229.594 254.216L226.359 250.981L223.132 247.753L219.897 244.518L216.67 241.291L213.442 238.056L210.215 234.828L206.987 231.6L203.753 228.365L200.525 225.138L197.291 221.903L194.063 218.675L190.829 215.447L187.601 212.213L184.367 208.985L181.139 205.75L177.905 202.522L174.677 199.288L171.45 196.06L168.222 192.832L166.485 191.137Z" fill="#5DB77D"/>
<path d="M168.039 189.436L168.328 189.126L168.988 189.787L172.223 193.015L175.45 196.25L178.685 199.478L181.912 202.712L185.147 205.94L188.374 209.168L191.609 212.403L194.836 215.63L198.071 218.865L201.298 222.128L204.533 225.356L207.76 228.591L210.988 231.818L214.222 235.053L217.45 238.281L220.684 241.509L223.912 244.743L227.146 247.971L230.374 251.206L233.608 254.434L236.836 257.669L237.645 258.47L237.335 258.759L236.069 257.493L232.835 254.258L229.607 251.023L226.373 247.795L223.145 244.561L219.911 241.333L216.683 238.098L213.456 234.87L207.233 228.647L207.001 228.408L203.767 225.18L200.539 221.945L197.305 218.717L194.077 215.49L190.843 212.255L187.615 209.027L184.381 205.792L181.153 202.565L177.919 199.33L174.691 196.102L171.457 192.874L168.229 189.64L168.039 189.436Z" fill="#5DB77D"/>
<path d="M165.079 192.909C165.171 192.804 165.255 192.691 165.346 192.579L165.782 193.015L169.01 196.25L172.244 199.478L175.472 202.712L178.706 205.94L181.934 209.168L185.168 212.403L188.396 215.63L191.63 218.865L194.837 222.128L198.071 225.356L201.299 228.591L204.533 231.818L207.761 235.053L210.988 238.281L217.316 244.61L217.471 244.765L220.706 247.992L223.933 251.227L227.168 254.455L230.395 257.69L233.63 260.917L234.206 261.501L233.876 261.761L232.856 260.742L229.629 257.514L226.394 254.279L223.167 251.044L219.932 247.816L216.705 244.582L213.477 241.354L210.25 238.119L207.022 234.891L203.788 231.664L200.56 228.429L197.326 225.201L194.098 221.966L190.864 218.739L187.636 215.511L184.402 212.276L181.174 209.048L177.94 205.813L174.712 202.586L171.478 199.351L168.25 196.123L165.079 192.909Z" fill="#5DB77D"/>
<path d="M169.642 187.804L169.945 187.509L172.223 189.78L175.45 193.008L178.685 196.243L181.912 199.47L185.147 202.705L188.374 205.954L191.609 209.182L194.836 212.417L198.071 215.644L201.298 218.879L204.526 222.128L207.753 225.356L210.981 228.59L215.833 233.436L217.443 235.053L220.677 238.281L223.905 241.509L227.139 244.743L230.367 247.971L233.601 251.206L236.801 254.398L239.22 256.817L238.924 257.12L236.034 254.223L232.8 250.988L229.572 247.76L223.11 241.298L219.876 238.063L216.648 234.835L213.414 231.607L210.186 228.372L206.959 225.145L203.724 221.91L200.497 218.682L197.262 215.454L194.035 212.22L190.8 208.992L187.573 205.757L184.338 202.529L181.111 199.295L177.876 196.067L174.649 192.839L171.421 189.604L169.642 187.804Z" fill="#5DB77D"/>
<path d="M198.071 176.862L201.299 180.097L204.533 183.325L207.761 186.559L210.988 189.794L214.223 193.022L217.45 196.257L220.685 199.484L223.912 202.719L227.147 205.947L230.374 209.175L233.609 212.41L236.801 215.63L240.036 218.865L243.298 222.128L246.533 225.356L249.76 228.59L252.144 230.967L252.06 231.481L248.994 228.415L245.759 225.187L242.532 221.952L239.297 218.724L236.07 215.497L232.835 212.262L229.608 209.034L226.373 205.799L223.146 202.572L219.911 199.337L216.684 196.109L213.449 192.881L210.222 189.646L206.994 186.419L203.76 183.184L200.533 179.956L197.298 176.728L195.315 174.738L195.828 174.654L198.071 176.862Z" fill="#5DB77D"/>
<path d="M201.299 176.862L204.526 180.097L207.754 183.325L210.981 186.56L214.216 189.794L217.443 193.022L220.678 196.257L223.905 199.485L227.14 202.719L230.374 205.954L233.609 209.182L236.836 212.417L240.071 215.644L243.298 218.879L246.533 222.107L249.76 225.335L252.524 228.098L252.46 228.633L252.221 228.394L248.994 225.166L245.759 221.931L242.532 218.703L239.297 215.476L236.07 212.241L232.835 209.013L229.608 205.778L226.373 202.551L223.146 199.316L219.925 196.109L216.698 192.881L213.47 189.647L210.243 186.419L207.015 183.184L203.753 179.935L200.525 176.707L198.128 174.31L198.662 174.246L201.299 176.862Z" fill="#5DB77D"/>
<path d="M204.533 176.862L207.761 180.097L210.988 183.325L214.223 186.552L217.45 189.787L220.685 193.015L223.912 196.25L227.147 199.477L230.374 202.712L233.609 205.94L236.801 209.168L240.035 212.403L243.263 215.63L246.497 218.865L249.76 222.128L252.734 225.103V225.679L252.242 225.187L249.015 221.952L245.78 218.724L242.553 215.497L239.318 212.262L236.091 209.034L232.856 205.799L229.629 202.572L226.394 199.337L223.167 196.109L219.932 192.881L216.705 189.646L213.47 186.419L210.243 183.184L207.015 179.956L203.781 176.728L201.137 174.084H201.713L204.533 176.862Z" fill="#5DB77D"/>
<path d="M207.761 176.862L210.988 180.097L214.223 183.325L217.45 186.559L220.685 189.794L223.912 193.022L227.147 196.257L230.374 199.484L233.609 202.719L236.801 205.954L240.035 209.182L243.263 212.417L246.497 215.644L249.725 218.879L252.734 221.889C252.734 222.086 252.734 222.29 252.734 222.487L252.179 221.931L248.951 218.703L245.717 215.476L242.489 212.241L239.255 209.013L236.027 205.778L232.793 202.551L229.565 199.316L226.331 196.088L223.103 192.86L219.869 189.625L216.641 186.398L213.414 183.163L210.222 179.935L206.994 176.707L204.287 174H204.892L207.761 176.862Z" fill="#5DB77D"/>
<path d="M214.222 176.862L217.45 180.097L220.684 183.324L223.912 186.559L227.146 189.794L230.374 193.022L233.608 196.257L236.801 199.477L240.035 202.712L243.298 205.954L246.532 209.182L249.76 212.416L252.087 214.737C252.122 214.976 252.165 215.215 252.2 215.44L248.993 212.227L245.759 208.999L242.531 205.764L239.297 202.536L236.069 199.301L232.835 196.074L229.607 192.846L226.373 189.611L223.145 186.383L219.911 183.149L216.683 179.921L213.456 176.693L211.347 174.583L212.05 174.703L214.222 176.862Z" fill="#5DB77D"/>
<path d="M213.449 270.383L210.222 267.148L206.994 263.92L203.76 260.685L200.532 257.457L197.298 254.223L194.07 250.988L190.836 247.76L187.608 244.525L184.374 241.298L181.146 238.063L177.912 234.835L174.684 231.607L171.457 228.373L168.229 225.145L165.002 221.91L161.767 218.682L158.54 215.454L155.826 212.74L155.938 212.283L156.086 212.424L159.313 215.651L162.548 218.886L165.782 222.128L169.01 225.356L172.244 228.591L175.472 231.818L178.706 235.053L181.934 238.281L188.262 244.61L188.417 244.764L191.652 247.992L194.879 251.227L198.114 254.455L201.341 257.69L204.576 260.917L207.803 264.145L211.03 267.38L214.265 270.608L214.553 270.896L214.061 271.001L213.492 270.439L213.449 270.383Z" fill="#5DB77D"/>
<path d="M213.456 267.134L210.229 263.906L207.001 260.671L203.767 257.443L200.539 254.209L197.305 250.974L194.077 247.746L190.843 244.511L187.615 241.283L184.381 238.049L181.153 234.821L177.919 231.593L174.691 228.358L171.457 225.131L168.229 221.896L165.002 218.668L161.767 215.44L158.54 212.206L156.43 210.096C156.472 209.941 156.508 209.786 156.557 209.625L159.278 212.353L162.506 215.581L165.733 218.816L168.989 222.128L172.223 225.356L175.451 228.59L178.685 231.818L181.913 235.053L185.147 238.281L188.375 241.508L191.609 244.743L194.837 247.971L198.071 251.206L204.533 257.668L207.761 260.896L210.988 264.124L217.112 270.193L216.641 270.319L213.456 267.134Z" fill="#5DB77D"/>
<path d="M216.684 267.134L213.456 263.906L210.229 260.671L207.001 257.443L203.767 254.209L200.539 250.974L197.305 247.746L194.077 244.511L190.843 241.284L187.615 238.049L184.381 234.821L179.157 229.596L177.919 228.359L174.691 225.131L171.464 221.896L168.237 218.668L165.009 215.44L161.775 212.206L158.547 208.978L157.211 207.642C157.26 207.487 157.302 207.339 157.359 207.192L159.314 209.147L162.548 212.381L165.783 215.63L169.01 218.865L172.245 222.093L175.472 225.321L178.707 228.555L181.934 231.783L185.168 235.018L188.396 238.246L191.63 241.473L194.858 244.708L198.092 247.936L201.32 251.171L204.554 254.399L207.782 257.633L211.009 260.861L214.244 264.089L217.471 267.324L219.581 269.433L219.131 269.581L216.684 267.134Z" fill="#5DB77D"/>
<path d="M219.925 176.715L220.853 177.045L223.898 180.097L227.132 183.325L230.36 186.553L233.594 189.787L236.801 193.015L240.035 196.25L243.263 199.478L246.497 202.712L249.675 205.891C249.795 206.2 249.9 206.51 250.013 206.826L248.958 205.764L245.724 202.537L242.496 199.302L239.262 196.074L236.034 192.846L232.8 189.612L229.572 186.384L226.338 183.149L223.11 179.921L219.925 176.715Z" fill="#5DB77D"/>
<path d="M223.145 263.92L219.911 260.685L216.683 257.457L213.456 254.223L210.228 250.988L207.001 247.76L203.766 244.525L200.539 241.298L197.304 238.063L194.077 234.835L190.842 231.607L187.615 228.372L184.38 225.145L181.153 221.91L177.918 218.682L174.691 215.454L171.457 212.22L168.229 208.992L165.002 205.757L161.767 202.529L160.044 200.806C160.115 200.673 160.185 200.546 160.248 200.413L162.533 202.705L165.782 205.954L169.01 209.182L172.244 212.416L175.472 215.644L178.706 218.879L181.912 222.128L185.147 225.356L188.374 228.59L191.609 231.818L194.836 235.053L198.071 238.281L204.533 244.743L207.76 247.971L210.988 251.206L217.316 257.535L217.471 257.696L220.705 260.924L223.933 264.152L226.366 266.585L225.972 266.789L223.145 263.92Z" fill="#5DB77D"/>
<path d="M226.739 179.689L227.147 180.097L230.374 183.325L233.609 186.559L236.801 189.78L240.035 193.008L243.263 196.243L246.497 199.47L247.032 200.012C247.252 200.42 247.463 200.828 247.665 201.236L245.724 199.295L242.496 196.067L239.262 192.839L236.034 189.604L232.8 186.377L229.572 183.142L226.338 179.914L225.48 179.056C225.923 179.267 226.331 179.471 226.739 179.689Z" fill="#5DB77D"/>
<path d="M229.608 260.685L223.279 254.356L223.125 254.194L219.89 250.96L216.663 247.732L213.428 244.497L210.201 241.269L206.973 238.035L203.739 234.807L200.511 231.579L197.277 228.344L194.049 225.116L190.815 221.882L187.587 218.654L184.353 215.426L181.125 212.191L177.891 208.964L174.663 205.729L171.436 202.501L168.208 199.266L164.981 196.039L163.673 194.731L163.919 194.386L165.747 196.214L168.975 199.442L172.209 202.677L175.451 205.954L178.685 209.182L181.913 212.416L185.147 215.644L188.375 218.879L191.609 222.107L194.837 225.334L198.071 228.569L204.526 235.032L207.754 238.26L210.981 241.487L214.216 244.722L217.443 247.95L220.678 251.185L223.905 254.412L227.14 257.647L230.367 260.875L232.343 262.844L231.992 263.097L229.608 260.685Z" fill="#5DB77D"/>
<path d="M240.795 255.123L240.513 255.439L239.297 254.223L236.069 250.988L232.835 247.76L229.607 244.525L226.373 241.298L223.146 238.063L219.911 234.835L216.684 231.607L213.456 228.373L210.229 225.145L207.001 221.91L203.767 218.682L200.539 215.455L197.305 212.22L194.077 208.992L190.843 205.757L187.615 202.53L184.381 199.295L181.153 196.067L177.919 192.839L174.691 189.604L171.457 186.377L171.33 186.243L171.646 185.962L172.23 186.552L175.458 189.787L178.692 193.015L181.92 196.25L185.154 199.478L188.382 202.712L191.616 205.94L194.844 209.168L198.078 212.403L201.306 215.63L204.54 218.865L207.76 222.128L210.988 225.356L214.222 228.591L217.45 231.818L220.684 235.053L223.912 238.281L227.146 241.509L230.374 244.743L233.608 247.971L236.801 251.171L240.035 254.399L240.795 255.123Z" fill="#5DB77D"/>
<path d="M243.643 251.515L243.389 251.86L242.532 250.995L239.297 247.767L236.07 244.532L232.835 241.305L229.608 238.07L226.373 234.842L223.146 231.614L219.911 228.379L216.684 225.152L213.456 221.917L210.229 218.689L207.001 215.461L203.767 212.227L200.539 208.999L197.305 205.764L194.077 202.536L190.843 199.302L187.58 196.109L184.346 192.881L181.118 189.646L177.884 186.419L174.874 183.409L175.219 183.156L175.423 183.36L178.657 186.594L181.884 189.829L185.119 193.057L188.346 196.292L191.581 199.52L194.808 202.754L198.043 205.982L201.27 209.21L204.505 212.445L207.732 215.672L210.96 218.907L214.194 222.135L217.422 225.363L220.656 228.597L223.884 231.825L227.118 235.06L230.346 238.288L233.58 241.515L236.808 244.75L240.042 247.978L243.27 251.213L243.643 251.515Z" fill="#5DB77D"/>
<path d="M242.532 247.767L236.07 241.305L232.835 238.07L229.608 234.842L224.376 229.617L223.146 228.38L219.911 225.152L216.684 221.917L213.456 218.689L210.229 215.462L207.001 212.227L203.767 208.999L200.539 205.764L197.305 202.537L194.077 199.302L190.843 196.074L187.615 192.846L184.381 189.612L181.153 186.384L177.919 183.149L176.822 182.052L177.18 181.813L178.692 183.325L181.92 186.56L185.154 189.794L188.382 193.022L191.616 196.257L194.844 199.485L198.078 202.719L201.299 205.954L204.526 209.182L207.754 212.417L210.981 215.645L214.216 218.879L217.45 222.128L220.685 225.356L223.912 228.591L227.147 231.818L230.374 235.053L233.609 238.281L236.801 241.474L240.035 244.708L243.263 247.936L244.915 249.589L244.683 249.954L242.532 247.767Z" fill="#5DB77D"/>
<path d="M241.99 253.688L239.297 250.995L236.07 247.767L232.835 244.532L229.608 241.305L226.373 238.07L223.146 234.842L219.911 231.614L216.684 228.38L213.456 225.152L210.229 221.917L207.001 218.689L203.767 215.462L200.539 212.227L197.305 208.999L194.078 205.764L190.843 202.536L187.616 199.302L184.381 196.074L181.154 192.846L177.919 189.611L174.692 186.384L173.081 184.773L173.412 184.506L175.458 186.559L178.692 189.794L181.92 193.022L185.154 196.257L188.382 199.485L191.616 202.719L194.837 205.954L198.071 209.182L201.299 212.417L204.526 215.644L207.754 218.879L210.988 222.128L214.223 225.356L217.45 228.591L220.685 231.818L223.912 235.053L227.147 238.281L233.609 244.743L236.801 247.936L240.036 251.171L242.223 253.358L241.99 253.688Z" fill="#5DB77D"/>
<path d="M246.532 244.708L247.348 245.503L247.137 245.89L245.78 244.533L242.553 241.305L239.318 238.07L236.091 234.842L232.856 231.614L229.629 228.38L226.394 225.152L223.167 221.917L219.932 218.689L216.705 215.462L213.477 212.227L210.25 208.999L207.022 205.764L203.788 202.537L200.56 199.302L197.326 196.074L194.098 192.846L190.864 189.611L187.636 186.384L184.402 183.149L181.174 179.921L180.9 179.647L181.287 179.436L181.941 180.097L185.175 183.325L188.403 186.56L191.637 189.794L194.865 193.022L198.099 196.257L201.327 199.485L204.554 202.719L207.76 205.954L210.988 209.182L214.222 212.417L217.45 215.644L220.684 218.879L223.912 222.128L227.146 225.356L230.374 228.591L233.608 231.818L236.836 235.053L240.07 238.281L246.399 244.61L246.561 244.765L246.532 244.708Z" fill="#5DB77D"/>
<path d="M245.759 241.305L242.531 238.07L239.297 234.842L236.069 231.614L232.835 228.38L229.607 225.152L226.373 221.917L223.145 218.689L219.911 215.462L216.683 212.227L213.456 208.999L210.228 205.764L207.001 202.537L203.766 199.302L200.539 196.074L197.304 192.846L194.077 189.611L190.842 186.384L187.615 183.149L184.38 179.921L183.03 178.571L183.438 178.381L185.154 180.097L188.381 183.325L191.616 186.559L194.843 189.794L198.078 193.022L201.305 196.257L204.533 199.485L207.76 202.719L210.988 205.954L214.222 209.182L217.45 212.417L220.684 215.644L223.912 218.879L227.146 222.107L230.374 225.335L233.608 228.57L236.801 231.783L240.035 235.018L243.263 238.246L246.497 241.474L248.346 243.33L248.157 243.738L245.759 241.305Z" fill="#5DB77D"/>
<path d="M245.942 247.964L245.745 247.767L242.518 244.533L239.283 241.305L236.056 238.07L232.821 234.842L229.594 231.614L226.359 228.38L223.132 225.152L219.897 221.917L216.67 218.689L213.442 215.462L210.215 212.227L206.987 208.999L203.753 205.764L200.525 202.537L197.291 199.302L194.063 196.074L190.829 192.846L187.601 189.611L184.367 186.384L181.139 183.149L178.791 180.807L179.171 180.582L181.906 183.325L185.14 186.552L188.368 189.787L191.602 193.015L194.83 196.25L198.064 199.478L201.292 202.712L204.526 205.94L207.754 209.168L210.981 212.403L214.216 215.63L217.443 218.865L220.678 222.093L223.905 225.321L227.14 228.556L233.602 235.018L236.801 238.246L240.036 241.474L243.263 244.708L246.146 247.592C246.104 247.711 246.033 247.838 245.942 247.964Z" fill="#5DB77D"/>
<path d="M248.993 208.999L245.759 205.764L242.531 202.537L239.297 199.302L236.098 196.109L232.863 192.881L229.636 189.647L226.401 186.419L223.174 183.184L219.925 179.935L216.698 176.708L215.369 175.371L216.156 175.568L217.464 176.876L220.699 180.111L223.926 183.339L227.161 186.574L230.388 189.808L233.623 193.036L236.801 196.25L240.035 199.478L243.263 202.712L246.497 205.94L249.725 209.168L251.131 210.617C251.201 210.877 251.265 211.144 251.328 211.404L248.993 208.999Z" fill="#5DB77D"/>
<path d="M248.993 231.614L245.759 228.38L242.531 225.152L239.297 221.917L236.069 218.689L232.835 215.462L229.607 212.227L226.373 208.999L223.145 205.764L219.911 202.537L216.683 199.302L213.456 196.109L210.228 192.881L207.001 189.647L203.766 186.419L200.539 183.184L197.304 179.956L194.077 176.729L192.671 175.287L193.156 175.174L194.879 176.897L198.113 180.132L201.341 183.36L204.568 186.595L207.76 189.78L210.988 193.008L214.222 196.243L217.45 199.471L220.684 202.705L223.912 205.954L227.146 209.182L230.374 212.417L233.608 215.644L236.836 218.879L240.07 222.107L243.298 225.335L246.532 228.57L249.76 231.797L251.623 233.661C251.623 233.823 251.553 233.984 251.511 234.146L248.993 231.614Z" fill="#5DB77D"/>
<path d="M250.063 239.146L248.994 238.07L245.759 234.842L242.532 231.614L239.297 228.38L236.098 225.152L232.863 221.917L229.636 218.689L226.402 215.461L223.174 212.227L219.94 208.999L216.712 205.764L213.485 202.536L210.257 199.302L207.03 196.074L203.795 192.846L200.568 189.611L197.333 186.384L194.106 183.149L190.871 179.921L187.58 176.7L188.023 176.546L188.34 176.862L191.574 180.097L194.802 183.325L198.036 186.559L201.264 189.794L204.491 193.022L207.719 196.257L210.946 199.484L214.181 202.719L217.45 205.954L220.685 209.182L223.912 212.417L227.147 215.644L230.374 218.879L233.609 222.107L236.801 225.321L240.036 228.555L244.916 233.379L246.533 234.997L249.76 238.225L250.217 238.682L250.063 239.146Z" fill="#5DB77D"/>
<path d="M248.994 234.842L245.759 231.614L242.532 228.38L239.297 225.152L236.07 221.917L232.835 218.689L229.608 215.461L226.373 212.227L223.146 208.999L219.911 205.764L216.684 202.536L213.449 199.302L210.222 196.109L206.994 192.881L203.76 189.646L200.532 186.419L197.298 183.184L194.07 179.956L190.836 176.728L190.069 175.955L190.526 175.821L191.609 176.897L194.837 180.132L198.071 183.36L201.299 186.588L204.533 189.822L207.761 193.05L210.988 196.285L214.223 199.513L217.45 202.747L220.685 205.975L223.912 209.203L227.147 212.438L230.374 215.665L233.609 218.9L236.801 222.128L240.035 225.356L243.263 228.591L246.497 231.818L249.725 235.053L250.941 236.27C250.899 236.424 250.85 236.572 250.808 236.727L248.994 234.842Z" fill="#5DB77D"/>
<path d="M249.177 241.488L248.994 241.305L245.759 238.07L242.532 234.842L236.302 228.619L236.07 228.38L232.835 225.152L229.608 221.917L226.373 218.689L223.146 215.462L219.911 212.227L216.684 208.999L213.449 205.764L210.222 202.536L206.994 199.302L203.753 196.109L200.525 192.881L197.291 189.647L194.063 186.419L190.829 183.184L187.58 179.935L185.246 177.6L185.668 177.432L188.347 180.111L191.581 183.339L194.809 186.573L198.043 189.808L201.271 193.036L204.505 196.271L207.733 199.499L210.96 202.733L214.195 205.961L217.422 209.189L220.657 212.424L223.884 215.651L227.119 218.886L230.374 222.128L233.609 225.356L236.836 228.591L240.071 231.818L243.298 235.053L246.533 238.281L249.345 241.094L249.177 241.488Z" fill="#5DB77D"/>
<path d="M252.221 218.689L248.993 215.462L245.759 212.227L242.531 208.999L239.297 205.764L236.069 202.536L232.835 199.302L229.607 196.074L226.373 192.846L223.145 189.611L219.911 186.384L216.683 183.149L213.449 179.921L210.221 176.693L207.662 174.134L208.316 174.19L210.988 176.862L214.222 180.097L217.45 183.325L220.684 186.559L223.912 189.794L227.146 193.022L230.374 196.257L233.608 199.484L236.836 202.719L240.07 205.947L243.298 209.175L246.532 212.41L249.76 215.637L252.572 218.45C252.572 218.668 252.572 218.886 252.629 219.104L252.221 218.689Z" fill="#5DB77D"/>
<path d="M213 65.2499C213 65.8927 213.19 66.521 213.547 67.0554C213.905 67.5899 214.412 68.0064 215.006 68.2524C215.6 68.4984 216.253 68.5627 216.883 68.4373C217.514 68.3119 218.093 68.0024 218.547 67.5479C219.002 67.0934 219.311 66.5143 219.437 65.8839C219.562 65.2535 219.498 64.6 219.252 64.0062C219.006 63.4124 218.589 62.9048 218.055 62.5477C217.52 62.1906 216.892 62 216.249 62C215.388 62 214.561 62.3424 213.952 62.9519C213.342 63.5613 213 64.388 213 65.2499Z" stroke="#13141B" stroke-linecap="round" stroke-linejoin="round"/>
</svg>
