<svg width="624" height="583" viewBox="0 0 624 583" fill="none" xmlns="http://www.w3.org/2000/svg">
<path d="M564.01 175.495L556.886 182.64L549.761 189.786L542.622 196.917L535.498 204.048L528.359 211.179L521.234 218.309L514.095 225.455L506.971 232.586L499.831 239.731L492.722 246.862L485.582 253.993L478.458 261.139L471.334 268.269L464.194 275.415L457.07 282.546L449.946 289.677L442.821 296.822L442.202 297.442L443.264 297.679L444.517 296.438L451.642 289.293L458.781 282.147L465.905 275.016L473.045 267.871L480.169 260.74L487.308 253.594L494.433 246.449L501.572 239.318L508.696 232.172L515.821 225.042L522.96 217.896L530.084 210.75L537.224 203.62L544.348 196.474L551.487 189.343L558.612 182.212L565.751 175.067L571.725 169.088C571.636 168.733 571.548 168.379 571.474 168.025L571.179 168.32L564.01 175.495Z" fill="#5DB77D"/>
<path d="M572.61 174.033L571.135 175.51L563.995 182.641L556.871 189.786L549.747 196.917L542.607 204.063L535.498 211.179L528.359 218.324L521.234 225.47L514.095 232.601L506.971 239.746L499.831 246.877L492.722 254.008L485.597 261.153L478.473 268.284L464.209 282.561L457.085 289.692L449.946 296.822L448.161 298.609L449.282 298.801L458.781 289.293L465.905 282.147L473.045 275.016L480.169 267.871L487.308 260.74L494.433 253.609L501.572 246.464L508.696 239.333L515.821 232.187L522.96 225.056L530.084 217.926L537.224 210.78L544.348 203.649L551.487 196.504L558.612 189.373L565.736 182.242L572.816 175.141C572.742 174.772 572.669 174.417 572.61 174.033Z" fill="#5DB77D"/>
<path d="M573.465 180.308L571.149 182.64L564.01 189.786L556.886 196.917L549.761 204.062L542.622 211.193L535.498 218.309L528.359 225.455L521.234 232.586L514.095 239.731L506.97 246.862L499.831 253.993L492.722 261.139L485.582 268.269L478.458 275.415L464.194 289.677L457.07 296.822L454.415 299.465L455.624 299.583L458.796 296.424L465.92 289.278L473.059 282.132L480.184 275.002L487.323 267.856L494.447 260.725L501.572 253.609L508.696 246.464L515.821 239.333L522.96 232.187L530.084 225.056L537.224 217.911L544.348 210.795L551.487 203.664L558.612 196.518L565.751 189.387L572.875 182.242L573.613 181.504C573.539 181.12 573.509 180.706 573.465 180.308Z" fill="#5DB77D"/>
<path d="M573.952 186.966L571.149 189.771L564.01 196.902L556.886 204.048L549.761 211.179L542.622 218.324L535.498 225.455L528.359 232.586L521.234 239.731L514.095 246.862L506.97 254.008L499.831 261.153L492.722 268.269L478.458 282.546L471.334 289.677L464.194 296.822L461.067 299.952H462.351L473.03 289.263L480.154 282.118L487.293 274.987L494.418 267.841L501.557 260.711L508.682 253.58L515.806 246.434L522.945 239.303L530.07 232.158L537.209 225.027L544.333 217.896L551.472 210.75L558.597 203.62L565.736 196.474L572.86 189.343L573.996 188.206C573.967 187.823 573.967 187.394 573.952 186.966Z" fill="#5DB77D"/>
<path d="M574.026 194.038L571.149 196.902L564.01 204.048L556.886 211.179L549.761 218.309L542.622 225.455L535.498 232.586L528.359 239.731L521.234 246.862L514.095 253.993L506.971 261.139L499.831 268.269L492.722 275.415L478.458 289.677L471.334 296.822L468.133 300.026H469.475L473.03 296.483L480.154 289.337L487.294 282.192L494.418 275.061L501.557 267.915L508.682 260.784L515.806 253.654L522.945 246.508L530.07 239.377L537.209 232.232L544.333 225.101L551.472 217.955L558.597 210.81L565.721 203.679L572.846 196.533L573.981 195.396L574.026 194.038Z" fill="#5DB77D"/>
<path d="M573.613 201.568L571.149 204.048L564.01 211.179L556.886 218.324L549.761 225.47L542.622 232.601L535.498 239.731L528.359 246.862L521.234 253.993L514.095 261.139L506.971 268.269L492.722 282.546L485.597 289.677L478.473 296.822L475.685 299.613C476.157 299.613 476.644 299.613 477.16 299.494L487.352 289.293L494.477 282.147L501.601 275.016L508.726 267.871L515.85 260.74L522.989 253.594L530.114 246.449L537.253 239.318L544.348 232.202L551.487 225.071L558.612 217.94L565.751 210.795L572.875 203.664L573.524 203.014C573.539 202.527 573.568 202.055 573.613 201.568Z" fill="#5DB77D"/>
<path d="M564.261 146.706L564.01 146.942L556.886 154.088L549.761 161.219L542.622 168.364L535.498 175.495L528.359 182.641L521.234 189.786L514.095 196.917L506.971 204.063L499.831 211.193L492.722 218.324L485.582 225.47L478.458 232.601L471.334 239.746L464.194 246.877L457.07 254.008L449.946 261.139L442.821 268.269L428.557 282.546L421.418 289.677L420.858 290.238L421.772 290.651L423.129 289.293L430.254 282.147L437.378 275.016L444.517 267.871L451.642 260.74L458.796 253.609L465.92 246.464L473.059 239.333L480.184 232.187L487.323 225.056L494.447 217.926L501.572 210.795L508.696 203.664L515.821 196.518L522.96 189.388L530.084 182.257L537.224 175.111L544.348 167.98L551.487 160.835L558.612 153.704L564.689 147.621L564.261 146.706Z" fill="#5DB77D"/>
<path d="M566.474 151.74L564.084 154.117L556.96 161.248L549.835 168.394L542.696 175.525L535.498 182.626L528.359 189.771L521.234 196.902L514.095 204.048L506.971 211.179L499.831 218.309L492.722 225.455L485.582 232.586L478.458 239.731L471.334 246.862L464.194 254.008L457.07 261.153L449.946 268.269L442.821 275.415L428.558 289.677L425.858 292.378L426.802 292.762L430.254 289.293L437.378 282.147L444.517 275.016L451.642 267.871L458.781 260.74L465.876 253.609L473.015 246.464L480.14 239.333L487.279 232.187L494.403 225.056L501.542 217.911L508.667 210.765L515.791 203.634L522.93 196.489L530.055 189.358L537.194 182.212L544.318 175.067L551.458 167.936L558.582 160.79L565.721 153.66L566.769 152.611C566.636 152.331 566.474 152.021 566.474 151.74Z" fill="#5DB77D"/>
<path d="M568.642 157.912C568.539 157.572 568.421 157.247 568.317 156.922L564.01 161.219L556.886 168.364L549.761 175.495L542.622 182.641L535.498 189.771L528.359 196.902L521.234 204.048L514.095 211.179L506.971 218.324L499.831 225.47L492.722 232.586L485.597 239.731L478.473 246.862L471.348 253.993L464.209 261.139L457.085 268.269L442.821 282.546L435.682 289.677L431.065 294.312L432.053 294.637L437.378 289.293L444.517 282.147L451.642 275.016L458.781 267.871L465.905 260.74L473.045 253.594L480.169 246.449L487.308 239.318L494.433 232.172L501.572 225.042L508.696 217.911L515.821 210.765L522.96 203.634L530.084 196.489L537.224 189.358L544.348 182.227L551.487 175.082L558.612 167.951L565.736 160.805L568.642 157.912Z" fill="#5DB77D"/>
<path d="M564.01 225.455L556.886 232.586L549.761 239.731L542.622 246.862L535.498 253.993L528.359 261.139L521.234 268.269L506.97 282.546L499.831 289.677L492.84 296.689L494.669 296.173L501.528 289.293L508.652 282.147L515.776 275.016L522.916 267.871L530.04 260.74L537.179 253.594L544.304 246.449L551.443 239.318L558.567 232.172L565.707 225.042L570.132 220.613C570.309 220.007 570.5 219.402 570.648 218.782L564.01 225.455Z" fill="#5DB77D"/>
<path d="M556.665 132.902L549.761 139.811L542.622 146.957L535.498 154.088L528.359 161.219L521.234 168.364L514.095 175.495L506.97 182.641L499.831 189.786L492.722 196.902L485.582 204.048L478.458 211.179L471.334 218.309L464.194 225.455L457.07 232.586L449.946 239.731L442.821 246.862L435.682 253.993L428.557 261.139L421.418 268.269L414.294 275.415L407.169 282.546L407.066 282.649L407.863 283.151L408.866 282.162L415.99 275.031L423.129 267.886L430.254 260.755L437.378 253.609L444.517 246.464L451.642 239.333L458.796 232.202L465.92 225.071L473.059 217.926L480.184 210.78L487.323 203.649L494.447 196.504L501.572 189.388L508.696 182.257L515.821 175.111L522.96 167.98L530.084 160.835L537.224 153.704L544.348 146.573L551.487 139.427L557.21 133.699L556.665 132.902Z" fill="#5DB77D"/>
<path d="M559.865 138.143L559.379 137.316L556.886 139.811L549.761 146.942L542.622 154.088L535.498 161.219L528.359 168.364L521.234 175.495L514.095 182.626L506.97 189.771L499.831 196.902L492.722 204.048L485.582 211.179L478.458 218.324L471.334 225.47L464.194 232.601L457.07 239.746L449.946 246.862L442.821 254.008L435.682 261.153L428.557 268.284L414.294 282.561L411.477 285.38L412.317 285.853L415.99 282.177L423.129 275.046L430.254 267.9L437.378 260.77L444.488 253.609L451.612 246.464L458.752 239.333L465.876 232.187L473.015 225.056L480.14 217.926L487.279 210.78L494.403 203.649L501.542 196.504L508.667 189.373L515.791 182.242L522.93 175.096L530.055 167.966L537.194 160.82L544.318 153.689L551.458 146.558L558.582 139.413L559.865 138.143Z" fill="#5DB77D"/>
<path d="M548.08 121.401L547.46 120.693L542.622 125.535L535.498 132.681L528.359 139.811L521.234 146.942L514.095 154.088L506.97 161.219L499.831 168.364L492.722 175.495L485.582 182.626L478.458 189.771L471.334 196.902L464.194 204.048L457.07 211.179L449.946 218.309L442.821 225.455L435.682 232.586L428.557 239.731L421.418 246.862L414.294 254.008L407.169 261.139L400.03 268.269L394.868 273.437L395.576 274.042L401.727 267.886L408.866 260.755L416.02 253.609L423.159 246.464L430.283 239.333L437.408 232.187L444.547 225.056L451.671 217.926L458.796 210.795L465.92 203.664L473.059 196.518L480.184 189.388L487.323 182.242L494.447 175.096L501.572 167.98L508.696 160.835L515.821 153.704L522.96 146.573L530.084 139.428L537.224 132.297L544.348 125.166L548.08 121.401Z" fill="#5DB77D"/>
<path d="M544.068 116.957L542.593 118.434L535.498 125.535L528.359 132.681L521.234 139.811L514.095 146.942L506.97 154.088L499.831 161.219L492.722 168.364L485.582 175.495L478.458 182.641L471.334 189.786L464.194 196.917L457.07 204.063L449.946 211.179L442.821 218.324L435.682 225.47L428.557 232.601L421.418 239.746L414.294 246.877L407.169 253.993L400.03 261.139L392.906 268.269L391.151 270.026L391.814 270.676L394.602 267.886L401.727 260.755L408.866 253.609L415.99 246.464L423.129 239.333L430.254 232.187L437.378 225.056L444.517 217.926L451.642 210.78L458.781 203.649L465.905 196.504L473.045 189.373L480.169 182.242L487.308 175.096L494.433 167.966L501.557 160.82L508.682 153.689L515.806 146.558L522.945 139.413L530.07 132.282L537.209 125.136L544.333 118.005L544.717 117.622C544.495 117.415 544.348 117.193 544.068 116.957Z" fill="#5DB77D"/>
<path d="M551.281 125.328L550.705 124.59L549.761 125.535L542.622 132.681L535.498 139.811L528.359 146.957L521.234 154.103L514.095 161.233L506.971 168.379L499.831 175.51L492.722 182.641L485.597 189.786L478.473 196.917L471.348 204.063L464.209 211.193L457.085 218.324L449.946 225.455L442.821 232.586L435.682 239.731L428.557 246.862L421.418 253.993L414.294 261.139L407.169 268.269L398.762 276.67L399.499 277.261L401.727 275.031L408.866 267.886L415.99 260.755L423.1 253.609L430.224 246.464L437.349 239.333L444.488 232.187L451.612 225.056L458.752 217.911L465.876 210.795L473.015 203.664L480.14 196.518L487.279 189.388L494.403 182.257L501.542 175.111L508.667 167.98L515.791 160.835L522.93 153.704L530.055 146.573L537.194 139.428L544.318 132.297L551.281 125.328Z" fill="#5DB77D"/>
<path d="M541.162 114.034L540.498 113.399L535.498 118.404L528.359 125.535L521.234 132.681L514.095 139.811L506.971 146.957L499.831 154.103L492.722 161.219L485.597 168.364L478.473 175.495L471.348 182.626L464.209 189.771L457.085 196.902L449.946 204.048L442.821 211.179L435.682 218.309L428.558 225.455L421.418 232.586L414.294 239.731L407.169 246.862L400.03 253.993L392.906 261.139L387.581 266.454L388.23 267.133L394.602 260.755L401.727 253.624L408.866 246.478L415.99 239.348L423.129 232.202L430.254 225.071L437.378 217.926L444.488 210.795L451.612 203.664L458.752 196.518L465.876 189.388L473.015 182.242L480.14 175.096L487.279 167.966L494.403 160.82L501.542 153.689L508.667 146.558L515.791 139.413L522.93 132.282L530.055 125.136L537.194 118.006L541.162 114.034Z" fill="#5DB77D"/>
<path d="M528.359 111.273L521.234 118.404L514.095 125.535L506.971 132.681L499.831 139.811L492.722 146.957L485.582 154.103L478.458 161.233L471.334 168.379L464.194 175.51L457.07 182.655L449.946 189.771L442.821 196.902L435.682 204.048L428.557 211.179L421.418 218.309L414.294 225.455L407.169 232.586L400.03 239.731L392.906 246.862L385.767 253.993L380.958 258.821L381.533 259.559L387.433 253.653L394.573 246.508L401.697 239.377L408.836 232.231L415.961 225.101L423.1 217.955L430.224 210.809L437.349 203.679L444.488 196.533L451.612 189.402L458.752 182.257L465.876 175.111L473.015 167.98L480.14 160.835L487.279 153.704L494.403 146.573L501.542 139.427L508.667 132.297L515.791 125.151L522.93 118.02L530.055 110.889L533.595 107.346C533.359 107.139 533.108 106.962 532.857 106.77L528.359 111.273Z" fill="#5DB77D"/>
<path d="M516.071 287.713C517.045 287.211 518.004 286.68 518.948 286.133L522.93 282.162L530.055 275.031L537.194 267.886L544.318 260.755L551.458 253.609L558.582 246.464L560.146 244.899C560.677 243.954 561.208 242.979 561.724 241.946L556.886 246.788L549.761 253.919L542.622 261.065L535.498 268.269L528.359 275.415L521.234 282.546L516.071 287.713Z" fill="#5DB77D"/>
<path d="M503.194 293.471C503.932 293.205 504.669 292.895 505.363 292.615L508.667 289.308L515.791 282.162L522.93 275.031L530.055 267.886L537.194 260.755L544.348 253.609L551.487 246.464L558.612 239.333L565.736 232.187L566.621 231.301C566.901 230.578 567.211 229.825 567.477 229.131L564.025 232.571L556.901 239.717L549.776 246.847L542.637 253.993L535.498 261.139L528.359 268.269L521.234 275.415L506.97 289.677L503.194 293.471Z" fill="#5DB77D"/>
<path d="M499.831 96.9969L492.722 104.128L485.582 111.273L478.458 118.404L471.334 125.535L464.194 132.681L457.07 139.811L449.946 146.942L442.821 154.088L435.682 161.219L428.557 168.364L421.418 175.495L414.294 182.641L407.169 189.771L400.03 196.902L392.906 204.048L385.767 211.179L378.642 218.324L371.503 225.47L365.308 231.67C365.441 231.981 365.559 232.305 365.677 232.615L366.075 232.217L373.199 225.086L380.338 217.955L387.463 210.81L394.602 203.679L401.727 196.533L408.866 189.402L415.99 182.271L423.129 175.126L430.254 167.995L437.378 160.849L444.517 153.719L451.642 146.588L458.781 139.442L465.905 132.311L473.045 125.166L480.169 118.035L487.308 110.904L494.433 103.759L501.572 96.6278L506.705 91.4901L505.761 91.1062L499.831 96.9969Z" fill="#5DB77D"/>
<path d="M485.568 89.8512L478.443 96.9968L471.319 104.128L464.18 111.273L457.055 118.404L449.945 125.535L442.821 132.68L435.682 139.811L428.557 146.957L421.418 154.102L414.294 161.233L407.169 168.364L400.03 175.495L392.906 182.64L385.767 189.786L378.642 196.917L371.503 204.062L364.393 211.179L360.263 215.224C360.337 215.593 360.425 215.947 360.499 216.302L366.045 210.75L373.17 203.62L380.309 196.474L387.433 189.343L394.573 182.212L401.697 175.067L408.836 167.936L415.961 160.79L423.1 153.66L430.224 146.529L437.349 139.383L444.488 132.252L451.612 125.107L458.751 117.976L465.876 110.845L473.015 103.7L480.139 96.5687L487.279 89.4231L490.435 86.2637L489.358 86.0275L485.568 89.8512Z" fill="#5DB77D"/>
<path d="M487.279 296.424L494.403 289.278L501.542 282.132L508.667 275.002L515.791 267.856L522.93 260.725L530.055 253.594L537.194 246.449L544.318 239.318L551.458 232.172L558.582 225.042L565.721 217.911L572.27 211.341C572.374 210.795 572.477 210.263 572.565 209.732L571.09 211.208L563.951 218.339L556.827 225.484L549.702 232.615L542.563 239.761L535.498 246.862L528.359 254.008L521.234 261.153L514.095 268.284L506.97 275.43L492.722 289.677L485.582 296.822L483.871 298.564L485.479 298.284L487.323 296.438L487.279 296.424Z" fill="#5DB77D"/>
<path d="M471.319 89.8513L464.18 96.9969L457.055 104.128L449.945 111.273L442.821 118.404L435.682 125.535L428.557 132.681L421.418 139.811L414.294 146.957L407.169 154.088L400.03 161.219L392.906 168.364L385.767 175.495L378.642 182.641L371.503 189.786L364.393 196.902L358.301 203C358.301 203.398 358.405 203.782 358.449 204.181L358.95 203.664L366.075 196.518L373.244 189.388L380.383 182.257L387.507 175.111L394.646 167.98L401.771 160.835L408.91 153.704L416.02 146.573L423.159 139.427L430.283 132.297L437.408 125.151L444.547 118.02L451.671 110.889L458.81 103.744L465.935 96.613L473.074 89.4674L478.325 84.2116C477.942 84.2116 477.558 84.0935 477.16 84.064L471.319 89.8513Z" fill="#5DB77D"/>
<path d="M457.055 89.8513L449.946 96.9969L442.821 104.128L435.682 111.273L428.557 118.404L421.418 125.535L414.294 132.681L407.169 139.811L400.03 146.942L392.906 154.088L385.767 161.219L378.642 168.364L371.503 175.495L364.393 182.641L357.785 189.269V190.613L358.995 189.402L366.119 182.271L373.244 175.126L380.383 167.995L387.507 160.849L394.646 153.719L401.771 146.588L408.91 139.442L416.034 132.311L423.1 125.166L430.224 118.035L437.349 110.904L444.488 103.759L451.612 96.6278L458.752 89.4822L464.652 83.5768H463.295L457.055 89.8513Z" fill="#5DB77D"/>
<path d="M442.792 89.8513L435.652 96.9968L428.528 104.128L421.389 111.273L414.264 118.404L407.169 125.535L400.03 132.68L392.906 139.811L385.767 146.942L378.642 154.088L371.503 161.219L364.393 168.364L359.29 173.472C359.201 174.004 359.083 174.535 359.009 175.067L366.09 167.98L373.214 160.835L380.353 153.704L387.478 146.573L394.617 139.427L401.741 132.297L408.88 125.151L416.005 118.02L423.144 110.889L430.269 103.744L437.393 96.613L444.532 89.4674L449.238 84.7578L447.63 85.0531L442.792 89.8513Z" fill="#5DB77D"/>
<path d="M444.488 289.293L451.612 282.147L458.752 275.016L465.876 267.871L473.015 260.74L480.14 253.609L487.279 246.464L494.403 239.333L501.572 232.202L508.696 225.071L515.821 217.94L522.96 210.795L530.084 203.664L537.224 196.518L544.348 189.388L551.487 182.242L558.612 175.096L565.751 167.966L570.323 163.374C570.235 163.034 570.132 162.695 570.028 162.355L564.04 168.349L556.915 175.48L549.791 182.611L542.652 189.757L535.498 196.902L528.359 204.048L521.234 211.179L514.095 218.309L506.97 225.455L499.831 232.586L492.722 239.731L485.582 246.862L478.458 254.008L471.334 261.153L464.194 268.284L457.07 275.43L442.806 289.691L436.493 296.01L437.511 296.306L444.488 289.293Z" fill="#5DB77D"/>
<path d="M440.269 86.559L438.543 86.9723L435.593 89.9251L428.469 97.0707L421.33 104.201L414.205 111.347L407.169 118.404L400.03 125.535L392.906 132.68L385.767 139.811L378.642 146.957L371.503 154.102L364.393 161.219L361.207 164.407C361.06 164.983 360.942 165.559 360.794 166.135L366.09 160.835L373.214 153.704L380.353 146.573L387.478 139.427L394.617 132.297L401.741 125.151L408.88 118.02L416.005 110.889L423.144 103.744L430.268 96.613L437.393 89.4674L440.269 86.559Z" fill="#5DB77D"/>
<path d="M430.151 89.556C429.472 89.7922 428.779 90.0285 428.115 90.2795L421.389 96.9969L414.264 104.128L407.169 111.273L400.03 118.404L392.906 125.535L385.767 132.681L378.642 139.811L371.503 146.942L364.497 153.97C364.246 154.649 364.01 155.328 363.774 156.007L366.075 153.704L373.244 146.573L380.383 139.427L387.507 132.297L394.646 125.151L401.771 118.02L408.91 110.889L416.034 103.744L423.174 96.613L430.151 89.556Z" fill="#5DB77D"/>
<path d="M423.1 282.162L430.224 275.031L437.349 267.886L444.488 260.755L451.612 253.624L458.751 246.478L465.876 239.348L473.015 232.202L480.14 225.071L487.279 217.926L494.403 210.78L501.528 203.649L508.652 196.504L515.776 189.373L522.916 182.227L530.04 175.082L537.179 167.951L544.304 160.805L551.443 153.674L558.567 146.544L562.343 142.749L561.901 141.893L556.871 146.927L549.747 154.073L542.607 161.204L535.498 168.364L528.359 175.495L521.234 182.641L514.095 189.786L506.97 196.917L499.831 204.063L492.722 211.179L485.597 218.309L478.473 225.455L471.348 232.586L464.209 239.731L457.085 246.862L449.946 253.993L442.821 261.139L435.682 268.27L428.557 275.415L416.02 287.905L416.89 288.348L423.1 282.162Z" fill="#5DB77D"/>
<path d="M415.135 96.1258L414.264 96.9969L407.169 104.128L400.03 111.273L392.906 118.404L385.767 125.535L378.642 132.68L371.503 139.811L370.338 140.978C369.866 141.873 369.408 142.774 368.966 143.679L373.199 139.427L380.338 132.297L387.463 125.151L394.602 118.02L401.727 110.889L408.866 103.744L415.99 96.613L417.863 94.738C416.919 95.1957 416.02 95.6386 415.135 96.1258Z" fill="#5DB77D"/>
<path d="M408.836 275.031L415.961 267.886L423.1 260.755L430.224 253.624L437.349 246.478L444.488 239.348L451.612 232.202L458.752 225.071L465.876 217.94L473.015 210.795L480.14 203.664L487.279 196.518L494.403 189.387L501.528 182.242L508.652 175.096L515.776 167.965L522.916 160.82L530.04 153.689L537.179 146.558L544.304 139.413L551.443 132.282L554.304 129.418L553.759 128.635L549.747 132.666L542.607 139.797L535.498 146.942L528.359 154.088L521.234 161.219L514.095 168.364L506.971 175.495L499.831 182.626L492.722 189.771L485.582 196.902L478.458 204.048L471.334 211.179L464.194 218.324L457.07 225.47L449.946 232.586L442.821 239.731L435.682 246.862L428.557 254.008L421.418 261.153L414.294 268.284L407.169 275.415L402.744 279.741L403.511 280.287L408.836 275.031Z" fill="#5DB77D"/>
<path d="M397.95 107.449C391.985 112.274 386.546 117.718 381.725 123.689L387.478 117.932L394.617 110.801L397.95 107.449Z" fill="#5DB77D"/>
<path d="M384.159 262.718L384.764 263.427L387.433 260.755L394.573 253.624L401.697 246.478L408.836 239.348L416.02 232.202L423.159 225.071L430.283 217.94L437.408 210.795L444.547 203.664L451.671 196.518L458.796 189.388L465.92 182.257L473.059 175.111L480.184 167.98L487.323 160.835L494.447 153.704L501.572 146.573L508.696 139.428L515.821 132.297L522.96 125.151L530.084 118.02L537.224 110.889L537.489 110.609L536.796 110.004L535.527 111.273L528.388 118.404L521.264 125.535L514.124 132.681L507 139.811L499.861 146.942L492.722 154.088L485.582 161.219L478.458 168.364L471.334 175.495L464.194 182.641L457.07 189.786L449.946 196.902L442.821 204.048L435.682 211.179L428.557 218.324L421.418 225.47L414.294 232.601L407.169 239.731L400.03 246.862L392.906 254.008L385.767 261.153L384.159 262.718Z" fill="#5DB77D"/>
<path d="M377.86 254.746C378.052 254.997 378.229 255.263 378.406 255.514L380.309 253.624L387.433 246.478L394.573 239.348L401.697 232.202L408.836 225.071L415.961 217.94L423.1 210.795L430.224 203.664L437.349 196.518L444.488 189.388L451.612 182.257L458.752 175.111L465.876 167.98L473.015 160.835L480.14 153.704L487.279 146.573L494.403 139.428L501.528 132.297L508.652 125.151L515.777 118.02L522.916 110.889L529.539 104.246L528.772 103.7L528.344 104.128L521.219 111.273L514.08 118.404L506.956 125.535L499.817 132.681L492.722 139.811L485.582 146.942L478.458 154.088L471.334 161.219L464.194 168.364L457.07 175.495L449.946 182.626L442.821 189.771L435.682 196.902L428.558 204.048L421.418 211.179L414.294 218.324L407.169 225.455L400.03 232.586L392.906 239.731L385.767 246.862L378.642 254.008L377.86 254.746Z" fill="#5DB77D"/>
<path d="M369.748 241.459C369.895 241.754 370.028 242.049 370.19 242.33L373.14 239.377L380.279 232.232L387.404 225.101L394.543 217.97L401.667 210.824L408.807 203.693L415.931 196.548L423.07 189.417L430.195 182.286L437.319 175.141L444.488 167.98L451.612 160.835L458.751 153.704L465.876 146.573L473.015 139.427L480.14 132.297L487.279 125.151L494.403 118.02L501.528 110.889L508.652 103.744L515.776 96.613L516.381 96.0077L515.511 95.5648L514.036 97.0412L506.911 104.172L499.772 111.318L492.722 118.404L485.582 125.535L478.458 132.681L471.334 139.811L464.194 146.957L457.07 154.103L449.945 161.219L442.821 168.364L435.682 175.495L428.557 182.641L421.418 189.786L414.294 196.917L407.169 204.048L400.03 211.179L392.906 218.324L385.767 225.47L378.642 232.601L371.503 239.746L369.748 241.459Z" fill="#5DB77D"/>
<path d="M373.244 232.202L380.383 225.071L387.507 217.926L394.646 210.78L401.771 203.649L408.91 196.504L416.02 189.388L423.159 182.242L430.283 175.096L437.408 167.966L444.547 160.82L451.671 153.689L458.796 146.573L465.92 139.428L473.059 132.297L480.184 125.151L487.323 118.02L494.447 110.889L501.587 103.744L508.711 96.6131L511.661 93.6603L510.761 93.2469L507 97.0117L499.861 104.142L492.722 111.273L485.597 118.404L478.473 125.535L471.348 132.681L464.209 139.811L457.085 146.942L449.946 154.088L442.821 161.219L435.682 168.364L428.557 175.495L421.418 182.626L414.294 189.771L407.169 196.902L400.03 204.048L392.906 211.179L385.767 218.309L378.642 225.455L371.503 232.586L367.343 236.661L367.756 237.561L373.244 232.202Z" fill="#5DB77D"/>
<path d="M380.309 239.348L387.433 232.202L394.573 225.071L401.697 217.94L408.836 210.795L415.961 203.664L423.1 196.518L430.224 189.387L437.349 182.242L444.488 175.096L451.612 167.965L458.751 160.82L465.876 153.689L473.015 146.558L480.14 139.413L487.279 132.282L494.403 125.136L501.542 118.005L508.667 110.875L515.791 103.729L520.969 98.5618L520.128 98.0746L514.095 104.113L506.97 111.258L499.831 118.389L492.722 125.535L485.582 132.68L478.458 139.811L471.334 146.942L464.194 154.088L457.07 161.219L449.946 168.364L442.821 175.495L435.682 182.626L428.557 189.771L421.418 196.902L414.294 204.048L407.169 211.179L400.03 218.309L392.906 225.455L385.767 232.586L378.642 239.731L372.299 246.065L372.772 246.906L373.199 246.478L380.309 239.348Z" fill="#5DB77D"/>
<path d="M374.984 250.494L375.486 251.306L380.309 246.478L387.433 239.348L394.573 232.202L401.697 225.071L408.836 217.926L416.02 210.795L423.159 203.664L430.283 196.518L437.408 189.388L444.547 182.257L451.671 175.111L458.796 167.98L465.92 160.835L473.059 153.704L480.184 146.573L487.323 139.428L494.447 132.297L501.572 125.166L508.696 118.035L515.821 110.904L522.96 103.759L525.379 101.337L524.582 100.821L521.264 104.142L514.124 111.288L507 118.419L499.861 125.55L492.722 132.681L485.597 139.811L478.473 146.957L471.348 154.103L464.209 161.233L457.085 168.379L449.946 175.495L442.821 182.641L435.682 189.786L428.558 196.917L421.418 204.063L414.294 211.193L407.169 218.309L400.03 225.455L392.906 232.586L385.767 239.731L378.642 246.862L374.984 250.494Z" fill="#5DB77D"/>
<path d="M358.154 181.696C358.154 182.168 358.154 182.641 358.051 183.172L358.906 182.301L366.031 175.155L373.244 167.98L380.383 160.835L387.507 153.704L394.646 146.573L401.771 139.428L408.91 132.297L416.02 125.166L423.159 118.035L430.283 110.904L437.408 103.759L444.547 96.6278L451.671 89.4822L457.291 83.8721L455.816 83.9754L449.916 89.8809L442.792 97.0264L435.652 104.157L428.528 111.303L421.389 118.434L414.264 125.564L407.169 132.681L400.03 139.811L392.906 146.957L385.767 154.103L378.642 161.233L371.503 168.379L364.393 175.495L358.154 181.696Z" fill="#5DB77D"/>
<path d="M357.785 196.326V197.611L358.862 196.518L365.986 189.388L373.111 182.242L380.25 175.096L387.374 167.966L394.514 160.82L401.638 153.689L408.777 146.558L415.902 139.413L423.041 132.282L430.165 125.136L437.29 118.006L444.429 110.875L451.553 103.729L458.692 96.5983L465.817 89.4527L471.643 83.6211H470.375L464.121 89.8809L456.996 97.0265L449.946 104.128L442.821 111.273L435.682 118.404L428.557 125.535L421.418 132.681L414.294 139.811L407.169 146.942L400.03 154.088L392.906 161.219L385.767 168.364L378.642 175.495L371.503 182.626L364.393 189.771L357.785 196.326Z" fill="#5DB77D"/>
<path d="M359.098 209.318C359.098 209.702 359.231 210.071 359.304 210.44L366.045 203.693L373.17 196.548L380.309 189.417L387.433 182.271L394.573 175.126L401.697 167.995L408.836 160.85L415.961 153.719L423.1 146.588L430.224 139.442L437.349 132.311L444.488 125.166L451.612 118.035L458.751 110.904L465.876 103.759L473.015 96.6278L480.14 89.4822L484.565 85.127L483.444 84.9203L478.502 89.8661L471.378 97.0117L464.239 104.143L457.114 111.288L449.945 118.404L442.821 125.535L435.682 132.681L428.557 139.811L421.418 146.942L414.294 154.088L407.169 161.219L400.03 168.364L392.906 175.495L385.767 182.626L378.642 189.771L371.503 196.902L364.393 204.048L359.098 209.318Z" fill="#5DB77D"/>
<path d="M363.7 227.419L366.045 225.071L373.17 217.926L380.309 210.78L387.433 203.649L394.573 196.504L401.697 189.373L408.836 182.227L415.961 175.082L423.1 167.98L430.224 160.835L437.349 153.704L444.488 146.573L451.612 139.427L458.751 132.297L465.876 125.166L473.015 118.035L480.14 110.904L487.279 103.759L494.403 96.6278L501.498 89.5265L500.51 89.2017L499.831 89.866L492.722 96.9968L485.582 104.128L478.458 111.273L471.334 118.404L464.194 125.535L457.07 132.68L449.946 139.811L442.821 146.957L435.682 154.102L428.557 161.233L421.418 168.379L414.294 175.51L407.169 182.641L400.03 189.786L392.906 196.917L385.767 204.063L378.642 211.193L371.503 218.324L364.393 225.455L363.405 226.429C363.479 226.769 363.582 227.035 363.7 227.419Z" fill="#5DB77D"/>
<path d="M366.045 217.94L373.244 210.795L380.383 203.664L387.507 196.518L394.646 189.388L401.771 182.257L408.91 175.111L416.02 167.98L423.159 160.835L430.283 153.704L437.408 146.573L444.547 139.428L451.671 132.297L458.796 125.166L465.92 118.035L473.059 110.904L480.184 103.759L487.323 96.6278L494.447 89.4822L496.129 87.7992L495.111 87.5187L492.751 89.8661L485.627 97.0117L478.502 104.142L471.378 111.288L464.239 118.419L457.114 125.55L449.946 132.681L442.821 139.811L435.682 146.942L428.557 154.088L421.418 161.219L414.294 168.364L407.169 175.495L400.03 182.626L392.906 189.771L385.767 196.902L378.642 204.048L371.503 211.179L364.393 218.324L361.724 220.996C361.827 221.336 361.915 221.676 362.019 222.015L366.045 217.94Z" fill="#5DB77D"/>
<path d="M19.3378 148.551V196.769V266.69C19.8393 276.921 29.9728 281.025 36.1089 280.73C42.2451 280.435 47.9093 277.556 53.4849 274.588C100.214 249.49 142.621 214.84 191.342 194.555C194.613 193.14 197.974 191.942 201.402 190.967L201.859 250.022C201.755 252.102 202.149 254.178 203.009 256.075C205.96 262.792 214.131 265.125 220.843 263.457C227.554 261.788 233.233 257.197 238.971 253.122C276.053 226.4 323.328 216.892 366.798 227.374V82.0709C323.328 71.574 276.053 81.0965 238.971 107.819C233.233 111.938 227.539 116.544 220.843 118.153C214.146 119.762 205.989 117.474 203.009 110.771C198.85 101.441 206.594 91.1505 214.19 84.8612C221.787 78.5719 230.858 71.1016 230.165 60.767C229.619 52.278 221.978 45.9148 214.19 44.7042C206.402 43.4936 198.614 46.1806 191.283 49.3105C142.607 69.5957 100.155 104.187 53.4259 129.344C47.924 132.297 42.1861 135.249 36.0499 135.486C29.9138 135.722 23.2466 132.887 20.5473 126.923C16.1222 117.031 28.011 95.7125 48.7943 80.8012V131.721" stroke="#13141B" stroke-linecap="round" stroke-linejoin="round"/>
<path d="M19.6475 122.774L19.2935 247.438" stroke="#13141B" stroke-linecap="round" stroke-linejoin="round"/>
<path d="M201.549 106.121L201.343 190.967" stroke="#13141B" stroke-linecap="round" stroke-linejoin="round"/>
<path d="M230.18 60.767V113.96" stroke="#13141B" stroke-linecap="round" stroke-linejoin="round"/>
<path d="M129.212 194.034C141.621 170.146 136.609 142.938 118.019 133.265C99.4288 123.591 74.2995 135.114 61.8913 159.002C49.483 182.89 54.4944 210.097 73.0846 219.771C91.6748 229.445 116.804 217.922 129.212 194.034Z" fill="#5DB77D"/>
<path d="M107.838 152.865C117.853 158.076 120.703 172.872 113.861 186.045C107.018 199.218 93.2803 205.382 83.2654 200.171C73.2506 194.959 70.4 180.163 77.2426 166.99C84.0851 153.817 97.8229 147.653 107.838 152.865Z" stroke="#13141B"/>
<path d="M128.741 102.238L136.293 100.968L131.131 108.734L132.783 116.721L125.909 114.994L119.39 121.209L120.304 112.366L114.61 108.217L122.045 104.482L125.054 95.6976L128.741 102.238Z" fill="#5DB77D"/>
<path d="M157.003 116.559L164.541 115.274L159.393 123.055L161.045 131.042L154.171 129.314L147.651 135.53L148.551 126.687L142.872 122.538L150.306 118.803L153.315 110.018L157.003 116.559Z" fill="#5DB77D"/>
<path d="M167.845 143.266L175.382 141.996L170.234 149.762L171.886 157.764L165.012 156.022L158.478 162.237L159.393 153.394L153.699 149.245L161.148 145.51L164.142 136.74L167.845 143.266Z" fill="#5DB77D"/>
<path d="M161.222 181.961L168.774 180.677L163.611 188.457L165.278 196.445L158.39 194.717L151.87 200.933L152.784 192.089L147.091 187.941L154.525 184.205L157.534 175.421L161.222 181.961Z" fill="#5DB77D"/>
<path d="M307.25 102.238L314.803 100.968L309.64 108.734L311.292 116.721L304.418 114.994L297.899 121.209L298.798 112.366L293.12 108.217L300.554 104.482L303.563 95.6976L307.25 102.238Z" fill="#5DB77D"/>
<path d="M335.512 116.559L343.05 115.274L337.902 123.055L339.554 131.042L332.68 129.314L326.16 135.53L327.06 126.687L321.381 122.538L328.815 118.803L331.824 110.018L335.512 116.559Z" fill="#5DB77D"/>
<path d="M346.354 143.266L353.891 141.996L348.743 149.762L350.395 157.764L343.522 156.022L336.987 162.237L337.902 153.394L332.208 149.245L339.642 145.51L342.666 136.74L346.354 143.266Z" fill="#5DB77D"/>
<path d="M339.731 181.961L347.283 180.677L342.12 188.457L343.772 196.445L336.899 194.717L330.379 200.933L331.294 192.089L325.6 187.941L333.034 184.205L336.043 175.421L339.731 181.961Z" fill="white" stroke="#13141B" stroke-linecap="round" stroke-linejoin="round"/>
<path d="M307.728 194.041C320.137 170.153 315.125 142.945 296.535 133.272C277.945 123.598 252.815 135.121 240.407 159.009C227.999 182.897 233.01 210.104 251.601 219.778C270.191 229.451 295.32 217.929 307.728 194.041Z" fill="#5DB77D"/>
<path d="M286.551 152.49C296.73 157.787 299.625 172.823 292.673 186.206C285.721 199.59 271.762 205.855 261.583 200.559C251.404 195.262 248.51 180.226 255.461 166.843C262.413 153.459 276.373 147.194 286.551 152.49Z" stroke="#13141B"/>
<path d="M532.09 4.63575C532.09 5.40662 531.862 6.16018 531.434 6.80114C531.006 7.44209 530.398 7.94165 529.686 8.23665C528.975 8.53165 528.192 8.60884 527.437 8.45845C526.681 8.30806 525.987 7.93685 525.443 7.39176C524.898 6.84667 524.527 6.15219 524.377 5.39613C524.227 4.64007 524.304 3.8564 524.599 3.14421C524.893 2.43201 525.392 1.82329 526.033 1.39502C526.673 0.966748 527.426 0.738159 528.196 0.738159C529.229 0.738159 530.22 1.14879 530.95 1.87973C531.68 2.61067 532.09 3.60204 532.09 4.63575V4.63575Z" stroke="#13141B" stroke-linecap="round" stroke-linejoin="round"/>
<path d="M47.5847 354.326C47.5877 355.099 47.3614 355.854 46.9346 356.497C46.5079 357.141 45.8998 357.642 45.1877 357.939C44.4755 358.236 43.6913 358.315 42.9346 358.165C42.1778 358.015 41.4826 357.643 40.9371 357.097C40.3916 356.551 40.0205 355.855 39.8707 355.098C39.7209 354.341 39.7993 353.556 40.0958 352.843C40.3924 352.13 40.8938 351.522 41.5364 351.094C42.1791 350.667 42.934 350.441 43.7054 350.444C44.7331 350.448 45.7175 350.858 46.4442 351.585C47.1709 352.313 47.5809 353.298 47.5847 354.326Z" stroke="#13141B" stroke-linecap="round" stroke-linejoin="round"/>
<path d="M296.542 55.334C296.545 56.8764 296.09 58.385 295.236 59.6688C294.382 60.9527 293.167 61.9541 291.744 62.5463C290.321 63.1386 288.755 63.2951 287.243 62.996C285.731 62.6969 284.342 61.9556 283.252 60.866C282.161 59.7764 281.418 58.3875 281.116 56.875C280.814 55.3625 280.968 53.7944 281.557 52.3691C282.146 50.9439 283.144 49.7256 284.425 48.8684C285.706 48.0112 287.212 47.5536 288.753 47.5536C289.775 47.5517 290.788 47.7515 291.733 48.1416C292.678 48.5317 293.536 49.1045 294.26 49.8272C294.983 50.5499 295.557 51.4082 295.948 52.3532C296.34 53.2981 296.542 54.311 296.542 55.334V55.334Z" stroke="#13141B" stroke-linecap="round" stroke-linejoin="round"/>
<path d="M203.614 298.801C203.617 300.344 203.163 301.853 202.308 303.137C201.453 304.421 200.237 305.422 198.813 306.014C197.39 306.606 195.822 306.762 194.31 306.461C192.798 306.161 191.409 305.418 190.319 304.327C189.229 303.236 188.487 301.846 188.187 300.332C187.887 298.819 188.042 297.25 188.634 295.825C189.225 294.4 190.225 293.183 191.508 292.328C192.791 291.472 194.299 291.017 195.841 291.02C197.902 291.02 199.88 291.84 201.337 293.299C202.795 294.758 203.614 296.737 203.614 298.801V298.801Z" stroke="#13141B" stroke-linecap="round" stroke-linejoin="round"/>
<path d="M613.394 197.124C613.409 197.94 613.181 198.742 612.739 199.429C612.297 200.115 611.661 200.654 610.912 200.978C610.164 201.302 609.335 201.396 608.533 201.248C607.731 201.1 606.991 200.716 606.407 200.146C605.823 199.576 605.421 198.845 605.253 198.046C605.085 197.247 605.157 196.416 605.462 195.659C605.767 194.902 606.289 194.252 606.964 193.792C607.638 193.333 608.434 193.084 609.25 193.078C610.335 193.067 611.38 193.486 612.157 194.244C612.934 195.002 613.379 196.038 613.394 197.124V197.124Z" stroke="#13141B" stroke-linecap="round" stroke-linejoin="round"/>
<path d="M0 580.785H624" stroke="#13141B" stroke-width="3" stroke-miterlimit="10"/>
<path d="M555.322 516.401C555.322 516.401 569.719 532.759 569.512 539.551L560.809 555.923C559.796 557.685 559.23 559.668 559.163 561.7C559.096 563.731 559.53 565.748 560.426 567.572L606.3 547.818L579.454 502.464L555.322 516.401Z" fill="#13141B"/>
<path d="M547.755 306.758C544.805 311.468 557.181 425.679 557.181 425.679L597.007 511.308L553.154 533.261L508.903 437.519L514.847 306.758H547.755Z" fill="white" stroke="#13141B" stroke-linecap="round" stroke-linejoin="round"/>
<path d="M508.328 530.397C508.328 530.397 515.29 551.066 512.472 557.237L498.12 568.975C496.507 570.205 495.222 571.815 494.378 573.661C493.534 575.508 493.158 577.534 493.282 579.56L543.197 579.043L533.728 528.847L508.328 530.397Z" fill="#13141B"/>
<path d="M484.624 307.496L474.107 387.338C469.835 424.655 473.156 462.451 483.871 498.449L497.589 544.629H547.814L522.812 427.997L541.044 307.437L484.624 307.496Z" fill="white" stroke="#13141B" stroke-linecap="round" stroke-linejoin="round"/>
<path d="M489.816 209.924L483.798 177.34L497.339 164.54L515.57 208.034L489.816 209.924Z" fill="white" stroke="#13141B" stroke-linecap="round" stroke-linejoin="round"/>
<path d="M486.541 187.97L493.503 180.559L485.228 181.194L486.541 187.97Z" fill="#13141B" stroke="#13141B" stroke-linecap="round" stroke-linejoin="round"/>
<path d="M465.492 151.607C463.442 158.384 459.592 177.237 479.107 181.814C490.509 184.486 499.758 178.211 506.882 165.042C514.257 151.342 504.994 134.039 492.309 130.023C479.623 126.007 470.08 136.504 465.492 151.607Z" fill="white" stroke="#13141B" stroke-linecap="round" stroke-linejoin="round"/>
<path d="M506.882 165.028C499.758 178.197 490.509 184.471 479.107 181.799C460.89 177.532 463.029 160.835 465.065 153.128C473.915 154.457 489.005 164.673 489.005 164.673C499.094 172.439 504.581 153.999 495.082 150.766C485.582 147.533 479.697 139.147 477.381 132.444C479.48 130.828 481.946 129.76 484.56 129.334C487.173 128.909 489.851 129.141 492.353 130.008C504.994 134.024 514.287 151.342 506.882 165.028Z" fill="#13141B" stroke="#13141B" stroke-linecap="round" stroke-linejoin="round"/>
<path d="M469.608 162.075C470.785 162.634 472.119 162.773 473.386 162.466C474.654 162.16 475.777 161.428 476.57 160.392" stroke="#F0EFE6" stroke-linecap="round" stroke-linejoin="round"/>
<path d="M489.005 164.688C491.135 165.485 493.482 165.485 495.613 164.688C500.185 163.02 502.708 158.443 501.247 154.472C500.259 151.77 497.914 150.707 495.082 150.825" fill="white"/>
<path d="M489.005 164.688C491.135 165.485 493.482 165.485 495.613 164.688C500.185 163.02 502.708 158.443 501.247 154.472C500.259 151.77 497.914 150.707 495.082 150.825" stroke="#13141B" stroke-linecap="round" stroke-linejoin="round"/>
<path d="M492.087 158.546C492.087 158.546 495.259 155.977 497.589 158.679L492.087 158.546Z" fill="white"/>
<path d="M492.087 158.546C492.087 158.546 495.259 155.977 497.589 158.679" stroke="#13141B" stroke-linecap="round" stroke-linejoin="round"/>
<path d="M448.589 260.223C444.396 262.076 439.893 263.123 435.313 263.309C396.962 264.387 393.761 203.029 367.786 172.35C364.202 168.113 360.971 164.408 358.847 164.629C355.263 165.013 354.82 161.676 359.157 159.949C359.157 159.949 353.463 161.913 352.814 160.097C352.033 157.897 359.437 155.328 359.437 155.328C359.437 155.328 352.062 158.281 352.519 155.476C352.977 152.67 359.688 151.165 359.688 151.165C359.688 151.165 346.324 152.774 345.705 150.249C345.188 148.182 355.75 147.444 365.072 147.976C370.57 148.277 375.832 150.313 380.102 153.793C386.104 158.993 391.409 164.948 395.885 171.509C395.885 171.509 418.424 205.613 435.859 235.11L490.789 206.321C494.091 204.552 497.827 203.755 501.563 204.024C505.299 204.293 508.882 205.617 511.897 207.842C516.647 211.459 520.393 216.877 517.93 224.525C517.012 227.194 515.527 229.633 513.576 231.672C511.625 233.711 509.256 235.302 506.631 236.336L448.589 260.223Z" fill="white" stroke="#13141B" stroke-linecap="round" stroke-linejoin="round"/>
<path d="M437.349 232.202L452.32 268.284C452.32 268.284 530.143 250.007 523.034 216.449C515.791 182.257 485.568 204.048 437.349 232.202Z" fill="#13141B" stroke="#13141B" stroke-linecap="round" stroke-linejoin="round"/>
<path d="M485.568 196.902L506.97 182.641C506.97 182.641 553.596 241.592 558.449 312.162H478.266L485.568 196.902Z" fill="#13141B" stroke="#13141B" stroke-linecap="round" stroke-linejoin="round"/>
<path d="M547.785 275.371C549.708 279.553 550.824 284.061 551.074 288.658C552.711 326.97 491.468 331.133 461.2 357.575C457.026 361.221 452.91 364.617 453.618 366.639C457.778 378.524 452.512 374.272 448.943 366.403C448.943 366.403 452.188 376.088 450.418 376.738C448.235 377.55 444.355 366.167 444.355 366.167C444.355 366.167 448.456 379.646 445.638 379.174C442.821 378.701 440.196 365.975 440.196 365.975C440.196 365.975 442.01 379.262 439.488 379.986C437.437 380.532 436.537 369.961 436.936 360.631C437.15 355.121 439.107 349.822 442.526 345.498C447.619 339.417 453.474 334.018 459.946 329.435C459.946 329.435 493.68 306.389 522.886 288.51L493.312 233.885C491.487 230.603 490.63 226.869 490.842 223.119C491.053 219.369 492.324 215.755 494.506 212.699C498.047 207.886 503.357 204.077 511.071 206.425C513.754 207.3 516.216 208.747 518.286 210.666C520.356 212.585 521.986 214.931 523.063 217.542L547.785 275.371Z" fill="white" stroke="#13141B" stroke-linecap="round" stroke-linejoin="round"/>
<path d="M547.844 275.282L512.576 291.995C512.576 291.995 473.015 217.926 499.831 204.033C527.385 189.771 547.844 275.282 547.844 275.282Z" fill="#13141B" stroke="#13141B" stroke-linecap="round" stroke-linejoin="round"/>
<path d="M140.349 406.87C135.398 405.97 130.749 403.85 126.819 400.704C122.89 397.557 119.804 393.481 117.84 388.844C115.913 384.032 115.205 378.818 115.779 373.667C116.353 368.515 118.191 363.585 121.13 359.317C122.648 357.057 124.574 355.099 126.808 353.544C128.047 352.702 129.426 352.087 130.88 351.728C132.463 351.33 134.12 351.33 135.703 351.728C137.311 352.15 138.784 352.979 139.981 354.135C141.335 355.417 142.179 357.148 142.355 359.007C142.474 360.732 142.106 362.456 141.293 363.982C140.586 365.346 139.67 366.591 138.579 367.673C136.384 369.763 133.616 371.151 130.629 371.659C127.799 372.166 124.894 372.07 122.103 371.379C119.307 370.711 116.67 369.497 114.344 367.806C113.163 366.915 112.08 365.9 111.114 364.779C110.201 363.689 109.382 362.524 108.665 361.295C106.005 356.488 104.576 351.096 104.506 345.601C104.365 340.413 104.86 335.226 105.981 330.159C106.943 325.204 108.32 320.34 110.096 315.616C111.95 310.89 114.184 306.323 116.778 301.96C127.103 284.598 143.019 270.484 161.457 263.575L161.87 264.357C154.056 269.884 146.873 276.256 140.453 283.358C138.977 285.174 137.355 286.916 135.924 288.791C135.216 289.721 134.449 290.607 133.771 291.567L131.75 294.431C130.378 296.335 129.168 298.328 127.885 300.336L126.145 303.377L125.274 304.854L124.493 306.419C120.128 314.608 116.761 323.292 114.462 332.285C113.2 336.647 112.487 341.15 112.338 345.69C112.156 349.958 113.022 354.206 114.861 358.062C115.332 358.955 115.874 359.81 116.483 360.616C117.061 361.365 117.725 362.043 118.46 362.639C120.012 363.896 121.804 364.826 123.726 365.37C127.575 366.507 132.001 366.093 134.641 363.687C135.296 363.077 135.867 362.382 136.337 361.62C136.717 361.017 136.93 360.324 136.957 359.612C136.92 359.024 136.674 358.469 136.263 358.047C135.725 357.488 135.056 357.071 134.316 356.836C133.548 356.596 132.73 356.555 131.942 356.718C131.021 356.904 130.142 357.254 129.345 357.752C127.535 358.931 125.955 360.432 124.684 362.181C121.893 365.812 120.041 370.077 119.292 374.597C118.544 379.117 118.921 383.752 120.392 388.091C122.016 392.529 124.7 396.502 128.209 399.664C131.719 402.827 135.947 405.082 140.526 406.235L140.349 406.87Z" fill="#13141B"/>
<path d="M138.845 259.086C142.769 259.086 146.678 259.352 150.646 259.559C154.614 259.766 158.463 260.061 162.372 260.43L164.895 260.666L165.175 263.826C165.352 265.907 165.662 268.004 166.001 270.085C166.352 272.158 166.416 274.269 166.193 276.36C165.95 278.485 165.52 280.585 164.909 282.634C164.278 284.837 163.35 286.943 162.151 288.894H161.266C160.071 286.943 159.147 284.836 158.522 282.634C157.911 280.585 157.482 278.485 157.239 276.36C157.016 274.269 157.08 272.158 157.431 270.085C157.77 268.004 158.08 265.907 158.257 263.826L161.06 267.221C157.328 266.158 153.596 265.007 149.879 263.796C146.162 262.585 142.504 261.345 138.742 259.957L138.845 259.086Z" fill="#13141B"/>
<path d="M340.026 41.781C341.314 43.6667 343.116 45.1425 345.218 46.0329C347.309 46.8787 349.558 47.2663 351.811 47.1697C354.054 47.1019 356.263 46.6006 358.316 45.6934C360.358 44.782 362.233 43.5344 363.862 42.0025C367.11 38.8351 369.785 35.1288 371.769 31.0479C372.3 30.0292 372.816 28.9957 373.317 27.9328C373.81 26.9915 374.206 26.0021 374.497 24.98C374.608 24.5912 374.663 24.1885 374.66 23.7842C374.66 23.4889 374.512 23.3856 374.66 23.548C374.807 23.7104 375.073 23.7547 374.925 23.7694C374.694 23.8558 374.48 23.9806 374.291 24.1385C373.679 24.7351 373.193 25.4494 372.864 26.2384C372.534 27.0274 372.367 27.8749 372.373 28.73C372.333 30.7565 372.72 32.7687 373.509 34.6354C374.979 38.632 377.441 42.1884 380.663 44.97C382.092 46.141 383.818 46.8922 385.649 47.1402C387.417 47.3345 389.203 47.0168 390.796 46.2249C394.086 44.6156 396.918 41.1462 399.499 37.4553C400.797 35.5803 402.036 33.6167 403.364 31.5498L404.382 30.0735L405.252 28.7152C405.827 27.7704 406.402 26.796 406.978 25.7625C408.143 23.7104 409.308 21.5697 410.695 19.4289C412.131 17.0617 413.893 14.9095 415.931 13.0363C417.229 11.8872 418.73 10.991 420.356 10.3936C420.828 10.246 421.3 10.1131 421.831 9.99499C422.275 9.90981 422.723 9.85066 423.174 9.81782L424.516 9.71448C425.01 9.72893 425.502 9.77331 425.991 9.84735C426.489 9.89204 426.983 9.98097 427.466 10.1131L428.941 10.6298C429.412 10.8185 429.862 11.056 430.283 11.3385C430.711 11.619 431.139 11.8847 431.522 12.1948C432.879 13.3379 433.996 14.7376 434.812 16.3138C436.101 18.8358 436.982 21.5467 437.422 24.3452C437.658 25.6149 437.835 26.8403 437.998 27.9771C438.086 28.5085 438.175 29.0548 438.234 29.3648C438.293 29.6749 438.455 30.2211 438.588 30.6197C438.989 32.0794 439.773 33.4048 440.859 34.4583C441.192 34.7634 441.608 34.9636 442.054 35.0341C442.553 35.1019 443.061 35.0409 443.529 34.8569C445.257 34.0609 446.815 32.9379 448.116 31.5498C448.972 30.7821 449.828 29.9259 450.816 29.0843L452.409 27.8147C452.955 27.4308 453.53 27.0765 454.09 26.6926C458.557 23.9467 463.703 22.5095 468.944 22.5441C473.981 22.5753 478.893 24.1182 483.045 26.9731L482.632 27.7556C478.468 26.2699 473.994 25.8671 469.632 26.5849C465.269 27.3028 461.16 29.1179 457.689 31.8599C457.291 32.1995 456.893 32.5242 456.524 32.8786L455.477 33.9858L453.117 36.5842C451.346 38.8116 449.162 40.6764 446.686 42.0763C445.029 42.9118 443.184 43.3034 441.331 43.2131C439.405 43.1084 437.544 42.4806 435.947 41.3972C433.302 39.5005 431.287 36.8514 430.165 33.7939C429.89 33.0991 429.653 32.3893 429.457 31.668C429.236 30.8264 429.133 30.1916 429 29.5715C428.779 28.3757 428.572 27.2684 428.336 26.2202C428.015 24.3388 427.424 22.5138 426.581 20.8019C426.312 20.2611 425.964 19.7635 425.548 19.3256C425.209 19.1484 425.062 18.927 424.619 18.9122C424.516 18.9122 424.427 18.9122 424.309 18.9122H423.882C423.744 18.9048 423.606 18.9048 423.469 18.9122C423.371 18.9329 423.271 18.9329 423.174 18.9122C422.569 19.1156 422.009 19.4312 421.522 19.8423C419.977 21.0926 418.621 22.5595 417.495 24.1976C416.197 25.9544 414.943 27.8885 413.66 29.8963C413.011 30.8855 412.332 31.9189 411.624 32.9672L410.488 34.5321L409.456 35.9199C408.084 37.7801 406.683 39.7436 405.178 41.6924C403.652 43.7201 401.98 45.6345 400.178 47.4207C398.221 49.384 395.928 50.9793 393.407 52.1303C390.673 53.3103 387.659 53.6842 384.719 53.2081C381.851 52.6928 379.177 51.401 376.99 49.4729C374.988 47.7093 373.276 45.6418 371.916 43.346C370.597 41.1487 369.514 38.8179 368.686 36.3923C367.765 33.8263 367.398 31.094 367.609 28.3757C367.705 26.8542 368.126 25.371 368.844 24.0263C369.561 22.6816 370.559 21.5065 371.769 20.5805C372.529 20.0205 373.416 19.6555 374.35 19.5175C374.63 19.5028 374.911 19.5028 375.191 19.5175C375.506 19.5343 375.818 19.5888 376.12 19.6799C376.785 19.8778 377.382 20.2559 377.846 20.7724C378.552 21.6352 378.915 22.729 378.863 23.8432C378.835 24.6266 378.696 25.402 378.45 26.1464C378.018 27.3837 377.464 28.5754 376.798 29.7044C376.208 30.7674 375.604 31.8156 374.984 32.849C372.55 37.1317 369.391 40.9583 365.647 44.158C363.716 45.7582 361.533 47.0255 359.186 47.9079C356.826 48.7696 354.322 49.1706 351.811 49.089C349.322 49.0111 346.878 48.4021 344.643 47.3026C342.411 46.1721 340.56 44.4115 339.318 42.2387L340.026 41.781Z" fill="#13141B"/>
<path d="M305.097 490.978L304.787 452.593C302.382 453.233 300.018 454.017 297.707 454.94C263.486 468.139 233.69 490.654 200.841 507.026C196.977 508.946 192.935 510.821 188.628 511.027C184.321 511.234 177.196 508.547 176.828 501.889V456.373C148.48 467.817 121.286 481.935 95.6119 498.537V404.05C125.395 384.777 157.219 368.863 190.501 356.6C197.006 354.208 205.945 352.762 209.411 358.785C212.877 364.809 207.479 371.511 202.611 376.147L185.427 392.387C180.25 397.303 174.6 404.405 177.742 410.842C179.645 414.724 184.321 416.599 188.628 416.407C192.935 416.216 196.977 414.341 200.841 412.421C233.69 396.048 263.486 373.519 297.707 360.321C302.869 358.342 308.342 356.541 313.814 357.368C319.287 358.195 324.641 362.299 325.039 367.835C325.511 374.553 319.139 379.439 313.77 383.529C308.401 387.618 302.988 394.306 305.908 400.389C308.003 404.744 313.726 406.294 318.446 405.202C323.166 404.109 327.149 401.127 331.175 398.44C344.279 389.799 358.975 383.866 374.402 380.991C389.828 378.116 405.673 378.357 421.005 381.698V476.185C405.672 472.842 389.826 472.603 374.399 475.481C358.972 478.358 344.276 484.295 331.175 492.942C327.149 495.629 323.151 498.626 318.446 499.689C313.741 500.752 308.003 499.246 305.908 494.876C305.322 493.663 305.044 492.325 305.097 490.978Z" stroke="#5DB77D" stroke-linecap="round" stroke-linejoin="round"/>
<path d="M176.842 406.59V489.325" stroke="#5DB77D" stroke-linecap="round" stroke-linejoin="round"/>
<path d="M304.905 397.348L304.772 452.564" stroke="#5DB77D" stroke-linecap="round" stroke-linejoin="round"/>
<path d="M209.839 366.049V407.786" stroke="#5DB77D" stroke-linecap="round" stroke-linejoin="round"/>
<path d="M325.113 369.444V402.397" stroke="#5DB77D" stroke-linecap="round" stroke-linejoin="round"/>
</svg>
