<svg width="624" height="564" viewBox="0 0 624 564" fill="none" xmlns="http://www.w3.org/2000/svg">
<g clip-path="url(#clip0_256_5407)">
<path d="M222.148 491.74L220.169 493.709L215.311 498.579L210.441 503.438L205.583 508.307L200.724 513.166L195.855 518.025L190.997 522.894L186.128 527.753L181.269 532.623L171.742 542.15L171.51 542.394L166.64 547.253L161.782 552.112L156.913 556.981L152.054 561.84L149.853 564.042H150.773L153.208 561.607L158.077 556.738L162.936 551.879L167.805 547.009L172.663 542.15L177.532 537.281L182.391 532.411L187.26 527.552L192.119 522.683L196.977 517.824L201.836 512.954L206.694 508.095L211.563 503.236L216.422 498.367L221.291 493.508L222.085 492.714C222.138 492.354 222.148 492.079 222.148 491.74Z" fill="#5DB77D"/>
<path d="M221.863 496.885L220.169 498.579L215.311 503.438L210.452 508.307L205.551 513.166L196.025 522.693L195.792 522.926L190.933 527.785L186.064 532.655L181.205 537.514L176.336 542.383L171.478 547.242L166.609 552.101L161.75 556.971L156.881 561.83L154.965 563.746L155.96 563.661L162.671 556.939L162.904 556.706L167.773 551.847L172.632 546.978L177.501 542.119L182.359 537.249L187.228 532.38L192.087 527.521L196.956 522.651L201.815 517.792L206.673 512.923L211.542 508.064L216.401 503.205L221.27 498.335L221.714 497.89C221.81 497.541 221.842 497.213 221.863 496.885Z" fill="#5DB77D"/>
<path d="M182.571 555.595C183.238 555.245 183.894 554.896 184.54 554.536L187.292 551.794L192.15 546.925L197.02 542.066L201.878 537.196L206.737 532.327L211.606 527.468L212.664 526.409C213.024 525.753 213.384 525.096 213.723 524.44L210.399 527.764L205.551 532.623L196.025 542.15L195.792 542.394L190.933 547.253L186.064 552.112L182.571 555.595Z" fill="#5DB77D"/>
<path d="M173.796 559.511L175.246 558.961L177.532 556.674L182.391 551.815L187.26 546.946L192.119 542.087L196.977 537.217L201.836 532.348L206.694 527.489L211.563 522.619L216.422 517.76L217.068 517.115C217.258 516.638 217.438 516.151 217.618 515.664L215.268 518.014L210.41 522.884L205.551 527.753L200.693 532.623L195.823 537.482L190.965 542.352L186.096 547.21L181.237 552.069L173.796 559.511Z" fill="#5DB77D"/>
<path d="M172.737 556.653L177.607 551.794L182.465 546.925L187.334 542.066L192.193 537.196L197.051 532.327L201.91 527.468L206.768 522.598L211.638 517.739L216.496 512.87L219.555 509.821C219.672 509.408 219.788 508.995 219.894 508.582L215.342 513.134L210.473 517.993L205.615 522.863L200.756 527.722L195.887 532.591L191.028 537.45L186.159 542.32L181.301 547.179L176.432 552.038L171.573 556.907L166.799 561.681L168.027 561.343L172.737 556.653Z" fill="#5DB77D"/>
<path d="M167.837 556.653L172.695 551.794L177.564 546.925L187.091 537.397L187.334 537.154L192.193 532.284L197.051 527.425L206.768 517.697L211.638 512.827L216.496 507.968L220.995 503.469C221.069 503.109 221.122 502.749 221.185 502.411L217.745 505.84L215.311 508.275L210.452 513.134L205.551 518.025L200.693 522.894L195.823 527.753L190.965 532.623L186.096 537.482L181.237 542.351L176.368 547.21L171.51 552.069L166.64 556.939L161.782 561.798L160.607 563.005L161.665 562.814L162.946 561.544L167.837 556.653Z" fill="#5DB77D"/>
<path d="M102.103 432.734C97.9779 436.06 94.22 439.819 90.8937 443.944L94.8843 439.953L99.7428 435.095L102.103 432.734Z" fill="#5DB77D"/>
<path d="M221.175 478.116L220.169 479.122L215.311 483.991L210.452 488.903L205.551 493.709L200.693 498.579L195.824 503.437L190.965 508.307L186.096 513.166L181.237 518.025L176.368 522.894L171.51 527.753L166.641 532.623L161.782 537.482L156.913 542.351L152.054 547.21L147.196 552.069L142.337 556.939L137.479 561.798L136.272 563.005L137.045 563.132L143.512 556.653L148.381 551.794L153.24 546.925L162.766 537.397L162.999 537.154L167.868 532.284L172.727 527.425L177.596 522.556L182.455 517.697L187.324 512.827L192.182 507.968L197.051 503.109L201.91 498.24L206.768 493.381L211.638 488.511L216.496 483.652L221.334 478.815C221.27 478.635 221.217 478.38 221.175 478.116Z" fill="#5DB77D"/>
<path d="M221.757 482.403L220.169 483.991L215.311 488.903L210.441 493.762L205.583 498.632L198.29 505.841L195.855 508.275L190.997 513.134L186.127 517.993L181.269 522.863L176.4 527.722L171.541 532.591L166.672 537.45L161.814 542.32L156.944 547.179L152.086 552.038L147.217 556.907L142.358 561.766L140.548 563.576L141.374 563.65L143.491 561.533L148.392 556.653L153.25 551.794L158.119 546.925L162.978 542.066L167.847 537.196L172.706 532.327L177.575 527.468L187.302 517.739L192.161 512.87L197.02 508.011L204.884 500.145L206.737 498.282L211.606 493.423L216.464 488.554L221.333 483.695L221.842 483.187C221.81 482.943 221.789 482.678 221.757 482.403Z" fill="#5DB77D"/>
<path d="M222.096 486.934L220.169 488.903L215.311 493.762L210.452 498.631L205.551 503.438L200.693 508.307L195.823 513.166L190.965 518.025L186.096 522.895L181.237 527.753L176.368 532.623L171.51 537.482L166.64 542.352L161.782 547.21L156.913 552.069L147.185 561.798L145.068 563.915H145.936L148.371 561.48L153.229 556.611L158.098 551.752L162.957 546.882L167.826 542.023L172.685 537.154L177.554 532.284L182.412 527.425L187.281 522.556L192.14 517.697L196.998 512.827L201.857 507.968L206.716 503.109L211.585 498.24L216.443 493.381L221.312 488.511L222.106 487.717L222.096 486.934Z" fill="#5DB77D"/>
<path d="M215.491 459.495L215.311 459.675L210.441 464.534L205.551 469.393L200.693 474.263L195.824 479.122L190.965 483.991L186.096 488.85L181.237 493.709L176.368 498.579L171.51 503.438L166.64 508.307L161.782 513.166L156.913 518.025L152.054 522.895L147.185 527.753L142.327 532.623L137.468 537.482L132.599 542.352L127.74 547.21L122.871 552.069L118.013 556.939L117.61 557.331L118.235 557.616L118.934 556.907L119.166 556.674L124.036 551.815L128.894 546.946L133.763 542.087L138.622 537.217L143.48 532.348L148.35 527.489L153.208 522.619L158.077 517.76L162.936 512.891L167.805 508.032L172.663 503.173L177.533 498.303L182.391 493.444L187.26 488.575L192.119 483.716L196.977 478.857L201.836 473.987L206.694 469.128L211.563 464.259L215.723 460.099C215.67 459.908 215.586 459.696 215.491 459.495Z" fill="#5DB77D"/>
<path d="M217.195 463.497C217.11 463.285 217.036 463.073 216.941 462.851L215.311 464.555L210.452 469.414L205.593 474.284L200.735 479.143L195.866 484.012L190.997 488.903L186.127 493.762L181.269 498.632L173.976 505.841L171.541 508.275L166.672 513.134L161.814 517.993L156.944 522.863L152.086 527.722L147.227 532.591L142.369 537.45L137.51 542.32L132.641 547.179L127.783 552.038L122.914 556.907L121.051 558.77L121.696 559.024L124.046 556.653L128.905 551.794L133.763 546.925L143.48 537.196L148.349 532.327L153.208 527.468L162.936 517.739L167.805 512.87L172.663 508.011L177.532 503.152L182.391 498.282L187.26 493.423L192.119 488.554L196.988 483.695L201.846 478.836L206.705 473.966L211.574 469.107L216.433 464.238L217.195 463.497Z" fill="#5DB77D"/>
<path d="M210.304 450.084L205.551 454.806L200.693 459.675L195.823 464.534L190.965 469.393L186.096 474.263L181.237 479.122L176.368 483.991L171.541 488.903L166.672 493.762L161.814 498.631L156.945 503.49L152.086 508.36L147.227 513.219L142.369 518.078L137.51 522.947L132.641 527.806L127.783 532.676L122.914 537.535L118.055 542.404L113.186 547.263L108.327 552.122L108.243 552.207L108.793 552.556L109.481 551.868L114.35 546.999L119.209 542.14L124.078 537.27L128.936 532.401L133.795 527.542L143.512 517.813L148.381 512.944L153.24 508.085L161.115 500.219L162.967 498.356L167.837 493.497L172.695 488.628L177.564 483.769L182.423 478.91L187.292 474.04L192.15 469.181L197.02 464.312L201.878 459.453L206.737 454.583L210.664 450.666L210.304 450.084Z" fill="#5DB77D"/>
<path d="M212.495 453.662C212.378 453.472 212.273 453.281 212.167 453.091L210.452 454.806L205.593 459.675L200.724 464.555L195.855 469.414L190.997 474.284L186.127 479.143L181.269 484.012L176.4 488.871L171.541 493.73L166.672 498.6L161.814 503.459L156.944 508.328L152.086 513.187L147.217 518.046L142.358 522.916L137.5 527.775L132.631 532.644L127.772 537.503L122.903 542.373L118.044 547.232L113.175 552.091L111.249 554.028L111.81 554.356L114.34 551.837L119.198 546.967L124.067 542.108L128.926 537.239L133.784 532.369L138.643 527.51L143.501 522.64L148.371 517.782L153.229 512.912L158.098 508.053L162.957 503.194L167.826 498.325L172.737 493.455L177.607 488.585L182.465 483.726L187.334 478.868L192.193 473.998L197.051 469.139L201.91 464.269L206.768 459.411L211.637 454.541L212.495 453.662Z" fill="#5DB77D"/>
<path d="M204.493 442.251L204.08 441.764L200.767 445.077L195.898 449.947L191.039 454.806L186.17 459.675L181.269 464.555L176.4 469.414L171.541 474.284L166.672 479.143L161.814 484.012L156.945 488.871L152.086 493.73L147.217 498.6L142.358 503.459L137.5 508.328L132.631 513.187L127.772 518.046L122.903 522.916L118.044 527.775L113.175 532.644L103.448 542.373L99.9228 545.898L100.399 546.311L104.633 542.076L109.492 537.207L114.361 532.337L119.219 527.478L124.088 522.609L128.947 517.75L133.806 512.88L138.664 508.021L143.523 503.162L148.392 498.293L153.25 493.434L158.119 488.564L162.978 483.705L167.847 478.846L172.706 473.977L177.575 469.118L182.433 464.248L187.302 459.389L192.161 454.52L197.02 449.661L201.878 444.802L204.493 442.251Z" fill="#5DB77D"/>
<path d="M202.153 439.689L201.719 439.223L200.724 440.218L195.855 445.077L190.997 449.947L186.128 454.806L181.269 459.675L176.4 464.534L171.541 469.393L166.672 474.263L161.814 479.122L156.945 483.991L152.086 488.903L147.217 493.762L142.358 498.631L137.5 503.49L132.631 508.36L127.772 513.219L122.903 518.078L118.044 522.947L113.175 527.806L108.317 532.676L103.448 537.535L98.5891 542.404L97.3718 543.611L97.8376 544.045L99.7429 542.14L104.612 537.27L109.471 532.401L114.34 527.542L119.198 522.672L124.067 517.813L128.926 512.944L133.784 508.085L143.152 498.716L143.502 498.356L148.371 493.497L153.229 488.628L158.098 483.769L162.957 478.91L167.826 474.04L172.685 469.181L177.554 464.312L182.412 459.453L187.281 454.583L192.14 449.724L197.009 444.865L201.868 439.996L202.153 439.689Z" fill="#5DB77D"/>
<path d="M206.61 444.918C206.472 444.76 206.345 444.59 206.207 444.421L205.551 445.077L200.693 449.947L195.823 454.806L190.965 459.675L186.096 464.534L181.237 469.393L176.368 474.263L171.51 479.122L166.64 483.991L161.814 488.903L156.945 493.762L152.086 498.631L147.217 503.49L142.358 508.36L137.5 513.219L127.973 522.746L127.74 522.979L122.871 527.838L118.013 532.708L113.144 537.567L108.285 542.436L103.416 547.295L102.548 548.174L103.045 548.565L104.58 547.031L109.439 542.172L114.308 537.302L119.166 532.432L124.036 527.574L128.894 522.704L133.753 517.845L138.611 512.975L143.47 508.117L148.339 503.258L153.197 498.388L158.067 493.529L162.925 488.66L167.794 483.801L172.653 478.942L177.522 474.072L182.38 469.213L187.25 464.344L192.108 459.485L196.977 454.615L201.836 449.756L206.61 444.918Z" fill="#5DB77D"/>
<path d="M199.74 437.233L199.285 436.788L195.855 440.208L190.997 445.067L186.128 449.936L181.269 454.795L176.4 459.665L171.541 464.555L166.672 469.414L161.814 474.284L156.945 479.143L152.086 484.012L147.227 488.903L142.369 493.762L137.51 498.631L130.207 505.925L127.783 508.36L122.914 513.219L118.055 518.078L113.186 522.947L108.327 527.806L103.458 532.676L98.642 537.482L95.0007 541.124L95.4453 541.579L99.7958 537.217L104.665 532.348L109.523 527.489L119.251 517.76L124.12 512.891L128.979 508.032L133.848 503.173L138.706 498.303L143.565 493.444L148.434 488.575L153.293 483.716L158.162 478.857L163.02 473.987L167.889 469.128L172.748 464.259L177.617 459.4L182.476 454.53L187.345 449.671L192.203 444.812L197.062 439.943L199.74 437.233Z" fill="#5DB77D"/>
<path d="M156.945 420.761L152.086 425.631L147.217 430.49L142.358 435.359L137.5 440.229L132.631 445.088L127.772 449.957L122.903 454.816L118.044 459.686L113.175 464.545L108.317 469.404L103.448 474.273L98.642 479.122L93.7729 483.991L88.8614 488.903L83.9923 493.762L79.1337 498.632L75.5454 502.21L75.6724 502.982L80.2875 498.367L85.1566 493.508L90.0152 488.638L94.8843 483.779L99.7429 478.92L104.612 474.051L109.471 469.192L114.34 464.322L119.198 459.463L124.067 454.594L128.926 449.735L133.795 444.876L138.654 440.006L143.512 435.147L148.381 430.278L153.24 425.419L158.109 420.56L161.094 417.564L160.321 417.437L156.945 420.761Z" fill="#5DB77D"/>
<path d="M152.086 420.761L147.227 425.631L142.369 430.49L137.51 435.359L132.641 440.229L127.783 445.088L122.914 449.957L118.055 454.816L113.186 459.686L108.317 464.555L103.448 469.414L98.5891 474.284L93.72 479.143L88.8614 484.012L83.9923 488.871L79.1337 493.73L74.9738 497.89L75.0691 498.695L75.429 498.335L80.2875 493.476L85.1566 488.607L90.0152 483.748L94.8843 478.889L99.7429 474.019L104.612 469.16L109.471 464.291L114.34 459.432L119.198 454.562L124.046 449.735L128.905 444.876L133.763 440.006L138.622 435.147L143.48 430.278L148.392 425.387L153.25 420.528L156.86 416.918L156.055 416.823L152.086 420.761Z" fill="#5DB77D"/>
<path d="M147.217 420.761L142.358 425.631L137.5 430.49L132.631 435.349L127.772 440.218L122.903 445.077L118.044 449.947L113.175 454.806L108.317 459.675L103.448 464.534L98.642 469.393L93.7729 474.263L88.9143 479.122L84.0452 483.991L79.1337 488.903L74.6562 493.381V494.249L75.3972 493.508L80.2557 488.638L85.1249 483.779L89.9834 478.92L94.8525 474.051L99.7111 469.192L104.58 464.322L109.439 459.463L114.308 454.594L119.166 449.735L124.036 444.876L128.894 440.006L133.763 435.147L138.622 430.278L143.48 425.419L148.349 420.56L152.329 416.58H151.461L147.217 420.761Z" fill="#5DB77D"/>
<path d="M142.358 420.761L137.5 425.631L132.631 430.49L127.772 435.359L122.903 440.229L118.044 445.088L113.175 449.957L108.317 454.816L103.448 459.686L98.642 464.555L93.7729 469.414L88.9143 474.284L84.0452 479.143L79.1867 484.012L74.6562 488.543C74.6562 488.839 74.6562 489.146 74.6562 489.443L75.4925 488.607L80.351 483.748L85.2202 478.889L90.0787 474.019L94.9478 469.16L99.8064 464.291L104.675 459.432L109.534 454.562L114.403 449.703L119.262 444.844L124.131 439.975L128.989 435.116L133.848 430.246L138.654 425.387L143.512 420.528L147.587 416.453H146.677L142.358 420.761Z" fill="#5DB77D"/>
<path d="M132.631 420.761L127.772 425.631L122.903 430.49L118.044 435.359L113.175 440.229L108.317 445.088L103.448 449.957L98.642 454.806L93.7728 459.675L88.8614 464.555L83.9923 469.414L79.1337 474.284L75.6301 477.777C75.5771 478.137 75.5136 478.497 75.4607 478.836L80.2875 473.998L85.1566 469.139L90.0152 464.269L94.8843 459.411L99.7428 454.541L104.612 449.682L109.47 444.823L114.34 439.954L119.198 435.095L124.067 430.225L128.926 425.366L133.784 420.507L136.96 417.331L135.901 417.511L132.631 420.761Z" fill="#5DB77D"/>
<path d="M133.795 561.544L138.654 556.674L143.512 551.815L148.381 546.946L153.24 542.087L158.109 537.217L162.967 532.348L167.837 527.489L172.695 522.619L177.564 517.76L182.423 512.891L187.292 508.032L192.15 503.173L197.009 498.303L201.868 493.444L206.726 488.575L211.595 483.716L216.454 478.857L220.54 474.771L220.37 474.083L220.148 474.294L215.289 479.153L210.42 484.023L205.551 488.903L200.693 493.762L195.823 498.632L190.965 503.49L186.096 508.36L181.237 513.219L171.711 522.746L171.478 522.979L166.609 527.838L161.75 532.708L156.881 537.567L152.023 542.436L147.153 547.295L142.295 552.154L137.436 557.024L132.567 561.883L132.133 562.317L132.874 562.475L133.732 561.629L133.795 561.544Z" fill="#5DB77D"/>
<path d="M133.784 556.653L138.643 551.794L143.501 546.925L148.371 542.066L153.229 537.196L158.098 532.327L162.957 527.468L167.826 522.598L172.684 517.739L177.554 512.87L182.412 508.011L187.281 503.152L192.14 498.282L197.009 493.423L201.868 488.554L206.726 483.695L211.595 478.836L216.454 473.966L219.629 470.79C219.566 470.557 219.513 470.325 219.439 470.081L215.342 474.188L210.484 479.047L205.625 483.917L200.724 488.903L195.855 493.762L190.997 498.631L186.128 503.49L181.269 508.36L176.4 513.219L171.541 518.078L166.672 522.947L161.814 527.806L156.945 532.676L147.217 542.404L142.358 547.263L137.5 552.122L128.28 561.258L128.989 561.449L133.784 556.653Z" fill="#5DB77D"/>
<path d="M128.926 556.653L133.784 551.794L138.643 546.925L143.501 542.066L148.371 537.196L153.229 532.327L158.098 527.468L162.957 522.598L167.826 517.739L172.684 512.87L177.554 508.011L185.418 500.145L187.281 498.282L192.14 493.423L196.998 488.554L201.857 483.695L206.715 478.836L211.585 473.966L216.443 469.107L218.454 467.096C218.38 466.863 218.317 466.641 218.232 466.418L215.289 469.361L210.42 474.231L205.551 479.122L200.693 483.991L195.823 488.85L190.965 493.709L186.096 498.579L181.237 503.438L176.368 508.307L171.51 513.166L166.64 518.025L161.782 522.894L156.913 527.753L152.054 532.623L147.185 537.482L142.327 542.352L137.468 547.21L132.599 552.069L127.74 556.939L124.565 560.115L125.242 560.337L128.926 556.653Z" fill="#5DB77D"/>
<path d="M124.046 420.539L122.649 421.036L118.066 425.631L113.196 430.49L108.338 435.349L103.469 440.218L98.642 445.077L93.7729 449.947L88.9143 454.806L84.0452 459.675L79.2608 464.46C79.0808 464.926 78.922 465.392 78.7527 465.868L80.3404 464.269L85.2096 459.41L90.0681 454.541L94.9372 449.682L99.7958 444.823L104.665 439.953L109.523 435.095L114.393 430.225L119.251 425.366L124.046 420.539Z" fill="#5DB77D"/>
<path d="M119.198 551.815L124.067 546.946L128.926 542.087L133.784 537.217L138.643 532.348L143.501 527.489L148.371 522.619L153.229 517.76L158.098 512.891L162.957 508.032L167.826 503.173L172.684 498.303L177.554 493.444L182.412 488.575L187.281 483.716L192.14 478.857L197.009 473.987L201.868 469.128L206.726 464.259L211.595 459.4L214.189 456.806C214.083 456.605 213.977 456.415 213.882 456.214L210.441 459.665L205.551 464.555L200.693 469.414L195.823 474.284L190.965 479.143L186.096 484.012L181.269 488.903L176.4 493.762L171.541 498.631L166.672 503.49L161.814 508.36L156.945 513.219L147.217 522.947L142.358 527.806L137.5 532.676L127.973 542.203L127.74 542.447L122.871 547.306L118.013 552.165L114.35 555.827L114.943 556.134L119.198 551.815Z" fill="#5DB77D"/>
<path d="M113.789 425.017L113.175 425.631L108.317 430.49L103.448 435.359L98.642 440.208L93.7729 445.067L88.9143 449.936L84.0452 454.795L83.2407 455.61C82.9091 456.224 82.5915 456.838 82.2881 457.452L85.2096 454.53L90.0681 449.671L94.9372 444.812L99.7958 439.943L104.665 435.084L109.523 430.214L114.393 425.355L115.684 424.064C115.017 424.382 114.403 424.689 113.789 425.017Z" fill="#5DB77D"/>
<path d="M109.47 546.946L118.997 537.418L119.23 537.175L124.099 532.305L128.958 527.447L133.827 522.577L138.685 517.718L143.544 512.848L148.413 507.99L153.271 503.131L158.141 498.261L162.999 493.402L167.868 488.532L172.727 483.674L177.596 478.815L182.454 473.945L187.324 469.086L192.182 464.217L197.041 459.358L201.899 454.488L206.758 449.629L208.727 447.66L208.356 447.141L205.604 449.894L200.745 454.753L195.876 459.622L190.997 464.555L186.128 469.414L181.269 474.284L176.4 479.143L171.541 484.012L166.672 488.871L161.814 493.73L156.944 498.6L147.227 508.328L142.369 513.187L137.51 518.046L132.641 522.916L127.783 527.775L122.914 532.644L118.055 537.503L113.186 542.373L108.327 547.232L105.353 550.196L105.882 550.577L109.47 546.946Z" fill="#5DB77D"/>
<path d="M92.6297 538.572L93.0531 539.049L94.8843 537.217L99.7428 532.348L104.612 527.489L109.471 522.619L114.34 517.76L119.198 512.891L124.067 508.032L128.926 503.173L133.784 498.303L138.643 493.444L143.502 488.575L148.371 483.716L153.229 478.857L158.098 473.987L162.957 469.128L167.826 464.259L172.685 459.4L177.554 454.53L182.412 449.671L187.281 444.812L192.14 439.943L197.009 435.084L197.2 434.883L196.723 434.459L195.845 435.349L190.986 440.218L186.117 445.077L181.258 449.947L176.389 454.806L171.531 459.675L166.662 464.534L161.803 469.393L156.934 474.263L152.075 479.122L147.206 483.991L142.358 488.903L137.5 493.762L132.631 498.631L127.772 503.49L122.903 508.36L118.044 513.219L113.175 518.078L108.317 522.947L103.448 527.806L98.642 532.623L93.7729 537.482L92.6297 538.572Z" fill="#5DB77D"/>
<path d="M88.3428 533.142L88.7238 533.66L90.0152 532.358L94.8843 527.499L99.7429 522.63L104.612 517.771L109.471 512.901L114.34 508.042L119.198 503.183L124.067 498.314L128.926 493.455L133.784 488.585L138.643 483.726L143.502 478.867L148.371 473.998L153.229 469.139L158.098 464.269L162.957 459.41L167.826 454.541L172.737 449.735L177.607 444.876L182.465 440.006L187.334 435.147L191.865 430.617L191.346 430.236L191.039 430.543L186.17 435.412L181.311 440.282L176.442 445.141L171.584 450.01L166.715 454.869L161.856 459.739L156.987 464.598L152.128 469.457L147.259 474.326L142.401 479.185L137.542 484.055L132.673 488.914L127.814 493.773L122.945 498.642L118.087 503.501L113.218 508.371L108.359 513.23L103.49 518.088L98.6315 522.958L93.7623 527.817L88.9038 532.687L88.3428 533.142Z" fill="#5DB77D"/>
<path d="M90.0152 527.499L99.7429 517.771L104.612 512.901L109.471 508.042L117.346 500.177L119.198 498.314L124.067 493.455L128.926 488.585L133.784 483.726L138.643 478.867L143.502 473.998L148.371 469.139L153.229 464.269L158.098 459.41L162.957 454.541L167.826 449.682L172.685 444.823L177.554 439.953L182.412 435.095L187.281 430.225L188.933 428.574L188.393 428.214L186.117 430.49L181.258 435.359L176.389 440.229L171.531 445.088L166.662 449.957L161.803 454.816L156.934 459.686L152.086 464.555L147.227 469.414L142.369 474.284L137.51 479.143L132.641 484.012L127.772 488.903L122.903 493.762L118.044 498.631L113.175 503.49L108.317 508.36L103.448 513.219L98.642 518.025L93.7729 522.894L88.9144 527.753L86.4269 530.241L86.7762 530.792L90.0152 527.499Z" fill="#5DB77D"/>
<path d="M90.8303 536.413L94.8843 532.358L99.7429 527.499L104.612 522.63L109.471 517.771L114.34 512.901L119.198 508.042L124.067 503.183L128.926 498.314L133.784 493.455L138.643 488.585L143.502 483.726L148.371 478.867L153.229 473.998L158.098 469.139L162.957 464.269L167.826 459.41L172.685 454.541L177.554 449.682L182.412 444.823L187.281 439.953L192.14 435.095L194.564 432.67L194.066 432.268L190.986 435.359L186.117 440.229L181.258 445.088L176.389 449.957L171.531 454.816L166.662 459.686L161.814 464.555L156.945 469.414L152.086 474.284L147.227 479.143L142.369 484.012L137.5 488.903L132.631 493.762L127.772 498.631L122.903 503.49L118.044 508.36L113.175 513.219L103.448 522.947L98.642 527.753L93.7729 532.623L90.481 535.915L90.8303 536.413Z" fill="#5DB77D"/>
<path d="M83.9923 522.895L82.7644 524.091L83.082 524.673L85.1249 522.63L89.9834 517.771L94.8525 512.901L99.7111 508.042L104.58 503.183L109.439 498.314L114.308 493.455L119.166 488.585L124.036 483.726L128.894 478.868L133.753 473.998L138.611 469.139L143.47 464.269L148.339 459.411L153.197 454.541L158.067 449.682L162.925 444.823L167.794 439.954L172.653 435.095L177.522 430.225L182.38 425.366L182.793 424.953L182.211 424.636L181.227 425.631L176.358 430.49L171.499 435.359L166.63 440.229L161.771 445.088L156.902 449.957L152.044 454.816L147.185 459.686L142.358 464.555L137.5 469.414L132.631 474.284L127.772 479.143L122.903 484.012L118.044 488.903L113.175 493.762L108.317 498.632L103.448 503.49L98.5891 508.36L93.72 513.219L84.1934 522.746L83.9499 522.979L83.9923 522.895Z" fill="#5DB77D"/>
<path d="M85.1566 517.771L90.0152 512.901L94.8843 508.042L99.7429 503.183L104.612 498.314L109.471 493.455L114.34 488.585L119.198 483.726L124.067 478.867L128.926 473.998L133.784 469.139L138.643 464.269L143.502 459.41L148.371 454.541L153.229 449.682L158.098 444.823L162.957 439.953L167.826 435.095L172.685 430.225L177.554 425.366L179.586 423.333L178.972 423.048L176.389 425.631L171.531 430.49L166.662 435.359L161.803 440.229L156.934 445.088L152.075 449.957L147.217 454.816L142.358 459.686L137.5 464.555L132.631 469.414L127.772 474.284L122.903 479.143L118.044 484.012L113.175 488.871L108.317 493.73L103.448 498.6L98.642 503.437L93.7729 508.307L88.9143 513.166L84.0452 518.025L81.2614 520.82L81.5472 521.434L85.1566 517.771Z" fill="#5DB77D"/>
<path d="M84.8814 527.796L85.1778 527.499L90.0363 522.63L94.9055 517.771L99.764 512.901L104.633 508.042L109.492 503.183L114.361 498.314L119.219 493.455L124.088 488.585L128.947 483.726L133.806 478.867L138.664 473.998L143.523 469.139L148.392 464.269L153.25 459.41L158.119 454.541L162.978 449.682L167.847 444.823L172.706 439.953L177.575 435.095L182.433 430.225L185.969 426.7L185.397 426.361L181.28 430.49L176.41 435.349L171.552 440.218L166.683 445.077L161.824 449.947L156.955 454.806L152.097 459.675L147.227 464.534L142.369 469.393L137.51 474.263L132.641 479.122L127.783 483.991L122.914 488.85L118.055 493.709L113.186 498.579L103.458 508.307L98.642 513.166L93.7729 518.025L88.9143 522.894L84.5745 527.235C84.638 527.415 84.7438 527.605 84.8814 527.796Z" fill="#5DB77D"/>
<path d="M80.2875 469.139L85.1566 464.269L90.0152 459.41L94.8843 454.541L99.7005 449.735L104.57 444.876L109.428 440.006L114.297 435.147L119.156 430.278L124.046 425.387L128.905 420.528L130.905 418.517L129.72 418.813L127.751 420.782L122.882 425.652L118.023 430.511L113.154 435.38L108.296 440.25L103.426 445.109L98.642 449.947L93.7729 454.806L88.9143 459.675L84.0452 464.534L79.1867 469.393L77.0696 471.574C76.9638 471.965 76.8685 472.368 76.7733 472.759L80.2875 469.139Z" fill="#5DB77D"/>
<path d="M80.2876 503.183L85.1567 498.314L90.0152 493.455L94.8843 488.585L99.7429 483.726L104.612 478.867L109.471 473.998L114.34 469.139L119.198 464.269L124.067 459.411L128.926 454.541L133.784 449.735L138.643 444.876L143.502 440.006L148.371 435.147L153.229 430.278L158.098 425.419L162.957 420.56L165.074 418.39L164.344 418.221L161.75 420.814L156.881 425.684L152.023 430.543L147.164 435.412L142.358 440.208L137.5 445.067L132.631 449.936L127.772 454.795L122.903 459.665L118.044 464.555L113.175 469.414L108.317 474.284L103.448 479.143L98.5891 484.012L93.72 488.871L88.8614 493.73L83.9923 498.6L79.1338 503.459L76.3287 506.264C76.3287 506.507 76.4346 506.751 76.4981 506.994L80.2876 503.183Z" fill="#5DB77D"/>
<path d="M78.6786 514.521L80.2875 512.901L85.1566 508.042L90.0152 503.183L94.8843 498.314L99.7005 493.455L104.57 488.585L109.428 483.726L114.297 478.867L119.156 473.998L124.025 469.139L128.884 464.269L133.742 459.41L138.601 454.541L143.459 449.682L148.328 444.823L153.187 439.953L158.056 435.095L162.914 430.225L167.784 425.366L172.737 420.518L172.071 420.285L171.594 420.761L166.725 425.631L161.867 430.49L156.997 435.359L152.139 440.229L147.28 445.088L142.422 449.957L137.563 454.816L132.694 459.686L127.772 464.555L122.903 469.414L118.044 474.284L113.175 479.143L108.317 484.012L103.448 488.871L98.642 493.709L93.7728 498.579L86.4268 505.841L83.9923 508.275L79.1337 513.134L78.4457 513.822L78.6786 514.521Z" fill="#5DB77D"/>
<path d="M80.2875 508.042L85.1567 503.183L90.0152 498.314L94.8843 493.455L99.7429 488.585L104.612 483.726L109.471 478.867L114.34 473.998L119.198 469.139L124.067 464.269L128.926 459.411L133.795 454.541L138.654 449.735L143.512 444.876L148.381 440.006L153.24 435.147L158.109 430.278L162.967 425.419L167.837 420.56L168.99 419.396L168.302 419.194L166.672 420.814L161.814 425.684L156.945 430.543L152.086 435.402L147.217 440.271L142.358 445.13L137.5 450L132.631 454.859L127.772 459.728L122.903 464.587L118.044 469.446L113.175 474.316L108.317 479.174L103.448 484.044L98.642 488.903L93.7729 493.762L88.9144 498.631L84.0452 503.49L79.1867 508.36L77.3555 510.191C77.419 510.424 77.4931 510.647 77.5566 510.879L80.2875 508.042Z" fill="#5DB77D"/>
<path d="M80.0123 518.046L80.2876 517.771L85.1567 512.901L90.0152 508.042L99.3936 498.674L99.7429 498.314L104.612 493.455L109.471 488.585L114.34 483.726L119.198 478.867L124.067 473.998L128.926 469.139L133.795 464.269L138.654 459.411L143.512 454.541L148.392 449.735L153.25 444.876L158.12 440.006L162.978 435.147L167.847 430.278L172.737 425.387L176.252 421.873L175.617 421.619L171.584 425.652L166.715 430.511L161.856 435.38L156.987 440.25L152.128 445.109L147.259 449.978L142.401 454.837L137.542 459.707L132.673 464.566L127.814 469.425L122.945 474.294L118.087 479.153L113.218 484.023L108.317 488.903L103.448 493.762L98.5891 498.631L93.72 503.49L88.8614 508.36L83.9923 513.219L79.7583 517.453L80.0123 518.046Z" fill="#5DB77D"/>
<path d="M75.429 483.726L80.2875 478.867L85.1567 473.998L90.0152 469.139L94.8843 464.269L99.7429 459.41L104.612 454.541L109.471 449.682L114.34 444.823L119.198 439.953L124.067 435.095L128.926 430.225L133.795 425.366L138.654 420.507L142.507 416.654L141.522 416.738L137.5 420.761L132.631 425.631L127.772 430.49L122.903 435.359L118.044 440.229L113.175 445.088L108.317 449.957L103.448 454.816L98.5891 459.686L93.72 464.545L88.8614 469.404L83.9923 474.273L79.1338 479.132L74.8997 483.366C74.8997 483.695 74.8997 484.023 74.8151 484.351L75.429 483.726Z" fill="#5DB77D"/>
<path d="M333.059 348.131H217.205V539.991H333.059V348.131Z" fill="white" stroke="#13141B" stroke-linecap="round" stroke-linejoin="round"/>
<path d="M433.691 381.562H346.544V540.658H433.691V381.562Z" fill="#5DB77D"/>
<path d="M534.344 441.266H447.197V540.181H534.344V441.266Z" fill="white" stroke="#13141B" stroke-linecap="round" stroke-linejoin="round"/>
<path d="M79.3248 461.03H17.6562V540.298H79.3248V461.03Z" fill="white" stroke="#13141B" stroke-linecap="round" stroke-linejoin="round"/>
<path d="M-663 540L624 540" stroke="#13141B" stroke-width="4.04" stroke-miterlimit="10"/>
<path d="M127.699 262.607L126.407 263.888L123.232 267.064L120.056 270.239L116.881 273.415L113.705 276.591L110.53 279.767L107.354 282.943L104.179 286.118L101.003 289.294L94.832 295.455L94.6838 295.614L91.5083 298.79L88.3327 301.966L85.1572 305.141L81.9817 308.317L80.5527 309.746H81.1561L82.7333 308.158L85.9088 304.983L89.0843 301.807L92.2598 298.631L95.4353 295.455L98.6108 292.279L101.786 289.104L104.962 285.928L108.137 282.752L111.313 279.576L114.488 276.4L117.664 273.225L120.839 270.049L124.015 266.873L127.191 263.697L127.699 263.189C127.688 263.009 127.699 262.808 127.699 262.607Z" fill="#5DB77D"/>
<path d="M127.508 265.952L126.449 267.011L123.274 270.187L120.098 273.362L116.923 276.538L110.752 282.699L110.603 282.858L107.428 286.034L104.252 289.21L101.077 292.385L97.9013 295.561L94.7258 298.737L91.5503 301.913L88.3748 305.088L85.1992 308.264L83.9502 309.513L84.5959 309.45L88.9569 305.088L89.1157 304.94L92.2912 301.764L95.4667 298.589L98.6423 295.413L101.818 292.237L104.993 289.061L108.169 285.886L111.344 282.71L114.52 279.534L117.695 276.358L120.871 273.182L124.046 270.007L127.222 266.831L127.508 266.545C127.476 266.386 127.497 266.164 127.508 265.952Z" fill="#5DB77D"/>
<path d="M101.977 304.125C102.411 303.903 102.834 303.67 103.257 303.437L105.036 301.648L108.211 298.472L111.387 295.296L114.562 292.121L117.738 288.945L120.913 285.769L121.633 285.06L122.332 283.779L120.162 285.896L116.986 289.072L110.815 295.233L110.667 295.392L107.491 298.567L104.316 301.743L101.977 304.125Z" fill="#5DB77D"/>
<path d="M96.292 306.655L97.2341 306.295L98.716 304.813L101.891 301.637L105.067 298.461L108.243 295.286L111.418 292.11L114.594 288.934L117.769 285.758L120.945 282.583L124.12 279.407L124.533 278.994C124.66 278.676 124.776 278.369 124.893 278.052L123.369 279.576L120.193 282.752L117.018 285.928L113.842 289.103L110.667 292.279L107.491 295.455L104.315 298.631L101.14 301.807L96.292 306.655Z" fill="#5DB77D"/>
<path d="M95.5619 304.813L98.7375 301.638L101.913 298.462L105.089 295.286L108.264 292.11L111.44 288.934L114.615 285.759L117.791 282.583L120.966 279.407L124.142 276.231L126.132 274.241C126.206 273.976 126.28 273.712 126.343 273.437L123.39 276.401L120.215 279.576L117.039 282.752L113.864 285.928L110.688 289.104L107.512 292.28L104.337 295.455L101.161 298.631L97.9859 301.807L94.8104 304.983L91.709 308.084L92.5029 307.862L95.5619 304.813Z" fill="#5DB77D"/>
<path d="M92.3974 304.813L95.5729 301.637L98.7484 298.461L104.92 292.29L105.068 292.131L108.243 288.955L111.419 285.779L117.77 279.428L120.945 276.252L124.121 273.076L127.042 270.155L127.169 269.445L124.946 271.668L123.369 273.246L120.194 276.421L117.018 279.597L113.843 282.773L110.667 285.949L107.492 289.125L104.316 292.3L101.141 295.476L97.9651 298.652L94.7896 301.828L91.6141 305.004L88.4386 308.179L87.6553 308.963L88.3645 308.846L89.2007 308.01L92.3974 304.813Z" fill="#5DB77D"/>
<path d="M49.6858 224.254C47.0059 226.415 44.5646 228.857 42.4033 231.537L44.9861 228.943L48.1616 225.768L49.6858 224.254Z" fill="#5DB77D"/>
<path d="M127.063 253.757L126.406 254.414L123.231 257.589L120.055 260.765L116.88 263.941L113.704 267.117L110.529 270.293L107.353 273.468L104.178 276.644L101.002 279.82L97.8268 282.996L94.6513 286.172L91.4757 289.347L88.3002 292.523L85.1247 295.699L81.9492 298.875L78.7737 302.051L75.5981 305.226L72.4226 308.402L71.6182 309.196L72.1262 309.281L76.3603 305.046L79.5358 301.871L82.7113 298.695L89.1153 292.322L89.274 292.163L92.4496 288.987L95.6251 285.812L98.8006 282.636L101.976 279.46L105.152 276.284L108.327 273.108L111.503 269.933L114.678 266.757L117.854 263.581L121.029 260.405L124.205 257.23L127.38 254.054C127.126 254.096 127.094 253.895 127.063 253.757Z" fill="#5DB77D"/>
<path d="M127.445 256.541L126.386 257.6L123.211 260.775L120.035 263.951L116.86 267.127L112.117 271.869L110.54 273.447L107.365 276.623L104.189 279.798L101.014 282.974L97.8382 286.15L94.6626 289.326L91.4871 292.502L88.3116 295.677L85.1361 298.853L81.9606 302.029L78.785 305.205L75.6095 308.38L74.4346 309.556L74.9638 309.608L76.3611 308.211L79.5366 305.035L82.7121 301.86L85.8876 298.684L89.0631 295.508L92.2386 292.332L95.4142 289.156L98.5897 285.981L104.941 279.629L108.116 276.453L111.292 273.277L116.404 268.164L117.611 266.958L120.787 263.782L123.962 260.606L127.138 257.43L127.466 257.102C127.476 256.901 127.466 256.721 127.445 256.541Z" fill="#5DB77D"/>
<path d="M127.656 259.484L126.407 260.733L123.231 263.909L120.056 267.085L116.88 270.26L113.705 273.436L110.529 276.612L107.354 279.788L104.178 282.964L101.003 286.139L97.8273 289.315L94.6518 292.491L91.4762 295.667L88.3007 298.843L85.1252 302.018L78.7742 308.37L77.377 309.767H77.938L79.5257 308.179L82.7012 305.004L85.8768 301.828L89.0523 298.652L92.2278 295.476L95.4033 292.3L98.5788 289.125L101.754 285.949L104.93 282.773L108.105 279.597L111.281 276.421L114.456 273.246L117.632 270.07L120.807 266.894L123.983 263.718L127.159 260.542L127.667 260.024C127.677 259.854 127.667 259.674 127.656 259.484Z" fill="#5DB77D"/>
<path d="M123.369 241.657L123.253 241.774L120.077 244.949L116.902 248.125L113.726 251.301L110.551 254.477L107.375 257.653L104.2 260.828L101.024 264.004L97.8485 267.18L94.673 270.356L91.4975 273.532L88.322 276.707L85.1465 279.883L81.9709 283.059L78.7954 286.235L75.6199 289.411L72.4444 292.586L69.2689 295.762L66.0934 298.938L62.9178 302.114L59.7423 305.289L59.4883 305.544L59.8905 305.723L60.3457 305.268L60.4939 305.12L63.6694 301.944L66.8449 298.769L70.0204 295.593L73.1959 292.417L76.3715 289.241L79.547 286.065L82.7225 282.89L85.898 279.714L89.0735 276.538L92.2491 273.362L95.4246 270.186L98.6001 267.011L101.776 263.835L104.951 260.659L108.127 257.483L111.302 254.307L114.478 251.132L117.653 247.956L120.829 244.78L123.538 242.081C123.486 241.922 123.433 241.784 123.369 241.657Z" fill="#5DB77D"/>
<path d="M124.48 244.282C124.48 244.145 124.374 244.007 124.31 243.87L123.252 244.928L120.076 248.104L116.901 251.28L113.725 254.456L110.55 257.631L107.374 260.807L104.199 263.983L101.023 267.159L96.2812 271.901L94.7041 273.479L91.5286 276.654L88.353 279.83L85.1775 283.006L82.002 286.182L78.8265 289.358L75.651 292.533L72.4754 295.709L69.2999 298.885L66.1244 302.061L62.9489 305.236L61.7422 306.433L62.1656 306.602L63.7004 305.067L66.8759 301.891L70.0515 298.716L76.4025 292.364L79.578 289.188L82.7535 286.012L89.1046 279.661L92.2801 276.485L95.4556 273.309L98.6311 270.133L101.807 266.958L104.982 263.782L108.158 260.606L111.333 257.43L114.509 254.254L117.684 251.079L120.86 247.903L124.035 244.727L124.48 244.282Z" fill="#5DB77D"/>
<path d="M120.003 235.539L116.933 238.608L113.758 241.784L110.582 244.96L107.407 248.136L104.231 251.312L101.056 254.487L97.8801 257.663L94.7046 260.839L91.5291 264.015L88.3536 267.191L85.178 270.366L82.0025 273.542L78.827 276.718L75.6515 279.894L72.476 283.07L69.3004 286.245L66.1249 289.421L62.9494 292.597L59.7739 295.773L56.5984 298.949L53.4229 302.124L53.7827 302.357L54.2273 301.902L57.4028 298.726L60.5784 295.55L63.7539 292.375L66.9294 289.199L70.1049 286.023L76.4559 279.671L79.6315 276.496L82.807 273.32L87.9302 268.207L89.1369 267L92.3124 263.824L95.4879 260.648L98.6634 257.473L101.839 254.297L105.014 251.121L108.19 247.945L111.365 244.77L114.541 241.594L117.717 238.418L120.257 235.867L120.003 235.539Z" fill="#5DB77D"/>
<path d="M121.421 237.868L121.209 237.497L120.087 238.609L116.912 241.784L113.736 244.96L110.561 248.136L107.385 251.312L104.21 254.488L101.034 257.663L97.8587 260.839L94.6832 264.015L91.5077 267.191L88.3322 270.366L85.1567 273.542L81.9811 276.718L78.8056 279.894L75.6301 283.07L72.4546 286.245L69.2791 289.421L66.1036 292.597L62.928 295.773L59.7525 298.949L56.577 302.124L55.3174 303.384L55.6879 303.596L57.3285 301.955L60.5041 298.779L63.6796 295.603L66.8551 292.428L70.0306 289.252L73.2061 286.076L76.3817 282.9L79.5572 279.724L82.7327 276.549L85.9082 273.373L89.0837 270.197L92.2592 267.021L95.4348 263.846L98.6103 260.67L101.786 257.494L104.961 254.318L108.137 251.142L111.312 247.967L114.488 244.791L117.663 241.615L120.839 238.439L121.421 237.868Z" fill="#5DB77D"/>
<path d="M116.192 230.447L115.927 230.129L113.81 232.247L110.635 235.422L107.459 238.598L104.284 241.774L101.108 244.95L97.9328 248.126L94.7573 251.301L91.5818 254.477L88.4063 257.653L85.2308 260.829L82.0552 264.004L78.8797 267.18L75.7042 270.356L72.5287 273.532L69.3532 276.708L66.1776 279.883L63.0021 283.059L59.8266 286.235L56.6511 289.411L50.3 295.762L48.0137 298.06L48.3206 298.324L51.0622 295.593L54.2377 292.417L57.4132 289.241L60.5887 286.066L63.7642 282.89L66.9398 279.714L70.1153 276.538L73.2908 273.362L76.4663 270.187L79.6418 267.011L82.8174 263.835L85.9929 260.659L89.1684 257.484L92.3439 254.308L95.5194 251.132L98.695 247.956L101.87 244.78L105.046 241.605L108.222 238.429L111.397 235.253L114.573 232.077L116.192 230.447Z" fill="#5DB77D"/>
<path d="M114.699 228.785L114.414 228.478L113.768 229.124L110.592 232.3L107.417 235.475L104.241 238.651L101.066 241.827L97.8904 245.003L94.7149 248.179L91.5394 251.354L88.3639 254.53L85.1883 257.706L82.0128 260.882L78.8373 264.057L75.6618 267.233L72.4863 270.409L69.3108 273.585L66.1352 276.761L62.9597 279.936L59.7842 283.112L56.6087 286.288L53.4332 289.464L50.2576 292.64L47.0821 295.815L46.2988 296.599L46.5952 296.885L47.8337 295.646L51.0092 292.47L54.1847 289.294L57.3602 286.119L60.5357 282.943L63.7113 279.767L66.8868 276.591L70.0623 273.415L76.1487 267.329L76.3816 267.096L79.5571 263.92L82.7326 260.744L85.9081 257.568L89.0836 254.392L92.2592 251.217L95.4347 248.041L98.6102 244.865L101.786 241.689L104.961 238.514L108.137 235.338L111.312 232.162L114.488 228.986L114.699 228.785Z" fill="#5DB77D"/>
<path d="M117.61 232.183L117.356 231.854L116.933 232.289L113.757 235.464L110.582 238.64L107.406 241.816L104.231 244.992L101.055 248.167L97.8797 251.343L94.7041 254.519L91.5286 257.695L88.3531 260.871L85.1776 264.046L82.0021 267.222L78.8265 270.398L75.651 273.574L72.4755 276.75L66.3044 282.911L66.1456 283.069L62.9701 286.245L59.7946 289.421L56.6191 292.597L53.4436 295.773L50.268 298.948L49.707 299.52L50.0352 299.774L51.0302 298.79L54.2057 295.614L57.3812 292.438L60.5567 289.262L63.7322 286.086L66.9078 282.911L70.0833 279.735L73.2588 276.559L76.4343 273.383L79.6098 270.207L82.7854 267.032L85.9609 263.856L89.1364 260.68L92.3119 257.504L95.4874 254.329L98.663 251.153L101.838 247.977L105.014 244.801L108.19 241.625L111.365 238.45L114.541 235.274L117.61 232.183Z" fill="#5DB77D"/>
<path d="M113.133 227.186L112.837 226.9L110.614 229.123L107.438 232.299L104.263 235.475L101.087 238.651L97.9118 241.827L94.7363 245.002L91.5608 248.178L88.3853 251.354L85.2098 254.53L82.0342 257.706L78.8587 260.881L75.6832 264.057L72.5077 267.233L67.9455 271.795L66.3578 273.373L63.1822 276.549L60.0067 279.724L56.8312 282.9L53.6557 286.076L50.4802 289.252L47.3046 292.428L44.9336 294.799C45.0289 294.894 45.1347 294.989 45.23 295.095L48.0562 292.258L51.2317 289.082L54.4072 285.907L60.7583 279.555L63.9338 276.379L67.1093 273.203L70.2848 270.028L73.4603 266.852L76.6359 263.676L79.8114 260.5L82.9869 257.324L86.1624 254.149L89.3379 250.973L92.5135 247.797L95.689 244.621L98.8645 241.446L102.04 238.27L105.216 235.094L108.391 231.918L111.567 228.742L113.133 227.186Z" fill="#5DB77D"/>
<path d="M85.3263 216.484L82.1508 219.66L78.9753 222.835L75.7997 226.011L72.6242 229.187L69.4487 232.363L66.2732 235.539L63.0977 238.714L59.9222 241.89L56.7466 245.066L53.5711 248.242L50.3956 251.417L47.2201 254.593L44.0446 257.769L40.869 260.945L37.6935 264.121L34.518 267.296L32.1787 269.625C32.1787 269.795 32.2422 269.964 32.2634 270.123L35.2695 267.127L38.4451 263.951L41.6206 260.775L44.7961 257.6L47.9716 254.424L51.1471 251.248L54.3227 248.072L57.4982 244.897L60.6737 241.721L63.8492 238.545L67.0247 235.369L70.2002 232.193L73.3758 229.018L76.5513 225.842L79.7268 222.666L82.9023 219.49L86.0779 216.314L88.0149 214.377L87.5174 214.292L85.3263 216.484Z" fill="#5DB77D"/>
<path d="M82.1614 216.484L78.9859 219.66L75.8104 222.835L72.6349 226.011L69.4594 229.187L66.2839 232.363L63.1083 235.539L59.9328 238.714L56.7573 241.89L53.5818 245.066L50.4063 248.242L47.2307 251.417L44.0552 254.593L40.8797 257.769L37.7042 260.945L34.5287 264.121L32.0518 266.598L32.1153 267.116L32.3481 266.884L35.5237 263.708L38.6992 260.532L41.8747 257.356L45.0502 254.18L48.2257 251.005L51.4013 247.829L54.5768 244.653L57.7523 241.477L60.9278 238.301L64.1033 235.126L67.2789 231.95L70.4544 228.774L73.6299 225.598L76.8054 222.423L79.9809 219.247L83.1564 216.071L85.4957 213.731H84.9771L82.1614 216.484Z" fill="#5DB77D"/>
<path d="M79.0067 216.484L75.8311 219.66L72.6556 222.836L69.4801 226.011L66.3046 229.187L63.1291 232.363L59.9535 235.539L56.778 238.715L53.6025 241.89L50.427 245.066L47.2515 248.242L44.076 251.418L40.9004 254.593L37.7249 257.769L34.5494 260.945L31.6279 263.856V264.417L32.1043 263.93L35.2798 260.754L38.4553 257.579L41.6308 254.403L44.8063 251.227L47.9818 248.051L51.1574 244.876L54.3329 241.7L57.5084 238.524L60.6839 235.348L63.8594 232.172L67.035 228.997L70.2105 225.821L73.386 222.645L76.5615 219.469L79.737 216.293L82.3198 213.71H81.7588L79.0067 216.484Z" fill="#5DB77D"/>
<path d="M75.8424 216.484L72.6669 219.659L69.4914 222.835L66.3158 226.011L63.1403 229.187L59.9648 232.363L56.7893 235.538L53.6138 238.714L50.4382 241.89L47.2627 245.066L44.0872 248.242L40.9117 251.417L37.7362 254.593L34.5607 257.769L31.6074 260.712V261.305L32.1473 260.765L35.3228 257.589L38.4983 254.413L41.6738 251.237L44.8493 248.062L48.0249 244.886L51.2004 241.71L54.3759 238.534L57.5514 235.358L60.7269 232.183L63.9025 229.007L67.078 225.831L70.2535 222.655L73.429 219.48L76.6045 216.304L79.2508 213.657H78.6686L75.8424 216.484Z" fill="#5DB77D"/>
<path d="M69.5231 216.484L66.3476 219.66L63.1721 222.835L59.9966 226.011L56.821 229.187L53.6455 232.363L50.47 235.539L47.2945 238.714L44.119 241.89L40.9435 245.066L37.7679 248.242L34.5924 251.418L32.3166 253.694C32.3166 253.926 32.232 254.159 32.2002 254.392L35.3757 251.216L38.5512 248.041L41.7268 244.865L44.9023 241.689L48.0778 238.513L51.2533 235.337L54.4288 232.162L57.6043 228.986L60.7799 225.81L63.9554 222.634L67.1309 219.459L70.3064 216.283L72.4234 214.166L71.7248 214.282L69.5231 216.484Z" fill="#5DB77D"/>
<path d="M70.2738 307.968L73.4493 304.792L76.6249 301.616L79.8004 298.441L82.9759 295.265L86.1514 292.089L89.3269 288.913L92.5024 285.738L95.678 282.562L98.8535 279.386L102.029 276.21L105.205 273.034L108.38 269.859L111.556 266.683L114.731 263.507L117.907 260.331L121.082 257.155L124.258 253.98L126.914 251.323C126.914 251.164 126.84 251.005 126.809 250.846L126.66 250.984L123.485 254.16L120.309 257.335L117.134 260.511L113.958 263.687L110.783 266.863L107.607 270.039L104.432 273.214L101.256 276.39L95.0852 282.551L94.937 282.71L91.7615 285.886L88.586 289.062L85.4105 292.237L82.2349 295.413L79.0594 298.589L75.8839 301.765L72.7084 304.94L69.5329 308.116L69.2471 308.402L69.734 308.508L70.2844 307.947L70.2738 307.968Z" fill="#5DB77D"/>
<path d="M70.2745 304.813L73.45 301.637L76.6255 298.461L79.8011 295.286L82.9766 292.11L86.1521 288.934L89.3276 285.758L92.5031 282.583L95.6787 279.407L98.8542 276.231L102.03 273.055L105.205 269.879L108.381 266.704L111.556 263.528L114.732 260.352L117.907 257.176L121.083 254L124.258 250.825L126.291 248.792C126.291 248.633 126.217 248.485 126.174 248.337L123.507 250.994L120.331 254.17L117.156 257.346L113.98 260.521L110.805 263.697L107.629 266.873L104.454 270.049L101.278 273.225L98.1026 276.4L94.9271 279.576L91.7516 282.752L88.5761 285.928L85.4006 289.103L79.0495 295.455L75.874 298.631L72.6985 301.807L66.7285 307.777L67.1837 307.904L70.2745 304.813Z" fill="#5DB77D"/>
<path d="M67.1093 304.813L70.2848 301.637L73.4603 298.462L76.6358 295.286L79.8113 292.11L82.9869 288.934L86.1624 285.758L89.3379 282.583L92.5134 279.407L95.6889 276.231L98.8644 273.055L103.977 267.942L105.184 266.736L108.359 263.56L111.535 260.384L114.71 257.208L117.886 254.032L121.061 250.857L124.237 247.681L125.539 246.368C125.539 246.22 125.454 246.072 125.401 245.934L123.485 247.85L120.31 251.026L117.134 254.202L113.959 257.378L110.783 260.553L107.608 263.729L104.432 266.905L101.257 270.081L98.0812 273.256L94.9056 276.432L91.7301 279.608L88.5546 282.784L85.3791 285.96L82.2036 289.135L79.028 292.311L75.8525 295.487L72.677 298.663L69.5015 301.839L66.326 305.014L64.2725 307.068L64.7065 307.216L67.1093 304.813Z" fill="#5DB77D"/>
<path d="M63.9342 216.336L63.0239 216.664L60.0389 219.649L56.8634 222.825L53.6879 226.001L50.5123 229.177L47.3368 232.352L44.1613 235.528L40.9858 238.704L37.8103 241.88L34.6983 244.992C34.5818 245.289 34.476 245.596 34.3701 245.903L35.4286 244.844L38.6041 241.668L41.7797 238.492L44.9552 235.317L48.1307 232.141L51.3062 228.965L54.4817 225.789L57.6573 222.613L60.8328 219.438L63.9342 216.336Z" fill="#5DB77D"/>
<path d="M60.7897 301.648L63.9653 298.472L67.1408 295.296L70.3163 292.12L73.4918 288.945L76.6673 285.769L79.8428 282.593L83.0184 279.417L86.1939 276.241L89.3694 273.066L92.5449 269.89L95.7204 266.714L98.896 263.538L102.071 260.363L105.247 257.187L108.423 254.011L111.598 250.835L114.774 247.659L117.949 244.484L121.125 241.308L122.808 239.625L122.617 239.233L120.373 241.477L117.198 244.653L114.022 247.829L110.846 251.005L107.671 254.18L104.495 257.356L101.32 260.532L98.1444 263.708L94.9689 266.883L91.7934 270.059L88.6179 273.235L85.4423 276.411L79.0913 282.762L75.9158 285.938L72.7403 289.114L66.5692 295.275L66.4104 295.434L63.2349 298.61L60.0594 301.785L57.6777 304.167L58.0694 304.368L60.7897 301.648Z" fill="#5DB77D"/>
<path d="M57.2754 219.247L56.8838 219.649L53.7083 222.825L50.5328 226.001L47.3572 229.176L44.1817 232.352L41.0062 235.528L37.8307 238.704L37.3014 239.233C37.0897 239.625 36.8886 240.027 36.6875 240.429L38.5822 238.534L41.7577 235.359L44.9333 232.183L48.1088 229.007L51.2843 225.831L54.4598 222.655L57.6353 219.48L58.4716 218.633L57.2754 219.247Z" fill="#5DB77D"/>
<path d="M54.4705 298.493L60.6416 292.322L60.7898 292.163L63.9653 288.987L67.1408 285.811L70.3164 282.636L73.4919 279.46L76.6674 276.284L79.8429 273.108L83.0184 269.932L86.194 266.757L89.3695 263.581L92.545 260.405L95.7205 257.229L98.896 254.053L102.072 250.878L105.247 247.702L108.423 244.526L111.598 241.35L114.774 238.174L117.949 234.999L119.23 233.728L118.986 233.39L117.198 235.179L114.022 238.354L110.847 241.53L107.671 244.706L104.496 247.882L101.32 251.058L98.1445 254.233L94.969 257.409L91.7934 260.585L88.6179 263.761L85.4424 266.937L79.0914 273.288L75.9159 276.464L72.7403 279.64L69.5648 282.816L66.3893 285.991L63.2138 289.167L60.0383 292.343L56.8627 295.519L53.6872 298.694L51.7607 300.632L52.0995 300.875L54.4705 298.493Z" fill="#5DB77D"/>
<path d="M43.5254 293.063L43.8006 293.38L44.9861 292.184L48.1616 289.008L51.3372 285.833L54.5127 282.657L57.6882 279.481L60.8637 276.305L64.0392 273.129L67.2148 269.954L70.3903 266.778L73.5658 263.602L76.7413 260.426L79.9168 257.251L83.0924 254.075L86.2679 250.899L89.4434 247.723L92.6189 244.547L95.7944 241.372L98.9699 238.196L102.145 235.02L105.321 231.844L108.496 228.668L111.672 225.493L111.799 225.366L111.492 225.09L110.92 225.662L107.745 228.838L104.569 232.014L101.394 235.189L98.2184 238.365L95.0429 241.541L91.8674 244.717L88.6919 247.893L85.5163 251.068L82.3408 254.244L79.1653 257.42L75.9898 260.596L72.8143 263.771L69.6387 266.947L66.4632 270.123L63.2877 273.299L60.1122 276.475L56.9367 279.65L53.7611 282.826L50.5856 286.002L47.4101 289.178L44.2346 292.354L43.5254 293.063Z" fill="#5DB77D"/>
<path d="M40.7422 289.516L40.9856 289.855L41.8324 289.008L45.008 285.832L48.1835 282.657L51.359 279.481L54.5345 276.305L57.71 273.129L60.8856 269.953L64.0611 266.778L67.2366 263.602L70.4121 260.426L73.5876 257.25L76.7632 254.074L79.9387 250.899L83.1142 247.723L86.2897 244.547L89.4652 241.371L92.6407 238.196L95.8163 235.02L98.9918 231.844L102.167 228.668L105.343 225.492L108.285 222.549L107.947 222.295L107.746 222.497L104.57 225.672L101.395 228.848L98.2191 232.024L95.0436 235.2L91.868 238.375L88.6925 241.551L85.517 244.727L82.3415 247.903L79.166 251.079L75.9904 254.254L72.8149 257.43L69.6394 260.606L66.4639 263.782L63.2884 266.958L60.1128 270.133L56.9373 273.309L53.7618 276.485L50.5863 279.661L47.4108 282.837L44.2353 286.012L41.0597 289.188L40.7422 289.516Z" fill="#5DB77D"/>
<path d="M41.8322 285.843L48.1832 279.491L51.3587 276.316L54.5343 273.14L59.6468 268.027L60.8535 266.82L64.0291 263.644L67.2046 260.469L70.3801 257.293L73.5556 254.117L76.7311 250.941L79.9067 247.765L83.0822 244.59L86.2577 241.414L89.4332 238.238L92.6087 235.062L95.7842 231.886L98.9598 228.711L102.135 225.535L105.311 222.359L106.369 221.3L106.02 221.078L104.538 222.55L101.363 225.725L98.1871 228.901L95.0115 232.077L91.836 235.253L88.6605 238.429L85.485 241.604L82.3095 244.78L79.1339 247.956L75.9584 251.132L72.7829 254.307L69.6074 257.483L66.4319 260.659L63.2563 263.835L60.0808 267.011L56.9053 270.186L53.7298 273.362L50.5543 276.538L47.3788 279.714L44.2032 282.89L41.0277 286.065L39.4082 287.685C39.4823 287.801 39.5564 287.918 39.6411 288.034L41.8322 285.843Z" fill="#5DB77D"/>
<path d="M42.3616 291.644L44.9867 289.008L48.1622 285.833L51.3378 282.657L54.5133 279.481L57.6888 276.305L60.8643 273.129L64.0398 269.954L67.2153 266.778L70.3909 263.602L73.5664 260.426L76.7419 257.25L79.9174 254.075L83.0929 250.899L86.2685 247.723L89.444 244.547L92.6195 241.371L95.795 238.196L98.9705 235.02L102.146 231.844L105.322 228.668L108.497 225.493L110.074 223.915L109.746 223.661L107.746 225.662L104.57 228.838L101.395 232.013L98.219 235.189L95.0435 238.365L91.868 241.541L88.6924 244.717L85.5169 247.892L82.3414 251.068L79.1659 254.244L75.9904 257.42L72.8148 260.596L69.6393 263.771L66.4638 266.947L63.2883 270.123L60.1128 273.299L56.9373 276.475L50.5862 282.826L47.4107 286.002L44.2352 289.178L42.1182 291.295L42.3616 291.644Z" fill="#5DB77D"/>
<path d="M37.9153 282.858L37.1426 283.631C37.2061 283.758 37.2696 283.885 37.3437 284.012L38.6668 282.688L41.8423 279.513L45.0179 276.337L48.1934 273.161L51.3689 269.985L54.5444 266.81L57.7199 263.634L60.8955 260.458L64.071 257.282L67.2465 254.106L70.422 250.931L73.5975 247.755L76.773 244.579L79.9486 241.403L83.1241 238.227L86.2996 235.052L89.4751 231.876L92.6506 228.7L95.8262 225.524L99.0017 222.348L102.177 219.173L102.442 218.897L101.817 218.961L101.182 219.607L98.0067 222.783L94.8312 225.958L91.6556 229.134L88.4801 232.31L85.3046 235.486L82.1291 238.661L78.9536 241.837L75.7781 245.013L72.6025 248.189L69.427 251.365L66.2515 254.54L63.076 257.716L59.9005 260.892L56.7249 264.068L53.5494 267.244L50.3739 270.419L47.1984 273.595L44.0229 276.771L37.8624 282.932L37.7036 283.091L37.9153 282.858Z" fill="#5DB77D"/>
<path d="M38.6671 279.523L41.8426 276.347L45.0181 273.172L48.1936 269.996L51.3691 266.82L54.5446 263.644L57.7202 260.469L60.8957 257.293L64.0712 254.117L67.2467 250.941L70.4222 247.765L73.5978 244.59L76.7733 241.414L79.9488 238.238L83.1243 235.062L86.2998 231.886L89.4753 228.711L92.6509 225.535L95.8264 222.359L99.0019 219.183L100.325 217.86L99.9334 217.669L98.2504 219.353L95.0749 222.528L91.8993 225.704L88.7238 228.88L85.5483 232.056L82.3728 235.232L79.1973 238.407L76.0217 241.583L72.8462 244.759L69.6707 247.935L66.4952 251.11L63.3197 254.286L60.1441 257.462L56.9686 260.638L53.7931 263.814L50.6176 266.989L47.4421 270.165L44.2666 273.341L41.091 276.517L37.9155 279.693L36.1055 281.503C36.169 281.64 36.2325 281.767 36.2854 281.905L38.6671 279.523Z" fill="#5DB77D"/>
<path d="M38.477 286.044L38.6675 285.843L41.843 282.667L45.0185 279.491L48.1941 276.316L51.3696 273.14L54.5451 269.964L57.7206 266.788L60.8961 263.612L64.0717 260.437L67.2472 257.261L70.4227 254.085L73.5982 250.909L76.7737 247.734L79.9492 244.558L83.1248 241.382L86.3003 238.206L89.4758 235.03L92.6513 231.855L95.8268 228.679L99.0024 225.503L102.178 222.327L104.475 220.03L104.104 219.818L101.426 222.497L98.2508 225.672L95.0753 228.848L91.8998 232.024L88.7243 235.2L85.5488 238.376L82.3732 241.551L79.1977 244.727L76.0222 247.903L72.8467 251.079L69.6712 254.255L66.4956 257.43L63.3201 260.606L60.1446 263.782L56.9691 266.958L50.618 273.309L47.4425 276.485L44.267 279.661L41.0915 282.837L38.3076 285.652L38.477 286.044Z" fill="#5DB77D"/>
<path d="M35.5128 247.924L38.6883 244.748L41.8639 241.573L45.0394 238.397L48.2149 235.221L51.3904 232.045L54.5659 228.869L57.7414 225.694L60.917 222.518L64.0925 219.342L67.268 216.166L68.5806 214.864L67.7973 215.055L66.5165 216.336L63.3409 219.511L60.1654 222.687L56.9899 225.863L53.8144 229.039L50.6389 232.215L47.4634 235.39L44.2878 238.566L41.1123 241.742L37.9368 244.918L34.7613 248.094L33.3429 249.502L33.1523 250.274L35.5128 247.924Z" fill="#5DB77D"/>
<path d="M35.5124 270.049L38.688 266.873L41.8635 263.698L45.039 260.522L48.2145 257.346L51.39 254.17L54.5656 250.994L57.7411 247.819L60.9166 244.643L64.0921 241.467L67.2676 238.291L70.4431 235.115L73.6187 231.94L76.7942 228.764L79.9697 225.588L83.1452 222.412L86.3207 219.236L89.4963 216.061L90.9041 214.653L90.4277 214.547L88.7341 216.23L85.5586 219.406L82.3831 222.582L79.2076 225.757L76.0321 228.933L72.8565 232.109L69.681 235.285L66.5055 238.461L63.33 241.636L60.1545 244.812L56.9789 247.988L53.8034 251.164L50.6279 254.34L47.4524 257.515L44.2769 260.691L41.1014 263.867L37.9258 267.043L34.7503 270.218L32.9297 272.039L33.025 272.516L35.5124 270.049Z" fill="#5DB77D"/>
<path d="M34.4652 277.417L35.5237 276.358L38.6993 273.183L41.8748 270.007L45.0503 266.831L48.2258 263.655L51.4013 260.479L54.5769 257.304L57.7524 254.128L60.9279 250.952L64.1034 247.776L67.2789 244.6L70.4544 241.425L73.63 238.249L76.8055 235.073L79.981 231.897L83.1565 228.721L86.332 225.546L89.5075 222.37L92.6831 219.194L95.8586 216.018L95.4246 215.87L95.1176 216.177L91.9421 219.353L88.7666 222.529L85.5911 225.704L82.4156 228.88L79.24 232.056L76.0645 235.232L72.889 238.408L69.7135 241.583L66.538 244.759L63.3624 247.935L60.1869 251.111L57.0114 254.287L53.8359 257.462L50.6604 260.638L47.4849 263.814L44.3093 266.99L39.5672 271.732L37.9901 273.31L34.8145 276.485L34.3594 276.93L34.4652 277.417Z" fill="#5DB77D"/>
<path d="M35.5131 273.203L38.6886 270.028L41.8641 266.852L45.0396 263.676L48.2152 260.5L51.3907 257.325L54.5662 254.149L57.7417 250.973L60.9172 247.797L64.0928 244.621L67.2683 241.446L70.4438 238.27L73.6193 235.094L76.7948 231.918L79.9703 228.742L83.1459 225.567L86.3214 222.391L89.4969 219.215L92.6724 216.039L93.424 215.288L92.9794 215.161L91.9209 216.219L88.7453 219.395L85.5698 222.571L82.3943 225.747L79.2188 228.922L76.0433 232.098L72.8678 235.274L69.6922 238.45L66.5167 241.626L63.3412 244.801L60.1657 247.977L56.9902 251.153L53.8147 254.329L50.6391 257.505L47.4636 260.68L44.2881 263.856L41.1126 267.032L37.9371 270.208L34.7615 273.383L33.5654 274.569L33.6925 275.024L35.5131 273.203Z" fill="#5DB77D"/>
<path d="M35.333 279.703L35.5129 279.523L38.6884 276.348L41.8639 273.172L47.9503 267.085L48.1832 266.852L51.3587 263.676L54.5343 260.5L57.7098 257.325L60.8853 254.149L64.0608 250.973L67.2363 247.797L70.4118 244.622L73.5874 241.446L76.7629 238.27L79.9384 235.094L83.1139 231.918L86.2894 228.743L89.465 225.567L92.6405 222.391L95.816 219.215L98.0918 216.929L97.679 216.759L95.0645 219.385L91.8889 222.56L88.7134 225.736L85.5379 228.912L82.3624 232.088L79.1869 235.264L76.0113 238.439L72.8358 241.615L69.6603 244.791L66.4848 247.967L63.3093 251.142L60.1338 254.318L56.9582 257.494L53.7827 260.67L50.6072 263.846L47.4317 267.021L44.2562 270.197L41.0806 273.373L37.9051 276.549L35.1318 279.301C35.2165 279.428 35.2694 279.566 35.333 279.703Z" fill="#5DB77D"/>
<path d="M32.3477 257.399L35.5232 254.223L38.6987 251.047L41.8743 247.871L45.0498 244.696L48.2253 241.52L51.4008 238.344L54.5763 235.168L57.7519 231.992L60.9274 228.817L64.1029 225.641L67.2784 222.465L70.4539 219.289L73.6294 216.114L76.1275 213.615L75.4924 213.668L72.8779 216.283L69.7024 219.459L66.5269 222.634L63.3514 225.81L60.1758 228.986L57.0003 232.162L53.8248 235.338L50.6493 238.513L47.4738 241.689L44.2982 244.865L41.1227 248.041L37.9472 251.217L34.7717 254.392L32.0196 257.145L31.9561 257.78L32.3477 257.399Z" fill="#5DB77D"/>
<path d="M137.394 313.695C137.394 314.337 137.203 314.966 136.846 315.5C136.489 316.035 135.982 316.451 135.388 316.697C134.794 316.943 134.141 317.008 133.51 316.882C132.88 316.757 132.301 316.447 131.846 315.993C131.392 315.538 131.082 314.959 130.957 314.329C130.832 313.698 130.896 313.045 131.142 312.451C131.388 311.857 131.804 311.35 132.339 310.993C132.873 310.635 133.501 310.445 134.144 310.445C135.006 310.445 135.833 310.787 136.442 311.397C137.051 312.006 137.394 312.833 137.394 313.695Z" stroke="#13141B" stroke-linecap="round" stroke-linejoin="round"/>
<path d="M490.765 62.4998C492.56 62.4998 494.015 61.0448 494.015 59.2499C494.015 57.455 492.56 56 490.765 56C488.971 56 487.516 57.455 487.516 59.2499C487.516 61.0448 488.971 62.4998 490.765 62.4998Z" stroke="#13141B" stroke-linecap="round" stroke-linejoin="round"/>
<path d="M553.8 310.445C553.8 311.731 553.419 312.987 552.705 314.056C551.991 315.125 550.976 315.958 549.788 316.45C548.601 316.942 547.294 317.071 546.033 316.82C544.772 316.569 543.614 315.95 542.705 315.041C541.796 314.132 541.177 312.974 540.927 311.713C540.676 310.452 540.805 309.145 541.297 307.958C541.788 306.77 542.621 305.755 543.69 305.041C544.759 304.327 546.016 303.945 547.301 303.945C549.025 303.945 550.678 304.63 551.897 305.849C553.116 307.068 553.8 308.721 553.8 310.445V310.445Z" stroke="#13141B" stroke-linecap="round" stroke-linejoin="round"/>
<path d="M213.554 204.861L196.861 184.991H213.554V204.861Z" stroke="#5DB77D" stroke-linecap="round" stroke-linejoin="round"/>
<path d="M139.141 184.98V132.792H213.554V173.082V184.98V184.991H196.861L196.85 184.98H139.141Z" stroke="#13141B" stroke-linecap="round" stroke-linejoin="round"/>
<path d="M195.485 151.253H152.806" stroke="#13141B" stroke-linecap="round" stroke-linejoin="round"/>
<path d="M195.485 166.899H163.338" stroke="#13141B" stroke-linecap="round" stroke-linejoin="round"/>
<path d="M396.93 334.814L422.461 304.421H396.93V334.814Z" stroke="#5DB77D" stroke-linecap="round" stroke-linejoin="round"/>
<path d="M510.73 304.411V224.593H396.93V286.214V304.411V304.422H422.461L422.471 304.411H510.73Z" stroke="#13141B" stroke-linecap="round" stroke-linejoin="round"/>
<path d="M424.557 252.826H489.845" stroke="#13141B" stroke-linecap="round" stroke-linejoin="round"/>
<path d="M424.557 276.76H473.724" stroke="#13141B" stroke-linecap="round" stroke-linejoin="round"/>
<path d="M260.943 280.138L190.383 295.498C189.614 295.661 188.813 295.57 188.101 295.237C187.388 294.905 186.804 294.35 186.435 293.656L154.288 222.031C153.868 221.24 153.297 220.539 152.606 219.969C151.916 219.399 151.12 218.97 150.264 218.708C149.407 218.445 148.508 218.354 147.616 218.439C146.725 218.524 145.859 218.785 145.068 219.205L142.951 220.327L176.326 304.337V304.432C176.798 305.321 177.557 306.024 178.48 306.428C179.402 306.831 180.433 306.912 181.407 306.655L267.368 284.245C267.035 282.863 266.179 281.664 264.982 280.898C263.784 280.133 262.337 279.86 260.943 280.138Z" fill="#5DB77D"/>
<path d="M146.021 404.639C146.021 404.639 140.273 416.548 135.986 419.258L124.247 422.042C122.735 422.154 121.274 422.635 119.991 423.443C118.708 424.252 117.644 425.363 116.891 426.679L147.915 441.033L162.84 411.901L146.021 404.639Z" fill="#13141B"/>
<path d="M306.787 301.172C306.787 301.172 232.914 303.945 198.259 309.207C193.308 309.966 188.606 311.885 184.539 314.809C180.471 317.732 177.153 321.577 174.855 326.028L134.103 404.798L170.198 423.789L212.062 348.11L288.115 345.834L306.787 301.172Z" fill="white" stroke="#13141B" stroke-linecap="round" stroke-linejoin="round"/>
<path d="M309.698 283.271C308.769 286.494 307.243 289.514 305.199 292.173C287.893 314.139 252.03 287.293 222.731 287.516C218.677 287.516 215.088 287.621 214.263 288.923C212.802 291.104 211.087 294.216 210.029 294.164C208.812 294.058 210.717 289.781 211.797 286.563C211.797 286.563 208.187 295.466 206.864 294.979C205.266 294.386 209.341 284.244 209.341 284.244C209.341 284.244 204.154 294.629 202.82 293.01C201.487 291.39 207.129 282.159 207.129 282.159C207.129 282.159 201.836 290.395 200.079 289.569C198.692 288.892 203.254 282.625 207.859 277.66C210.601 274.72 214.202 272.723 218.148 271.954C223.856 271.012 229.663 270.813 235.422 271.361C235.422 271.361 265.061 274.664 289.692 278.676L299.219 234.448C299.768 231.766 301.068 229.295 302.966 227.322C304.864 225.348 307.283 223.954 309.941 223.301C314.175 222.327 318.96 222.761 322.093 227.715C323.163 229.474 323.838 231.445 324.07 233.49C324.302 235.536 324.086 237.607 323.437 239.561L309.698 283.271Z" fill="white" stroke="#13141B" stroke-linecap="round" stroke-linejoin="round"/>
<path d="M216.465 422.211C216.465 422.211 224.584 437.127 224.171 442.177L219.312 453.249C218.489 454.522 217.992 455.978 217.864 457.488C217.737 458.998 217.983 460.516 218.582 461.909L248.718 445.765L234.375 416.22L216.465 422.211Z" fill="#13141B"/>
<path d="M314.218 291.803C314.218 291.803 211.014 285.695 181.28 313.695C157.326 336.264 210.167 433.242 210.167 433.242L247.776 417.363L217.195 349.052L305.051 347.908C305.051 347.908 340.755 337.704 331.567 291.803H314.218Z" fill="white" stroke="#13141B" stroke-linecap="round" stroke-linejoin="round"/>
<path d="M300.033 230.405L288.792 202.405L298.583 188.537L322.696 224.085L300.033 230.405Z" fill="white" stroke="#13141B" stroke-linecap="round" stroke-linejoin="round"/>
<path d="M294.044 215.873L301.413 208.028L292.654 208.7L294.044 215.873Z" fill="#13141B" stroke="#13141B" stroke-linecap="round" stroke-linejoin="round"/>
<path d="M271.764 177.38C269.593 184.554 265.518 204.511 286.175 209.356C298.244 212.185 308.033 205.543 315.575 191.602C323.381 177.099 313.576 158.782 300.149 154.531C286.721 150.28 276.619 161.392 271.764 177.38Z" fill="white" stroke="#13141B" stroke-linecap="round" stroke-linejoin="round"/>
<path d="M315.575 191.586C308.034 205.527 298.244 212.169 286.175 209.34C266.893 204.824 269.157 187.148 271.311 178.989C280.679 180.396 296.652 191.211 296.652 191.211C307.331 199.432 313.14 179.911 303.085 176.489C293.03 173.066 286.8 164.189 284.349 157.094C286.57 155.383 289.181 154.251 291.947 153.801C294.713 153.351 297.548 153.596 300.196 154.515C313.577 158.766 323.413 177.098 315.575 191.586Z" fill="#13141B" stroke="#13141B" stroke-linecap="round" stroke-linejoin="round"/>
<path d="M276.119 188.46C277.366 189.053 278.777 189.199 280.119 188.875C281.46 188.55 282.65 187.775 283.489 186.679" stroke="#F0EFE6" stroke-linecap="round" stroke-linejoin="round"/>
<path d="M296.65 191.227C298.906 192.071 301.39 192.071 303.645 191.227C308.485 189.461 311.155 184.616 309.609 180.412C308.563 177.552 306.081 176.427 303.083 176.552" fill="white"/>
<path d="M296.65 191.227C298.906 192.071 301.39 192.071 303.645 191.227C308.485 189.461 311.155 184.616 309.609 180.412C308.563 177.552 306.081 176.427 303.083 176.552" stroke="#13141B" stroke-linecap="round" stroke-linejoin="round"/>
<path d="M299.915 184.725C299.915 184.725 303.272 182.006 305.739 184.866L299.915 184.725Z" fill="white"/>
<path d="M299.915 184.725C299.915 184.725 303.272 182.006 305.739 184.866" stroke="#13141B" stroke-linecap="round" stroke-linejoin="round"/>
<path d="M294.498 224.272L318.256 212.863C318.256 212.863 347.729 283.26 347.729 328.25C347.729 328.25 289.826 306.974 260.932 306.549L294.498 224.272Z" fill="#13141B"/>
<path d="M300.245 235.729H309.867" stroke="white" stroke-linecap="round" stroke-linejoin="round"/>
<path d="M305.062 226.107L314.027 222.38" stroke="white" stroke-linecap="round" stroke-linejoin="round"/>
<path d="M320.156 225.228V235.729" stroke="white" stroke-linecap="round" stroke-linejoin="round"/>
<path d="M315.562 248.411L321.903 241.848" stroke="white" stroke-linecap="round" stroke-linejoin="round"/>
<path d="M302.871 247.099L301.78 254.975" stroke="white" stroke-linecap="round" stroke-linejoin="round"/>
<path d="M310.968 258.044L320.156 259.791" stroke="white" stroke-linecap="round" stroke-linejoin="round"/>
<path d="M327.809 258.913L333.927 252.794" stroke="white" stroke-linecap="round" stroke-linejoin="round"/>
<path d="M315.562 267.011L321.903 272.039" stroke="white" stroke-linecap="round" stroke-linejoin="round"/>
<path d="M321.903 282.689H331.524" stroke="white" stroke-linecap="round" stroke-linejoin="round"/>
<path d="M326.719 273.055L335.684 269.34" stroke="white" stroke-linecap="round" stroke-linejoin="round"/>
<path d="M341.802 272.187V282.689" stroke="white" stroke-linecap="round" stroke-linejoin="round"/>
<path d="M337.209 295.371L343.56 288.807" stroke="white" stroke-linecap="round" stroke-linejoin="round"/>
<path d="M324.528 294.058L323.437 301.934" stroke="white" stroke-linecap="round" stroke-linejoin="round"/>
<path d="M332.625 305.004L341.803 306.751" stroke="white" stroke-linecap="round" stroke-linejoin="round"/>
<path d="M349.466 305.872L355.584 299.753" stroke="white" stroke-linecap="round" stroke-linejoin="round"/>
<path d="M337.209 313.97L343.56 318.998" stroke="white" stroke-linecap="round" stroke-linejoin="round"/>
<path d="M278.631 262.745H288.253" stroke="white" stroke-linecap="round" stroke-linejoin="round"/>
<path d="M283.436 253.122L292.402 249.396" stroke="white" stroke-linecap="round" stroke-linejoin="round"/>
<path d="M293.937 275.437L300.277 268.874" stroke="white" stroke-linecap="round" stroke-linejoin="round"/>
<path d="M281.256 274.125L280.155 282.001" stroke="white" stroke-linecap="round" stroke-linejoin="round"/>
<path d="M289.343 285.06L298.531 286.807" stroke="white" stroke-linecap="round" stroke-linejoin="round"/>
<path d="M306.184 285.939L312.313 279.809" stroke="white" stroke-linecap="round" stroke-linejoin="round"/>
<path d="M293.937 294.026L300.277 299.055" stroke="white" stroke-linecap="round" stroke-linejoin="round"/>
<path d="M282.579 296.567C280.684 299.336 278.285 301.724 275.508 303.607C252.221 319.03 226.563 282.286 198.671 273.288C194.818 272.05 191.389 270.991 190.203 271.955C188.086 273.574 185.503 276.009 184.519 275.596C183.535 275.183 186.551 271.648 188.594 268.927C188.594 268.927 182.37 276.252 181.269 275.374C179.936 274.315 186.985 265.963 186.985 265.963C186.985 265.963 178.803 274.188 178.041 272.24C177.279 270.293 185.535 263.295 185.535 263.295C185.535 263.295 177.882 269.435 176.517 268.112C175.405 267.053 181.672 262.501 187.642 259.251C191.166 257.317 195.214 256.554 199.201 257.071C204.916 257.968 210.491 259.601 215.787 261.93C215.787 261.93 242.875 274.368 265.018 285.917L287.988 246.929C289.353 244.557 291.362 242.621 293.783 241.345C296.203 240.069 298.936 239.506 301.664 239.72C306.004 240.123 310.407 242.039 311.826 247.723C312.281 249.726 312.299 251.803 311.877 253.813C311.455 255.823 310.603 257.718 309.38 259.368L282.579 296.567Z" fill="white" stroke="#13141B" stroke-linecap="round" stroke-linejoin="round"/>
<path d="M265.886 275.416L292.412 294.174C292.412 294.174 334.752 240.863 315.18 227.98C296.762 215.838 265.886 275.416 265.886 275.416Z" fill="#13141B" stroke="#13141B" stroke-linecap="round" stroke-linejoin="round"/>
<path d="M300.245 235.729H309.867" stroke="white" stroke-linecap="round" stroke-linejoin="round"/>
<path d="M305.062 226.107L314.027 222.38" stroke="white" stroke-linecap="round" stroke-linejoin="round"/>
<path d="M320.156 225.228V235.729" stroke="white" stroke-linecap="round" stroke-linejoin="round"/>
<path d="M315.562 248.411L321.903 241.848" stroke="white" stroke-linecap="round" stroke-linejoin="round"/>
<path d="M302.871 247.099L301.78 254.975" stroke="white" stroke-linecap="round" stroke-linejoin="round"/>
<path d="M310.968 258.044L320.156 259.791" stroke="white" stroke-linecap="round" stroke-linejoin="round"/>
<path d="M327.809 258.913L333.927 252.794" stroke="white" stroke-linecap="round" stroke-linejoin="round"/>
<path d="M315.562 267.011L321.903 272.039" stroke="white" stroke-linecap="round" stroke-linejoin="round"/>
<path d="M321.903 282.689H331.524" stroke="white" stroke-linecap="round" stroke-linejoin="round"/>
<path d="M326.719 273.055L335.684 269.34" stroke="white" stroke-linecap="round" stroke-linejoin="round"/>
<path d="M341.802 272.187V282.689" stroke="white" stroke-linecap="round" stroke-linejoin="round"/>
<path d="M337.209 295.371L343.56 288.807" stroke="white" stroke-linecap="round" stroke-linejoin="round"/>
<path d="M324.528 294.058L323.437 301.934" stroke="white" stroke-linecap="round" stroke-linejoin="round"/>
<path d="M332.625 305.004L341.803 306.751" stroke="white" stroke-linecap="round" stroke-linejoin="round"/>
<path d="M349.466 305.872L355.584 299.753" stroke="white" stroke-linecap="round" stroke-linejoin="round"/>
<path d="M337.209 313.97L343.56 318.998" stroke="white" stroke-linecap="round" stroke-linejoin="round"/>
<path d="M278.631 262.745H288.253" stroke="white" stroke-linecap="round" stroke-linejoin="round"/>
<path d="M283.436 253.122L292.402 249.396" stroke="white" stroke-linecap="round" stroke-linejoin="round"/>
<path d="M293.937 275.437L300.277 268.874" stroke="white" stroke-linecap="round" stroke-linejoin="round"/>
<path d="M281.256 274.125L280.155 282.001" stroke="white" stroke-linecap="round" stroke-linejoin="round"/>
<path d="M289.343 285.06L298.531 286.807" stroke="white" stroke-linecap="round" stroke-linejoin="round"/>
<path d="M306.184 285.939L312.313 279.809" stroke="white" stroke-linecap="round" stroke-linejoin="round"/>
<path d="M293.937 294.026L300.277 299.055" stroke="white" stroke-linecap="round" stroke-linejoin="round"/>
<path d="M94.5777 182.493C94.5789 183.44 94.3771 184.376 93.986 185.238C93.5949 186.101 93.0235 186.869 92.3104 187.492C91.5972 188.115 90.7588 188.578 89.8517 188.85C88.9446 189.121 87.9898 189.195 87.0517 189.066C82.6695 188.209 80.5419 183.308 77.1335 180.407C76.4218 179.712 75.5568 179.193 74.6081 178.894C73.6594 178.594 72.6535 178.521 71.6716 178.682C70.7827 178.948 69.9652 179.411 69.2794 180.037C66.6331 182.291 65.1406 185.552 63.2988 188.505C61.457 191.459 58.906 194.317 55.487 194.857C52.0681 195.397 48.8079 193.513 46.6697 190.919C44.5315 188.325 43.3671 185.086 42.2451 181.91" stroke="#13141B" stroke-linecap="round" stroke-linejoin="round"/>
<path d="M584.43 382.875C582.279 387.424 579.028 391.367 574.972 394.348C570.915 397.329 566.18 399.255 561.192 399.952C556.046 400.567 550.827 399.902 545.999 398.014C541.171 396.126 536.885 393.075 533.523 389.132C531.733 387.08 530.34 384.713 529.417 382.153C528.923 380.738 528.686 379.248 528.716 377.75C528.741 376.118 529.17 374.517 529.965 373.091C530.789 371.647 531.97 370.439 533.396 369.582C534.986 368.605 536.876 368.238 538.717 368.549C540.414 368.881 541.984 369.683 543.248 370.863C544.382 371.899 545.348 373.106 546.11 374.44C547.561 377.101 548.185 380.134 547.903 383.151C547.66 386.016 546.816 388.797 545.425 391.314C544.057 393.842 542.202 396.074 539.966 397.883C538.8 398.793 537.539 399.577 536.207 400.22C534.918 400.82 533.58 401.309 532.208 401.684C526.876 403.009 521.298 402.994 515.972 401.64C510.924 400.433 506.042 398.612 501.437 396.218C496.901 394.006 492.558 391.417 488.456 388.479C484.37 385.466 480.537 382.125 476.994 378.49C462.896 364.023 453.382 344.997 451.48 325.399L452.343 325.202C455.66 334.181 459.955 342.768 465.153 350.808C466.526 352.703 467.788 354.721 469.229 356.588C469.944 357.513 470.601 358.483 471.353 359.387L473.596 362.08C475.081 363.898 476.693 365.582 478.3 367.341L480.787 369.81L481.988 371.032L483.298 372.193C490.078 378.528 497.595 384.028 505.686 388.576C509.573 390.924 513.738 392.779 518.085 394.097C522.161 395.378 526.488 395.641 530.688 394.863C531.673 394.639 532.639 394.336 533.575 393.956C534.448 393.592 535.275 393.127 536.04 392.571C537.657 391.397 539.018 389.907 540.041 388.191C542.136 384.767 542.882 380.385 541.241 377.212C540.822 376.421 540.298 375.69 539.683 375.039C539.199 374.516 538.585 374.13 537.904 373.921C537.327 373.804 536.727 373.898 536.213 374.185C535.533 374.56 534.958 375.099 534.54 375.753C534.109 376.433 533.858 377.212 533.811 378.016C533.753 378.953 533.863 379.893 534.137 380.791C534.808 382.845 535.849 384.76 537.209 386.44C539.995 390.076 543.635 392.969 547.807 394.862C551.979 396.755 556.554 397.59 561.126 397.292C565.833 396.871 570.365 395.307 574.328 392.736C578.291 390.165 581.564 386.665 583.863 382.54L584.43 382.875Z" fill="#13141B"/>
<path d="M472.591 522.238C492.872 508.815 504.431 483.314 501.171 459.22" stroke="#13141B" stroke-linecap="round" stroke-linejoin="round"/>
<path d="M493.846 468.864L501.16 459.22L509.12 468.25" stroke="#13141B" stroke-linecap="round" stroke-linejoin="round"/>
<path d="M367.981 106.537C369.27 108.423 371.072 109.899 373.174 110.789C375.265 111.635 377.513 112.023 379.767 111.926C382.01 111.858 384.219 111.357 386.272 110.45C388.314 109.538 390.188 108.291 391.818 106.759C395.065 103.591 397.74 99.885 399.724 95.8041C400.255 94.7854 400.772 93.752 401.273 92.689C401.766 91.7477 402.162 90.7583 402.453 89.7363C402.564 89.3474 402.618 88.9447 402.615 88.5404C402.615 88.2451 402.468 88.1418 402.615 88.3042C402.763 88.4666 403.028 88.5109 402.881 88.5257C402.65 88.612 402.436 88.7368 402.247 88.8947C401.634 89.4913 401.149 90.2056 400.82 90.9946C400.49 91.7836 400.323 92.6311 400.329 93.4862C400.289 95.5127 400.676 97.5249 401.465 99.3917C402.935 103.388 405.397 106.945 408.619 109.726C410.048 110.897 411.774 111.648 413.604 111.896C415.373 112.091 417.159 111.773 418.752 110.981C422.042 109.372 424.874 105.902 427.455 102.212C428.753 100.337 429.992 98.373 431.32 96.3061L432.337 94.8297L433.208 93.4715C433.783 92.5266 434.358 91.5522 434.933 90.5187C436.099 88.4666 437.264 86.3259 438.651 84.1852C440.086 81.8179 441.849 79.6657 443.887 77.7925C445.185 76.6435 446.685 75.7472 448.312 75.1498C448.784 75.0022 449.256 74.8693 449.787 74.7512C450.231 74.666 450.679 74.6069 451.129 74.574L452.472 74.4707C452.966 74.4852 453.458 74.5295 453.947 74.6036C454.445 74.6483 454.939 74.7372 455.422 74.8693L456.897 75.386C457.368 75.5748 457.818 75.8123 458.239 76.0947C458.667 76.3752 459.095 76.641 459.478 76.951C460.834 78.0941 461.952 79.4939 462.767 81.07C464.057 83.592 464.938 86.3029 465.378 89.1014C465.614 90.3711 465.791 91.5965 465.953 92.7333C466.042 93.2648 466.13 93.811 466.189 94.1211C466.248 94.4311 466.411 94.9774 466.543 95.376C466.945 96.8356 467.729 98.161 468.815 99.2145C469.148 99.5196 469.564 99.7199 470.01 99.7903C470.509 99.8581 471.016 99.7972 471.485 99.6131C473.213 98.8171 474.77 97.6941 476.072 96.3061C476.928 95.5384 477.783 94.6821 478.772 93.8406L480.365 92.5709C480.91 92.187 481.486 91.8327 482.046 91.4489C486.512 88.703 491.658 87.2657 496.9 87.3003C501.937 87.3316 506.849 88.8744 511.001 91.7294L510.588 92.5118C506.423 91.0261 501.95 90.6233 497.587 91.3412C493.225 92.059 489.115 93.8741 485.645 96.6161C485.247 96.9557 484.849 97.2805 484.48 97.6348L483.433 98.7421L481.073 101.34C479.301 103.568 477.118 105.433 474.641 106.833C472.985 107.668 471.14 108.06 469.287 107.969C467.361 107.865 465.5 107.237 463.903 106.153C461.258 104.257 459.243 101.608 458.121 98.5501C457.845 97.8553 457.609 97.1456 457.413 96.4242C457.192 95.5827 457.088 94.9478 456.956 94.3278C456.734 93.1319 456.528 92.0246 456.292 90.9764C455.971 89.095 455.38 87.2701 454.537 85.5582C454.268 85.0174 453.92 84.5197 453.504 84.0818C453.165 83.9046 453.017 83.6832 452.575 83.6684C452.472 83.6684 452.383 83.6684 452.265 83.6684H451.837C451.7 83.661 451.562 83.661 451.424 83.6684C451.327 83.6892 451.227 83.6892 451.129 83.6684C450.525 83.8719 449.965 84.1874 449.477 84.5985C447.933 85.8489 446.576 87.3157 445.45 88.9538C444.152 90.7107 442.899 92.6447 441.615 94.6526C440.966 95.6417 440.288 96.6752 439.58 97.7234L438.444 99.2883L437.411 100.676C436.04 102.536 434.638 104.5 433.134 106.449C431.607 108.476 429.936 110.391 428.134 112.177C426.177 114.14 423.884 115.735 421.363 116.887C418.629 118.066 415.615 118.44 412.675 117.964C409.806 117.449 407.133 116.157 404.946 114.229C402.944 112.466 401.232 110.398 399.872 108.102C398.553 105.905 397.47 103.574 396.641 101.149C395.721 98.5825 395.354 95.8502 395.565 93.1319C395.661 91.6104 396.082 90.1273 396.799 88.7825C397.517 87.4378 398.514 86.2628 399.724 85.3367C400.485 84.7767 401.371 84.4118 402.306 84.2737C402.586 84.259 402.866 84.259 403.146 84.2737C403.461 84.2906 403.773 84.3451 404.076 84.4361C404.741 84.6341 405.338 85.0122 405.801 85.5286C406.508 86.3914 406.87 87.4852 406.819 88.5995C406.791 89.3828 406.652 90.1582 406.406 90.9026C405.973 92.1399 405.42 93.3317 404.754 94.4606C404.164 95.5236 403.559 96.5718 402.94 97.6053C400.506 101.888 397.346 105.714 393.603 108.914C391.672 110.514 389.489 111.782 387.142 112.664C384.782 113.526 382.278 113.927 379.767 113.845C377.278 113.767 374.834 113.158 372.598 112.059C370.367 110.928 368.515 109.168 367.273 106.995L367.981 106.537Z" fill="#13141B"/>
</g>
<defs>
<clipPath id="clip0_256_5407">
<rect width="624" height="564" fill="white" transform="matrix(-1 0 0 1 624 0)"/>
</clipPath>
</defs>
</svg>
