<svg width="34" height="16" viewBox="0 0 34 16" fill="none" xmlns="http://www.w3.org/2000/svg">
<g clip-path="url(#clip0_256_5617)">
<path d="M-0.000240676 5.79965C0.200893 6.90522 0.674103 7.94346 1.37677 8.82086C2.07943 9.69826 2.98948 10.3873 4.02499 10.8258C5.09939 11.2561 6.26363 11.4142 7.414 11.286C8.56437 11.1579 9.66515 10.7475 10.6183 10.0914C11.123 9.75221 11.5601 9.3222 11.9073 8.82327C12.0954 8.54671 12.2327 8.23888 12.3128 7.91421C12.4017 7.56069 12.4017 7.19069 12.3128 6.83716C12.2185 6.47804 12.0335 6.14914 11.7754 5.88199C11.4891 5.57943 11.1025 5.391 10.6875 5.3517C10.3023 5.32517 9.91733 5.40734 9.57657 5.58885C9.27195 5.74677 8.99388 5.95125 8.7524 6.19489C8.28563 6.68508 7.97574 7.30317 7.86231 7.9702C7.74917 8.60215 7.77051 9.25081 7.92495 9.87397C8.07403 10.4983 8.34515 11.0871 8.72273 11.6065C8.92175 11.8702 9.1483 12.112 9.39856 12.3278C9.64198 12.5317 9.90224 12.7146 10.1766 12.8745C11.25 13.4686 12.4539 13.7877 13.6809 13.8034C14.8395 13.8348 15.9976 13.7242 17.1292 13.474C18.2355 13.2591 19.3217 12.9517 20.3764 12.555C21.4318 12.1412 22.4516 11.6422 23.4259 11.063C27.3027 8.7574 30.4544 5.20348 31.9972 1.08634L31.8225 0.994121C30.5882 2.73909 29.1654 4.34291 27.5797 5.77659C27.1742 6.10596 26.7852 6.46827 26.3665 6.78776C26.1588 6.94586 25.961 7.11713 25.7467 7.26864L25.1072 7.71988C24.6819 8.02619 24.2368 8.29628 23.7885 8.58283L23.1094 8.97149L22.7797 9.16582L22.4303 9.34038C20.6016 10.315 18.6625 11.0669 16.6545 11.5801C15.6803 11.8619 14.6748 12.0213 13.6611 12.0544C12.708 12.0951 11.7595 11.9017 10.8985 11.4912C10.699 11.3859 10.5082 11.2648 10.3282 11.1289C10.161 10.9998 10.0094 10.8517 9.87657 10.6875C9.59569 10.3409 9.38819 9.94082 9.26668 9.51166C9.01284 8.652 9.10515 7.66389 9.64251 7.07431C9.77864 6.92793 9.93388 6.80053 10.104 6.69554C10.2387 6.61077 10.3934 6.56305 10.5524 6.5572C10.6836 6.56545 10.8076 6.62036 10.9018 6.712C11.0268 6.83219 11.1197 6.98163 11.1722 7.14677C11.2258 7.31844 11.2349 7.50092 11.1985 7.67706C11.157 7.88255 11.0788 8.0789 10.9678 8.25675C10.7044 8.66108 10.3692 9.01384 9.97876 9.29757C9.16788 9.92081 8.21551 10.3344 7.20623 10.5016C6.19694 10.6688 5.16195 10.5844 4.19312 10.256C3.20218 9.89329 2.31501 9.29404 1.60886 8.51045C0.902702 7.72685 0.398969 6.78268 0.141513 5.76012L-0.000240676 5.79965Z" fill="#5DB77D"/>
<path d="M33 6.13557C33 5.25945 32.9407 4.38661 32.8945 3.50061C32.8484 2.6146 32.7824 1.75494 32.7 0.882105L32.6473 0.318879L31.9418 0.256298C31.4769 0.216773 31.0088 0.147606 30.544 0.0718504C30.0811 -0.00649201 29.6097 -0.0209015 29.1429 0.0290305C28.6684 0.0832574 28.1995 0.179149 27.7418 0.315587C27.25 0.45646 26.7798 0.663675 26.344 0.931509L26.344 1.12913C26.7798 1.39608 27.2501 1.6022 27.7418 1.74176C28.1995 1.8782 28.6684 1.97409 29.1429 2.02832C29.6097 2.07825 30.0811 2.06384 30.544 1.9855C31.0088 1.90974 31.4769 1.84057 31.9418 1.80105L31.1835 1.17525C31.4209 2.00856 31.678 2.84186 31.9484 3.67187C32.2187 4.50189 32.4956 5.31873 32.8055 6.15863L33 6.13557Z" fill="#5DB77D"/>
</g>
<defs>
<clipPath id="clip0_256_5617">
<rect width="34" height="16" fill="white"/>
</clipPath>
</defs>
</svg>
