<svg width="145" height="27" viewBox="0 0 145 27" fill="none" xmlns="http://www.w3.org/2000/svg">
<g clip-path="url(#clip0_256_4590)">
<path d="M98.5256 19.5943H111.613V16.5857H102.987C104.177 11.6486 111.464 10.5686 111.464 5.09143C111.464 2.16 109.531 0 105.441 0C102.913 0 100.682 0.771429 99.1949 1.54286L100.087 4.32C101.426 3.62571 102.987 3.00857 104.921 3.00857C106.408 3.00857 107.821 3.70286 107.821 5.47714C107.821 9.48857 99.2692 9.79714 98.5256 19.5943ZM111.985 14.8114H120.387V19.5943H123.733V14.8114H126.559V11.88H123.733V0H121.279L111.985 12.4971V14.8114ZM115.777 12.0343L120.536 5.4C120.536 5.94 120.387 7.63714 120.387 9.18V11.9571H118.156C117.487 11.9571 116.223 12.0343 115.777 12.0343Z" fill="#005893"/>
<path d="M3.49487 16.6629V10.5686H4.90769C6.17179 10.5686 7.21282 10.7229 7.95641 11.1857C8.7 11.6486 9.14615 12.42 9.14615 13.6543C9.14615 15.7371 7.95641 16.6629 5.13077 16.6629H3.49487ZM0.074359 19.5943H5.05641C10.6333 19.5943 12.641 17.0486 12.641 13.5C12.641 11.1086 11.6744 9.48858 9.9641 8.56286C8.62564 7.79143 6.91538 7.56001 4.83333 7.56001H3.49487V2.93143H11.0051L11.8974 0.0771484H0V19.5943H0.074359ZM14.9462 19.5943H18.2179L22.4564 13.2686C23.2744 12.1114 23.8692 10.9543 24.241 10.3371H24.3154C24.241 11.1857 24.1667 12.2657 24.1667 13.3457V19.5171H27.5128V5.63143H24.241L20.0026 11.9571C19.259 13.1143 18.5897 14.2714 18.2179 14.8886H18.1436C18.2179 14.04 18.2923 12.96 18.2923 11.88V5.70858H14.9462V19.5943ZM33.2385 19.5943H36.659V8.56286H40.6744L41.5667 5.63143H29.1487V8.56286H33.2385V19.5943ZM42.7564 26.6143H46.1026V19.5943C46.7718 19.8257 47.441 19.9029 48.1846 19.9029C52.4231 19.9029 55.1744 16.8943 55.1744 12.5743C55.1744 8.10001 52.6462 5.24572 47.8128 5.24572C45.9538 5.24572 44.1692 5.63143 42.682 6.09429V26.6143H42.7564ZM46.1026 16.5857V8.40858C46.6231 8.25429 47.0692 8.17715 47.6641 8.17715C50.1179 8.17715 51.6795 9.56572 51.6795 12.5743C51.6795 15.2743 50.4154 16.9714 47.8872 16.9714C47.2179 16.9714 46.6974 16.8171 46.1026 16.5857ZM57.182 19.5943H60.4538L64.6923 13.2686C65.5103 12.1114 66.1051 10.9543 66.4769 10.3371H66.5513C66.4769 11.1857 66.4026 12.2657 66.4026 13.3457V19.5171H69.7487V5.63143H66.4769L62.2385 11.9571C61.4949 13.1143 60.8256 14.2714 60.4538 14.8886H60.3795C60.4538 14.04 60.5282 12.96 60.5282 11.88V5.70858H57.182V19.5943ZM72.4256 19.5943H75.8461V13.8086H77.8538C78.2256 13.8086 78.5974 14.1943 79.0436 15.12L80.7538 19.5943H84.3974L81.9436 14.2714C81.4974 13.3457 81.0513 12.8057 80.382 12.5743V12.4971C81.4974 11.8029 81.6461 9.79715 82.3154 8.79429C82.5385 8.48572 82.8359 8.33143 83.282 8.33143C83.5051 8.33143 83.8026 8.33143 84.0256 8.48572V5.47715C83.6538 5.32286 82.9846 5.24572 82.6128 5.24572C81.4231 5.24572 80.6795 5.70858 80.159 6.48001C79.0436 8.17715 79.0436 11.1086 77.4077 11.1086H75.8461V5.63143H72.4256V19.5943ZM91.982 19.9029C93.841 19.9029 95.5513 19.2857 96.5923 18.5143L95.6256 16.1229C94.659 16.6629 93.7667 17.0486 92.5026 17.0486C90.1974 17.0486 88.7103 15.5057 88.7103 12.6514C88.7103 10.1057 90.1974 8.10001 92.7256 8.10001C94.0641 8.10001 95.0308 8.48572 95.9974 9.18001V6.17143C95.2538 5.70858 94.0641 5.24572 92.3538 5.24572C88.3385 5.24572 85.2154 8.33143 85.2154 12.7286C85.2154 16.74 87.5949 19.9029 91.982 19.9029Z" fill="#0BBBEF"/>
<path d="M137.638 14.8114C141.282 14.8114 144.256 11.7257 144.256 7.94573C144.256 4.16573 141.282 1.08002 137.638 1.08002C133.995 1.08002 131.021 4.16573 131.021 7.94573C131.095 11.7257 133.995 14.8114 137.638 14.8114Z" stroke="#005893" stroke-width="1.7688"/>
<path d="M141.803 7.94571H138.159V4.16571H137.192V8.94857H141.803V7.94571Z" fill="#005893"/>
</g>
<defs>
<clipPath id="clip0_256_4590">
<rect width="145" height="27" fill="white"/>
</clipPath>
</defs>
</svg>
