<svg width="24" height="24" viewBox="0 0 24 24" fill="none" xmlns="http://www.w3.org/2000/svg">
<path d="M11.9061 1.5C7.52126 1.5 6.23886 1.50452 5.98959 1.5252C5.08974 1.6 4.5298 1.74168 3.91978 2.0454C3.44966 2.27884 3.0789 2.54944 2.71298 2.92877C2.04658 3.62054 1.6427 4.4716 1.49649 5.48324C1.42541 5.97436 1.40473 6.07452 1.40053 8.5831C1.39891 9.4193 1.40053 10.5198 1.40053 11.9959C1.40053 16.3772 1.40538 17.6583 1.42638 17.9071C1.49908 18.7827 1.6364 19.3336 1.92719 19.9362C2.48293 21.0897 3.54433 21.9556 4.79474 22.2787C5.22771 22.3902 5.7059 22.4516 6.3198 22.4807C6.5799 22.492 9.23097 22.5 11.8837 22.5C14.5364 22.5 17.189 22.4968 17.4427 22.4839C18.1535 22.4504 18.5663 22.395 19.0227 22.2771C19.6427 22.1181 20.2205 21.8257 20.7158 21.4202C21.2111 21.0148 21.6119 20.5061 21.8902 19.9297C22.1754 19.3417 22.3199 18.7698 22.3854 17.9399C22.3996 17.759 22.4056 14.8741 22.4056 11.9932C22.4056 9.1117 22.3991 6.23219 22.3849 6.05125C22.3187 5.20795 22.1741 4.6409 21.8797 4.04154C21.6382 3.55091 21.37 3.18451 20.9807 2.80987C20.286 2.14621 19.4362 1.74233 18.4235 1.59629C17.9328 1.52536 17.8351 1.50436 15.3246 1.5H11.9061Z" fill="#717276"/>
<path d="M11.9012 4.24634C9.79524 4.24634 9.53094 4.25555 8.7038 4.29319C7.87826 4.33099 7.31477 4.46169 6.82171 4.65345C6.31169 4.85151 5.87905 5.11646 5.44803 5.54764C5.01668 5.97866 4.75174 6.4113 4.55303 6.92116C4.36078 7.41438 4.22992 7.97804 4.19277 8.80325C4.15593 9.6304 4.14624 9.89486 4.14624 12.0009C4.14624 14.1069 4.15561 14.3703 4.19309 15.1975C4.23106 16.023 4.36175 16.5865 4.55335 17.0796C4.75158 17.5896 5.01652 18.0222 5.44771 18.4533C5.87857 18.8846 6.3112 19.1502 6.8209 19.3483C7.31428 19.54 7.87794 19.6707 8.70331 19.7085C9.53046 19.7462 9.7946 19.7554 11.9004 19.7554C14.0066 19.7554 14.2701 19.7462 15.0972 19.7085C15.9228 19.6707 16.4869 19.54 16.9803 19.3483C17.4901 19.1502 17.9221 18.8846 18.353 18.4533C18.7843 18.0222 19.0493 17.5896 19.248 17.0797C19.4386 16.5865 19.5695 16.0229 19.6083 15.1977C19.6454 14.3705 19.6551 14.1069 19.6551 12.0009C19.6551 9.89486 19.6454 9.63056 19.6083 8.80341C19.5695 7.97788 19.4386 7.41438 19.248 6.92132C19.0493 6.4113 18.7843 5.97866 18.353 5.54764C17.9217 5.1163 17.4903 4.85135 16.9798 4.65345C16.4855 4.46169 15.9216 4.33099 15.0961 4.29319C14.269 4.25555 14.0056 4.24634 11.899 4.24634H11.9012ZM11.2056 5.64377C11.4121 5.64344 11.6424 5.64377 11.9012 5.64377C13.9717 5.64377 14.2171 5.6512 15.0347 5.68835C15.7908 5.72293 16.2011 5.84926 16.4745 5.9554C16.8363 6.09595 17.0943 6.26397 17.3656 6.53537C17.637 6.80678 17.805 7.06527 17.9459 7.42714C18.052 7.70017 18.1785 8.11051 18.2129 8.86658C18.2501 9.68403 18.2582 9.92959 18.2582 11.9991C18.2582 14.0686 18.2501 14.3141 18.2129 15.1316C18.1784 15.8876 18.052 16.298 17.9459 16.571C17.8053 16.9329 17.637 17.1906 17.3656 17.4618C17.0942 17.7332 16.8365 17.9012 16.4745 18.0418C16.2014 18.1484 15.7908 18.2744 15.0347 18.309C14.2173 18.3461 13.9717 18.3542 11.9012 18.3542C9.83062 18.3542 9.58523 18.3461 8.76777 18.309C8.0117 18.2741 7.60136 18.1478 7.32785 18.0416C6.96598 17.9011 6.70749 17.7331 6.43608 17.4616C6.16468 17.1902 5.99666 16.9324 5.85579 16.5704C5.74965 16.2973 5.62315 15.887 5.58874 15.1309C5.55158 14.3135 5.54415 14.0679 5.54415 11.9971C5.54415 9.92636 5.55158 9.68209 5.58874 8.86464C5.62331 8.10857 5.74965 7.69823 5.85579 7.42488C5.99634 7.063 6.16468 6.80452 6.43608 6.53311C6.70749 6.2617 6.96598 6.09369 7.32785 5.95282C7.6012 5.84619 8.0117 5.72018 8.76777 5.68545C9.48312 5.65314 9.76035 5.64344 11.2056 5.64183V5.64377ZM16.0405 6.93134C15.8565 6.93134 15.6766 6.98592 15.5235 7.08819C15.3705 7.19045 15.2512 7.3358 15.1808 7.50585C15.1104 7.67591 15.092 7.86302 15.1279 8.04354C15.1638 8.22406 15.2525 8.38986 15.3827 8.51999C15.5128 8.65011 15.6787 8.73871 15.8592 8.77458C16.0397 8.81045 16.2268 8.79198 16.3969 8.7215C16.5669 8.65102 16.7122 8.5317 16.8144 8.37863C16.9166 8.22556 16.9711 8.04562 16.9711 7.86156C16.9711 7.34782 16.5543 6.93102 16.0405 6.93102V6.93134ZM11.9012 8.01859C9.70203 8.01859 7.91897 9.80164 7.91897 12.0009C7.91897 14.2001 9.70203 15.9823 11.9012 15.9823C14.1005 15.9823 15.883 14.2001 15.883 12.0009C15.883 9.80164 14.1003 8.01859 11.9011 8.01859H11.9012ZM11.9012 9.41602C13.3287 9.41602 14.4861 10.5732 14.4861 12.0009C14.4861 13.4283 13.3287 14.5857 11.9012 14.5857C10.4736 14.5857 9.3164 13.4283 9.3164 12.0009C9.3164 10.5732 10.4736 9.41602 11.9012 9.41602Z" fill="#13141B"/>
</svg>
