<svg width="124" height="26" viewBox="0 0 124 26" fill="none" xmlns="http://www.w3.org/2000/svg">
<path d="M1.93526 1.93733H5.80578V16.5163H14.6564V19.9998H1.93526V1.93733ZM16.9285 1.93733H20.799V19.9998H16.9285V1.93733ZM23.0647 1.93733H38.0049V5.4208H32.4571V19.9998H28.6124V5.4208H23.0647V1.93733ZM40.2877 1.93733H53.0088V5.34338H44.1582V9.1881H52.2347V12.5684H44.1582V16.5937H53.1636V19.9998H40.2877V1.93733Z" fill="#13141B"/>
<path d="M59.8493 18.0552C60.8389 18.0552 61.6412 17.2468 61.6412 16.2496C61.6412 15.2525 60.8389 14.4441 59.8493 14.4441C58.8596 14.4441 58.0574 15.2525 58.0574 16.2496C58.0574 17.2468 58.8596 18.0552 59.8493 18.0552Z" fill="#13141B"/>
<path d="M59.8493 9.3887C60.8389 9.3887 61.6412 8.58032 61.6412 7.58314C61.6412 6.58596 60.8389 5.77759 59.8493 5.77759C58.8596 5.77759 58.0574 6.58596 58.0574 7.58314C58.0574 8.58032 58.8596 9.3887 59.8493 9.3887Z" fill="#13141B"/>
<path d="M92.2472 1.93708H104.968V5.34314H96.1177V9.18786H104.194V12.5681H96.1177V16.5935H105.123V19.9995H92.2472V1.93708ZM108.198 1.93708H116.094C118.072 1.93708 119.603 2.32413 120.687 3.09824C121.788 3.85514 122.338 4.99049 122.338 6.5043C122.338 8.51697 121.427 9.83294 119.603 10.4522C120.601 10.7447 121.427 11.2607 122.08 12.0004C122.734 12.7229 123.061 13.7035 123.061 14.942C123.061 15.9226 122.846 16.7655 122.416 17.4708C121.986 18.1589 121.401 18.6749 120.661 19.019C119.939 19.363 119.19 19.6125 118.416 19.7673C117.659 19.9221 116.842 19.9995 115.965 19.9995H108.198V1.93708ZM119.19 14.5292C119.19 12.981 118.167 12.2069 116.12 12.2069H112.043V16.8515H115.913C116.928 16.8515 117.728 16.6881 118.313 16.3612C118.898 16.0344 119.19 15.4237 119.19 14.5292ZM118.494 7.17519C118.494 5.799 117.582 5.11091 115.758 5.11091H112.068V9.23946H115.965C116.722 9.23946 117.332 9.06744 117.797 8.72339C118.261 8.36215 118.494 7.84608 118.494 7.17519Z" fill="#5DB77D"/>
<path d="M87.0867 2.1665L82.7861 16.6109L78.8611 2.1665H75.4551L71.5587 15.9205L67.972 2.1665H64.1503L69.3654 20.3665H73.5714L77.1581 7.9645L80.7448 20.3665H84.9507L90.3121 2.1665H87.0867Z" fill="#5DB77D"/>
<path d="M78.8441 2.16675H75.4552L71.5589 15.9207L70.2429 20.3667H73.5716L78.8441 2.16675Z" fill="#13141B"/>
<path d="M90.3121 2.16675H86.9232L83.0269 15.9207L81.7109 20.3667H85.0396L90.3121 2.16675Z" fill="#13141B"/>
</svg>
