<svg width="124" height="26" viewBox="0 0 124 26" fill="none" xmlns="http://www.w3.org/2000/svg">
<path d="M1.93526 1.93757H5.80578V16.5165H14.6564V20H1.93526V1.93757ZM16.9285 1.93757H20.799V20H16.9285V1.93757ZM23.0647 1.93757H38.0049V5.42104H32.4571V20H28.6124V5.42104H23.0647V1.93757ZM40.2877 1.93757H53.0088V5.34363H44.1582V9.18835H52.2347V12.5686H44.1582V16.5939H53.1636V20H40.2877V1.93757Z" fill="white"/>
<path d="M59.8493 18.0554C60.8389 18.0554 61.6412 17.2471 61.6412 16.2499C61.6412 15.2527 60.8389 14.4443 59.8493 14.4443C58.8596 14.4443 58.0574 15.2527 58.0574 16.2499C58.0574 17.2471 58.8596 18.0554 59.8493 18.0554Z" fill="white"/>
<path d="M59.8493 9.38894C60.8389 9.38894 61.6412 8.58057 61.6412 7.58339C61.6412 6.58621 60.8389 5.77783 59.8493 5.77783C58.8596 5.77783 58.0574 6.58621 58.0574 7.58339C58.0574 8.58057 58.8596 9.38894 59.8493 9.38894Z" fill="white"/>
<path d="M92.2472 1.93733H104.968V5.34338H96.1177V9.1881H104.194V12.5684H96.1177V16.5937H105.123V19.9998H92.2472V1.93733ZM108.198 1.93733H116.094C118.072 1.93733 119.603 2.32438 120.687 3.09848C121.788 3.85538 122.338 4.99074 122.338 6.50454C122.338 8.51721 121.427 9.83319 119.603 10.4525C120.601 10.7449 121.427 11.261 122.08 12.0007C122.734 12.7232 123.061 13.7037 123.061 14.9423C123.061 15.9228 122.846 16.7657 122.416 17.471C121.986 18.1591 121.401 18.6752 120.661 19.0192C119.939 19.3633 119.19 19.6127 118.416 19.7675C117.659 19.9223 116.842 19.9998 115.965 19.9998H108.198V1.93733ZM119.19 14.5294C119.19 12.9812 118.167 12.2071 116.12 12.2071H112.043V16.8517H115.913C116.928 16.8517 117.728 16.6883 118.313 16.3615C118.898 16.0346 119.19 15.4239 119.19 14.5294ZM118.494 7.17543C118.494 5.79925 117.582 5.11115 115.758 5.11115H112.068V9.23971H115.965C116.722 9.23971 117.332 9.06768 117.797 8.72364C118.261 8.36239 118.494 7.84632 118.494 7.17543Z" fill="#5DB77D"/>
<path d="M87.0867 2.16675L82.7861 16.6112L78.8611 2.16675H75.4551L71.5587 15.9207L67.972 2.16675H64.1503L69.3654 20.3667H73.5714L77.1581 7.96475L80.7448 20.3667H84.9507L90.3121 2.16675H87.0867Z" fill="#5DB77D"/>
<path d="M78.8441 2.16699H75.4552L71.5589 15.921L70.2429 20.367H73.5716L78.8441 2.16699Z" fill="white"/>
<path d="M90.3121 2.16699H86.9232L83.0269 15.921L81.7109 20.367H85.0396L90.3121 2.16699Z" fill="white"/>
</svg>
