<svg width="24" height="24" viewBox="0 0 24 24" fill="none" xmlns="http://www.w3.org/2000/svg">
<path d="M12 21.75C17.3848 21.75 21.75 17.3848 21.75 12C21.75 6.61523 17.3848 2.25 12 2.25C6.61523 2.25 2.25 6.61523 2.25 12C2.25 17.3848 6.61523 21.75 12 21.75Z" fill="#717276"/>
<path fill-rule="evenodd" clip-rule="evenodd" d="M6.66331 11.8972C9.50565 10.6589 11.401 9.84245 12.3493 9.448C15.057 8.32178 15.6196 8.12615 15.9863 8.1197C16.067 8.11827 16.2473 8.13826 16.3641 8.23305C16.4628 8.31308 16.4899 8.42121 16.5029 8.49708C16.5159 8.57298 16.5321 8.74584 16.5192 8.88092C16.3725 10.4226 15.7376 14.1639 15.4146 15.8907C15.2779 16.6213 15.0088 16.8663 14.7483 16.8903C14.1821 16.9424 13.7521 16.5161 13.2037 16.1566C12.3456 15.5941 11.8608 15.2439 11.0278 14.695C10.0652 14.0607 10.6892 13.712 11.2378 13.1422C11.3814 12.9931 13.8761 10.724 13.9244 10.5181C13.9304 10.4924 13.936 10.3964 13.879 10.3457C13.822 10.2951 13.7379 10.3124 13.6772 10.3262C13.5911 10.3457 12.2202 11.2518 9.56456 13.0445C9.17544 13.3117 8.823 13.4419 8.50721 13.435C8.15908 13.4275 7.48943 13.2382 6.99162 13.0764C6.38101 12.8779 5.89572 12.7729 5.93799 12.4359C5.95999 12.2603 6.20177 12.0808 6.66331 11.8972Z" fill="#13141B"/>
</svg>
