<svg width="24" height="24" viewBox="0 0 24 24" fill="none" xmlns="http://www.w3.org/2000/svg">
<path d="M2.62509 17.625C0.525095 15.825 1.75009 8.12499 2.62509 4.49999C3.12506 3.87499 4.35 2.55 5.25 2.25C6.375 1.875 9.375 1.49999 11.25 1.12499C12.75 0.824989 16.875 1.74999 18.75 2.24999L21.375 4.87499L22.5 8.99999L21.75 14.25L19.5 18.75L11.25 19.875L10.5 19.5L7.125 23.625L6.75 23.25L6.375 20.25V19.5C6.00003 19.625 4.72509 19.425 2.62509 17.625Z" fill="#13141B"/>
<path d="M11.3985 0.00373641C9.47251 0.0269864 5.33176 0.343486 3.01576 2.46824C1.29301 4.17524 0.691513 6.69899 0.621013 9.81974C0.562513 12.9292 0.492013 18.7687 6.12076 20.3587V22.7805C6.12076 22.7805 6.08551 23.7495 6.72601 23.9482C7.51501 24.198 7.96426 23.4525 8.71426 22.6515L10.113 21.0697C13.9643 21.39 16.914 20.652 17.2538 20.5425C18.0353 20.2927 22.437 19.7302 23.1563 13.89C23.8943 7.85849 22.797 4.05824 20.8163 2.33924H20.8043C20.2065 1.78874 17.8043 0.0382364 12.4373 0.0187364C12.4373 0.0187364 12.039 -0.00826359 11.3985 0.00298641V0.00373641ZM11.4645 1.69949C12.0113 1.69574 12.3435 1.71899 12.3435 1.71899C16.8863 1.73099 19.0545 3.09824 19.566 3.55874C21.234 4.98824 22.0935 8.41424 21.4643 13.4497C20.8665 18.3322 17.2965 18.6412 16.6358 18.852C16.3545 18.942 13.7565 19.5825 10.4835 19.3717C10.4835 19.3717 8.04601 22.3132 7.28401 23.0707C7.16326 23.2035 7.02226 23.2425 6.93226 23.223C6.80326 23.1915 6.76426 23.0317 6.77176 22.8127L6.79501 18.7935C2.02126 17.4735 2.30251 12.4927 2.35351 9.89099C2.41201 7.28924 2.90026 5.16074 4.35376 3.71924C6.31051 1.94999 9.82651 1.71149 11.463 1.69949H11.4645ZM11.8245 4.30049C11.7852 4.30009 11.7462 4.30747 11.7098 4.32221C11.6734 4.33695 11.6403 4.35876 11.6123 4.38636C11.5843 4.41397 11.5621 4.44684 11.5469 4.48308C11.5317 4.51931 11.5239 4.55819 11.5238 4.59749C11.5238 4.76549 11.6603 4.89824 11.8245 4.89824C12.5681 4.88409 13.3072 5.01731 13.9991 5.29021C14.691 5.5631 15.322 5.97027 15.8558 6.48824C16.9455 7.54649 17.4765 8.96849 17.4968 10.8277C17.4968 10.992 17.6295 11.1285 17.7975 11.1285V11.1165C17.8767 11.1167 17.9527 11.0856 18.0091 11.0299C18.0654 10.9743 18.0975 10.8987 18.0983 10.8195C18.1347 9.94435 17.9928 9.07095 17.6811 8.25236C17.3695 7.43378 16.8947 6.68711 16.2855 6.05774C15.0983 4.89749 13.5938 4.29974 11.8245 4.29974V4.30049ZM7.87126 4.98824C7.65897 4.95722 7.44246 4.99983 7.25776 5.10899H7.24201C6.81321 5.36034 6.42692 5.67803 6.09751 6.05024C5.82376 6.36674 5.67526 6.68699 5.63626 6.99524C5.61301 7.17899 5.62876 7.36274 5.68351 7.53824L5.70301 7.55024C6.01126 8.45624 6.41401 9.32774 6.90601 10.1482C7.53978 11.301 8.31973 12.367 9.22651 13.32L9.25351 13.359L9.29626 13.3905L9.32326 13.422L9.35476 13.449C10.3112 14.3584 11.3798 15.142 12.5348 15.7807C13.8548 16.4992 14.6558 16.839 15.1365 16.98V16.9875C15.2775 17.0302 15.4058 17.0497 15.5348 17.0497C15.9445 17.0197 16.3323 16.8534 16.6365 16.5772C17.007 16.2477 17.3212 15.8599 17.5665 15.429V15.4215C17.7968 14.988 17.7188 14.5777 17.3865 14.3002C16.7211 13.7186 16.0016 13.202 15.2378 12.7575C14.7263 12.48 14.2065 12.648 13.9958 12.9292L13.5465 13.4955C13.3163 13.7767 12.8978 13.7377 12.8978 13.7377L12.8858 13.7452C9.76501 12.948 8.93251 9.78824 8.93251 9.78824C8.93251 9.78824 8.89351 9.35849 9.18226 9.13949L9.74476 8.68649C10.014 8.46749 10.2015 7.94849 9.91276 7.43624C9.47131 6.67135 8.95584 5.95165 8.37376 5.28749C8.24651 5.13091 8.06799 5.02438 7.86976 4.98674L7.87126 4.98824ZM12.3435 5.87924C11.9453 5.87924 11.9453 6.48074 12.3473 6.48074C12.8425 6.48877 13.3312 6.59431 13.7856 6.79134C14.24 6.98836 14.6512 7.273 14.9955 7.62899C15.3096 7.97549 15.551 8.38152 15.7053 8.82302C15.8597 9.26451 15.9238 9.73249 15.894 10.1992C15.8954 10.2782 15.9276 10.3535 15.9838 10.409C16.0401 10.4646 16.1158 10.4959 16.1948 10.4962L16.2068 10.512C16.2863 10.5114 16.3625 10.4795 16.4188 10.4232C16.475 10.367 16.5069 10.2908 16.5075 10.2112C16.5345 9.01949 16.164 8.01974 15.4373 7.21874C14.7068 6.41774 13.6875 5.96849 12.3863 5.87924H12.3435ZM12.8363 7.49624C12.426 7.48424 12.4103 8.09774 12.8168 8.10974C13.8053 8.16074 14.2853 8.66024 14.3483 9.68774C14.3496 9.76573 14.3815 9.84009 14.437 9.8949C14.4925 9.94971 14.5673 9.98061 14.6453 9.98099H14.6573C14.6974 9.97927 14.7367 9.96958 14.773 9.95248C14.8094 9.93538 14.8419 9.91122 14.8688 9.88141C14.8957 9.8516 14.9163 9.81673 14.9296 9.77884C14.9429 9.74095 14.9484 9.7008 14.946 9.66074C14.8755 8.32124 14.145 7.56674 12.8483 7.49699H12.8363V7.49624Z" fill="#717276"/>
</svg>
