<svg width="24" height="24" viewBox="0 0 24 24" fill="none" xmlns="http://www.w3.org/2000/svg">
<path d="M1.5 11.58C1.5 6.82823 1.5 4.45236 2.97618 2.97618C4.45236 1.5 6.82823 1.5 11.58 1.5H12.42C17.1718 1.5 19.5476 1.5 21.0238 2.97618C22.5 4.45236 22.5 6.82823 22.5 11.58V12.42C22.5 17.1718 22.5 19.5476 21.0238 21.0238C19.5476 22.5 17.1718 22.5 12.42 22.5H11.58C6.82823 22.5 4.45236 22.5 2.97618 21.0238C1.5 19.5476 1.5 17.1718 1.5 12.42V11.58Z" fill="#717276"/>
<path d="M12.674 16.6287C7.88771 16.6287 5.15776 13.3475 5.04401 7.88745H7.44151C7.52026 11.895 9.28771 13.5925 10.6877 13.9425V7.88745H12.9453V11.3437C14.3278 11.195 15.7801 9.61995 16.2701 7.88745H18.5277C18.1514 10.0225 16.5764 11.5975 15.4564 12.245C16.5764 12.77 18.3703 14.1437 19.0528 16.6287H16.5677C16.0339 14.9662 14.7041 13.68 12.9453 13.505V16.6287H12.674Z" fill="#13141B"/>
</svg>
